<?xml version="1.0" encoding="utf-8" standalone="no"?>
<!DOCTYPE svg PUBLIC "-//W3C//DTD SVG 1.1//EN"
  "http://www.w3.org/Graphics/SVG/1.1/DTD/svg11.dtd">
<svg xmlns:xlink="http://www.w3.org/1999/xlink" width="460.8pt" height="345.6pt" viewBox="0 0 460.8 345.6" xmlns="http://www.w3.org/2000/svg" version="1.1">
 <metadata>
  <rdf:RDF xmlns:dc="http://purl.org/dc/elements/1.1/" xmlns:cc="http://creativecommons.org/ns#" xmlns:rdf="http://www.w3.org/1999/02/22-rdf-syntax-ns#">
   <cc:Work>
    <dc:type rdf:resource="http://purl.org/dc/dcmitype/StillImage"/>
    <dc:date>2026-06-14T19:08:23.580415</dc:date>
    <dc:format>image/svg+xml</dc:format>
    <dc:creator>
     <cc:Agent>
      <dc:title>Matplotlib v3.10.8, https://matplotlib.org/</dc:title>
     </cc:Agent>
    </dc:creator>
   </cc:Work>
  </rdf:RDF>
 </metadata>
 <defs>
  <style type="text/css">*{stroke-linejoin: round; stroke-linecap: butt}</style>
 </defs>
 <g id="figure_1">
  <g id="patch_1">
   <path d="M 0 345.6 
L 460.8 345.6 
L 460.8 0 
L 0 0 
z
" style="fill: #ffffff"/>
  </g>
  <g id="axes_1">
   <g id="patch_2">
    <path d="M 57.6 307.584 
L 414.72 307.584 
L 414.72 41.472 
L 57.6 41.472 
z
" style="fill: #ffffff"/>
   </g>
   <g id="matplotlib.axis_1">
    <g id="xtick_1">
     <g id="line2d_1">
      <defs>
       <path id="m54704bf609" d="M 0 0 
L 0 3.5 
" style="stroke: #000000; stroke-width: 0.8"/>
      </defs>
      <g>
       <use xlink:href="#m54704bf609" x="73.832727" y="307.584" style="stroke: #000000; stroke-width: 0.8"/>
      </g>
     </g>
     <g id="text_1">
      <!-- 0 -->
      <g transform="translate(70.651477 322.182437) scale(0.1 -0.1)">
       <defs>
        <path id="DejaVuSans-30" d="M 2034 4250 
Q 1547 4250 1301 3770 
Q 1056 3291 1056 2328 
Q 1056 1369 1301 889 
Q 1547 409 2034 409 
Q 2525 409 2770 889 
Q 3016 1369 3016 2328 
Q 3016 3291 2770 3770 
Q 2525 4250 2034 4250 
z
M 2034 4750 
Q 2819 4750 3233 4129 
Q 3647 3509 3647 2328 
Q 3647 1150 3233 529 
Q 2819 -91 2034 -91 
Q 1250 -91 836 529 
Q 422 1150 422 2328 
Q 422 3509 836 4129 
Q 1250 4750 2034 4750 
z
" transform="scale(0.015625)"/>
       </defs>
       <use xlink:href="#DejaVuSans-30"/>
      </g>
     </g>
    </g>
    <g id="xtick_2">
     <g id="line2d_2">
      <g>
       <use xlink:href="#m54704bf609" x="114.414545" y="307.584" style="stroke: #000000; stroke-width: 0.8"/>
      </g>
     </g>
     <g id="text_2">
      <!-- 250 -->
      <g transform="translate(104.870795 322.182437) scale(0.1 -0.1)">
       <defs>
        <path id="DejaVuSans-32" d="M 1228 531 
L 3431 531 
L 3431 0 
L 469 0 
L 469 531 
Q 828 903 1448 1529 
Q 2069 2156 2228 2338 
Q 2531 2678 2651 2914 
Q 2772 3150 2772 3378 
Q 2772 3750 2511 3984 
Q 2250 4219 1831 4219 
Q 1534 4219 1204 4116 
Q 875 4013 500 3803 
L 500 4441 
Q 881 4594 1212 4672 
Q 1544 4750 1819 4750 
Q 2544 4750 2975 4387 
Q 3406 4025 3406 3419 
Q 3406 3131 3298 2873 
Q 3191 2616 2906 2266 
Q 2828 2175 2409 1742 
Q 1991 1309 1228 531 
z
" transform="scale(0.015625)"/>
        <path id="DejaVuSans-35" d="M 691 4666 
L 3169 4666 
L 3169 4134 
L 1269 4134 
L 1269 2991 
Q 1406 3038 1543 3061 
Q 1681 3084 1819 3084 
Q 2600 3084 3056 2656 
Q 3513 2228 3513 1497 
Q 3513 744 3044 326 
Q 2575 -91 1722 -91 
Q 1428 -91 1123 -41 
Q 819 9 494 109 
L 494 744 
Q 775 591 1075 516 
Q 1375 441 1709 441 
Q 2250 441 2565 725 
Q 2881 1009 2881 1497 
Q 2881 1984 2565 2268 
Q 2250 2553 1709 2553 
Q 1456 2553 1204 2497 
Q 953 2441 691 2322 
L 691 4666 
z
" transform="scale(0.015625)"/>
       </defs>
       <use xlink:href="#DejaVuSans-32"/>
       <use xlink:href="#DejaVuSans-35" transform="translate(63.623047 0)"/>
       <use xlink:href="#DejaVuSans-30" transform="translate(127.246094 0)"/>
      </g>
     </g>
    </g>
    <g id="xtick_3">
     <g id="line2d_3">
      <g>
       <use xlink:href="#m54704bf609" x="154.996364" y="307.584" style="stroke: #000000; stroke-width: 0.8"/>
      </g>
     </g>
     <g id="text_3">
      <!-- 500 -->
      <g transform="translate(145.452614 322.182437) scale(0.1 -0.1)">
       <use xlink:href="#DejaVuSans-35"/>
       <use xlink:href="#DejaVuSans-30" transform="translate(63.623047 0)"/>
       <use xlink:href="#DejaVuSans-30" transform="translate(127.246094 0)"/>
      </g>
     </g>
    </g>
    <g id="xtick_4">
     <g id="line2d_4">
      <g>
       <use xlink:href="#m54704bf609" x="195.578182" y="307.584" style="stroke: #000000; stroke-width: 0.8"/>
      </g>
     </g>
     <g id="text_4">
      <!-- 750 -->
      <g transform="translate(186.034432 322.182437) scale(0.1 -0.1)">
       <defs>
        <path id="DejaVuSans-37" d="M 525 4666 
L 3525 4666 
L 3525 4397 
L 1831 0 
L 1172 0 
L 2766 4134 
L 525 4134 
L 525 4666 
z
" transform="scale(0.015625)"/>
       </defs>
       <use xlink:href="#DejaVuSans-37"/>
       <use xlink:href="#DejaVuSans-35" transform="translate(63.623047 0)"/>
       <use xlink:href="#DejaVuSans-30" transform="translate(127.246094 0)"/>
      </g>
     </g>
    </g>
    <g id="xtick_5">
     <g id="line2d_5">
      <g>
       <use xlink:href="#m54704bf609" x="236.16" y="307.584" style="stroke: #000000; stroke-width: 0.8"/>
      </g>
     </g>
     <g id="text_5">
      <!-- 1000 -->
      <g transform="translate(223.435 322.182437) scale(0.1 -0.1)">
       <defs>
        <path id="DejaVuSans-31" d="M 794 531 
L 1825 531 
L 1825 4091 
L 703 3866 
L 703 4441 
L 1819 4666 
L 2450 4666 
L 2450 531 
L 3481 531 
L 3481 0 
L 794 0 
L 794 531 
z
" transform="scale(0.015625)"/>
       </defs>
       <use xlink:href="#DejaVuSans-31"/>
       <use xlink:href="#DejaVuSans-30" transform="translate(63.623047 0)"/>
       <use xlink:href="#DejaVuSans-30" transform="translate(127.246094 0)"/>
       <use xlink:href="#DejaVuSans-30" transform="translate(190.869141 0)"/>
      </g>
     </g>
    </g>
    <g id="xtick_6">
     <g id="line2d_6">
      <g>
       <use xlink:href="#m54704bf609" x="276.741818" y="307.584" style="stroke: #000000; stroke-width: 0.8"/>
      </g>
     </g>
     <g id="text_6">
      <!-- 1250 -->
      <g transform="translate(264.016818 322.182437) scale(0.1 -0.1)">
       <use xlink:href="#DejaVuSans-31"/>
       <use xlink:href="#DejaVuSans-32" transform="translate(63.623047 0)"/>
       <use xlink:href="#DejaVuSans-35" transform="translate(127.246094 0)"/>
       <use xlink:href="#DejaVuSans-30" transform="translate(190.869141 0)"/>
      </g>
     </g>
    </g>
    <g id="xtick_7">
     <g id="line2d_7">
      <g>
       <use xlink:href="#m54704bf609" x="317.323636" y="307.584" style="stroke: #000000; stroke-width: 0.8"/>
      </g>
     </g>
     <g id="text_7">
      <!-- 1500 -->
      <g transform="translate(304.598636 322.182437) scale(0.1 -0.1)">
       <use xlink:href="#DejaVuSans-31"/>
       <use xlink:href="#DejaVuSans-35" transform="translate(63.623047 0)"/>
       <use xlink:href="#DejaVuSans-30" transform="translate(127.246094 0)"/>
       <use xlink:href="#DejaVuSans-30" transform="translate(190.869141 0)"/>
      </g>
     </g>
    </g>
    <g id="xtick_8">
     <g id="line2d_8">
      <g>
       <use xlink:href="#m54704bf609" x="357.905455" y="307.584" style="stroke: #000000; stroke-width: 0.8"/>
      </g>
     </g>
     <g id="text_8">
      <!-- 1750 -->
      <g transform="translate(345.180455 322.182437) scale(0.1 -0.1)">
       <use xlink:href="#DejaVuSans-31"/>
       <use xlink:href="#DejaVuSans-37" transform="translate(63.623047 0)"/>
       <use xlink:href="#DejaVuSans-35" transform="translate(127.246094 0)"/>
       <use xlink:href="#DejaVuSans-30" transform="translate(190.869141 0)"/>
      </g>
     </g>
    </g>
    <g id="xtick_9">
     <g id="line2d_9">
      <g>
       <use xlink:href="#m54704bf609" x="398.487273" y="307.584" style="stroke: #000000; stroke-width: 0.8"/>
      </g>
     </g>
     <g id="text_9">
      <!-- 2000 -->
      <g transform="translate(385.762273 322.182437) scale(0.1 -0.1)">
       <use xlink:href="#DejaVuSans-32"/>
       <use xlink:href="#DejaVuSans-30" transform="translate(63.623047 0)"/>
       <use xlink:href="#DejaVuSans-30" transform="translate(127.246094 0)"/>
       <use xlink:href="#DejaVuSans-30" transform="translate(190.869141 0)"/>
      </g>
     </g>
    </g>
    <g id="text_10">
     <!-- Epochs -->
     <g transform="translate(218.244375 335.860562) scale(0.1 -0.1)">
      <defs>
       <path id="DejaVuSans-45" d="M 628 4666 
L 3578 4666 
L 3578 4134 
L 1259 4134 
L 1259 2753 
L 3481 2753 
L 3481 2222 
L 1259 2222 
L 1259 531 
L 3634 531 
L 3634 0 
L 628 0 
L 628 4666 
z
" transform="scale(0.015625)"/>
       <path id="DejaVuSans-70" d="M 1159 525 
L 1159 -1331 
L 581 -1331 
L 581 3500 
L 1159 3500 
L 1159 2969 
Q 1341 3281 1617 3432 
Q 1894 3584 2278 3584 
Q 2916 3584 3314 3078 
Q 3713 2572 3713 1747 
Q 3713 922 3314 415 
Q 2916 -91 2278 -91 
Q 1894 -91 1617 61 
Q 1341 213 1159 525 
z
M 3116 1747 
Q 3116 2381 2855 2742 
Q 2594 3103 2138 3103 
Q 1681 3103 1420 2742 
Q 1159 2381 1159 1747 
Q 1159 1113 1420 752 
Q 1681 391 2138 391 
Q 2594 391 2855 752 
Q 3116 1113 3116 1747 
z
" transform="scale(0.015625)"/>
       <path id="DejaVuSans-6f" d="M 1959 3097 
Q 1497 3097 1228 2736 
Q 959 2375 959 1747 
Q 959 1119 1226 758 
Q 1494 397 1959 397 
Q 2419 397 2687 759 
Q 2956 1122 2956 1747 
Q 2956 2369 2687 2733 
Q 2419 3097 1959 3097 
z
M 1959 3584 
Q 2709 3584 3137 3096 
Q 3566 2609 3566 1747 
Q 3566 888 3137 398 
Q 2709 -91 1959 -91 
Q 1206 -91 779 398 
Q 353 888 353 1747 
Q 353 2609 779 3096 
Q 1206 3584 1959 3584 
z
" transform="scale(0.015625)"/>
       <path id="DejaVuSans-63" d="M 3122 3366 
L 3122 2828 
Q 2878 2963 2633 3030 
Q 2388 3097 2138 3097 
Q 1578 3097 1268 2742 
Q 959 2388 959 1747 
Q 959 1106 1268 751 
Q 1578 397 2138 397 
Q 2388 397 2633 464 
Q 2878 531 3122 666 
L 3122 134 
Q 2881 22 2623 -34 
Q 2366 -91 2075 -91 
Q 1284 -91 818 406 
Q 353 903 353 1747 
Q 353 2603 823 3093 
Q 1294 3584 2113 3584 
Q 2378 3584 2631 3529 
Q 2884 3475 3122 3366 
z
" transform="scale(0.015625)"/>
       <path id="DejaVuSans-68" d="M 3513 2113 
L 3513 0 
L 2938 0 
L 2938 2094 
Q 2938 2591 2744 2837 
Q 2550 3084 2163 3084 
Q 1697 3084 1428 2787 
Q 1159 2491 1159 1978 
L 1159 0 
L 581 0 
L 581 4863 
L 1159 4863 
L 1159 2956 
Q 1366 3272 1645 3428 
Q 1925 3584 2291 3584 
Q 2894 3584 3203 3211 
Q 3513 2838 3513 2113 
z
" transform="scale(0.015625)"/>
       <path id="DejaVuSans-73" d="M 2834 3397 
L 2834 2853 
Q 2591 2978 2328 3040 
Q 2066 3103 1784 3103 
Q 1356 3103 1142 2972 
Q 928 2841 928 2578 
Q 928 2378 1081 2264 
Q 1234 2150 1697 2047 
L 1894 2003 
Q 2506 1872 2764 1633 
Q 3022 1394 3022 966 
Q 3022 478 2636 193 
Q 2250 -91 1575 -91 
Q 1294 -91 989 -36 
Q 684 19 347 128 
L 347 722 
Q 666 556 975 473 
Q 1284 391 1588 391 
Q 1994 391 2212 530 
Q 2431 669 2431 922 
Q 2431 1156 2273 1281 
Q 2116 1406 1581 1522 
L 1381 1569 
Q 847 1681 609 1914 
Q 372 2147 372 2553 
Q 372 3047 722 3315 
Q 1072 3584 1716 3584 
Q 2034 3584 2315 3537 
Q 2597 3491 2834 3397 
z
" transform="scale(0.015625)"/>
      </defs>
      <use xlink:href="#DejaVuSans-45"/>
      <use xlink:href="#DejaVuSans-70" transform="translate(63.183594 0)"/>
      <use xlink:href="#DejaVuSans-6f" transform="translate(126.660156 0)"/>
      <use xlink:href="#DejaVuSans-63" transform="translate(187.841797 0)"/>
      <use xlink:href="#DejaVuSans-68" transform="translate(242.822266 0)"/>
      <use xlink:href="#DejaVuSans-73" transform="translate(306.201172 0)"/>
     </g>
    </g>
   </g>
   <g id="matplotlib.axis_2">
    <g id="ytick_1">
     <g id="line2d_10">
      <defs>
       <path id="mb6697bfab3" d="M 0 0 
L -3.5 0 
" style="stroke: #000000; stroke-width: 0.8"/>
      </defs>
      <g>
       <use xlink:href="#mb6697bfab3" x="57.6" y="256.933324" style="stroke: #000000; stroke-width: 0.8"/>
      </g>
     </g>
     <g id="text_11">
      <!-- 20 -->
      <g transform="translate(37.875 260.732543) scale(0.1 -0.1)">
       <use xlink:href="#DejaVuSans-32"/>
       <use xlink:href="#DejaVuSans-30" transform="translate(63.623047 0)"/>
      </g>
     </g>
    </g>
    <g id="ytick_2">
     <g id="line2d_11">
      <g>
       <use xlink:href="#mb6697bfab3" x="57.6" y="206.091993" style="stroke: #000000; stroke-width: 0.8"/>
      </g>
     </g>
     <g id="text_12">
      <!-- 40 -->
      <g transform="translate(37.875 209.891212) scale(0.1 -0.1)">
       <defs>
        <path id="DejaVuSans-34" d="M 2419 4116 
L 825 1625 
L 2419 1625 
L 2419 4116 
z
M 2253 4666 
L 3047 4666 
L 3047 1625 
L 3713 1625 
L 3713 1100 
L 3047 1100 
L 3047 0 
L 2419 0 
L 2419 1100 
L 313 1100 
L 313 1709 
L 2253 4666 
z
" transform="scale(0.015625)"/>
       </defs>
       <use xlink:href="#DejaVuSans-34"/>
       <use xlink:href="#DejaVuSans-30" transform="translate(63.623047 0)"/>
      </g>
     </g>
    </g>
    <g id="ytick_3">
     <g id="line2d_12">
      <g>
       <use xlink:href="#mb6697bfab3" x="57.6" y="155.250662" style="stroke: #000000; stroke-width: 0.8"/>
      </g>
     </g>
     <g id="text_13">
      <!-- 60 -->
      <g transform="translate(37.875 159.049881) scale(0.1 -0.1)">
       <defs>
        <path id="DejaVuSans-36" d="M 2113 2584 
Q 1688 2584 1439 2293 
Q 1191 2003 1191 1497 
Q 1191 994 1439 701 
Q 1688 409 2113 409 
Q 2538 409 2786 701 
Q 3034 994 3034 1497 
Q 3034 2003 2786 2293 
Q 2538 2584 2113 2584 
z
M 3366 4563 
L 3366 3988 
Q 3128 4100 2886 4159 
Q 2644 4219 2406 4219 
Q 1781 4219 1451 3797 
Q 1122 3375 1075 2522 
Q 1259 2794 1537 2939 
Q 1816 3084 2150 3084 
Q 2853 3084 3261 2657 
Q 3669 2231 3669 1497 
Q 3669 778 3244 343 
Q 2819 -91 2113 -91 
Q 1303 -91 875 529 
Q 447 1150 447 2328 
Q 447 3434 972 4092 
Q 1497 4750 2381 4750 
Q 2619 4750 2861 4703 
Q 3103 4656 3366 4563 
z
" transform="scale(0.015625)"/>
       </defs>
       <use xlink:href="#DejaVuSans-36"/>
       <use xlink:href="#DejaVuSans-30" transform="translate(63.623047 0)"/>
      </g>
     </g>
    </g>
    <g id="ytick_4">
     <g id="line2d_13">
      <g>
       <use xlink:href="#mb6697bfab3" x="57.6" y="104.409331" style="stroke: #000000; stroke-width: 0.8"/>
      </g>
     </g>
     <g id="text_14">
      <!-- 80 -->
      <g transform="translate(37.875 108.20855) scale(0.1 -0.1)">
       <defs>
        <path id="DejaVuSans-38" d="M 2034 2216 
Q 1584 2216 1326 1975 
Q 1069 1734 1069 1313 
Q 1069 891 1326 650 
Q 1584 409 2034 409 
Q 2484 409 2743 651 
Q 3003 894 3003 1313 
Q 3003 1734 2745 1975 
Q 2488 2216 2034 2216 
z
M 1403 2484 
Q 997 2584 770 2862 
Q 544 3141 544 3541 
Q 544 4100 942 4425 
Q 1341 4750 2034 4750 
Q 2731 4750 3128 4425 
Q 3525 4100 3525 3541 
Q 3525 3141 3298 2862 
Q 3072 2584 2669 2484 
Q 3125 2378 3379 2068 
Q 3634 1759 3634 1313 
Q 3634 634 3220 271 
Q 2806 -91 2034 -91 
Q 1263 -91 848 271 
Q 434 634 434 1313 
Q 434 1759 690 2068 
Q 947 2378 1403 2484 
z
M 1172 3481 
Q 1172 3119 1398 2916 
Q 1625 2713 2034 2713 
Q 2441 2713 2670 2916 
Q 2900 3119 2900 3481 
Q 2900 3844 2670 4047 
Q 2441 4250 2034 4250 
Q 1625 4250 1398 4047 
Q 1172 3844 1172 3481 
z
" transform="scale(0.015625)"/>
       </defs>
       <use xlink:href="#DejaVuSans-38"/>
       <use xlink:href="#DejaVuSans-30" transform="translate(63.623047 0)"/>
      </g>
     </g>
    </g>
    <g id="ytick_5">
     <g id="line2d_14">
      <g>
       <use xlink:href="#mb6697bfab3" x="57.6" y="53.568" style="stroke: #000000; stroke-width: 0.8"/>
      </g>
     </g>
     <g id="text_15">
      <!-- 100 -->
      <g transform="translate(31.5125 57.367219) scale(0.1 -0.1)">
       <use xlink:href="#DejaVuSans-31"/>
       <use xlink:href="#DejaVuSans-30" transform="translate(63.623047 0)"/>
       <use xlink:href="#DejaVuSans-30" transform="translate(127.246094 0)"/>
      </g>
     </g>
    </g>
    <g id="text_16">
     <!-- Accuracy within 5% (%) -->
     <g transform="translate(25.432812 233.872531) rotate(-90) scale(0.1 -0.1)">
      <defs>
       <path id="DejaVuSans-41" d="M 2188 4044 
L 1331 1722 
L 3047 1722 
L 2188 4044 
z
M 1831 4666 
L 2547 4666 
L 4325 0 
L 3669 0 
L 3244 1197 
L 1141 1197 
L 716 0 
L 50 0 
L 1831 4666 
z
" transform="scale(0.015625)"/>
       <path id="DejaVuSans-75" d="M 544 1381 
L 544 3500 
L 1119 3500 
L 1119 1403 
Q 1119 906 1312 657 
Q 1506 409 1894 409 
Q 2359 409 2629 706 
Q 2900 1003 2900 1516 
L 2900 3500 
L 3475 3500 
L 3475 0 
L 2900 0 
L 2900 538 
Q 2691 219 2414 64 
Q 2138 -91 1772 -91 
Q 1169 -91 856 284 
Q 544 659 544 1381 
z
M 1991 3584 
L 1991 3584 
z
" transform="scale(0.015625)"/>
       <path id="DejaVuSans-72" d="M 2631 2963 
Q 2534 3019 2420 3045 
Q 2306 3072 2169 3072 
Q 1681 3072 1420 2755 
Q 1159 2438 1159 1844 
L 1159 0 
L 581 0 
L 581 3500 
L 1159 3500 
L 1159 2956 
Q 1341 3275 1631 3429 
Q 1922 3584 2338 3584 
Q 2397 3584 2469 3576 
Q 2541 3569 2628 3553 
L 2631 2963 
z
" transform="scale(0.015625)"/>
       <path id="DejaVuSans-61" d="M 2194 1759 
Q 1497 1759 1228 1600 
Q 959 1441 959 1056 
Q 959 750 1161 570 
Q 1363 391 1709 391 
Q 2188 391 2477 730 
Q 2766 1069 2766 1631 
L 2766 1759 
L 2194 1759 
z
M 3341 1997 
L 3341 0 
L 2766 0 
L 2766 531 
Q 2569 213 2275 61 
Q 1981 -91 1556 -91 
Q 1019 -91 701 211 
Q 384 513 384 1019 
Q 384 1609 779 1909 
Q 1175 2209 1959 2209 
L 2766 2209 
L 2766 2266 
Q 2766 2663 2505 2880 
Q 2244 3097 1772 3097 
Q 1472 3097 1187 3025 
Q 903 2953 641 2809 
L 641 3341 
Q 956 3463 1253 3523 
Q 1550 3584 1831 3584 
Q 2591 3584 2966 3190 
Q 3341 2797 3341 1997 
z
" transform="scale(0.015625)"/>
       <path id="DejaVuSans-79" d="M 2059 -325 
Q 1816 -950 1584 -1140 
Q 1353 -1331 966 -1331 
L 506 -1331 
L 506 -850 
L 844 -850 
Q 1081 -850 1212 -737 
Q 1344 -625 1503 -206 
L 1606 56 
L 191 3500 
L 800 3500 
L 1894 763 
L 2988 3500 
L 3597 3500 
L 2059 -325 
z
" transform="scale(0.015625)"/>
       <path id="DejaVuSans-20" transform="scale(0.015625)"/>
       <path id="DejaVuSans-77" d="M 269 3500 
L 844 3500 
L 1563 769 
L 2278 3500 
L 2956 3500 
L 3675 769 
L 4391 3500 
L 4966 3500 
L 4050 0 
L 3372 0 
L 2619 2869 
L 1863 0 
L 1184 0 
L 269 3500 
z
" transform="scale(0.015625)"/>
       <path id="DejaVuSans-69" d="M 603 3500 
L 1178 3500 
L 1178 0 
L 603 0 
L 603 3500 
z
M 603 4863 
L 1178 4863 
L 1178 4134 
L 603 4134 
L 603 4863 
z
" transform="scale(0.015625)"/>
       <path id="DejaVuSans-74" d="M 1172 4494 
L 1172 3500 
L 2356 3500 
L 2356 3053 
L 1172 3053 
L 1172 1153 
Q 1172 725 1289 603 
Q 1406 481 1766 481 
L 2356 481 
L 2356 0 
L 1766 0 
Q 1100 0 847 248 
Q 594 497 594 1153 
L 594 3053 
L 172 3053 
L 172 3500 
L 594 3500 
L 594 4494 
L 1172 4494 
z
" transform="scale(0.015625)"/>
       <path id="DejaVuSans-6e" d="M 3513 2113 
L 3513 0 
L 2938 0 
L 2938 2094 
Q 2938 2591 2744 2837 
Q 2550 3084 2163 3084 
Q 1697 3084 1428 2787 
Q 1159 2491 1159 1978 
L 1159 0 
L 581 0 
L 581 3500 
L 1159 3500 
L 1159 2956 
Q 1366 3272 1645 3428 
Q 1925 3584 2291 3584 
Q 2894 3584 3203 3211 
Q 3513 2838 3513 2113 
z
" transform="scale(0.015625)"/>
       <path id="DejaVuSans-25" d="M 4653 2053 
Q 4381 2053 4226 1822 
Q 4072 1591 4072 1178 
Q 4072 772 4226 539 
Q 4381 306 4653 306 
Q 4919 306 5073 539 
Q 5228 772 5228 1178 
Q 5228 1588 5073 1820 
Q 4919 2053 4653 2053 
z
M 4653 2450 
Q 5147 2450 5437 2106 
Q 5728 1763 5728 1178 
Q 5728 594 5436 251 
Q 5144 -91 4653 -91 
Q 4153 -91 3862 251 
Q 3572 594 3572 1178 
Q 3572 1766 3864 2108 
Q 4156 2450 4653 2450 
z
M 1428 4353 
Q 1159 4353 1004 4120 
Q 850 3888 850 3481 
Q 850 3069 1003 2837 
Q 1156 2606 1428 2606 
Q 1700 2606 1854 2837 
Q 2009 3069 2009 3481 
Q 2009 3884 1853 4118 
Q 1697 4353 1428 4353 
z
M 4250 4750 
L 4750 4750 
L 1831 -91 
L 1331 -91 
L 4250 4750 
z
M 1428 4750 
Q 1922 4750 2215 4408 
Q 2509 4066 2509 3481 
Q 2509 2891 2217 2550 
Q 1925 2209 1428 2209 
Q 931 2209 642 2551 
Q 353 2894 353 3481 
Q 353 4063 643 4406 
Q 934 4750 1428 4750 
z
" transform="scale(0.015625)"/>
       <path id="DejaVuSans-28" d="M 1984 4856 
Q 1566 4138 1362 3434 
Q 1159 2731 1159 2009 
Q 1159 1288 1364 580 
Q 1569 -128 1984 -844 
L 1484 -844 
Q 1016 -109 783 600 
Q 550 1309 550 2009 
Q 550 2706 781 3412 
Q 1013 4119 1484 4856 
L 1984 4856 
z
" transform="scale(0.015625)"/>
       <path id="DejaVuSans-29" d="M 513 4856 
L 1013 4856 
Q 1481 4119 1714 3412 
Q 1947 2706 1947 2009 
Q 1947 1309 1714 600 
Q 1481 -109 1013 -844 
L 513 -844 
Q 928 -128 1133 580 
Q 1338 1288 1338 2009 
Q 1338 2731 1133 3434 
Q 928 4138 513 4856 
z
" transform="scale(0.015625)"/>
      </defs>
      <use xlink:href="#DejaVuSans-41"/>
      <use xlink:href="#DejaVuSans-63" transform="translate(66.658203 0)"/>
      <use xlink:href="#DejaVuSans-63" transform="translate(121.638672 0)"/>
      <use xlink:href="#DejaVuSans-75" transform="translate(176.619141 0)"/>
      <use xlink:href="#DejaVuSans-72" transform="translate(239.998047 0)"/>
      <use xlink:href="#DejaVuSans-61" transform="translate(281.111328 0)"/>
      <use xlink:href="#DejaVuSans-63" transform="translate(342.390625 0)"/>
      <use xlink:href="#DejaVuSans-79" transform="translate(397.371094 0)"/>
      <use xlink:href="#DejaVuSans-20" transform="translate(456.550781 0)"/>
      <use xlink:href="#DejaVuSans-77" transform="translate(488.337891 0)"/>
      <use xlink:href="#DejaVuSans-69" transform="translate(570.125 0)"/>
      <use xlink:href="#DejaVuSans-74" transform="translate(597.908203 0)"/>
      <use xlink:href="#DejaVuSans-68" transform="translate(637.117188 0)"/>
      <use xlink:href="#DejaVuSans-69" transform="translate(700.496094 0)"/>
      <use xlink:href="#DejaVuSans-6e" transform="translate(728.279297 0)"/>
      <use xlink:href="#DejaVuSans-20" transform="translate(791.658203 0)"/>
      <use xlink:href="#DejaVuSans-35" transform="translate(823.445312 0)"/>
      <use xlink:href="#DejaVuSans-25" transform="translate(887.068359 0)"/>
      <use xlink:href="#DejaVuSans-20" transform="translate(982.087891 0)"/>
      <use xlink:href="#DejaVuSans-28" transform="translate(1013.875 0)"/>
      <use xlink:href="#DejaVuSans-25" transform="translate(1052.888672 0)"/>
      <use xlink:href="#DejaVuSans-29" transform="translate(1147.908203 0)"/>
     </g>
    </g>
   </g>
   <g id="line2d_15">
    <path d="M 73.832727 295.488 
L 74.319709 282.35399 
L 74.482036 284.472378 
L 74.644364 283.201344 
L 74.806691 275.998824 
L 75.131345 278.964567 
L 75.456 270.067333 
L 75.780655 284.472378 
L 75.942982 285.743412 
L 76.267636 273.033078 
L 76.429964 262.017456 
L 76.592291 220.497037 
L 76.754618 244.646669 
L 77.079273 254.814933 
L 77.2416 162.876864 
L 77.403927 143.811352 
L 77.566255 164.571573 
L 77.728582 142.116643 
L 78.053236 247.188733 
L 78.215564 152.708592 
L 78.377891 186.602811 
L 78.540218 137.456192 
L 78.702545 140.421934 
L 78.864873 139.574579 
L 79.0272 188.721205 
L 79.189527 155.674334 
L 79.351855 250.578156 
L 79.514182 92.546347 
L 79.676509 81.954398 
L 79.838836 82.378075 
L 80.001164 71.362464 
L 80.163491 78.141302 
L 80.325818 260.746424 
L 80.488145 119.661728 
L 80.650473 110.340811 
L 80.8128 126.016888 
L 80.975127 109.493456 
L 81.137455 79.412334 
L 81.299782 100.596232 
L 81.462109 88.309573 
L 81.624436 104.833005 
L 81.786764 69.667755 
L 81.949091 69.244077 
L 82.111418 191.686947 
L 82.273745 162.029509 
L 82.436073 245.917701 
L 82.5984 129.406307 
L 82.760727 136.608837 
L 82.923055 76.446592 
L 83.085382 68.8204 
L 83.247709 70.515109 
L 83.410036 67.973045 
L 83.572364 68.396723 
L 83.897018 96.359443 
L 84.059345 137.456192 
L 84.221673 65.854643 
L 84.384 75.17556 
L 84.546327 76.446592 
L 84.708655 92.12267 
L 84.870982 135.337805 
L 85.033309 87.462219 
L 85.195636 94.664734 
L 85.357964 68.396723 
L 85.520291 66.278321 
L 85.682618 67.549353 
L 85.844945 70.938787 
L 86.007273 100.172555 
L 86.1696 66.278321 
L 86.331927 59.499483 
L 86.494255 105.68036 
L 86.656582 62.888902 
L 86.818909 90.004283 
L 86.981236 68.396723 
L 87.143564 70.515109 
L 87.305891 142.963998 
L 87.468218 61.61787 
L 87.630545 104.833005 
L 87.792873 108.646102 
L 88.117527 62.888902 
L 88.279855 105.256683 
L 88.442182 62.888902 
L 88.604509 59.075806 
L 88.766836 66.278321 
L 88.929164 78.988656 
L 89.253818 64.159934 
L 89.416145 126.864243 
L 89.578473 120.93276 
L 89.903127 68.396723 
L 90.065455 76.446592 
L 90.227782 76.446592 
L 90.390109 78.988656 
L 90.552436 112.459198 
L 90.714764 58.652128 
L 90.877091 61.194192 
L 91.039418 66.278321 
L 91.201745 62.888902 
L 91.364073 120.93276 
L 91.5264 68.8204 
L 91.688727 65.007289 
L 91.851055 67.549353 
L 92.013382 73.480851 
L 92.175709 127.711598 
L 92.500364 57.804774 
L 92.825018 103.561973 
L 92.987345 70.515109 
L 93.149673 75.599238 
L 93.312 72.633496 
L 93.474327 60.346838 
L 93.798982 66.701998 
L 94.123636 273.456756 
L 94.448291 73.057173 
L 94.610618 96.783121 
L 94.772945 72.633496 
L 95.0976 116.272309 
L 95.259927 59.92316 
L 95.422255 88.733251 
L 95.584582 77.293947 
L 95.746909 170.503056 
L 95.909236 106.527715 
L 96.071564 150.590205 
L 96.233891 84.496477 
L 96.396218 64.159934 
L 96.558545 76.022915 
L 96.720873 98.054153 
L 96.8832 61.61787 
L 97.207855 102.290941 
L 97.370182 71.362464 
L 97.532509 61.61787 
L 97.694836 159.911107 
L 97.857164 106.104038 
L 98.019491 98.47783 
L 98.181818 110.764488 
L 98.344145 86.614864 
L 98.506473 151.43756 
L 98.6688 62.041547 
L 98.993455 57.804774 
L 99.155782 60.770515 
L 99.318109 82.801753 
L 99.480436 89.156928 
L 99.642764 59.499483 
L 99.805091 58.652128 
L 99.967418 59.92316 
L 100.129745 87.462219 
L 100.292073 92.12267 
L 100.4544 251.001833 
L 100.616727 207.363024 
L 100.779055 95.088411 
L 100.941382 137.879869 
L 101.103709 76.87027 
L 101.266036 67.973045 
L 101.590691 99.748877 
L 101.753018 86.614864 
L 101.915345 58.652128 
L 102.077673 57.381096 
L 102.24 59.92316 
L 102.402327 57.381096 
L 102.564655 56.957419 
L 102.726982 58.652128 
L 103.051636 57.381096 
L 103.213964 63.312579 
L 103.376291 172.197766 
L 103.538618 70.091432 
L 103.700945 59.499483 
L 103.863273 79.836011 
L 104.0256 135.761483 
L 104.187927 131.524709 
L 104.350255 79.412334 
L 104.512582 82.378075 
L 104.674909 61.61787 
L 104.837236 68.8204 
L 104.999564 63.312579 
L 105.161891 66.278321 
L 105.324218 77.717624 
L 105.486545 71.786141 
L 105.648873 58.652128 
L 105.8112 60.770515 
L 105.973527 73.057173 
L 106.135855 123.898502 
L 106.298182 72.209819 
L 106.460509 70.091432 
L 106.785164 58.652128 
L 106.947491 65.007289 
L 107.109818 59.499483 
L 107.272145 71.786141 
L 107.5968 134.914128 
L 107.759127 84.496477 
L 107.921455 140.845611 
L 108.083782 120.93276 
L 108.246109 139.574579 
L 108.408436 78.141302 
L 108.570764 60.770515 
L 108.733091 67.973045 
L 108.895418 60.770515 
L 109.057745 59.499483 
L 109.220073 56.957419 
L 109.3824 66.701998 
L 109.544727 67.549353 
L 109.707055 57.804774 
L 109.869382 67.973045 
L 110.031709 70.938787 
L 110.194036 67.973045 
L 110.356364 78.141302 
L 110.518691 56.110064 
L 110.681018 84.920155 
L 110.843345 93.393702 
L 111.005673 198.042115 
L 111.168 107.37507 
L 111.330327 98.054153 
L 111.654982 60.346838 
L 111.817309 61.194192 
L 111.979636 62.888902 
L 112.141964 57.381096 
L 112.304291 58.652128 
L 112.466618 57.381096 
L 112.628945 90.004283 
L 112.791273 62.041547 
L 113.115927 83.225445 
L 113.440582 60.770515 
L 113.602909 106.951392 
L 113.765236 96.359443 
L 113.927564 73.904528 
L 114.089891 72.633496 
L 114.252218 64.159934 
L 114.414545 72.633496 
L 114.576873 70.091432 
L 114.7392 70.515109 
L 114.901527 75.17556 
L 115.226182 58.228451 
L 115.388509 59.075806 
L 115.550836 67.549353 
L 115.875491 99.748877 
L 116.037818 89.580606 
L 116.200145 67.125675 
L 116.362473 77.293947 
L 116.5248 67.973045 
L 116.687127 152.284915 
L 116.849455 166.266283 
L 117.174109 92.12267 
L 117.336436 84.0728 
L 117.498764 61.194192 
L 117.661091 71.362464 
L 117.823418 57.381096 
L 117.985745 59.92316 
L 118.3104 58.228451 
L 118.472727 62.465224 
L 118.797382 59.075806 
L 118.959709 58.652128 
L 119.122036 67.549353 
L 119.284364 65.430966 
L 119.446691 56.957419 
L 119.609018 56.957419 
L 119.771345 59.499483 
L 119.933673 96.359443 
L 120.096 69.244077 
L 120.420655 59.499483 
L 120.582982 58.228451 
L 120.745309 64.159934 
L 120.907636 57.381096 
L 121.069964 57.804774 
L 121.232291 58.652128 
L 121.394618 71.362464 
L 121.556945 56.533741 
L 121.719273 63.312579 
L 121.8816 56.533741 
L 122.043927 61.194192 
L 122.206255 57.804774 
L 122.368582 71.362464 
L 122.530909 68.396723 
L 122.693236 61.61787 
L 122.855564 87.038541 
L 123.017891 76.87027 
L 123.180218 74.328206 
L 123.342545 83.225445 
L 123.504873 106.104038 
L 123.6672 76.446592 
L 123.829527 81.107043 
L 123.991855 68.8204 
L 124.154182 75.17556 
L 124.316509 61.194192 
L 124.478836 57.804774 
L 124.641164 59.92316 
L 124.803491 59.499483 
L 124.965818 71.786141 
L 125.128145 70.938787 
L 125.290473 58.228451 
L 125.615127 56.533741 
L 125.777455 63.736257 
L 125.939782 58.652128 
L 126.102109 60.770515 
L 126.264436 227.275882 
L 126.426764 180.24765 
L 126.589091 74.328206 
L 126.751418 95.935766 
L 126.913745 69.244077 
L 127.076073 126.864243 
L 127.2384 67.125675 
L 127.400727 66.278321 
L 127.725382 91.275315 
L 127.887709 66.701998 
L 128.050036 128.135275 
L 128.212364 137.032515 
L 128.699345 59.075806 
L 129.024 62.888902 
L 129.186327 61.194192 
L 129.348655 56.533741 
L 129.510982 56.110064 
L 129.673309 55.262709 
L 129.835636 59.499483 
L 129.997964 103.138296 
L 130.160291 61.61787 
L 130.322618 58.652128 
L 130.484945 60.346838 
L 130.647273 60.346838 
L 130.8096 67.549353 
L 130.971927 62.041547 
L 131.134255 83.649123 
L 131.458909 56.957419 
L 131.621236 56.533741 
L 131.783564 90.851638 
L 132.270545 57.381096 
L 132.432873 58.228451 
L 132.5952 58.228451 
L 132.757527 57.804774 
L 132.919855 121.356437 
L 133.082182 73.904528 
L 133.244509 64.583611 
L 133.406836 151.43756 
L 133.569164 129.406307 
L 133.731491 247.188733 
L 133.893818 70.515109 
L 134.056145 70.091432 
L 134.218473 110.340811 
L 134.3808 56.957419 
L 134.543127 56.533741 
L 134.705455 87.885896 
L 134.867782 62.465224 
L 135.030109 56.957419 
L 135.192436 58.652128 
L 135.354764 64.583611 
L 135.517091 101.867264 
L 135.679418 286.590767 
L 135.841745 281.082956 
L 136.004073 285.319733 
L 136.1664 285.743412 
L 136.491055 277.269856 
L 136.653382 278.964567 
L 136.815709 266.67791 
L 136.978036 277.269856 
L 137.140364 260.746424 
L 137.302691 263.288492 
L 137.465018 279.811924 
L 137.789673 256.933324 
L 137.952 232.783688 
L 138.114327 191.686947 
L 138.276655 231.936333 
L 138.438982 220.920714 
L 138.601309 189.56856 
L 138.763636 203.973605 
L 138.925964 120.085405 
L 139.088291 181.095005 
L 139.250618 162.876864 
L 139.412945 123.898502 
L 139.575273 194.652688 
L 139.7376 113.306553 
L 140.062255 240.833565 
L 140.386909 114.153922 
L 140.549236 109.917134 
L 140.711564 181.94236 
L 140.873891 93.817379 
L 141.036218 252.272869 
L 141.198545 103.561973 
L 141.360873 133.643096 
L 141.685527 82.801753 
L 141.847855 214.141869 
L 142.010182 115.001277 
L 142.172509 122.62747 
L 142.334836 96.359443 
L 142.659491 127.28792 
L 142.821818 93.393702 
L 142.984145 88.309573 
L 143.146473 126.440566 
L 143.3088 91.275315 
L 143.471127 94.664734 
L 143.633455 73.057173 
L 143.795782 71.362464 
L 144.120436 82.801753 
L 144.282764 125.593211 
L 144.607418 94.241056 
L 144.769745 84.0728 
L 145.0944 94.664734 
L 145.256727 109.493456 
L 145.581382 80.683366 
L 145.743709 84.920155 
L 145.906036 117.543341 
L 146.068364 100.596232 
L 146.230691 71.786141 
L 146.393018 67.973045 
L 146.717673 167.537315 
L 146.88 93.393702 
L 147.042327 72.633496 
L 147.204655 75.599238 
L 147.366982 99.3252 
L 147.529309 245.917701 
L 147.853964 74.751883 
L 148.016291 78.564979 
L 148.178618 79.412334 
L 148.340945 67.125675 
L 148.503273 70.515109 
L 148.6656 71.362464 
L 148.827927 61.61787 
L 148.990255 76.022915 
L 149.152582 71.786141 
L 149.314909 64.583611 
L 149.477236 64.583611 
L 149.639564 67.549353 
L 149.801891 62.888902 
L 149.964218 68.396723 
L 150.126545 82.378075 
L 150.288873 76.446592 
L 150.4512 81.530721 
L 150.613527 67.549353 
L 150.775855 83.649123 
L 150.938182 72.633496 
L 151.100509 74.328206 
L 151.425164 117.119664 
L 151.587491 77.293947 
L 151.749818 101.867264 
L 151.912145 98.054153 
L 152.074473 69.667755 
L 152.2368 67.549353 
L 152.561455 264.559524 
L 152.723782 101.443587 
L 152.886109 76.022915 
L 153.048436 71.786141 
L 153.210764 111.611843 
L 153.373091 84.0728 
L 153.697745 75.17556 
L 154.0224 98.054153 
L 154.184727 209.905088 
L 154.509382 82.801753 
L 154.671709 81.954398 
L 154.834036 66.701998 
L 154.996364 65.854643 
L 155.158691 67.125675 
L 155.321018 62.465224 
L 155.483345 61.61787 
L 155.645673 65.854643 
L 155.808 76.87027 
L 155.970327 59.499483 
L 156.132655 66.701998 
L 156.294982 68.8204 
L 156.619636 134.490451 
L 156.781964 246.341378 
L 157.106618 70.938787 
L 157.268945 127.28792 
L 157.431273 102.290941 
L 157.5936 100.596232 
L 157.755927 76.022915 
L 157.918255 78.564979 
L 158.080582 68.8204 
L 158.242909 65.854643 
L 158.405236 71.362464 
L 158.567564 103.985651 
L 158.729891 73.904528 
L 158.892218 87.462219 
L 159.054545 62.041547 
L 159.216873 81.530721 
L 159.541527 61.61787 
L 159.703855 62.041547 
L 159.866182 60.770515 
L 160.028509 76.87027 
L 160.190836 65.430966 
L 160.353164 146.777109 
L 160.677818 65.854643 
L 160.840145 89.156928 
L 161.002473 62.888902 
L 161.1648 81.530721 
L 161.489455 62.041547 
L 161.651782 143.811352 
L 161.976436 62.465224 
L 162.138764 76.022915 
L 162.463418 149.742851 
L 162.625745 71.786141 
L 162.788073 75.17556 
L 162.9504 62.465224 
L 163.112727 60.770515 
L 163.275055 60.770515 
L 163.437382 61.194192 
L 163.599709 120.085405 
L 163.762036 137.879869 
L 163.924364 65.007289 
L 164.086691 64.583611 
L 164.249018 66.701998 
L 164.411345 66.278321 
L 164.573673 84.496477 
L 164.736 70.091432 
L 164.898327 74.328206 
L 165.060655 113.73023 
L 165.222982 61.194192 
L 165.385309 66.278321 
L 165.547636 183.213392 
L 165.709964 162.453186 
L 166.034618 66.278321 
L 166.196945 62.465224 
L 166.359273 84.496477 
L 166.5216 57.381096 
L 166.683927 58.228451 
L 166.846255 60.770515 
L 167.008582 69.244077 
L 167.495564 60.346838 
L 167.657891 64.159934 
L 167.820218 79.412334 
L 167.982545 81.954398 
L 168.144873 61.61787 
L 168.3072 64.159934 
L 168.469527 72.209819 
L 168.631855 61.194192 
L 168.794182 61.194192 
L 169.281164 64.159934 
L 169.443491 67.549353 
L 169.768145 212.870837 
L 169.930473 192.957979 
L 170.255127 81.954398 
L 170.417455 66.278321 
L 170.579782 62.041547 
L 170.742109 69.244077 
L 170.904436 60.346838 
L 171.229091 58.652128 
L 171.391418 59.92316 
L 171.553745 80.259689 
L 171.8784 65.007289 
L 172.040727 83.225445 
L 172.203055 59.075806 
L 172.365382 63.736257 
L 172.527709 60.770515 
L 172.690036 80.683366 
L 172.852364 134.066773 
L 173.014691 127.711598 
L 173.177018 62.888902 
L 173.339345 62.888902 
L 173.501673 77.293947 
L 173.664 59.075806 
L 173.826327 63.736257 
L 173.988655 57.381096 
L 174.313309 60.770515 
L 174.475636 90.004283 
L 174.637964 69.244077 
L 174.800291 62.888902 
L 175.124945 78.564979 
L 175.287273 60.770515 
L 175.4496 69.667755 
L 175.611927 62.465224 
L 175.774255 62.888902 
L 175.936582 129.83 
L 176.098909 127.711598 
L 176.261236 191.686947 
L 176.585891 67.125675 
L 176.748218 64.583611 
L 176.910545 75.599238 
L 177.2352 61.194192 
L 177.397527 60.346838 
L 177.559855 58.652128 
L 177.722182 60.770515 
L 177.884509 58.228451 
L 178.046836 60.770515 
L 178.209164 60.346838 
L 178.371491 66.701998 
L 178.533818 78.564979 
L 178.696145 148.048141 
L 179.0208 86.614864 
L 179.183127 60.770515 
L 179.345455 67.549353 
L 179.670109 59.075806 
L 179.832436 69.244077 
L 179.994764 59.499483 
L 180.157091 76.022915 
L 180.319418 60.346838 
L 180.481745 66.278321 
L 180.8064 147.624464 
L 180.968727 147.624464 
L 181.131055 66.278321 
L 181.293382 65.430966 
L 181.455709 76.87027 
L 181.618036 62.465224 
L 182.105018 101.019909 
L 182.267345 101.867264 
L 182.429673 97.630475 
L 182.592 124.322179 
L 182.754327 70.515109 
L 182.916655 86.614864 
L 183.078982 59.92316 
L 183.241309 60.770515 
L 183.403636 57.381096 
L 183.565964 57.381096 
L 183.728291 63.312579 
L 183.890618 61.194192 
L 184.052945 62.888902 
L 184.3776 59.075806 
L 184.539927 57.381096 
L 184.702255 63.736257 
L 184.864582 62.465224 
L 185.026909 90.851638 
L 185.351564 63.312579 
L 185.513891 69.667755 
L 185.676218 59.92316 
L 185.838545 68.396723 
L 186.000873 70.938787 
L 186.1632 70.091432 
L 186.325527 62.888902 
L 186.650182 79.836011 
L 186.812509 70.938787 
L 187.137164 78.988656 
L 187.299491 58.228451 
L 187.461818 74.751883 
L 187.624145 58.652128 
L 187.786473 59.92316 
L 187.9488 59.499483 
L 188.111127 63.312579 
L 188.273455 63.312579 
L 188.435782 63.736257 
L 188.598109 76.446592 
L 188.760436 57.381096 
L 188.922764 63.736257 
L 189.085091 60.346838 
L 189.247418 130.253677 
L 189.409745 147.624464 
L 189.572073 59.075806 
L 189.896727 74.751883 
L 190.059055 95.088411 
L 190.221382 176.434554 
L 190.383709 137.456192 
L 190.546036 138.303547 
L 190.870691 72.633496 
L 191.033018 81.954398 
L 191.195345 102.290941 
L 191.357673 77.293947 
L 191.52 112.882875 
L 191.682327 86.614864 
L 191.844655 206.091992 
L 192.006982 90.42796 
L 192.169309 61.194192 
L 192.331636 62.888902 
L 192.656291 67.549353 
L 192.980945 60.346838 
L 193.143273 76.022915 
L 193.3056 67.125675 
L 193.467927 81.107043 
L 193.630255 61.61787 
L 193.792582 73.480851 
L 193.954909 71.362464 
L 194.117236 60.770515 
L 194.279564 59.92316 
L 194.441891 62.465224 
L 194.604218 119.238051 
L 194.766545 117.967019 
L 194.928873 128.98263 
L 195.0912 73.480851 
L 195.253527 89.156928 
L 195.415855 127.711598 
L 195.578182 115.848632 
L 195.740509 73.904528 
L 195.902836 76.022915 
L 196.065164 59.92316 
L 196.227491 62.888902 
L 196.389818 92.546347 
L 196.714473 66.701998 
L 196.8768 64.159934 
L 197.039127 92.12267 
L 197.201455 73.480851 
L 197.363782 198.465792 
L 197.688436 73.480851 
L 197.850764 65.854643 
L 198.013091 69.667755 
L 198.175418 79.836011 
L 198.337745 62.888902 
L 198.6624 67.125675 
L 198.824727 78.564979 
L 198.987055 69.244077 
L 199.149382 73.057173 
L 199.311709 60.346838 
L 199.474036 59.499483 
L 199.636364 56.533741 
L 199.798691 83.225445 
L 199.961018 61.61787 
L 200.123345 96.359443 
L 200.610327 57.381096 
L 200.772655 64.583611 
L 200.934982 55.262709 
L 201.097309 65.854643 
L 201.259636 90.004283 
L 201.421964 64.583611 
L 201.584291 75.17556 
L 201.746618 62.888902 
L 201.908945 67.125675 
L 202.071273 57.381096 
L 202.2336 62.041547 
L 202.395927 55.686387 
L 202.720582 61.61787 
L 202.882909 62.041547 
L 203.045236 58.652128 
L 203.207564 64.583611 
L 203.369891 57.804774 
L 203.532218 68.396723 
L 203.856873 56.110064 
L 204.0192 56.533741 
L 204.181527 70.515109 
L 204.343855 107.37507 
L 204.668509 57.804774 
L 204.830836 71.786141 
L 205.155491 56.533741 
L 205.317818 86.614864 
L 205.480145 217.531288 
L 205.8048 66.701998 
L 206.129455 62.888902 
L 206.291782 75.17556 
L 206.454109 65.007289 
L 206.616436 139.998256 
L 206.778764 61.61787 
L 206.941091 81.954398 
L 207.103418 130.677354 
L 207.265745 60.346838 
L 207.428073 80.259689 
L 207.5904 59.92316 
L 207.752727 59.499483 
L 207.915055 58.652128 
L 208.239709 73.057173 
L 208.402036 69.244077 
L 208.564364 57.381096 
L 208.726691 57.381096 
L 208.889018 56.110064 
L 209.051345 56.957419 
L 209.213673 56.957419 
L 209.538327 55.262709 
L 209.700655 61.61787 
L 209.862982 59.075806 
L 210.187636 65.854643 
L 210.512291 130.677354 
L 210.674618 99.748877 
L 210.836945 90.42796 
L 210.999273 106.527715 
L 211.1616 59.499483 
L 211.323927 62.888902 
L 211.486255 70.938787 
L 211.648582 61.194192 
L 211.810909 187.450165 
L 211.973236 114.153922 
L 212.135564 101.019909 
L 212.297891 168.384669 
L 212.622545 73.904528 
L 212.784873 189.992237 
L 212.9472 73.057173 
L 213.109527 66.278321 
L 213.271855 66.278321 
L 213.434182 57.381096 
L 213.596509 56.957419 
L 213.758836 62.041547 
L 213.921164 58.228451 
L 214.083491 61.194192 
L 214.245818 70.515109 
L 214.408145 69.244077 
L 214.570473 66.701998 
L 214.7328 57.381096 
L 215.057455 55.686387 
L 215.219782 56.110064 
L 215.382109 60.770515 
L 215.544436 55.262709 
L 215.706764 65.854643 
L 215.869091 65.854643 
L 216.031418 60.346838 
L 216.193745 84.920155 
L 216.356073 56.533741 
L 216.5184 57.381096 
L 216.680727 61.61787 
L 216.843055 102.290941 
L 217.167709 59.075806 
L 217.330036 67.973045 
L 217.492364 57.804774 
L 217.654691 55.262709 
L 217.817018 67.549353 
L 217.979345 57.804774 
L 218.304 67.549353 
L 218.466327 59.075806 
L 218.628655 180.671328 
L 218.790982 82.378075 
L 218.953309 65.430966 
L 219.115636 62.888902 
L 219.277964 98.054153 
L 219.440291 65.007289 
L 219.602618 55.686387 
L 219.927273 151.43756 
L 220.0896 97.630475 
L 220.251927 84.496477 
L 220.414255 60.346838 
L 220.576582 66.701998 
L 220.738909 63.736257 
L 220.901236 66.278321 
L 221.063564 64.583611 
L 221.225891 70.091432 
L 221.388218 56.533741 
L 221.550545 58.652128 
L 221.712873 83.225445 
L 221.8752 160.334784 
L 222.037527 69.244077 
L 222.199855 56.957419 
L 222.362182 55.262709 
L 222.686836 63.312579 
L 222.849164 69.667755 
L 223.011491 107.798747 
L 223.336145 68.396723 
L 223.498473 58.228451 
L 223.6608 56.957419 
L 223.823127 58.228451 
L 223.985455 56.533741 
L 224.147782 62.465224 
L 224.310109 59.92316 
L 224.472436 65.854643 
L 224.634764 62.888902 
L 224.797091 69.667755 
L 224.959418 71.786141 
L 225.121745 88.309573 
L 225.284073 87.462219 
L 225.4464 60.770515 
L 225.608727 56.957419 
L 225.933382 60.346838 
L 226.095709 55.262709 
L 226.258036 57.381096 
L 226.582691 54.839032 
L 226.745018 56.957419 
L 226.907345 61.194192 
L 227.069673 62.041547 
L 227.232 256.085969 
L 227.394327 78.141302 
L 227.556655 109.069779 
L 227.718982 79.412334 
L 227.881309 136.608837 
L 228.043636 128.558952 
L 228.368291 63.736257 
L 228.530618 84.0728 
L 229.0176 61.61787 
L 229.179927 56.110064 
L 229.342255 56.533741 
L 229.504582 62.041547 
L 229.829236 56.957419 
L 229.991564 59.92316 
L 230.153891 123.474824 
L 230.478545 59.075806 
L 230.640873 62.465224 
L 230.8032 55.262709 
L 230.965527 55.262709 
L 231.127855 60.346838 
L 231.290182 55.686387 
L 231.452509 55.686387 
L 231.614836 59.075806 
L 231.777164 58.228451 
L 231.939491 54.415355 
L 232.101818 61.61787 
L 232.264145 55.686387 
L 232.426473 61.61787 
L 232.751127 55.686387 
L 232.913455 56.110064 
L 233.075782 54.839032 
L 233.238109 55.262709 
L 233.400436 74.328206 
L 233.725091 60.346838 
L 233.887418 138.727224 
L 234.049745 149.742851 
L 234.212073 67.973045 
L 234.3744 114.5776 
L 234.536727 65.430966 
L 234.699055 69.244077 
L 234.861382 67.125675 
L 235.023709 71.362464 
L 235.348364 67.973045 
L 235.510691 70.091432 
L 235.673018 81.107043 
L 235.835345 56.533741 
L 235.997673 59.92316 
L 236.16 74.328206 
L 236.322327 64.159934 
L 236.484655 71.786141 
L 236.646982 67.125675 
L 236.809309 57.804774 
L 236.971636 55.262709 
L 237.133964 56.533741 
L 237.296291 55.686387 
L 237.458618 57.804774 
L 237.620945 55.686387 
L 237.783273 58.652128 
L 237.9456 56.533741 
L 238.107927 56.533741 
L 238.270255 59.92316 
L 238.432582 60.770515 
L 238.594909 59.499483 
L 238.757236 60.770515 
L 238.919564 76.87027 
L 239.081891 58.228451 
L 239.244218 126.864243 
L 239.406545 128.98263 
L 239.568873 84.496477 
L 239.7312 92.12267 
L 240.055855 151.43756 
L 240.380509 69.244077 
L 240.705164 56.957419 
L 241.192145 67.973045 
L 241.354473 80.683366 
L 241.5168 64.159934 
L 241.679127 83.649123 
L 241.841455 87.885896 
L 242.003782 79.836011 
L 242.166109 61.194192 
L 242.328436 56.533741 
L 242.490764 58.652128 
L 242.653091 56.957419 
L 242.815418 56.533741 
L 242.977745 56.533741 
L 243.464727 55.262709 
L 243.627055 55.262709 
L 243.789382 56.533741 
L 243.951709 55.262709 
L 244.114036 61.61787 
L 244.276364 55.686387 
L 244.438691 56.533741 
L 244.601018 55.262709 
L 244.763345 58.228451 
L 244.925673 218.802328 
L 245.088 201.431533 
L 245.250327 108.646102 
L 245.412655 106.104038 
L 245.574982 96.359443 
L 245.737309 66.701998 
L 245.899636 67.973045 
L 246.224291 56.110064 
L 246.386618 60.346838 
L 246.548945 59.075806 
L 246.711273 56.110064 
L 246.8736 65.854643 
L 247.035927 57.381096 
L 247.198255 114.5776 
L 247.360582 62.041547 
L 247.522909 57.804774 
L 247.685236 58.652128 
L 247.847564 75.17556 
L 248.009891 56.957419 
L 248.334545 56.110064 
L 248.496873 54.415355 
L 248.821527 56.110064 
L 248.983855 75.17556 
L 249.308509 56.110064 
L 249.470836 54.839032 
L 249.633164 56.533741 
L 249.957818 55.686387 
L 250.120145 62.041547 
L 250.282473 94.664734 
L 250.607127 57.381096 
L 250.769455 93.393702 
L 250.931782 69.244077 
L 251.094109 64.583611 
L 251.256436 81.107043 
L 251.418764 57.381096 
L 251.581091 74.751883 
L 251.743418 76.446592 
L 251.905745 86.614864 
L 252.068073 145.929754 
L 252.2304 67.973045 
L 252.392727 61.194192 
L 252.555055 65.430966 
L 252.717382 56.533741 
L 252.879709 61.194192 
L 253.042036 55.686387 
L 253.204364 59.075806 
L 253.366691 57.804774 
L 253.529018 65.430966 
L 253.691345 60.346838 
L 253.853673 59.075806 
L 254.016 55.686387 
L 254.178327 55.262709 
L 254.340655 56.533741 
L 254.502982 75.599238 
L 254.665309 73.057173 
L 254.827636 73.904528 
L 255.152291 65.854643 
L 255.314618 58.228451 
L 255.476945 70.938787 
L 255.639273 58.652128 
L 255.8016 78.141302 
L 255.963927 60.770515 
L 256.126255 60.770515 
L 256.288582 61.194192 
L 256.450909 73.480851 
L 256.613236 101.867264 
L 256.775564 79.412334 
L 256.937891 97.206798 
L 257.100218 64.583611 
L 257.262545 73.480851 
L 257.424873 69.244077 
L 257.5872 61.61787 
L 257.911855 63.312579 
L 258.074182 109.069779 
L 258.236509 86.614864 
L 258.398836 88.309573 
L 258.561164 80.683366 
L 258.885818 56.110064 
L 259.048145 56.110064 
L 259.210473 55.686387 
L 259.3728 56.533741 
L 259.535127 77.717624 
L 259.697455 60.346838 
L 259.859782 62.888902 
L 260.022109 56.533741 
L 260.184436 59.92316 
L 260.346764 55.262709 
L 260.509091 61.194192 
L 260.671418 58.228451 
L 260.833745 66.278321 
L 260.996073 56.957419 
L 261.1584 57.381096 
L 261.320727 56.533741 
L 261.483055 56.533741 
L 261.645382 57.804774 
L 261.807709 56.533741 
L 261.970036 57.804774 
L 262.132364 89.580606 
L 262.294691 78.564979 
L 262.457018 82.801753 
L 262.619345 66.278321 
L 262.781673 61.61787 
L 262.944 60.346838 
L 263.106327 70.091432 
L 263.268655 67.549353 
L 263.430982 79.836011 
L 263.593309 64.159934 
L 263.755636 72.633496 
L 263.917964 72.209819 
L 264.080291 62.465224 
L 264.242618 68.8204 
L 264.404945 57.804774 
L 264.567273 56.110064 
L 264.7296 63.312579 
L 264.891927 63.312579 
L 265.054255 56.110064 
L 265.216582 54.839032 
L 265.378909 58.228451 
L 265.703564 55.686387 
L 265.865891 76.87027 
L 266.028218 60.346838 
L 266.190545 57.381096 
L 266.352873 141.692966 
L 266.5152 67.125675 
L 266.677527 69.667755 
L 266.839855 68.396723 
L 267.002182 57.804774 
L 267.164509 57.381096 
L 267.326836 55.262709 
L 267.489164 54.839032 
L 267.813818 54.839032 
L 267.976145 56.110064 
L 268.138473 60.770515 
L 268.3008 55.686387 
L 268.463127 60.770515 
L 268.625455 83.649123 
L 268.787782 77.717624 
L 268.950109 76.87027 
L 269.112436 95.512088 
L 269.274764 66.278321 
L 269.437091 58.228451 
L 269.761745 58.228451 
L 269.924073 60.770515 
L 270.0864 58.652128 
L 270.248727 60.346838 
L 270.411055 55.262709 
L 270.573382 58.652128 
L 270.735709 70.938787 
L 271.060364 59.075806 
L 271.222691 76.022915 
L 271.547345 57.381096 
L 271.709673 57.804774 
L 271.872 75.599238 
L 272.034327 74.328206 
L 272.196655 60.346838 
L 272.358982 63.736257 
L 272.521309 59.499483 
L 272.683636 59.92316 
L 272.845964 94.664734 
L 273.008291 65.854643 
L 273.170618 66.701998 
L 273.332945 68.396723 
L 273.495273 68.396723 
L 273.6576 64.583611 
L 273.819927 56.110064 
L 274.144582 55.262709 
L 274.306909 61.194192 
L 274.469236 54.415355 
L 274.631564 60.346838 
L 274.793891 55.262709 
L 274.956218 60.346838 
L 275.280873 55.262709 
L 275.4432 103.138296 
L 275.605527 101.443587 
L 275.767855 70.091432 
L 275.930182 80.259689 
L 276.092509 83.225445 
L 276.254836 68.396723 
L 276.579491 88.733251 
L 276.741818 57.804774 
L 276.904145 62.888902 
L 277.066473 81.954398 
L 277.2288 78.141302 
L 277.553455 59.075806 
L 277.715782 67.549353 
L 277.878109 56.110064 
L 278.040436 59.075806 
L 278.202764 55.686387 
L 278.365091 63.312579 
L 278.527418 55.262709 
L 278.689745 56.533741 
L 278.852073 56.533741 
L 279.0144 55.686387 
L 279.176727 62.041547 
L 279.339055 56.957419 
L 279.501382 59.92316 
L 279.663709 58.652128 
L 279.826036 63.312579 
L 279.988364 73.480851 
L 280.313018 66.701998 
L 280.475345 76.446592 
L 280.637673 56.110064 
L 280.8 74.751883 
L 281.124655 54.839032 
L 281.286982 55.686387 
L 281.449309 57.804774 
L 281.611636 58.228451 
L 281.773964 80.259689 
L 281.936291 205.244637 
L 282.098618 99.3252 
L 282.260945 76.446592 
L 282.423273 79.836011 
L 282.5856 78.141302 
L 282.747927 63.312579 
L 283.234909 55.686387 
L 283.397236 55.686387 
L 283.559564 57.804774 
L 283.721891 57.804774 
L 283.884218 54.839032 
L 284.046545 56.533741 
L 284.208873 54.839032 
L 284.3712 54.839032 
L 284.533527 55.262709 
L 284.695855 54.839032 
L 285.020509 54.839032 
L 285.182836 54.415355 
L 285.345164 54.839032 
L 285.669818 57.381096 
L 285.832145 57.381096 
L 285.994473 59.92316 
L 286.1568 67.973045 
L 286.319127 145.929754 
L 286.481455 103.985651 
L 286.643782 103.138296 
L 286.806109 231.512656 
L 286.968436 88.733251 
L 287.293091 63.312579 
L 287.455418 56.957419 
L 287.617745 62.888902 
L 287.780073 56.110064 
L 287.9424 54.415355 
L 288.104727 55.262709 
L 288.267055 54.415355 
L 288.429382 54.839032 
L 288.591709 58.652128 
L 288.754036 55.262709 
L 288.916364 63.312579 
L 289.078691 57.804774 
L 289.241018 63.736257 
L 289.403345 55.686387 
L 289.565673 56.957419 
L 289.728 54.415355 
L 289.890327 55.262709 
L 290.214982 54.415355 
L 290.377309 56.533741 
L 290.864291 54.415355 
L 291.026618 54.839032 
L 291.351273 76.446592 
L 291.5136 69.244077 
L 291.675927 101.019909 
L 292.000582 64.159934 
L 292.162909 59.075806 
L 292.325236 67.549353 
L 292.487564 59.499483 
L 292.812218 67.973045 
L 293.136873 56.533741 
L 293.2992 58.228451 
L 293.461527 87.038541 
L 293.623855 60.770515 
L 293.786182 55.262709 
L 294.110836 54.415355 
L 294.435491 71.786141 
L 294.597818 62.888902 
L 294.760145 104.833005 
L 294.922473 78.141302 
L 295.0848 73.057173 
L 295.247127 60.346838 
L 295.409455 56.957419 
L 295.734109 55.686387 
L 295.896436 58.652128 
L 296.058764 97.206798 
L 296.221091 61.61787 
L 296.708073 70.938787 
L 297.032727 54.415355 
L 297.195055 55.686387 
L 297.357382 54.839032 
L 297.682036 61.61787 
L 297.844364 101.867264 
L 298.006691 178.129264 
L 298.169018 77.717624 
L 298.331345 152.284915 
L 298.656 74.751883 
L 298.818327 57.381096 
L 298.980655 59.075806 
L 299.142982 57.381096 
L 299.305309 64.159934 
L 299.467636 57.381096 
L 299.629964 61.61787 
L 299.792291 54.839032 
L 299.954618 57.381096 
L 300.116945 65.430966 
L 300.279273 56.110064 
L 300.4416 54.839032 
L 300.603927 55.262709 
L 300.766255 56.110064 
L 300.928582 66.701998 
L 301.090909 60.770515 
L 301.253236 68.396723 
L 301.415564 59.499483 
L 301.577891 65.430966 
L 301.740218 63.312579 
L 301.902545 76.446592 
L 302.064873 78.988656 
L 302.2272 58.228451 
L 302.389527 59.92316 
L 302.551855 56.110064 
L 302.714182 62.465224 
L 302.876509 56.533741 
L 303.038836 64.159934 
L 303.201164 57.381096 
L 303.363491 56.533741 
L 303.525818 66.278321 
L 303.850473 55.262709 
L 304.0128 55.262709 
L 304.175127 55.686387 
L 304.337455 55.686387 
L 304.499782 60.770515 
L 304.662109 56.957419 
L 304.824436 63.736257 
L 304.986764 65.854643 
L 305.149091 90.851638 
L 305.473745 56.533741 
L 305.636073 55.262709 
L 305.960727 78.564979 
L 306.123055 62.041547 
L 306.285382 58.228451 
L 306.447709 59.075806 
L 306.772364 69.667755 
L 306.934691 62.465224 
L 307.097018 104.409328 
L 307.259345 64.159934 
L 307.421673 61.61787 
L 307.584 62.465224 
L 307.746327 76.022915 
L 307.908655 56.533741 
L 308.070982 66.701998 
L 308.395636 55.262709 
L 308.557964 58.652128 
L 308.720291 56.533741 
L 308.882618 67.125675 
L 309.044945 67.125675 
L 309.207273 58.228451 
L 309.3696 59.499483 
L 309.531927 66.701998 
L 309.694255 62.888902 
L 309.856582 87.885896 
L 310.018909 77.293947 
L 310.181236 149.319173 
L 310.343564 119.238051 
L 310.505891 57.804774 
L 310.668218 60.346838 
L 310.830545 56.110064 
L 310.992873 55.262709 
L 311.1552 57.381096 
L 311.317527 55.262709 
L 311.479855 54.839032 
L 311.804509 54.839032 
L 312.291491 66.701998 
L 312.453818 55.262709 
L 312.616145 56.110064 
L 312.778473 56.110064 
L 312.9408 54.415355 
L 313.103127 54.415355 
L 313.265455 56.110064 
L 313.427782 63.312579 
L 313.590109 61.61787 
L 313.752436 64.583611 
L 313.914764 54.415355 
L 314.077091 67.125675 
L 314.239418 54.839032 
L 314.401745 55.686387 
L 314.564073 59.499483 
L 314.7264 139.150902 
L 314.888727 97.206798 
L 315.051055 167.113637 
L 315.213382 93.817379 
L 315.375709 70.938787 
L 315.862691 56.110064 
L 316.025018 72.209819 
L 316.512 55.686387 
L 316.674327 54.839032 
L 316.836655 54.839032 
L 316.998982 56.957419 
L 317.323636 54.415355 
L 317.648291 62.888902 
L 317.810618 56.957419 
L 317.972945 63.736257 
L 318.135273 55.262709 
L 318.459927 56.533741 
L 318.622255 59.92316 
L 318.784582 54.839032 
L 319.109236 63.736257 
L 319.271564 54.415355 
L 319.596218 61.61787 
L 319.920873 56.110064 
L 320.0832 54.839032 
L 320.245527 59.92316 
L 320.407855 90.42796 
L 320.570182 88.309573 
L 320.732509 121.780115 
L 320.894836 76.87027 
L 321.219491 55.262709 
L 321.381818 55.686387 
L 321.544145 59.075806 
L 321.706473 58.652128 
L 321.8688 56.110064 
L 322.193455 64.159934 
L 322.355782 54.839032 
L 322.518109 60.770515 
L 322.680436 59.499483 
L 322.842764 54.839032 
L 323.005091 55.262709 
L 323.167418 56.533741 
L 323.329745 54.415355 
L 323.492073 55.262709 
L 323.6544 59.499483 
L 323.816727 54.839032 
L 323.979055 57.804774 
L 324.141382 70.938787 
L 324.303709 55.686387 
L 324.466036 56.533741 
L 324.628364 68.396723 
L 324.953018 59.92316 
L 325.277673 57.381096 
L 325.44 64.583611 
L 325.602327 186.179133 
L 325.764655 73.057173 
L 326.089309 56.110064 
L 326.251636 60.770515 
L 326.413964 54.415355 
L 326.576291 54.839032 
L 326.900945 54.839032 
L 327.063273 54.415355 
L 327.2256 54.839032 
L 327.550255 82.801753 
L 327.712582 62.888902 
L 327.874909 75.599238 
L 328.037236 59.075806 
L 328.199564 76.022915 
L 328.361891 61.61787 
L 328.524218 57.804774 
L 328.686545 60.346838 
L 328.848873 60.770515 
L 329.0112 56.533741 
L 329.173527 59.075806 
L 329.335855 128.98263 
L 329.498182 68.8204 
L 329.660509 60.346838 
L 329.985164 56.533741 
L 330.147491 57.381096 
L 330.309818 70.938787 
L 330.472145 55.262709 
L 330.634473 55.686387 
L 330.7968 55.686387 
L 330.959127 61.194192 
L 331.283782 54.415355 
L 331.446109 56.533741 
L 331.770764 54.415355 
L 331.933091 54.415355 
L 332.095418 54.839032 
L 332.257745 54.415355 
L 332.420073 62.888902 
L 332.744727 59.499483 
L 332.907055 59.075806 
L 333.069382 57.381096 
L 333.394036 67.973045 
L 333.556364 57.381096 
L 333.881018 63.736257 
L 334.043345 55.262709 
L 334.205673 54.415355 
L 334.368 54.415355 
L 334.530327 55.262709 
L 334.854982 54.415355 
L 335.179636 73.904528 
L 335.341964 79.412334 
L 335.504291 61.194192 
L 335.666618 126.864243 
L 335.828945 109.917134 
L 335.991273 165.842605 
L 336.1536 90.004283 
L 336.315927 104.409328 
L 336.478255 134.490451 
L 336.802909 72.633496 
L 336.965236 58.228451 
L 337.127564 63.312579 
L 337.289891 55.686387 
L 337.452218 55.262709 
L 337.614545 56.110064 
L 337.9392 53.991677 
L 338.101527 53.991677 
L 338.426182 59.499483 
L 338.588509 55.262709 
L 338.750836 55.686387 
L 338.913164 54.415355 
L 339.075491 63.736257 
L 339.237818 56.110064 
L 339.400145 54.839032 
L 339.562473 54.839032 
L 339.7248 53.991677 
L 340.536436 53.991677 
L 340.861091 54.839032 
L 341.023418 54.415355 
L 341.185745 55.686387 
L 341.348073 54.415355 
L 341.5104 80.259689 
L 341.672727 60.770515 
L 341.997382 65.430966 
L 342.159709 74.328206 
L 342.322036 73.480851 
L 342.484364 57.804774 
L 342.646691 54.415355 
L 342.809018 54.415355 
L 342.971345 54.839032 
L 343.133673 53.991677 
L 343.296 54.839032 
L 343.458327 54.415355 
L 343.620655 54.839032 
L 343.782982 54.839032 
L 343.945309 56.533741 
L 344.107636 55.262709 
L 344.269964 56.957419 
L 344.432291 61.194192 
L 344.756945 54.839032 
L 344.919273 56.533741 
L 345.0816 54.839032 
L 345.406255 54.839032 
L 345.730909 53.991677 
L 345.893236 54.415355 
L 346.055564 57.381096 
L 346.217891 57.381096 
L 346.380218 55.686387 
L 346.542545 56.110064 
L 346.704873 157.79272 
L 346.8672 80.683366 
L 347.029527 56.533741 
L 347.191855 101.867264 
L 347.354182 71.786141 
L 347.516509 86.191187 
L 347.678836 82.801753 
L 347.841164 57.381096 
L 348.003491 58.228451 
L 348.165818 55.686387 
L 348.328145 58.652128 
L 348.490473 55.686387 
L 348.6528 54.839032 
L 348.815127 55.262709 
L 348.977455 54.415355 
L 349.139782 54.415355 
L 349.302109 64.159934 
L 349.464436 54.839032 
L 349.626764 61.194192 
L 349.789091 80.683366 
L 349.951418 74.328206 
L 350.113745 58.228451 
L 350.276073 59.075806 
L 350.4384 61.61787 
L 350.600727 60.346838 
L 350.763055 106.104038 
L 350.925382 56.110064 
L 351.087709 84.496477 
L 351.250036 81.530721 
L 351.412364 144.23503 
L 351.574691 67.125675 
L 351.737018 59.92316 
L 351.899345 59.92316 
L 352.061673 70.515109 
L 352.224 62.041547 
L 352.386327 62.041547 
L 352.548655 54.839032 
L 352.710982 59.075806 
L 352.873309 55.262709 
L 353.035636 54.839032 
L 353.197964 53.991677 
L 353.360291 56.110064 
L 353.522618 56.533741 
L 353.684945 54.415355 
L 353.847273 53.991677 
L 354.0096 54.839032 
L 354.171927 54.415355 
L 354.658909 54.415355 
L 354.821236 54.839032 
L 354.983564 60.346838 
L 355.308218 62.888902 
L 355.470545 56.110064 
L 355.632873 56.110064 
L 355.7952 61.61787 
L 355.957527 61.194192 
L 356.119855 66.278321 
L 356.444509 55.262709 
L 356.606836 61.194192 
L 356.769164 57.804774 
L 356.931491 96.359443 
L 357.093818 63.312579 
L 357.256145 54.839032 
L 357.418473 55.686387 
L 357.5808 54.415355 
L 357.743127 54.839032 
L 358.067782 66.701998 
L 358.230109 55.686387 
L 358.554764 55.686387 
L 358.717091 111.188166 
L 358.879418 63.736257 
L 359.041745 71.362464 
L 359.204073 58.228451 
L 359.528727 54.839032 
L 359.691055 55.262709 
L 359.853382 62.888902 
L 360.015709 54.415355 
L 360.178036 55.686387 
L 360.340364 105.256683 
L 360.502691 62.465224 
L 360.665018 63.312579 
L 360.827345 57.381096 
L 360.989673 71.362464 
L 361.152 64.583611 
L 361.314327 74.328206 
L 361.476655 74.751883 
L 361.638982 54.839032 
L 361.801309 54.415355 
L 361.963636 56.110064 
L 362.288291 54.415355 
L 362.450618 63.312579 
L 362.612945 58.652128 
L 362.775273 59.92316 
L 363.099927 56.110064 
L 363.424582 93.817379 
L 363.586909 57.804774 
L 363.911564 78.141302 
L 364.073891 55.686387 
L 364.236218 57.804774 
L 364.398545 56.957419 
L 364.560873 54.415355 
L 364.7232 54.415355 
L 364.885527 59.075806 
L 365.047855 55.262709 
L 365.210182 54.415355 
L 365.372509 54.839032 
L 365.534836 64.583611 
L 365.697164 56.533741 
L 366.021818 54.415355 
L 366.184145 54.839032 
L 366.346473 58.228451 
L 366.5088 53.568 
L 366.671127 56.533741 
L 366.833455 82.378075 
L 366.995782 76.446592 
L 367.158109 62.465224 
L 367.320436 81.954398 
L 367.482764 56.957419 
L 367.645091 56.957419 
L 367.969745 87.038541 
L 368.132073 170.926733 
L 368.2944 98.901522 
L 368.456727 163.300541 
L 368.619055 164.147896 
L 368.781382 85.767509 
L 368.943709 76.446592 
L 369.106036 162.029509 
L 369.268364 62.465224 
L 369.430691 57.804774 
L 369.593018 88.309573 
L 369.755345 65.430966 
L 369.917673 58.228451 
L 370.08 61.194192 
L 370.404655 57.381096 
L 370.566982 68.396723 
L 370.891636 57.381096 
L 371.216291 54.839032 
L 371.378618 54.415355 
L 371.540945 55.686387 
L 371.8656 54.839032 
L 372.027927 53.991677 
L 372.352582 55.262709 
L 372.514909 53.991677 
L 372.677236 54.415355 
L 372.839564 53.991677 
L 373.001891 54.415355 
L 373.164218 53.991677 
L 373.326545 54.415355 
L 373.488873 54.415355 
L 373.6512 55.262709 
L 373.813527 53.991677 
L 373.975855 53.991677 
L 374.138182 54.415355 
L 374.300509 54.415355 
L 374.462836 53.991677 
L 374.787491 53.991677 
L 374.949818 54.839032 
L 375.112145 53.568 
L 375.274473 65.854643 
L 375.4368 109.069779 
L 375.599127 70.938787 
L 375.761455 102.290941 
L 375.923782 97.630475 
L 376.086109 57.381096 
L 376.248436 62.465224 
L 376.410764 59.499483 
L 376.573091 62.041547 
L 376.735418 59.499483 
L 376.897745 54.839032 
L 377.060073 56.957419 
L 377.2224 56.533741 
L 377.384727 54.415355 
L 377.547055 65.854643 
L 377.709382 63.312579 
L 377.871709 56.110064 
L 378.196364 54.415355 
L 378.358691 78.564979 
L 378.521018 62.465224 
L 378.683345 60.770515 
L 378.845673 56.533741 
L 379.008 67.125675 
L 379.170327 54.415355 
L 379.332655 57.381096 
L 379.494982 55.262709 
L 379.819636 70.515109 
L 379.981964 58.228451 
L 380.144291 55.686387 
L 380.306618 56.110064 
L 380.468945 59.499483 
L 380.7936 55.262709 
L 380.955927 73.480851 
L 381.118255 55.262709 
L 381.605236 60.770515 
L 381.767564 54.415355 
L 381.929891 59.92316 
L 382.092218 55.686387 
L 382.254545 55.686387 
L 382.416873 54.415355 
L 382.741527 54.415355 
L 382.903855 65.854643 
L 383.066182 54.415355 
L 383.228509 54.415355 
L 383.390836 54.839032 
L 383.553164 54.839032 
L 383.715491 68.396723 
L 383.877818 55.262709 
L 384.040145 62.465224 
L 384.202473 55.262709 
L 384.527127 74.328206 
L 384.689455 71.362464 
L 384.851782 64.159934 
L 385.014109 101.019909 
L 385.176436 86.614864 
L 385.338764 84.496477 
L 385.501091 72.209819 
L 385.663418 85.343832 
L 385.825745 78.564979 
L 385.988073 57.381096 
L 386.1504 62.041547 
L 386.312727 55.686387 
L 386.475055 59.075806 
L 386.637382 54.415355 
L 386.799709 55.262709 
L 387.124364 53.991677 
L 387.449018 72.209819 
L 387.611345 99.748877 
L 387.773673 60.346838 
L 387.936 55.686387 
L 388.098327 54.839032 
L 388.260655 55.262709 
L 388.422982 54.415355 
L 388.585309 54.839032 
L 388.747636 54.839032 
L 388.909964 96.783121 
L 389.072291 67.125675 
L 389.234618 68.8204 
L 389.396945 55.262709 
L 389.559273 54.839032 
L 389.7216 55.262709 
L 389.883927 56.957419 
L 390.046255 54.839032 
L 390.208582 54.415355 
L 390.370909 54.415355 
L 390.695564 55.262709 
L 390.857891 54.415355 
L 391.020218 54.415355 
L 391.182545 53.991677 
L 391.5072 58.228451 
L 391.669527 62.465224 
L 391.831855 79.412334 
L 391.994182 75.599238 
L 392.156509 57.804774 
L 392.318836 87.462219 
L 392.481164 195.076365 
L 392.805818 75.599238 
L 392.968145 60.346838 
L 393.2928 73.480851 
L 393.455127 61.61787 
L 393.617455 82.801753 
L 393.779782 64.583611 
L 394.266764 55.262709 
L 394.591418 55.262709 
L 394.753745 57.804774 
L 394.916073 87.038541 
L 395.0784 87.885896 
L 395.403055 59.075806 
L 395.565382 78.988656 
L 395.727709 56.110064 
L 395.890036 56.957419 
L 396.052364 59.075806 
L 396.214691 55.686387 
L 396.377018 55.686387 
L 396.539345 60.770515 
L 396.701673 55.686387 
L 396.864 58.652128 
L 397.026327 53.991677 
L 397.188655 54.839032 
L 397.350982 54.415355 
L 397.513309 55.262709 
L 397.675636 54.839032 
L 397.837964 53.568 
L 398.000291 53.991677 
L 398.324945 56.110064 
L 398.487273 55.262709 
L 398.487273 55.262709 
" clip-path="url(#pecc2879da3)" style="fill: none; stroke: #1f77b4; stroke-width: 1.5; stroke-linecap: square"/>
   </g>
   <g id="patch_3">
    <path d="M 57.6 307.584 
L 57.6 41.472 
" style="fill: none; stroke: #000000; stroke-width: 0.8; stroke-linejoin: miter; stroke-linecap: square"/>
   </g>
   <g id="patch_4">
    <path d="M 57.6 307.584 
L 414.72 307.584 
" style="fill: none; stroke: #000000; stroke-width: 0.8; stroke-linejoin: miter; stroke-linecap: square"/>
   </g>
  </g>
 </g>
 <defs>
  <clipPath id="pecc2879da3">
   <rect x="57.6" y="41.472" width="357.12" height="266.112"/>
  </clipPath>
 </defs>
</svg>
