<?xml version="1.0" encoding="utf-8" standalone="no"?>
<!DOCTYPE svg PUBLIC "-//W3C//DTD SVG 1.1//EN"
  "http://www.w3.org/Graphics/SVG/1.1/DTD/svg11.dtd">
<svg xmlns:xlink="http://www.w3.org/1999/xlink" width="460.8pt" height="345.6pt" viewBox="0 0 460.8 345.6" xmlns="http://www.w3.org/2000/svg" version="1.1">
 <metadata>
  <rdf:RDF xmlns:dc="http://purl.org/dc/elements/1.1/" xmlns:cc="http://creativecommons.org/ns#" xmlns:rdf="http://www.w3.org/1999/02/22-rdf-syntax-ns#">
   <cc:Work>
    <dc:type rdf:resource="http://purl.org/dc/dcmitype/StillImage"/>
    <dc:date>2026-06-09T20:30:09.301900</dc:date>
    <dc:format>image/svg+xml</dc:format>
    <dc:creator>
     <cc:Agent>
      <dc:title>Matplotlib v3.10.8, https://matplotlib.org/</dc:title>
     </cc:Agent>
    </dc:creator>
   </cc:Work>
  </rdf:RDF>
 </metadata>
 <defs>
  <style type="text/css">*{stroke-linejoin: round; stroke-linecap: butt}</style>
 </defs>
 <g id="figure_1">
  <g id="patch_1">
   <path d="M 0 345.6 
L 460.8 345.6 
L 460.8 0 
L 0 0 
z
" style="fill: #ffffff"/>
  </g>
  <g id="axes_1">
   <g id="patch_2">
    <path d="M 57.6 307.584 
L 414.72 307.584 
L 414.72 41.472 
L 57.6 41.472 
z
" style="fill: #ffffff"/>
   </g>
   <g id="matplotlib.axis_1">
    <g id="xtick_1">
     <g id="line2d_1">
      <defs>
       <path id="m27149c0f8a" d="M 0 0 
L 0 3.5 
" style="stroke: #000000; stroke-width: 0.8"/>
      </defs>
      <g>
       <use xlink:href="#m27149c0f8a" x="73.832727" y="307.584" style="stroke: #000000; stroke-width: 0.8"/>
      </g>
     </g>
     <g id="text_1">
      <!-- 0 -->
      <g transform="translate(70.651477 322.182437) scale(0.1 -0.1)">
       <defs>
        <path id="DejaVuSans-30" d="M 2034 4250 
Q 1547 4250 1301 3770 
Q 1056 3291 1056 2328 
Q 1056 1369 1301 889 
Q 1547 409 2034 409 
Q 2525 409 2770 889 
Q 3016 1369 3016 2328 
Q 3016 3291 2770 3770 
Q 2525 4250 2034 4250 
z
M 2034 4750 
Q 2819 4750 3233 4129 
Q 3647 3509 3647 2328 
Q 3647 1150 3233 529 
Q 2819 -91 2034 -91 
Q 1250 -91 836 529 
Q 422 1150 422 2328 
Q 422 3509 836 4129 
Q 1250 4750 2034 4750 
z
" transform="scale(0.015625)"/>
       </defs>
       <use xlink:href="#DejaVuSans-30"/>
      </g>
     </g>
    </g>
    <g id="xtick_2">
     <g id="line2d_2">
      <g>
       <use xlink:href="#m27149c0f8a" x="114.414545" y="307.584" style="stroke: #000000; stroke-width: 0.8"/>
      </g>
     </g>
     <g id="text_2">
      <!-- 250 -->
      <g transform="translate(104.870795 322.182437) scale(0.1 -0.1)">
       <defs>
        <path id="DejaVuSans-32" d="M 1228 531 
L 3431 531 
L 3431 0 
L 469 0 
L 469 531 
Q 828 903 1448 1529 
Q 2069 2156 2228 2338 
Q 2531 2678 2651 2914 
Q 2772 3150 2772 3378 
Q 2772 3750 2511 3984 
Q 2250 4219 1831 4219 
Q 1534 4219 1204 4116 
Q 875 4013 500 3803 
L 500 4441 
Q 881 4594 1212 4672 
Q 1544 4750 1819 4750 
Q 2544 4750 2975 4387 
Q 3406 4025 3406 3419 
Q 3406 3131 3298 2873 
Q 3191 2616 2906 2266 
Q 2828 2175 2409 1742 
Q 1991 1309 1228 531 
z
" transform="scale(0.015625)"/>
        <path id="DejaVuSans-35" d="M 691 4666 
L 3169 4666 
L 3169 4134 
L 1269 4134 
L 1269 2991 
Q 1406 3038 1543 3061 
Q 1681 3084 1819 3084 
Q 2600 3084 3056 2656 
Q 3513 2228 3513 1497 
Q 3513 744 3044 326 
Q 2575 -91 1722 -91 
Q 1428 -91 1123 -41 
Q 819 9 494 109 
L 494 744 
Q 775 591 1075 516 
Q 1375 441 1709 441 
Q 2250 441 2565 725 
Q 2881 1009 2881 1497 
Q 2881 1984 2565 2268 
Q 2250 2553 1709 2553 
Q 1456 2553 1204 2497 
Q 953 2441 691 2322 
L 691 4666 
z
" transform="scale(0.015625)"/>
       </defs>
       <use xlink:href="#DejaVuSans-32"/>
       <use xlink:href="#DejaVuSans-35" transform="translate(63.623047 0)"/>
       <use xlink:href="#DejaVuSans-30" transform="translate(127.246094 0)"/>
      </g>
     </g>
    </g>
    <g id="xtick_3">
     <g id="line2d_3">
      <g>
       <use xlink:href="#m27149c0f8a" x="154.996364" y="307.584" style="stroke: #000000; stroke-width: 0.8"/>
      </g>
     </g>
     <g id="text_3">
      <!-- 500 -->
      <g transform="translate(145.452614 322.182437) scale(0.1 -0.1)">
       <use xlink:href="#DejaVuSans-35"/>
       <use xlink:href="#DejaVuSans-30" transform="translate(63.623047 0)"/>
       <use xlink:href="#DejaVuSans-30" transform="translate(127.246094 0)"/>
      </g>
     </g>
    </g>
    <g id="xtick_4">
     <g id="line2d_4">
      <g>
       <use xlink:href="#m27149c0f8a" x="195.578182" y="307.584" style="stroke: #000000; stroke-width: 0.8"/>
      </g>
     </g>
     <g id="text_4">
      <!-- 750 -->
      <g transform="translate(186.034432 322.182437) scale(0.1 -0.1)">
       <defs>
        <path id="DejaVuSans-37" d="M 525 4666 
L 3525 4666 
L 3525 4397 
L 1831 0 
L 1172 0 
L 2766 4134 
L 525 4134 
L 525 4666 
z
" transform="scale(0.015625)"/>
       </defs>
       <use xlink:href="#DejaVuSans-37"/>
       <use xlink:href="#DejaVuSans-35" transform="translate(63.623047 0)"/>
       <use xlink:href="#DejaVuSans-30" transform="translate(127.246094 0)"/>
      </g>
     </g>
    </g>
    <g id="xtick_5">
     <g id="line2d_5">
      <g>
       <use xlink:href="#m27149c0f8a" x="236.16" y="307.584" style="stroke: #000000; stroke-width: 0.8"/>
      </g>
     </g>
     <g id="text_5">
      <!-- 1000 -->
      <g transform="translate(223.435 322.182437) scale(0.1 -0.1)">
       <defs>
        <path id="DejaVuSans-31" d="M 794 531 
L 1825 531 
L 1825 4091 
L 703 3866 
L 703 4441 
L 1819 4666 
L 2450 4666 
L 2450 531 
L 3481 531 
L 3481 0 
L 794 0 
L 794 531 
z
" transform="scale(0.015625)"/>
       </defs>
       <use xlink:href="#DejaVuSans-31"/>
       <use xlink:href="#DejaVuSans-30" transform="translate(63.623047 0)"/>
       <use xlink:href="#DejaVuSans-30" transform="translate(127.246094 0)"/>
       <use xlink:href="#DejaVuSans-30" transform="translate(190.869141 0)"/>
      </g>
     </g>
    </g>
    <g id="xtick_6">
     <g id="line2d_6">
      <g>
       <use xlink:href="#m27149c0f8a" x="276.741818" y="307.584" style="stroke: #000000; stroke-width: 0.8"/>
      </g>
     </g>
     <g id="text_6">
      <!-- 1250 -->
      <g transform="translate(264.016818 322.182437) scale(0.1 -0.1)">
       <use xlink:href="#DejaVuSans-31"/>
       <use xlink:href="#DejaVuSans-32" transform="translate(63.623047 0)"/>
       <use xlink:href="#DejaVuSans-35" transform="translate(127.246094 0)"/>
       <use xlink:href="#DejaVuSans-30" transform="translate(190.869141 0)"/>
      </g>
     </g>
    </g>
    <g id="xtick_7">
     <g id="line2d_7">
      <g>
       <use xlink:href="#m27149c0f8a" x="317.323636" y="307.584" style="stroke: #000000; stroke-width: 0.8"/>
      </g>
     </g>
     <g id="text_7">
      <!-- 1500 -->
      <g transform="translate(304.598636 322.182437) scale(0.1 -0.1)">
       <use xlink:href="#DejaVuSans-31"/>
       <use xlink:href="#DejaVuSans-35" transform="translate(63.623047 0)"/>
       <use xlink:href="#DejaVuSans-30" transform="translate(127.246094 0)"/>
       <use xlink:href="#DejaVuSans-30" transform="translate(190.869141 0)"/>
      </g>
     </g>
    </g>
    <g id="xtick_8">
     <g id="line2d_8">
      <g>
       <use xlink:href="#m27149c0f8a" x="357.905455" y="307.584" style="stroke: #000000; stroke-width: 0.8"/>
      </g>
     </g>
     <g id="text_8">
      <!-- 1750 -->
      <g transform="translate(345.180455 322.182437) scale(0.1 -0.1)">
       <use xlink:href="#DejaVuSans-31"/>
       <use xlink:href="#DejaVuSans-37" transform="translate(63.623047 0)"/>
       <use xlink:href="#DejaVuSans-35" transform="translate(127.246094 0)"/>
       <use xlink:href="#DejaVuSans-30" transform="translate(190.869141 0)"/>
      </g>
     </g>
    </g>
    <g id="xtick_9">
     <g id="line2d_9">
      <g>
       <use xlink:href="#m27149c0f8a" x="398.487273" y="307.584" style="stroke: #000000; stroke-width: 0.8"/>
      </g>
     </g>
     <g id="text_9">
      <!-- 2000 -->
      <g transform="translate(385.762273 322.182437) scale(0.1 -0.1)">
       <use xlink:href="#DejaVuSans-32"/>
       <use xlink:href="#DejaVuSans-30" transform="translate(63.623047 0)"/>
       <use xlink:href="#DejaVuSans-30" transform="translate(127.246094 0)"/>
       <use xlink:href="#DejaVuSans-30" transform="translate(190.869141 0)"/>
      </g>
     </g>
    </g>
    <g id="text_10">
     <!-- Epochs -->
     <g transform="translate(218.244375 335.860562) scale(0.1 -0.1)">
      <defs>
       <path id="DejaVuSans-45" d="M 628 4666 
L 3578 4666 
L 3578 4134 
L 1259 4134 
L 1259 2753 
L 3481 2753 
L 3481 2222 
L 1259 2222 
L 1259 531 
L 3634 531 
L 3634 0 
L 628 0 
L 628 4666 
z
" transform="scale(0.015625)"/>
       <path id="DejaVuSans-70" d="M 1159 525 
L 1159 -1331 
L 581 -1331 
L 581 3500 
L 1159 3500 
L 1159 2969 
Q 1341 3281 1617 3432 
Q 1894 3584 2278 3584 
Q 2916 3584 3314 3078 
Q 3713 2572 3713 1747 
Q 3713 922 3314 415 
Q 2916 -91 2278 -91 
Q 1894 -91 1617 61 
Q 1341 213 1159 525 
z
M 3116 1747 
Q 3116 2381 2855 2742 
Q 2594 3103 2138 3103 
Q 1681 3103 1420 2742 
Q 1159 2381 1159 1747 
Q 1159 1113 1420 752 
Q 1681 391 2138 391 
Q 2594 391 2855 752 
Q 3116 1113 3116 1747 
z
" transform="scale(0.015625)"/>
       <path id="DejaVuSans-6f" d="M 1959 3097 
Q 1497 3097 1228 2736 
Q 959 2375 959 1747 
Q 959 1119 1226 758 
Q 1494 397 1959 397 
Q 2419 397 2687 759 
Q 2956 1122 2956 1747 
Q 2956 2369 2687 2733 
Q 2419 3097 1959 3097 
z
M 1959 3584 
Q 2709 3584 3137 3096 
Q 3566 2609 3566 1747 
Q 3566 888 3137 398 
Q 2709 -91 1959 -91 
Q 1206 -91 779 398 
Q 353 888 353 1747 
Q 353 2609 779 3096 
Q 1206 3584 1959 3584 
z
" transform="scale(0.015625)"/>
       <path id="DejaVuSans-63" d="M 3122 3366 
L 3122 2828 
Q 2878 2963 2633 3030 
Q 2388 3097 2138 3097 
Q 1578 3097 1268 2742 
Q 959 2388 959 1747 
Q 959 1106 1268 751 
Q 1578 397 2138 397 
Q 2388 397 2633 464 
Q 2878 531 3122 666 
L 3122 134 
Q 2881 22 2623 -34 
Q 2366 -91 2075 -91 
Q 1284 -91 818 406 
Q 353 903 353 1747 
Q 353 2603 823 3093 
Q 1294 3584 2113 3584 
Q 2378 3584 2631 3529 
Q 2884 3475 3122 3366 
z
" transform="scale(0.015625)"/>
       <path id="DejaVuSans-68" d="M 3513 2113 
L 3513 0 
L 2938 0 
L 2938 2094 
Q 2938 2591 2744 2837 
Q 2550 3084 2163 3084 
Q 1697 3084 1428 2787 
Q 1159 2491 1159 1978 
L 1159 0 
L 581 0 
L 581 4863 
L 1159 4863 
L 1159 2956 
Q 1366 3272 1645 3428 
Q 1925 3584 2291 3584 
Q 2894 3584 3203 3211 
Q 3513 2838 3513 2113 
z
" transform="scale(0.015625)"/>
       <path id="DejaVuSans-73" d="M 2834 3397 
L 2834 2853 
Q 2591 2978 2328 3040 
Q 2066 3103 1784 3103 
Q 1356 3103 1142 2972 
Q 928 2841 928 2578 
Q 928 2378 1081 2264 
Q 1234 2150 1697 2047 
L 1894 2003 
Q 2506 1872 2764 1633 
Q 3022 1394 3022 966 
Q 3022 478 2636 193 
Q 2250 -91 1575 -91 
Q 1294 -91 989 -36 
Q 684 19 347 128 
L 347 722 
Q 666 556 975 473 
Q 1284 391 1588 391 
Q 1994 391 2212 530 
Q 2431 669 2431 922 
Q 2431 1156 2273 1281 
Q 2116 1406 1581 1522 
L 1381 1569 
Q 847 1681 609 1914 
Q 372 2147 372 2553 
Q 372 3047 722 3315 
Q 1072 3584 1716 3584 
Q 2034 3584 2315 3537 
Q 2597 3491 2834 3397 
z
" transform="scale(0.015625)"/>
      </defs>
      <use xlink:href="#DejaVuSans-45"/>
      <use xlink:href="#DejaVuSans-70" transform="translate(63.183594 0)"/>
      <use xlink:href="#DejaVuSans-6f" transform="translate(126.660156 0)"/>
      <use xlink:href="#DejaVuSans-63" transform="translate(187.841797 0)"/>
      <use xlink:href="#DejaVuSans-68" transform="translate(242.822266 0)"/>
      <use xlink:href="#DejaVuSans-73" transform="translate(306.201172 0)"/>
     </g>
    </g>
   </g>
   <g id="matplotlib.axis_2">
    <g id="ytick_1">
     <g id="line2d_10">
      <defs>
       <path id="m485ba165c2" d="M 0 0 
L -3.5 0 
" style="stroke: #000000; stroke-width: 0.8"/>
      </defs>
      <g>
       <use xlink:href="#m485ba165c2" x="57.6" y="295.488" style="stroke: #000000; stroke-width: 0.8"/>
      </g>
     </g>
     <g id="text_11">
      <!-- 0 -->
      <g transform="translate(44.2375 299.287219) scale(0.1 -0.1)">
       <use xlink:href="#DejaVuSans-30"/>
      </g>
     </g>
    </g>
    <g id="ytick_2">
     <g id="line2d_11">
      <g>
       <use xlink:href="#m485ba165c2" x="57.6" y="250.128002" style="stroke: #000000; stroke-width: 0.8"/>
      </g>
     </g>
     <g id="text_12">
      <!-- 5 -->
      <g transform="translate(44.2375 253.927221) scale(0.1 -0.1)">
       <use xlink:href="#DejaVuSans-35"/>
      </g>
     </g>
    </g>
    <g id="ytick_3">
     <g id="line2d_12">
      <g>
       <use xlink:href="#m485ba165c2" x="57.6" y="204.768005" style="stroke: #000000; stroke-width: 0.8"/>
      </g>
     </g>
     <g id="text_13">
      <!-- 10 -->
      <g transform="translate(37.875 208.567223) scale(0.1 -0.1)">
       <use xlink:href="#DejaVuSans-31"/>
       <use xlink:href="#DejaVuSans-30" transform="translate(63.623047 0)"/>
      </g>
     </g>
    </g>
    <g id="ytick_4">
     <g id="line2d_13">
      <g>
       <use xlink:href="#m485ba165c2" x="57.6" y="159.408007" style="stroke: #000000; stroke-width: 0.8"/>
      </g>
     </g>
     <g id="text_14">
      <!-- 15 -->
      <g transform="translate(37.875 163.207226) scale(0.1 -0.1)">
       <use xlink:href="#DejaVuSans-31"/>
       <use xlink:href="#DejaVuSans-35" transform="translate(63.623047 0)"/>
      </g>
     </g>
    </g>
    <g id="ytick_5">
     <g id="line2d_14">
      <g>
       <use xlink:href="#m485ba165c2" x="57.6" y="114.048009" style="stroke: #000000; stroke-width: 0.8"/>
      </g>
     </g>
     <g id="text_15">
      <!-- 20 -->
      <g transform="translate(37.875 117.847228) scale(0.1 -0.1)">
       <use xlink:href="#DejaVuSans-32"/>
       <use xlink:href="#DejaVuSans-30" transform="translate(63.623047 0)"/>
      </g>
     </g>
    </g>
    <g id="ytick_6">
     <g id="line2d_15">
      <g>
       <use xlink:href="#m485ba165c2" x="57.6" y="68.688012" style="stroke: #000000; stroke-width: 0.8"/>
      </g>
     </g>
     <g id="text_16">
      <!-- 25 -->
      <g transform="translate(37.875 72.487231) scale(0.1 -0.1)">
       <use xlink:href="#DejaVuSans-32"/>
       <use xlink:href="#DejaVuSans-35" transform="translate(63.623047 0)"/>
      </g>
     </g>
    </g>
    <g id="text_17">
     <!-- Accuracy within 5% (%) -->
     <g transform="translate(31.795312 233.872531) rotate(-90) scale(0.1 -0.1)">
      <defs>
       <path id="DejaVuSans-41" d="M 2188 4044 
L 1331 1722 
L 3047 1722 
L 2188 4044 
z
M 1831 4666 
L 2547 4666 
L 4325 0 
L 3669 0 
L 3244 1197 
L 1141 1197 
L 716 0 
L 50 0 
L 1831 4666 
z
" transform="scale(0.015625)"/>
       <path id="DejaVuSans-75" d="M 544 1381 
L 544 3500 
L 1119 3500 
L 1119 1403 
Q 1119 906 1312 657 
Q 1506 409 1894 409 
Q 2359 409 2629 706 
Q 2900 1003 2900 1516 
L 2900 3500 
L 3475 3500 
L 3475 0 
L 2900 0 
L 2900 538 
Q 2691 219 2414 64 
Q 2138 -91 1772 -91 
Q 1169 -91 856 284 
Q 544 659 544 1381 
z
M 1991 3584 
L 1991 3584 
z
" transform="scale(0.015625)"/>
       <path id="DejaVuSans-72" d="M 2631 2963 
Q 2534 3019 2420 3045 
Q 2306 3072 2169 3072 
Q 1681 3072 1420 2755 
Q 1159 2438 1159 1844 
L 1159 0 
L 581 0 
L 581 3500 
L 1159 3500 
L 1159 2956 
Q 1341 3275 1631 3429 
Q 1922 3584 2338 3584 
Q 2397 3584 2469 3576 
Q 2541 3569 2628 3553 
L 2631 2963 
z
" transform="scale(0.015625)"/>
       <path id="DejaVuSans-61" d="M 2194 1759 
Q 1497 1759 1228 1600 
Q 959 1441 959 1056 
Q 959 750 1161 570 
Q 1363 391 1709 391 
Q 2188 391 2477 730 
Q 2766 1069 2766 1631 
L 2766 1759 
L 2194 1759 
z
M 3341 1997 
L 3341 0 
L 2766 0 
L 2766 531 
Q 2569 213 2275 61 
Q 1981 -91 1556 -91 
Q 1019 -91 701 211 
Q 384 513 384 1019 
Q 384 1609 779 1909 
Q 1175 2209 1959 2209 
L 2766 2209 
L 2766 2266 
Q 2766 2663 2505 2880 
Q 2244 3097 1772 3097 
Q 1472 3097 1187 3025 
Q 903 2953 641 2809 
L 641 3341 
Q 956 3463 1253 3523 
Q 1550 3584 1831 3584 
Q 2591 3584 2966 3190 
Q 3341 2797 3341 1997 
z
" transform="scale(0.015625)"/>
       <path id="DejaVuSans-79" d="M 2059 -325 
Q 1816 -950 1584 -1140 
Q 1353 -1331 966 -1331 
L 506 -1331 
L 506 -850 
L 844 -850 
Q 1081 -850 1212 -737 
Q 1344 -625 1503 -206 
L 1606 56 
L 191 3500 
L 800 3500 
L 1894 763 
L 2988 3500 
L 3597 3500 
L 2059 -325 
z
" transform="scale(0.015625)"/>
       <path id="DejaVuSans-20" transform="scale(0.015625)"/>
       <path id="DejaVuSans-77" d="M 269 3500 
L 844 3500 
L 1563 769 
L 2278 3500 
L 2956 3500 
L 3675 769 
L 4391 3500 
L 4966 3500 
L 4050 0 
L 3372 0 
L 2619 2869 
L 1863 0 
L 1184 0 
L 269 3500 
z
" transform="scale(0.015625)"/>
       <path id="DejaVuSans-69" d="M 603 3500 
L 1178 3500 
L 1178 0 
L 603 0 
L 603 3500 
z
M 603 4863 
L 1178 4863 
L 1178 4134 
L 603 4134 
L 603 4863 
z
" transform="scale(0.015625)"/>
       <path id="DejaVuSans-74" d="M 1172 4494 
L 1172 3500 
L 2356 3500 
L 2356 3053 
L 1172 3053 
L 1172 1153 
Q 1172 725 1289 603 
Q 1406 481 1766 481 
L 2356 481 
L 2356 0 
L 1766 0 
Q 1100 0 847 248 
Q 594 497 594 1153 
L 594 3053 
L 172 3053 
L 172 3500 
L 594 3500 
L 594 4494 
L 1172 4494 
z
" transform="scale(0.015625)"/>
       <path id="DejaVuSans-6e" d="M 3513 2113 
L 3513 0 
L 2938 0 
L 2938 2094 
Q 2938 2591 2744 2837 
Q 2550 3084 2163 3084 
Q 1697 3084 1428 2787 
Q 1159 2491 1159 1978 
L 1159 0 
L 581 0 
L 581 3500 
L 1159 3500 
L 1159 2956 
Q 1366 3272 1645 3428 
Q 1925 3584 2291 3584 
Q 2894 3584 3203 3211 
Q 3513 2838 3513 2113 
z
" transform="scale(0.015625)"/>
       <path id="DejaVuSans-25" d="M 4653 2053 
Q 4381 2053 4226 1822 
Q 4072 1591 4072 1178 
Q 4072 772 4226 539 
Q 4381 306 4653 306 
Q 4919 306 5073 539 
Q 5228 772 5228 1178 
Q 5228 1588 5073 1820 
Q 4919 2053 4653 2053 
z
M 4653 2450 
Q 5147 2450 5437 2106 
Q 5728 1763 5728 1178 
Q 5728 594 5436 251 
Q 5144 -91 4653 -91 
Q 4153 -91 3862 251 
Q 3572 594 3572 1178 
Q 3572 1766 3864 2108 
Q 4156 2450 4653 2450 
z
M 1428 4353 
Q 1159 4353 1004 4120 
Q 850 3888 850 3481 
Q 850 3069 1003 2837 
Q 1156 2606 1428 2606 
Q 1700 2606 1854 2837 
Q 2009 3069 2009 3481 
Q 2009 3884 1853 4118 
Q 1697 4353 1428 4353 
z
M 4250 4750 
L 4750 4750 
L 1831 -91 
L 1331 -91 
L 4250 4750 
z
M 1428 4750 
Q 1922 4750 2215 4408 
Q 2509 4066 2509 3481 
Q 2509 2891 2217 2550 
Q 1925 2209 1428 2209 
Q 931 2209 642 2551 
Q 353 2894 353 3481 
Q 353 4063 643 4406 
Q 934 4750 1428 4750 
z
" transform="scale(0.015625)"/>
       <path id="DejaVuSans-28" d="M 1984 4856 
Q 1566 4138 1362 3434 
Q 1159 2731 1159 2009 
Q 1159 1288 1364 580 
Q 1569 -128 1984 -844 
L 1484 -844 
Q 1016 -109 783 600 
Q 550 1309 550 2009 
Q 550 2706 781 3412 
Q 1013 4119 1484 4856 
L 1984 4856 
z
" transform="scale(0.015625)"/>
       <path id="DejaVuSans-29" d="M 513 4856 
L 1013 4856 
Q 1481 4119 1714 3412 
Q 1947 2706 1947 2009 
Q 1947 1309 1714 600 
Q 1481 -109 1013 -844 
L 513 -844 
Q 928 -128 1133 580 
Q 1338 1288 1338 2009 
Q 1338 2731 1133 3434 
Q 928 4138 513 4856 
z
" transform="scale(0.015625)"/>
      </defs>
      <use xlink:href="#DejaVuSans-41"/>
      <use xlink:href="#DejaVuSans-63" transform="translate(66.658203 0)"/>
      <use xlink:href="#DejaVuSans-63" transform="translate(121.638672 0)"/>
      <use xlink:href="#DejaVuSans-75" transform="translate(176.619141 0)"/>
      <use xlink:href="#DejaVuSans-72" transform="translate(239.998047 0)"/>
      <use xlink:href="#DejaVuSans-61" transform="translate(281.111328 0)"/>
      <use xlink:href="#DejaVuSans-63" transform="translate(342.390625 0)"/>
      <use xlink:href="#DejaVuSans-79" transform="translate(397.371094 0)"/>
      <use xlink:href="#DejaVuSans-20" transform="translate(456.550781 0)"/>
      <use xlink:href="#DejaVuSans-77" transform="translate(488.337891 0)"/>
      <use xlink:href="#DejaVuSans-69" transform="translate(570.125 0)"/>
      <use xlink:href="#DejaVuSans-74" transform="translate(597.908203 0)"/>
      <use xlink:href="#DejaVuSans-68" transform="translate(637.117188 0)"/>
      <use xlink:href="#DejaVuSans-69" transform="translate(700.496094 0)"/>
      <use xlink:href="#DejaVuSans-6e" transform="translate(728.279297 0)"/>
      <use xlink:href="#DejaVuSans-20" transform="translate(791.658203 0)"/>
      <use xlink:href="#DejaVuSans-35" transform="translate(823.445312 0)"/>
      <use xlink:href="#DejaVuSans-25" transform="translate(887.068359 0)"/>
      <use xlink:href="#DejaVuSans-20" transform="translate(982.087891 0)"/>
      <use xlink:href="#DejaVuSans-28" transform="translate(1013.875 0)"/>
      <use xlink:href="#DejaVuSans-25" transform="translate(1052.888672 0)"/>
      <use xlink:href="#DejaVuSans-29" transform="translate(1147.908203 0)"/>
     </g>
    </g>
   </g>
   <g id="line2d_16">
    <path d="M 73.832727 204.767997 
L 73.995055 280.368 
L 74.157382 265.248 
L 74.482036 219.888002 
L 74.806691 250.127998 
L 74.969018 250.127998 
L 75.131345 235.008 
L 75.293673 204.767997 
L 75.456 250.127998 
L 75.780655 159.408002 
L 75.942982 159.408002 
L 76.105309 129.168005 
L 76.267636 235.008 
L 76.429964 235.008 
L 76.754618 204.767997 
L 76.916945 219.888002 
L 77.079273 174.528 
L 77.2416 174.528 
L 77.403927 235.008 
L 77.728582 204.767997 
L 77.890909 204.767997 
L 78.215564 174.528 
L 78.377891 219.888002 
L 78.540218 204.767997 
L 78.702545 219.888002 
L 78.864873 189.647998 
L 79.189527 250.127998 
L 79.351855 219.888002 
L 79.514182 219.888002 
L 79.676509 235.008 
L 79.838836 219.888002 
L 80.001164 235.008 
L 80.650473 235.008 
L 80.8128 250.127998 
L 80.975127 219.888002 
L 81.137455 219.888002 
L 81.299782 265.248 
L 81.462109 265.248 
L 81.786764 204.767997 
L 81.949091 250.127998 
L 82.273745 250.127998 
L 82.436073 280.368 
L 82.5984 250.127998 
L 82.760727 265.248 
L 83.247709 265.248 
L 83.410036 250.127998 
L 83.572364 265.248 
L 83.734691 250.127998 
L 83.897018 265.248 
L 84.059345 250.127998 
L 84.221673 174.528 
L 84.384 250.127998 
L 84.546327 265.248 
L 84.870982 265.248 
L 85.033309 235.008 
L 85.357964 265.248 
L 85.520291 235.008 
L 85.682618 250.127998 
L 85.844945 204.767997 
L 86.007273 250.127998 
L 86.1696 174.528 
L 86.494255 250.127998 
L 86.818909 250.127998 
L 86.981236 235.008 
L 87.305891 235.008 
L 87.468218 250.127998 
L 87.630545 189.647998 
L 87.792873 250.127998 
L 87.9552 250.127998 
L 88.117527 219.888002 
L 88.604509 265.248 
L 88.766836 250.127998 
L 88.929164 219.888002 
L 89.091491 235.008 
L 89.253818 204.767997 
L 89.416145 219.888002 
L 89.578473 250.127998 
L 89.7408 235.008 
L 89.903127 280.368 
L 90.065455 144.288003 
L 90.227782 250.127998 
L 90.390109 189.647998 
L 90.552436 250.127998 
L 90.714764 235.008 
L 90.877091 204.767997 
L 91.201745 265.248 
L 91.364073 219.888002 
L 91.5264 250.127998 
L 91.688727 219.888002 
L 91.851055 265.248 
L 92.013382 235.008 
L 92.338036 265.248 
L 92.662691 235.008 
L 92.825018 235.008 
L 92.987345 265.248 
L 93.149673 235.008 
L 93.474327 265.248 
L 93.636655 219.888002 
L 93.798982 250.127998 
L 93.961309 235.008 
L 94.123636 174.528 
L 94.285964 265.248 
L 94.448291 204.767997 
L 94.610618 235.008 
L 94.772945 219.888002 
L 94.935273 235.008 
L 95.0976 219.888002 
L 95.259927 265.248 
L 95.422255 250.127998 
L 95.584582 250.127998 
L 95.746909 265.248 
L 95.909236 219.888002 
L 96.071564 250.127998 
L 96.396218 174.528 
L 96.558545 250.127998 
L 96.8832 189.647998 
L 97.045527 250.127998 
L 97.207855 250.127998 
L 97.370182 235.008 
L 97.532509 204.767997 
L 97.694836 250.127998 
L 97.857164 174.528 
L 98.019491 219.888002 
L 98.344145 219.888002 
L 98.506473 280.368 
L 98.6688 204.767997 
L 98.993455 204.767997 
L 99.318109 235.008 
L 99.480436 265.248 
L 99.642764 235.008 
L 99.805091 250.127998 
L 99.967418 250.127998 
L 100.129745 174.528 
L 100.292073 250.127998 
L 100.616727 189.647998 
L 100.779055 219.888002 
L 100.941382 219.888002 
L 101.103709 204.767997 
L 101.266036 159.408002 
L 101.428364 235.008 
L 101.590691 204.767997 
L 101.753018 219.888002 
L 101.915345 219.888002 
L 102.077673 174.528 
L 102.402327 250.127998 
L 102.564655 235.008 
L 102.889309 235.008 
L 103.051636 219.888002 
L 103.213964 250.127998 
L 103.376291 144.288003 
L 103.538618 204.767997 
L 103.700945 219.888002 
L 103.863273 250.127998 
L 104.0256 204.767997 
L 104.187927 265.248 
L 104.350255 219.888002 
L 104.512582 250.127998 
L 104.674909 219.888002 
L 104.837236 235.008 
L 104.999564 189.647998 
L 105.161891 235.008 
L 105.486545 189.647998 
L 105.648873 250.127998 
L 105.8112 189.647998 
L 105.973527 53.568 
L 106.135855 250.127998 
L 106.298182 235.008 
L 106.460509 250.127998 
L 106.622836 174.528 
L 106.785164 250.127998 
L 106.947491 219.888002 
L 107.109818 265.248 
L 107.272145 265.248 
L 107.5968 204.767997 
L 107.759127 219.888002 
L 107.921455 219.888002 
L 108.083782 250.127998 
L 108.408436 219.888002 
L 108.570764 265.248 
L 108.895418 204.767997 
L 109.057745 204.767997 
L 109.220073 265.248 
L 109.3824 204.767997 
L 109.544727 219.888002 
L 109.707055 250.127998 
L 109.869382 219.888002 
L 110.031709 219.888002 
L 110.194036 265.248 
L 110.356364 235.008 
L 110.518691 235.008 
L 110.681018 174.528 
L 111.005673 265.248 
L 111.168 219.888002 
L 111.330327 250.127998 
L 111.492655 204.767997 
L 111.817309 295.488 
L 112.141964 219.888002 
L 112.304291 219.888002 
L 112.466618 250.127998 
L 112.628945 83.807997 
L 112.791273 250.127998 
L 112.9536 265.248 
L 113.115927 219.888002 
L 113.278255 250.127998 
L 113.440582 219.888002 
L 113.602909 159.408002 
L 113.765236 235.008 
L 113.927564 235.008 
L 114.089891 265.248 
L 114.414545 204.767997 
L 114.576873 250.127998 
L 114.7392 189.647998 
L 114.901527 235.008 
L 115.063855 189.647998 
L 115.226182 280.368 
L 115.550836 204.767997 
L 115.713164 280.368 
L 115.875491 250.127998 
L 116.037818 174.528 
L 116.200145 250.127998 
L 116.362473 235.008 
L 116.5248 235.008 
L 116.687127 174.528 
L 116.849455 265.248 
L 117.011782 204.767997 
L 117.174109 219.888002 
L 117.336436 250.127998 
L 117.661091 189.647998 
L 117.823418 265.248 
L 117.985745 250.127998 
L 118.148073 204.767997 
L 118.3104 265.248 
L 118.472727 250.127998 
L 118.635055 250.127998 
L 118.797382 235.008 
L 118.959709 235.008 
L 119.122036 204.767997 
L 119.284364 235.008 
L 119.446691 204.767997 
L 119.609018 250.127998 
L 119.771345 235.008 
L 120.096 235.008 
L 120.258327 250.127998 
L 120.420655 250.127998 
L 120.745309 219.888002 
L 120.907636 265.248 
L 121.069964 250.127998 
L 121.232291 265.248 
L 121.394618 235.008 
L 121.556945 265.248 
L 121.719273 250.127998 
L 121.8816 204.767997 
L 122.043927 265.248 
L 122.206255 235.008 
L 122.368582 265.248 
L 122.530909 219.888002 
L 122.693236 219.888002 
L 122.855564 250.127998 
L 123.017891 235.008 
L 123.342545 265.248 
L 123.504873 159.408002 
L 123.6672 265.248 
L 123.829527 204.767997 
L 124.154182 280.368 
L 124.478836 174.528 
L 124.641164 250.127998 
L 124.803491 235.008 
L 124.965818 250.127998 
L 125.128145 219.888002 
L 125.4528 219.888002 
L 125.615127 250.127998 
L 125.777455 235.008 
L 125.939782 250.127998 
L 126.102109 189.647998 
L 126.264436 189.647998 
L 126.589091 250.127998 
L 126.751418 204.767997 
L 126.913745 265.248 
L 127.076073 250.127998 
L 127.2384 265.248 
L 127.400727 235.008 
L 127.563055 250.127998 
L 127.725382 250.127998 
L 127.887709 235.008 
L 128.050036 265.248 
L 128.212364 204.767997 
L 128.374691 250.127998 
L 128.537018 235.008 
L 128.861673 235.008 
L 129.024 174.528 
L 129.348655 265.248 
L 129.510982 98.927995 
L 129.673309 265.248 
L 129.835636 250.127998 
L 129.997964 144.288003 
L 130.322618 265.248 
L 130.484945 250.127998 
L 130.647273 265.248 
L 130.8096 265.248 
L 130.971927 204.767997 
L 131.296582 265.248 
L 131.458909 189.647998 
L 131.621236 280.368 
L 131.783564 265.248 
L 132.108218 219.888002 
L 132.270545 265.248 
L 132.5952 235.008 
L 132.757527 250.127998 
L 132.919855 219.888002 
L 133.082182 219.888002 
L 133.244509 250.127998 
L 133.406836 235.008 
L 133.569164 235.008 
L 133.731491 204.767997 
L 133.893818 250.127998 
L 134.056145 250.127998 
L 134.218473 174.528 
L 134.3808 250.127998 
L 134.543127 235.008 
L 134.705455 250.127998 
L 134.867782 235.008 
L 135.030109 204.767997 
L 135.192436 219.888002 
L 135.354764 204.767997 
L 135.517091 250.127998 
L 135.679418 250.127998 
L 135.841745 219.888002 
L 136.004073 235.008 
L 136.1664 235.008 
L 136.328727 250.127998 
L 136.491055 219.888002 
L 136.653382 235.008 
L 136.815709 219.888002 
L 136.978036 219.888002 
L 137.140364 235.008 
L 137.465018 235.008 
L 137.627345 250.127998 
L 137.789673 219.888002 
L 137.952 265.248 
L 138.114327 204.767997 
L 138.276655 219.888002 
L 138.438982 250.127998 
L 138.601309 219.888002 
L 138.763636 265.248 
L 138.925964 265.248 
L 139.088291 219.888002 
L 139.250618 235.008 
L 139.575273 204.767997 
L 139.899927 235.008 
L 140.062255 219.888002 
L 140.224582 265.248 
L 140.549236 204.767997 
L 140.711564 250.127998 
L 141.036218 219.888002 
L 141.198545 219.888002 
L 141.360873 250.127998 
L 141.5232 235.008 
L 141.685527 250.127998 
L 142.010182 219.888002 
L 142.172509 265.248 
L 142.334836 250.127998 
L 142.497164 219.888002 
L 142.659491 235.008 
L 142.821818 265.248 
L 142.984145 235.008 
L 143.146473 235.008 
L 143.471127 265.248 
L 143.795782 204.767997 
L 144.120436 265.248 
L 144.282764 219.888002 
L 144.445091 235.008 
L 144.769745 235.008 
L 144.932073 250.127998 
L 145.0944 250.127998 
L 145.256727 235.008 
L 145.581382 235.008 
L 145.743709 265.248 
L 145.906036 204.767997 
L 146.068364 265.248 
L 146.393018 235.008 
L 146.555345 250.127998 
L 146.717673 235.008 
L 146.88 250.127998 
L 147.042327 144.288003 
L 147.204655 250.127998 
L 147.366982 235.008 
L 147.529309 189.647998 
L 147.691636 265.248 
L 147.853964 235.008 
L 148.016291 250.127998 
L 148.178618 250.127998 
L 148.340945 265.248 
L 148.503273 219.888002 
L 148.6656 250.127998 
L 148.827927 235.008 
L 148.990255 235.008 
L 149.152582 204.767997 
L 149.314909 235.008 
L 149.477236 235.008 
L 149.639564 250.127998 
L 149.801891 250.127998 
L 149.964218 235.008 
L 150.126545 250.127998 
L 150.288873 219.888002 
L 150.613527 265.248 
L 150.938182 219.888002 
L 151.100509 219.888002 
L 151.262836 204.767997 
L 151.425164 265.248 
L 151.587491 250.127998 
L 151.749818 265.248 
L 151.912145 235.008 
L 152.074473 235.008 
L 152.2368 265.248 
L 152.399127 219.888002 
L 152.561455 250.127998 
L 152.723782 235.008 
L 152.886109 174.528 
L 153.048436 250.127998 
L 153.210764 204.767997 
L 153.373091 250.127998 
L 153.535418 235.008 
L 153.860073 235.008 
L 154.0224 189.647998 
L 154.184727 250.127998 
L 154.347055 265.248 
L 154.834036 265.248 
L 154.996364 235.008 
L 155.321018 280.368 
L 155.808 235.008 
L 155.970327 280.368 
L 156.132655 204.767997 
L 156.619636 250.127998 
L 156.781964 189.647998 
L 156.944291 204.767997 
L 157.431273 280.368 
L 157.5936 219.888002 
L 157.755927 219.888002 
L 157.918255 265.248 
L 158.242909 235.008 
L 158.405236 204.767997 
L 158.567564 265.248 
L 158.892218 219.888002 
L 159.054545 204.767997 
L 159.216873 250.127998 
L 159.3792 204.767997 
L 159.541527 265.248 
L 159.866182 219.888002 
L 160.190836 280.368 
L 160.353164 280.368 
L 160.515491 265.248 
L 160.677818 265.248 
L 161.002473 219.888002 
L 161.1648 265.248 
L 161.327127 250.127998 
L 161.489455 219.888002 
L 161.651782 280.368 
L 161.976436 235.008 
L 162.138764 265.248 
L 162.463418 235.008 
L 162.625745 235.008 
L 162.788073 250.127998 
L 162.9504 250.127998 
L 163.112727 280.368 
L 163.275055 250.127998 
L 163.437382 265.248 
L 163.599709 250.127998 
L 163.762036 265.248 
L 164.249018 265.248 
L 164.411345 250.127998 
L 164.573673 250.127998 
L 164.736 265.248 
L 164.898327 265.248 
L 165.060655 250.127998 
L 165.222982 280.368 
L 165.385309 265.248 
L 165.547636 235.008 
L 165.709964 265.248 
L 165.872291 250.127998 
L 166.034618 174.528 
L 166.196945 250.127998 
L 166.359273 235.008 
L 166.5216 280.368 
L 166.683927 250.127998 
L 167.170909 250.127998 
L 167.333236 265.248 
L 167.495564 204.767997 
L 167.657891 280.368 
L 167.820218 250.127998 
L 168.144873 250.127998 
L 168.3072 265.248 
L 168.631855 235.008 
L 168.794182 250.127998 
L 168.956509 250.127998 
L 169.118836 235.008 
L 169.281164 265.248 
L 169.443491 235.008 
L 169.605818 280.368 
L 169.930473 280.368 
L 170.0928 235.008 
L 170.255127 250.127998 
L 170.417455 250.127998 
L 170.579782 235.008 
L 170.742109 235.008 
L 170.904436 250.127998 
L 171.229091 219.888002 
L 171.553745 250.127998 
L 171.716073 250.127998 
L 171.8784 235.008 
L 172.040727 265.248 
L 172.365382 265.248 
L 172.527709 250.127998 
L 173.177018 250.127998 
L 173.339345 280.368 
L 173.501673 280.368 
L 173.664 265.248 
L 173.826327 265.248 
L 173.988655 219.888002 
L 174.313309 280.368 
L 174.475636 250.127998 
L 175.611927 250.127998 
L 175.774255 235.008 
L 175.936582 189.647998 
L 176.098909 250.127998 
L 176.261236 235.008 
L 176.423564 235.008 
L 176.585891 265.248 
L 176.748218 235.008 
L 176.910545 280.368 
L 177.072873 265.248 
L 177.2352 265.248 
L 177.397527 280.368 
L 177.559855 235.008 
L 177.722182 265.248 
L 178.046836 265.248 
L 178.209164 235.008 
L 178.371491 250.127998 
L 178.533818 219.888002 
L 178.858473 265.248 
L 179.0208 235.008 
L 179.345455 265.248 
L 179.670109 189.647998 
L 179.994764 280.368 
L 180.157091 219.888002 
L 180.481745 265.248 
L 180.644073 235.008 
L 180.8064 265.248 
L 180.968727 265.248 
L 181.131055 204.767997 
L 181.293382 280.368 
L 181.455709 280.368 
L 181.618036 235.008 
L 181.780364 265.248 
L 181.942691 250.127998 
L 182.267345 250.127998 
L 182.429673 280.368 
L 182.592 204.767997 
L 182.754327 265.248 
L 182.916655 235.008 
L 183.078982 235.008 
L 183.241309 265.248 
L 183.403636 250.127998 
L 183.565964 250.127998 
L 183.728291 265.248 
L 183.890618 235.008 
L 184.215273 265.248 
L 184.539927 219.888002 
L 184.702255 250.127998 
L 184.864582 250.127998 
L 185.026909 144.288003 
L 185.189236 265.248 
L 185.351564 265.248 
L 185.513891 219.888002 
L 185.676218 219.888002 
L 185.838545 189.647998 
L 186.000873 265.248 
L 186.1632 265.248 
L 186.487855 219.888002 
L 186.650182 250.127998 
L 186.812509 235.008 
L 186.974836 204.767997 
L 187.137164 265.248 
L 187.299491 265.248 
L 187.461818 204.767997 
L 187.624145 250.127998 
L 187.786473 250.127998 
L 187.9488 204.767997 
L 188.273455 295.488 
L 188.435782 219.888002 
L 188.598109 250.127998 
L 188.760436 219.888002 
L 189.085091 280.368 
L 189.247418 265.248 
L 189.409745 219.888002 
L 189.572073 250.127998 
L 189.7344 235.008 
L 189.896727 204.767997 
L 190.221382 250.127998 
L 190.383709 235.008 
L 190.546036 250.127998 
L 190.870691 250.127998 
L 191.033018 235.008 
L 191.357673 265.248 
L 191.52 219.888002 
L 191.682327 280.368 
L 191.844655 235.008 
L 192.006982 265.248 
L 192.169309 235.008 
L 192.331636 250.127998 
L 192.493964 235.008 
L 192.656291 144.288003 
L 192.980945 250.127998 
L 193.143273 265.248 
L 193.3056 219.888002 
L 193.467927 235.008 
L 193.630255 235.008 
L 193.792582 250.127998 
L 193.954909 219.888002 
L 194.117236 235.008 
L 194.604218 235.008 
L 194.928873 265.248 
L 195.0912 250.127998 
L 195.415855 204.767997 
L 195.740509 250.127998 
L 195.902836 235.008 
L 196.065164 280.368 
L 196.389818 250.127998 
L 196.552145 265.248 
L 196.714473 235.008 
L 197.039127 235.008 
L 197.201455 219.888002 
L 197.363782 235.008 
L 197.526109 174.528 
L 197.850764 265.248 
L 198.013091 174.528 
L 198.175418 235.008 
L 198.337745 250.127998 
L 198.500073 250.127998 
L 198.824727 189.647998 
L 198.987055 219.888002 
L 199.149382 219.888002 
L 199.474036 265.248 
L 199.636364 250.127998 
L 199.798691 250.127998 
L 199.961018 265.248 
L 200.285673 219.888002 
L 200.448 250.127998 
L 200.610327 219.888002 
L 200.772655 235.008 
L 200.934982 219.888002 
L 201.097309 219.888002 
L 201.259636 204.767997 
L 201.421964 265.248 
L 201.584291 265.248 
L 201.746618 250.127998 
L 201.908945 250.127998 
L 202.071273 174.528 
L 202.395927 280.368 
L 202.558255 280.368 
L 202.720582 235.008 
L 203.045236 265.248 
L 203.207564 250.127998 
L 203.532218 250.127998 
L 203.694545 235.008 
L 203.856873 174.528 
L 204.0192 250.127998 
L 204.181527 250.127998 
L 204.343855 265.248 
L 204.506182 235.008 
L 204.668509 174.528 
L 204.830836 250.127998 
L 204.993164 250.127998 
L 205.155491 265.248 
L 205.317818 295.488 
L 205.480145 280.368 
L 205.642473 250.127998 
L 206.291782 250.127998 
L 206.454109 265.248 
L 206.778764 265.248 
L 206.941091 250.127998 
L 207.103418 265.248 
L 207.265745 265.248 
L 207.5904 235.008 
L 207.752727 265.248 
L 208.077382 235.008 
L 208.239709 265.248 
L 208.402036 265.248 
L 208.564364 235.008 
L 208.726691 280.368 
L 208.889018 280.368 
L 209.051345 265.248 
L 209.213673 235.008 
L 209.376 280.368 
L 209.700655 189.647998 
L 209.862982 235.008 
L 210.025309 235.008 
L 210.187636 250.127998 
L 210.349964 235.008 
L 210.674618 235.008 
L 210.836945 265.248 
L 210.999273 235.008 
L 211.1616 250.127998 
L 211.323927 250.127998 
L 211.648582 189.647998 
L 211.810909 265.248 
L 211.973236 250.127998 
L 212.135564 250.127998 
L 212.297891 219.888002 
L 212.460218 250.127998 
L 212.622545 219.888002 
L 212.9472 265.248 
L 213.109527 265.248 
L 213.271855 250.127998 
L 213.434182 265.248 
L 213.596509 219.888002 
L 213.758836 250.127998 
L 213.921164 250.127998 
L 214.083491 235.008 
L 214.245818 265.248 
L 214.408145 265.248 
L 214.570473 235.008 
L 214.7328 250.127998 
L 214.895127 250.127998 
L 215.057455 235.008 
L 215.382109 280.368 
L 215.544436 219.888002 
L 215.706764 250.127998 
L 215.869091 250.127998 
L 216.031418 265.248 
L 216.193745 174.528 
L 216.356073 250.127998 
L 216.5184 265.248 
L 216.680727 204.767997 
L 216.843055 250.127998 
L 217.005382 204.767997 
L 217.167709 235.008 
L 217.330036 219.888002 
L 217.492364 219.888002 
L 217.654691 189.647998 
L 217.979345 250.127998 
L 218.141673 219.888002 
L 218.304 235.008 
L 218.466327 235.008 
L 218.790982 204.767997 
L 218.953309 174.528 
L 219.115636 265.248 
L 219.277964 235.008 
L 219.440291 235.008 
L 219.602618 250.127998 
L 219.764945 219.888002 
L 219.927273 265.248 
L 220.251927 219.888002 
L 220.414255 235.008 
L 220.576582 235.008 
L 220.738909 219.888002 
L 220.901236 219.888002 
L 221.063564 189.647998 
L 221.388218 250.127998 
L 221.550545 235.008 
L 221.712873 235.008 
L 221.8752 219.888002 
L 222.362182 265.248 
L 222.524509 235.008 
L 222.686836 250.127998 
L 222.849164 250.127998 
L 223.011491 235.008 
L 223.173818 235.008 
L 223.336145 250.127998 
L 223.498473 250.127998 
L 223.6608 204.767997 
L 223.823127 219.888002 
L 223.985455 250.127998 
L 224.147782 250.127998 
L 224.310109 235.008 
L 224.472436 250.127998 
L 224.959418 250.127998 
L 225.121745 189.647998 
L 225.284073 265.248 
L 225.4464 265.248 
L 225.608727 250.127998 
L 225.771055 265.248 
L 225.933382 235.008 
L 226.095709 265.248 
L 226.258036 250.127998 
L 226.420364 265.248 
L 226.582691 265.248 
L 226.745018 204.767997 
L 226.907345 250.127998 
L 227.069673 235.008 
L 227.232 250.127998 
L 227.394327 250.127998 
L 227.556655 235.008 
L 227.718982 235.008 
L 227.881309 219.888002 
L 228.043636 250.127998 
L 228.205964 250.127998 
L 228.530618 204.767997 
L 228.692945 265.248 
L 228.855273 280.368 
L 229.179927 174.528 
L 229.342255 235.008 
L 229.504582 219.888002 
L 229.829236 265.248 
L 229.991564 235.008 
L 230.153891 235.008 
L 230.316218 250.127998 
L 230.478545 250.127998 
L 230.640873 204.767997 
L 230.8032 235.008 
L 231.127855 235.008 
L 231.290182 219.888002 
L 231.614836 250.127998 
L 231.777164 250.127998 
L 231.939491 189.647998 
L 232.101818 235.008 
L 232.264145 235.008 
L 232.426473 295.488 
L 232.5888 280.368 
L 232.751127 250.127998 
L 233.238109 250.127998 
L 233.400436 265.248 
L 233.725091 219.888002 
L 233.887418 219.888002 
L 234.049745 265.248 
L 234.212073 235.008 
L 234.3744 295.488 
L 234.699055 235.008 
L 234.861382 265.248 
L 235.023709 250.127998 
L 235.186036 265.248 
L 235.348364 235.008 
L 235.510691 235.008 
L 235.673018 265.248 
L 235.835345 265.248 
L 235.997673 235.008 
L 236.16 250.127998 
L 236.322327 250.127998 
L 236.484655 159.408002 
L 236.646982 235.008 
L 236.809309 250.127998 
L 236.971636 280.368 
L 237.296291 235.008 
L 237.620945 235.008 
L 237.783273 204.767997 
L 237.9456 204.767997 
L 238.107927 280.368 
L 238.432582 235.008 
L 238.594909 250.127998 
L 238.757236 280.368 
L 239.081891 204.767997 
L 239.244218 250.127998 
L 239.568873 219.888002 
L 239.7312 250.127998 
L 239.893527 219.888002 
L 240.055855 235.008 
L 240.218182 265.248 
L 240.380509 204.767997 
L 240.542836 235.008 
L 240.705164 204.767997 
L 240.867491 250.127998 
L 241.029818 250.127998 
L 241.192145 204.767997 
L 241.354473 219.888002 
L 241.5168 204.767997 
L 242.003782 250.127998 
L 242.166109 250.127998 
L 242.328436 219.888002 
L 242.490764 265.248 
L 242.653091 250.127998 
L 242.977745 250.127998 
L 243.140073 235.008 
L 243.3024 250.127998 
L 243.627055 204.767997 
L 243.789382 235.008 
L 243.951709 235.008 
L 244.114036 219.888002 
L 244.276364 219.888002 
L 244.438691 159.408002 
L 244.601018 235.008 
L 244.763345 250.127998 
L 244.925673 235.008 
L 245.088 235.008 
L 245.250327 265.248 
L 245.412655 235.008 
L 245.574982 235.008 
L 245.737309 265.248 
L 245.899636 219.888002 
L 246.061964 219.888002 
L 246.224291 235.008 
L 246.386618 219.888002 
L 246.548945 219.888002 
L 246.711273 235.008 
L 246.8736 219.888002 
L 247.035927 219.888002 
L 247.198255 189.647998 
L 247.360582 219.888002 
L 247.522909 204.767997 
L 247.685236 250.127998 
L 248.009891 189.647998 
L 248.334545 235.008 
L 248.6592 204.767997 
L 248.821527 204.767997 
L 248.983855 235.008 
L 249.146182 235.008 
L 249.308509 204.767997 
L 249.470836 204.767997 
L 249.633164 219.888002 
L 249.795491 219.888002 
L 249.957818 265.248 
L 250.120145 219.888002 
L 250.282473 235.008 
L 250.4448 189.647998 
L 250.607127 250.127998 
L 250.769455 250.127998 
L 250.931782 235.008 
L 251.094109 235.008 
L 251.256436 250.127998 
L 251.418764 250.127998 
L 251.581091 189.647998 
L 251.743418 235.008 
L 251.905745 189.647998 
L 252.068073 235.008 
L 252.2304 204.767997 
L 252.555055 265.248 
L 252.717382 250.127998 
L 252.879709 189.647998 
L 253.042036 235.008 
L 253.204364 189.647998 
L 253.366691 280.368 
L 253.529018 265.248 
L 253.691345 265.248 
L 253.853673 174.528 
L 254.016 235.008 
L 254.178327 219.888002 
L 254.665309 265.248 
L 254.827636 219.888002 
L 254.989964 219.888002 
L 255.152291 280.368 
L 255.314618 219.888002 
L 255.639273 219.888002 
L 255.8016 189.647998 
L 256.288582 235.008 
L 256.450909 265.248 
L 256.775564 174.528 
L 256.937891 265.248 
L 257.262545 235.008 
L 257.424873 265.248 
L 257.749527 174.528 
L 257.911855 219.888002 
L 258.074182 189.647998 
L 258.236509 219.888002 
L 258.398836 219.888002 
L 258.561164 174.528 
L 258.885818 250.127998 
L 259.210473 219.888002 
L 259.3728 174.528 
L 259.535127 235.008 
L 259.697455 204.767997 
L 259.859782 219.888002 
L 260.022109 219.888002 
L 260.184436 204.767997 
L 260.346764 174.528 
L 260.509091 250.127998 
L 260.833745 174.528 
L 261.1584 204.767997 
L 261.320727 159.408002 
L 261.483055 219.888002 
L 261.645382 189.647998 
L 261.807709 219.888002 
L 261.970036 189.647998 
L 262.132364 235.008 
L 262.294691 189.647998 
L 262.619345 189.647998 
L 262.781673 174.528 
L 262.944 174.528 
L 263.106327 159.408002 
L 263.268655 174.528 
L 263.430982 129.168005 
L 263.593309 189.647998 
L 263.755636 189.647998 
L 263.917964 159.408002 
L 264.080291 174.528 
L 264.242618 219.888002 
L 264.404945 189.647998 
L 264.567273 189.647998 
L 264.7296 219.888002 
L 264.891927 144.288003 
L 265.054255 159.408002 
L 265.216582 189.647998 
L 265.541236 189.647998 
L 265.703564 235.008 
L 266.028218 159.408002 
L 266.190545 159.408002 
L 266.352873 204.767997 
L 266.677527 144.288003 
L 266.839855 144.288003 
L 267.002182 189.647998 
L 267.164509 174.528 
L 267.489164 250.127998 
L 267.651491 204.767997 
L 267.813818 204.767997 
L 267.976145 189.647998 
L 268.138473 219.888002 
L 268.3008 219.888002 
L 268.625455 174.528 
L 268.787782 219.888002 
L 268.950109 189.647998 
L 269.112436 204.767997 
L 269.274764 235.008 
L 269.599418 159.408002 
L 269.761745 250.127998 
L 269.924073 189.647998 
L 270.0864 250.127998 
L 270.248727 189.647998 
L 270.411055 219.888002 
L 270.573382 174.528 
L 270.898036 250.127998 
L 271.060364 250.127998 
L 271.222691 189.647998 
L 271.385018 189.647998 
L 271.547345 250.127998 
L 271.709673 174.528 
L 271.872 159.408002 
L 272.196655 204.767997 
L 272.358982 144.288003 
L 272.521309 144.288003 
L 272.845964 204.767997 
L 273.008291 189.647998 
L 273.170618 159.408002 
L 273.332945 219.888002 
L 273.495273 219.888002 
L 273.819927 159.408002 
L 273.982255 219.888002 
L 274.144582 159.408002 
L 274.306909 235.008 
L 274.469236 235.008 
L 274.793891 189.647998 
L 274.956218 204.767997 
L 275.280873 144.288003 
L 275.4432 219.888002 
L 275.605527 219.888002 
L 275.767855 250.127998 
L 275.930182 189.647998 
L 276.092509 204.767997 
L 276.254836 204.767997 
L 276.417164 219.888002 
L 276.579491 204.767997 
L 276.904145 204.767997 
L 277.066473 219.888002 
L 277.2288 204.767997 
L 277.391127 159.408002 
L 277.553455 235.008 
L 277.878109 189.647998 
L 278.040436 235.008 
L 278.202764 189.647998 
L 278.527418 189.647998 
L 278.689745 174.528 
L 278.852073 189.647998 
L 279.0144 174.528 
L 279.176727 174.528 
L 279.339055 189.647998 
L 279.501382 159.408002 
L 279.663709 174.528 
L 279.826036 204.767997 
L 279.988364 204.767997 
L 280.150691 235.008 
L 280.313018 159.408002 
L 280.475345 219.888002 
L 280.637673 219.888002 
L 280.8 189.647998 
L 280.962327 204.767997 
L 281.124655 250.127998 
L 281.286982 235.008 
L 281.449309 295.488 
L 281.611636 204.767997 
L 281.773964 219.888002 
L 281.936291 265.248 
L 282.098618 204.767997 
L 282.260945 189.647998 
L 282.5856 235.008 
L 282.747927 250.127998 
L 282.910255 204.767997 
L 283.072582 235.008 
L 283.234909 189.647998 
L 283.559564 219.888002 
L 283.721891 189.647998 
L 283.884218 219.888002 
L 284.046545 204.767997 
L 284.208873 204.767997 
L 284.3712 219.888002 
L 284.533527 174.528 
L 285.020509 250.127998 
L 285.345164 189.647998 
L 285.507491 189.647998 
L 285.669818 265.248 
L 285.832145 219.888002 
L 286.319127 219.888002 
L 286.481455 204.767997 
L 286.806109 265.248 
L 287.130764 174.528 
L 287.293091 189.647998 
L 287.455418 189.647998 
L 287.780073 250.127998 
L 287.9424 189.647998 
L 288.429382 265.248 
L 288.754036 219.888002 
L 288.916364 204.767997 
L 289.078691 235.008 
L 289.403345 235.008 
L 289.565673 250.127998 
L 289.728 235.008 
L 289.890327 235.008 
L 290.052655 219.888002 
L 290.214982 235.008 
L 290.377309 204.767997 
L 290.539636 235.008 
L 290.701964 204.767997 
L 290.864291 219.888002 
L 291.188945 189.647998 
L 291.351273 280.368 
L 291.5136 235.008 
L 291.675927 250.127998 
L 291.838255 219.888002 
L 292.000582 219.888002 
L 292.162909 280.368 
L 292.325236 219.888002 
L 292.487564 235.008 
L 292.649891 204.767997 
L 292.974545 265.248 
L 293.136873 219.888002 
L 293.2992 250.127998 
L 293.461527 235.008 
L 293.623855 250.127998 
L 293.786182 219.888002 
L 293.948509 280.368 
L 294.273164 219.888002 
L 294.435491 235.008 
L 294.597818 174.528 
L 294.922473 280.368 
L 295.0848 219.888002 
L 295.247127 265.248 
L 295.409455 235.008 
L 295.571782 235.008 
L 295.734109 250.127998 
L 295.896436 250.127998 
L 296.058764 235.008 
L 296.221091 250.127998 
L 296.383418 235.008 
L 296.545745 250.127998 
L 296.708073 250.127998 
L 296.8704 219.888002 
L 297.032727 265.248 
L 297.195055 250.127998 
L 297.357382 219.888002 
L 297.519709 280.368 
L 297.682036 189.647998 
L 297.844364 174.528 
L 298.169018 280.368 
L 298.331345 219.888002 
L 298.493673 219.888002 
L 298.656 235.008 
L 298.818327 235.008 
L 299.142982 280.368 
L 299.467636 189.647998 
L 299.792291 250.127998 
L 300.116945 189.647998 
L 300.279273 235.008 
L 300.4416 219.888002 
L 300.603927 219.888002 
L 300.766255 235.008 
L 300.928582 219.888002 
L 301.253236 265.248 
L 301.415564 219.888002 
L 301.577891 250.127998 
L 301.740218 219.888002 
L 301.902545 265.248 
L 302.064873 219.888002 
L 302.2272 265.248 
L 302.389527 265.248 
L 302.551855 250.127998 
L 302.714182 219.888002 
L 302.876509 280.368 
L 303.201164 235.008 
L 303.363491 265.248 
L 303.525818 235.008 
L 303.688145 250.127998 
L 303.850473 235.008 
L 304.0128 265.248 
L 304.175127 265.248 
L 304.499782 189.647998 
L 304.662109 219.888002 
L 304.824436 189.647998 
L 305.149091 280.368 
L 305.311418 204.767997 
L 305.473745 219.888002 
L 305.7984 265.248 
L 306.285382 219.888002 
L 306.447709 265.248 
L 306.772364 219.888002 
L 306.934691 235.008 
L 307.097018 235.008 
L 307.421673 265.248 
L 307.746327 235.008 
L 307.908655 235.008 
L 308.070982 250.127998 
L 308.233309 250.127998 
L 308.395636 235.008 
L 308.557964 250.127998 
L 308.720291 235.008 
L 309.3696 235.008 
L 309.531927 265.248 
L 309.694255 250.127998 
L 310.018909 250.127998 
L 310.181236 204.767997 
L 310.668218 280.368 
L 310.992873 235.008 
L 311.1552 235.008 
L 311.317527 265.248 
L 311.479855 250.127998 
L 311.804509 280.368 
L 312.129164 219.888002 
L 312.291491 219.888002 
L 312.778473 265.248 
L 312.9408 219.888002 
L 313.103127 265.248 
L 313.427782 219.888002 
L 313.590109 219.888002 
L 313.752436 280.368 
L 313.914764 265.248 
L 314.077091 219.888002 
L 314.401745 265.248 
L 314.564073 235.008 
L 314.7264 265.248 
L 314.888727 235.008 
L 315.051055 235.008 
L 315.375709 280.368 
L 315.700364 250.127998 
L 315.862691 250.127998 
L 316.025018 235.008 
L 316.187345 265.248 
L 316.512 235.008 
L 316.674327 295.488 
L 316.836655 250.127998 
L 316.998982 280.368 
L 317.323636 219.888002 
L 317.485964 265.248 
L 317.648291 250.127998 
L 317.810618 265.248 
L 317.972945 250.127998 
L 318.135273 265.248 
L 318.2976 174.528 
L 318.459927 250.127998 
L 318.622255 265.248 
L 318.784582 265.248 
L 318.946909 280.368 
L 319.109236 265.248 
L 319.271564 219.888002 
L 319.433891 235.008 
L 319.596218 265.248 
L 319.758545 250.127998 
L 319.920873 265.248 
L 320.0832 265.248 
L 320.245527 280.368 
L 320.407855 250.127998 
L 320.894836 250.127998 
L 321.057164 265.248 
L 321.381818 235.008 
L 321.544145 280.368 
L 321.706473 265.248 
L 321.8688 219.888002 
L 322.031127 280.368 
L 322.193455 265.248 
L 322.355782 235.008 
L 322.518109 235.008 
L 322.680436 265.248 
L 322.842764 250.127998 
L 323.005091 250.127998 
L 323.167418 235.008 
L 323.492073 280.368 
L 323.6544 235.008 
L 323.979055 265.248 
L 324.303709 265.248 
L 324.466036 235.008 
L 324.790691 280.368 
L 324.953018 250.127998 
L 325.115345 295.488 
L 325.44 235.008 
L 325.602327 295.488 
L 325.926982 250.127998 
L 326.089309 235.008 
L 326.251636 265.248 
L 326.413964 250.127998 
L 326.576291 265.248 
L 326.738618 189.647998 
L 326.900945 280.368 
L 327.063273 219.888002 
L 327.387927 265.248 
L 327.550255 250.127998 
L 327.712582 204.767997 
L 328.037236 280.368 
L 328.199564 250.127998 
L 328.361891 250.127998 
L 328.524218 235.008 
L 328.848873 265.248 
L 329.0112 250.127998 
L 329.173527 280.368 
L 329.335855 250.127998 
L 329.498182 250.127998 
L 329.660509 265.248 
L 329.822836 265.248 
L 329.985164 250.127998 
L 330.309818 250.127998 
L 330.472145 235.008 
L 330.634473 280.368 
L 330.7968 250.127998 
L 330.959127 280.368 
L 331.121455 235.008 
L 331.283782 265.248 
L 331.446109 250.127998 
L 331.608436 219.888002 
L 331.770764 280.368 
L 331.933091 280.368 
L 332.095418 204.767997 
L 332.257745 265.248 
L 332.420073 204.767997 
L 332.744727 295.488 
L 333.069382 219.888002 
L 333.394036 250.127998 
L 333.556364 280.368 
L 333.718691 265.248 
L 334.043345 265.248 
L 334.205673 250.127998 
L 334.530327 280.368 
L 334.692655 250.127998 
L 335.017309 280.368 
L 335.179636 280.368 
L 335.504291 250.127998 
L 335.666618 219.888002 
L 335.991273 265.248 
L 336.1536 265.248 
L 336.315927 235.008 
L 336.640582 295.488 
L 336.802909 235.008 
L 336.965236 265.248 
L 337.127564 265.248 
L 337.289891 250.127998 
L 337.614545 280.368 
L 337.776873 280.368 
L 338.101527 219.888002 
L 338.263855 189.647998 
L 338.588509 295.488 
L 338.750836 235.008 
L 338.913164 250.127998 
L 339.400145 250.127998 
L 339.562473 204.767997 
L 339.887127 280.368 
L 340.211782 235.008 
L 340.374109 250.127998 
L 340.698764 250.127998 
L 340.861091 265.248 
L 341.023418 235.008 
L 341.185745 235.008 
L 341.348073 280.368 
L 341.5104 280.368 
L 341.672727 250.127998 
L 341.835055 250.127998 
L 341.997382 280.368 
L 342.159709 235.008 
L 342.322036 250.127998 
L 342.484364 219.888002 
L 342.646691 265.248 
L 343.133673 265.248 
L 343.296 250.127998 
L 343.458327 250.127998 
L 343.620655 235.008 
L 343.782982 265.248 
L 343.945309 250.127998 
L 344.107636 280.368 
L 344.269964 250.127998 
L 344.432291 265.248 
L 344.594618 265.248 
L 344.756945 250.127998 
L 344.919273 265.248 
L 345.243927 265.248 
L 345.406255 250.127998 
L 345.568582 265.248 
L 345.730909 235.008 
L 345.893236 265.248 
L 346.055564 265.248 
L 346.217891 250.127998 
L 346.380218 250.127998 
L 346.542545 265.248 
L 346.704873 250.127998 
L 346.8672 219.888002 
L 347.029527 280.368 
L 347.191855 265.248 
L 347.354182 280.368 
L 347.678836 235.008 
L 348.003491 265.248 
L 348.165818 235.008 
L 348.490473 265.248 
L 348.6528 265.248 
L 348.815127 250.127998 
L 348.977455 250.127998 
L 349.139782 280.368 
L 349.302109 250.127998 
L 349.464436 280.368 
L 349.626764 265.248 
L 349.789091 235.008 
L 349.951418 250.127998 
L 350.113745 235.008 
L 350.276073 265.248 
L 350.4384 235.008 
L 350.600727 265.248 
L 350.763055 250.127998 
L 350.925382 250.127998 
L 351.087709 265.248 
L 351.250036 265.248 
L 351.574691 235.008 
L 351.737018 265.248 
L 351.899345 235.008 
L 352.061673 280.368 
L 352.224 265.248 
L 352.386327 235.008 
L 352.548655 250.127998 
L 352.710982 250.127998 
L 352.873309 265.248 
L 353.035636 265.248 
L 353.197964 280.368 
L 353.522618 219.888002 
L 353.847273 295.488 
L 354.0096 280.368 
L 354.171927 280.368 
L 354.496582 250.127998 
L 354.821236 280.368 
L 354.983564 280.368 
L 355.145891 235.008 
L 355.308218 235.008 
L 355.470545 265.248 
L 355.632873 265.248 
L 355.7952 235.008 
L 356.119855 295.488 
L 356.282182 250.127998 
L 356.444509 250.127998 
L 356.606836 219.888002 
L 356.769164 265.248 
L 356.931491 250.127998 
L 357.093818 204.767997 
L 357.256145 250.127998 
L 357.418473 250.127998 
L 357.5808 235.008 
L 357.743127 250.127998 
L 358.067782 250.127998 
L 358.230109 265.248 
L 358.392436 250.127998 
L 358.717091 250.127998 
L 358.879418 265.248 
L 359.204073 265.248 
L 359.3664 235.008 
L 359.853382 235.008 
L 360.015709 280.368 
L 360.340364 204.767997 
L 360.502691 235.008 
L 360.827345 235.008 
L 360.989673 250.127998 
L 361.152 280.368 
L 361.314327 219.888002 
L 361.476655 250.127998 
L 361.638982 250.127998 
L 361.801309 265.248 
L 361.963636 265.248 
L 362.125964 250.127998 
L 362.450618 204.767997 
L 362.612945 265.248 
L 362.775273 250.127998 
L 362.9376 250.127998 
L 363.099927 219.888002 
L 363.262255 250.127998 
L 363.424582 250.127998 
L 363.586909 280.368 
L 363.749236 235.008 
L 363.911564 235.008 
L 364.073891 280.368 
L 364.236218 250.127998 
L 364.398545 280.368 
L 364.560873 265.248 
L 364.7232 265.248 
L 364.885527 219.888002 
L 365.047855 219.888002 
L 365.210182 235.008 
L 365.372509 235.008 
L 365.534836 280.368 
L 365.697164 235.008 
L 366.021818 265.248 
L 366.184145 235.008 
L 366.346473 265.248 
L 366.5088 265.248 
L 366.671127 250.127998 
L 366.833455 250.127998 
L 366.995782 219.888002 
L 367.320436 250.127998 
L 367.482764 280.368 
L 367.645091 235.008 
L 367.807418 250.127998 
L 367.969745 235.008 
L 368.132073 204.767997 
L 368.2944 280.368 
L 368.456727 295.488 
L 368.619055 250.127998 
L 368.781382 250.127998 
L 368.943709 280.368 
L 369.268364 204.767997 
L 369.430691 265.248 
L 369.593018 265.248 
L 369.755345 250.127998 
L 370.08 250.127998 
L 370.242327 265.248 
L 370.566982 265.248 
L 370.891636 235.008 
L 371.216291 265.248 
L 371.378618 219.888002 
L 371.703273 265.248 
L 371.8656 219.888002 
L 372.027927 250.127998 
L 372.190255 250.127998 
L 372.352582 235.008 
L 372.514909 235.008 
L 372.677236 219.888002 
L 372.839564 265.248 
L 373.001891 250.127998 
L 373.164218 204.767997 
L 373.326545 280.368 
L 373.488873 235.008 
L 373.6512 295.488 
L 373.813527 280.368 
L 373.975855 235.008 
L 374.138182 250.127998 
L 374.787491 250.127998 
L 374.949818 265.248 
L 375.112145 219.888002 
L 375.4368 265.248 
L 375.599127 235.008 
L 375.761455 235.008 
L 375.923782 250.127998 
L 376.086109 235.008 
L 376.410764 280.368 
L 376.735418 235.008 
L 376.897745 250.127998 
L 377.060073 204.767997 
L 377.384727 265.248 
L 377.547055 265.248 
L 377.709382 219.888002 
L 378.034036 265.248 
L 378.196364 280.368 
L 378.358691 235.008 
L 378.521018 250.127998 
L 378.683345 219.888002 
L 379.008 265.248 
L 379.170327 235.008 
L 379.332655 265.248 
L 379.819636 265.248 
L 379.981964 235.008 
L 380.144291 280.368 
L 380.306618 280.368 
L 380.631273 189.647998 
L 380.7936 250.127998 
L 380.955927 265.248 
L 381.118255 235.008 
L 381.280582 235.008 
L 381.442909 265.248 
L 381.605236 265.248 
L 381.767564 280.368 
L 381.929891 265.248 
L 382.092218 265.248 
L 382.254545 280.368 
L 382.416873 235.008 
L 382.5792 265.248 
L 382.741527 235.008 
L 382.903855 250.127998 
L 383.066182 250.127998 
L 383.228509 265.248 
L 383.390836 265.248 
L 383.715491 235.008 
L 383.877818 235.008 
L 384.202473 265.248 
L 384.3648 250.127998 
L 384.689455 280.368 
L 384.851782 280.368 
L 385.338764 235.008 
L 385.501091 235.008 
L 385.663418 280.368 
L 385.825745 219.888002 
L 386.1504 280.368 
L 386.312727 235.008 
L 386.475055 235.008 
L 386.637382 265.248 
L 386.799709 250.127998 
L 386.962036 250.127998 
L 387.286691 280.368 
L 387.611345 204.767997 
L 387.936 265.248 
L 388.098327 265.248 
L 388.260655 250.127998 
L 388.585309 250.127998 
L 388.747636 235.008 
L 388.909964 250.127998 
L 389.072291 250.127998 
L 389.234618 219.888002 
L 389.396945 250.127998 
L 389.559273 250.127998 
L 389.7216 204.767997 
L 390.046255 250.127998 
L 390.370909 204.767997 
L 390.533236 265.248 
L 390.695564 219.888002 
L 391.020218 250.127998 
L 391.182545 250.127998 
L 391.344873 265.248 
L 391.669527 219.888002 
L 391.831855 265.248 
L 391.994182 265.248 
L 392.156509 250.127998 
L 392.318836 250.127998 
L 392.481164 265.248 
L 392.643491 219.888002 
L 392.805818 280.368 
L 392.968145 265.248 
L 393.130473 265.248 
L 393.2928 219.888002 
L 393.455127 265.248 
L 393.617455 265.248 
L 393.779782 250.127998 
L 393.942109 219.888002 
L 394.104436 265.248 
L 394.266764 250.127998 
L 394.429091 250.127998 
L 394.591418 265.248 
L 394.753745 265.248 
L 394.916073 250.127998 
L 395.240727 204.767997 
L 395.403055 265.248 
L 395.565382 235.008 
L 396.214691 235.008 
L 396.377018 250.127998 
L 396.539345 219.888002 
L 396.701673 280.368 
L 396.864 235.008 
L 397.188655 235.008 
L 397.350982 265.248 
L 397.513309 265.248 
L 397.675636 250.127998 
L 398.324945 250.127998 
L 398.487273 235.008 
L 398.487273 235.008 
" clip-path="url(#p6a6b50fd83)" style="fill: none; stroke: #1f77b4; stroke-width: 1.5; stroke-linecap: square"/>
   </g>
   <g id="patch_3">
    <path d="M 57.6 307.584 
L 57.6 41.472 
" style="fill: none; stroke: #000000; stroke-width: 0.8; stroke-linejoin: miter; stroke-linecap: square"/>
   </g>
   <g id="patch_4">
    <path d="M 414.72 307.584 
L 414.72 41.472 
" style="fill: none; stroke: #000000; stroke-width: 0.8; stroke-linejoin: miter; stroke-linecap: square"/>
   </g>
   <g id="patch_5">
    <path d="M 57.6 307.584 
L 414.72 307.584 
" style="fill: none; stroke: #000000; stroke-width: 0.8; stroke-linejoin: miter; stroke-linecap: square"/>
   </g>
   <g id="patch_6">
    <path d="M 57.6 41.472 
L 414.72 41.472 
" style="fill: none; stroke: #000000; stroke-width: 0.8; stroke-linejoin: miter; stroke-linecap: square"/>
   </g>
  </g>
 </g>
 <defs>
  <clipPath id="p6a6b50fd83">
   <rect x="57.6" y="41.472" width="357.12" height="266.112"/>
  </clipPath>
 </defs>
</svg>
