<?xml version="1.0" encoding="utf-8" standalone="no"?>
<!DOCTYPE svg PUBLIC "-//W3C//DTD SVG 1.1//EN"
  "http://www.w3.org/Graphics/SVG/1.1/DTD/svg11.dtd">
<svg xmlns:xlink="http://www.w3.org/1999/xlink" width="460.8pt" height="345.6pt" viewBox="0 0 460.8 345.6" xmlns="http://www.w3.org/2000/svg" version="1.1">
 <metadata>
  <rdf:RDF xmlns:dc="http://purl.org/dc/elements/1.1/" xmlns:cc="http://creativecommons.org/ns#" xmlns:rdf="http://www.w3.org/1999/02/22-rdf-syntax-ns#">
   <cc:Work>
    <dc:type rdf:resource="http://purl.org/dc/dcmitype/StillImage"/>
    <dc:date>2026-05-31T13:03:40.803535</dc:date>
    <dc:format>image/svg+xml</dc:format>
    <dc:creator>
     <cc:Agent>
      <dc:title>Matplotlib v3.10.8, https://matplotlib.org/</dc:title>
     </cc:Agent>
    </dc:creator>
   </cc:Work>
  </rdf:RDF>
 </metadata>
 <defs>
  <style type="text/css">*{stroke-linejoin: round; stroke-linecap: butt}</style>
 </defs>
 <g id="figure_1">
  <g id="patch_1">
   <path d="M 0 345.6 
L 460.8 345.6 
L 460.8 0 
L 0 0 
z
" style="fill: #ffffff"/>
  </g>
  <g id="axes_1">
   <g id="patch_2">
    <path d="M 60.59 303.64 
L 450 303.64 
L 450 10.8 
L 60.59 10.8 
z
" style="fill: #ffffff"/>
   </g>
   <g id="PathCollection_1">
    <defs>
     <path id="m0d944839d9" d="M 0 1.581139 
C 0.419323 1.581139 0.821528 1.41454 1.118034 1.118034 
C 1.41454 0.821528 1.581139 0.419323 1.581139 0 
C 1.581139 -0.419323 1.41454 -0.821528 1.118034 -1.118034 
C 0.821528 -1.41454 0.419323 -1.581139 0 -1.581139 
C -0.419323 -1.581139 -0.821528 -1.41454 -1.118034 -1.118034 
C -1.41454 -0.821528 -1.581139 -0.419323 -1.581139 0 
C -1.581139 0.419323 -1.41454 0.821528 -1.118034 1.118034 
C -0.821528 1.41454 -0.419323 1.581139 0 1.581139 
z
" style="stroke: #0000ff; stroke-opacity: 0.6"/>
    </defs>
    <g clip-path="url(#pe7b56ffce9)">
     <use xlink:href="#m0d944839d9" x="90.409143" y="184.403461" style="fill: #0000ff; fill-opacity: 0.6; stroke: #0000ff; stroke-opacity: 0.6"/>
     <use xlink:href="#m0d944839d9" x="86.232358" y="135.471871" style="fill: #0000ff; fill-opacity: 0.6; stroke: #0000ff; stroke-opacity: 0.6"/>
     <use xlink:href="#m0d944839d9" x="79.641972" y="27.047661" style="fill: #0000ff; fill-opacity: 0.6; stroke: #0000ff; stroke-opacity: 0.6"/>
     <use xlink:href="#m0d944839d9" x="80.54083" y="146.497456" style="fill: #0000ff; fill-opacity: 0.6; stroke: #0000ff; stroke-opacity: 0.6"/>
     <use xlink:href="#m0d944839d9" x="92.804609" y="182.98782" style="fill: #0000ff; fill-opacity: 0.6; stroke: #0000ff; stroke-opacity: 0.6"/>
     <use xlink:href="#m0d944839d9" x="270.09958" y="259.192183" style="fill: #0000ff; fill-opacity: 0.6; stroke: #0000ff; stroke-opacity: 0.6"/>
     <use xlink:href="#m0d944839d9" x="83.060019" y="45.968348" style="fill: #0000ff; fill-opacity: 0.6; stroke: #0000ff; stroke-opacity: 0.6"/>
     <use xlink:href="#m0d944839d9" x="95.500686" y="210.036933" style="fill: #0000ff; fill-opacity: 0.6; stroke: #0000ff; stroke-opacity: 0.6"/>
     <use xlink:href="#m0d944839d9" x="113.831136" y="200.83245" style="fill: #0000ff; fill-opacity: 0.6; stroke: #0000ff; stroke-opacity: 0.6"/>
     <use xlink:href="#m0d944839d9" x="101.383264" y="188.943529" style="fill: #0000ff; fill-opacity: 0.6; stroke: #0000ff; stroke-opacity: 0.6"/>
     <use xlink:href="#m0d944839d9" x="95.455221" y="151.578581" style="fill: #0000ff; fill-opacity: 0.6; stroke: #0000ff; stroke-opacity: 0.6"/>
     <use xlink:href="#m0d944839d9" x="80.108792" y="37.644768" style="fill: #0000ff; fill-opacity: 0.6; stroke: #0000ff; stroke-opacity: 0.6"/>
     <use xlink:href="#m0d944839d9" x="80.571637" y="77.536967" style="fill: #0000ff; fill-opacity: 0.6; stroke: #0000ff; stroke-opacity: 0.6"/>
     <use xlink:href="#m0d944839d9" x="189.125565" y="252.010283" style="fill: #0000ff; fill-opacity: 0.6; stroke: #0000ff; stroke-opacity: 0.6"/>
     <use xlink:href="#m0d944839d9" x="78.290455" y="46.828784" style="fill: #0000ff; fill-opacity: 0.6; stroke: #0000ff; stroke-opacity: 0.6"/>
     <use xlink:href="#m0d944839d9" x="86.030127" y="157.315013" style="fill: #0000ff; fill-opacity: 0.6; stroke: #0000ff; stroke-opacity: 0.6"/>
     <use xlink:href="#m0d944839d9" x="85.44331" y="144.820715" style="fill: #0000ff; fill-opacity: 0.6; stroke: #0000ff; stroke-opacity: 0.6"/>
     <use xlink:href="#m0d944839d9" x="92.525112" y="155.508241" style="fill: #0000ff; fill-opacity: 0.6; stroke: #0000ff; stroke-opacity: 0.6"/>
     <use xlink:href="#m0d944839d9" x="81.627261" y="134.562584" style="fill: #0000ff; fill-opacity: 0.6; stroke: #0000ff; stroke-opacity: 0.6"/>
     <use xlink:href="#m0d944839d9" x="96.793571" y="161.262692" style="fill: #0000ff; fill-opacity: 0.6; stroke: #0000ff; stroke-opacity: 0.6"/>
     <use xlink:href="#m0d944839d9" x="88.807197" y="176.147736" style="fill: #0000ff; fill-opacity: 0.6; stroke: #0000ff; stroke-opacity: 0.6"/>
     <use xlink:href="#m0d944839d9" x="99.142578" y="207.270108" style="fill: #0000ff; fill-opacity: 0.6; stroke: #0000ff; stroke-opacity: 0.6"/>
     <use xlink:href="#m0d944839d9" x="186.860523" y="270.633039" style="fill: #0000ff; fill-opacity: 0.6; stroke: #0000ff; stroke-opacity: 0.6"/>
     <use xlink:href="#m0d944839d9" x="149.027231" y="237.431192" style="fill: #0000ff; fill-opacity: 0.6; stroke: #0000ff; stroke-opacity: 0.6"/>
     <use xlink:href="#m0d944839d9" x="79.502597" y="150.514999" style="fill: #0000ff; fill-opacity: 0.6; stroke: #0000ff; stroke-opacity: 0.6"/>
     <use xlink:href="#m0d944839d9" x="118.276734" y="214.576158" style="fill: #0000ff; fill-opacity: 0.6; stroke: #0000ff; stroke-opacity: 0.6"/>
     <use xlink:href="#m0d944839d9" x="113.505182" y="221.435341" style="fill: #0000ff; fill-opacity: 0.6; stroke: #0000ff; stroke-opacity: 0.6"/>
     <use xlink:href="#m0d944839d9" x="81.685893" y="42.315798" style="fill: #0000ff; fill-opacity: 0.6; stroke: #0000ff; stroke-opacity: 0.6"/>
     <use xlink:href="#m0d944839d9" x="147.318704" y="233.79455" style="fill: #0000ff; fill-opacity: 0.6; stroke: #0000ff; stroke-opacity: 0.6"/>
     <use xlink:href="#m0d944839d9" x="78.963977" y="69.218728" style="fill: #0000ff; fill-opacity: 0.6; stroke: #0000ff; stroke-opacity: 0.6"/>
     <use xlink:href="#m0d944839d9" x="107.750551" y="218.848173" style="fill: #0000ff; fill-opacity: 0.6; stroke: #0000ff; stroke-opacity: 0.6"/>
     <use xlink:href="#m0d944839d9" x="89.173149" y="112.652409" style="fill: #0000ff; fill-opacity: 0.6; stroke: #0000ff; stroke-opacity: 0.6"/>
     <use xlink:href="#m0d944839d9" x="124.528247" y="215.421192" style="fill: #0000ff; fill-opacity: 0.6; stroke: #0000ff; stroke-opacity: 0.6"/>
     <use xlink:href="#m0d944839d9" x="109.828012" y="194.440373" style="fill: #0000ff; fill-opacity: 0.6; stroke: #0000ff; stroke-opacity: 0.6"/>
     <use xlink:href="#m0d944839d9" x="111.516663" y="213.92195" style="fill: #0000ff; fill-opacity: 0.6; stroke: #0000ff; stroke-opacity: 0.6"/>
     <use xlink:href="#m0d944839d9" x="84.907424" y="70.569589" style="fill: #0000ff; fill-opacity: 0.6; stroke: #0000ff; stroke-opacity: 0.6"/>
     <use xlink:href="#m0d944839d9" x="80.706291" y="86.572447" style="fill: #0000ff; fill-opacity: 0.6; stroke: #0000ff; stroke-opacity: 0.6"/>
     <use xlink:href="#m0d944839d9" x="80.466546" y="65.518137" style="fill: #0000ff; fill-opacity: 0.6; stroke: #0000ff; stroke-opacity: 0.6"/>
     <use xlink:href="#m0d944839d9" x="432.299545" y="277.383801" style="fill: #0000ff; fill-opacity: 0.6; stroke: #0000ff; stroke-opacity: 0.6"/>
     <use xlink:href="#m0d944839d9" x="95.052499" y="162.157386" style="fill: #0000ff; fill-opacity: 0.6; stroke: #0000ff; stroke-opacity: 0.6"/>
     <use xlink:href="#m0d944839d9" x="87.429345" y="86.137725" style="fill: #0000ff; fill-opacity: 0.6; stroke: #0000ff; stroke-opacity: 0.6"/>
     <use xlink:href="#m0d944839d9" x="84.993136" y="171.443932" style="fill: #0000ff; fill-opacity: 0.6; stroke: #0000ff; stroke-opacity: 0.6"/>
     <use xlink:href="#m0d944839d9" x="121.262991" y="203.234147" style="fill: #0000ff; fill-opacity: 0.6; stroke: #0000ff; stroke-opacity: 0.6"/>
     <use xlink:href="#m0d944839d9" x="82.20588" y="26.6773" style="fill: #0000ff; fill-opacity: 0.6; stroke: #0000ff; stroke-opacity: 0.6"/>
     <use xlink:href="#m0d944839d9" x="403.618311" y="277.323185" style="fill: #0000ff; fill-opacity: 0.6; stroke: #0000ff; stroke-opacity: 0.6"/>
     <use xlink:href="#m0d944839d9" x="81.870982" y="129.31686" style="fill: #0000ff; fill-opacity: 0.6; stroke: #0000ff; stroke-opacity: 0.6"/>
     <use xlink:href="#m0d944839d9" x="86.269872" y="184.91958" style="fill: #0000ff; fill-opacity: 0.6; stroke: #0000ff; stroke-opacity: 0.6"/>
     <use xlink:href="#m0d944839d9" x="79.367693" y="100.369862" style="fill: #0000ff; fill-opacity: 0.6; stroke: #0000ff; stroke-opacity: 0.6"/>
     <use xlink:href="#m0d944839d9" x="78.71976" y="36.069182" style="fill: #0000ff; fill-opacity: 0.6; stroke: #0000ff; stroke-opacity: 0.6"/>
     <use xlink:href="#m0d944839d9" x="82.302772" y="187.402983" style="fill: #0000ff; fill-opacity: 0.6; stroke: #0000ff; stroke-opacity: 0.6"/>
     <use xlink:href="#m0d944839d9" x="126.474283" y="229.621377" style="fill: #0000ff; fill-opacity: 0.6; stroke: #0000ff; stroke-opacity: 0.6"/>
     <use xlink:href="#m0d944839d9" x="144.444743" y="280.617361" style="fill: #0000ff; fill-opacity: 0.6; stroke: #0000ff; stroke-opacity: 0.6"/>
     <use xlink:href="#m0d944839d9" x="101.089856" y="249.260951" style="fill: #0000ff; fill-opacity: 0.6; stroke: #0000ff; stroke-opacity: 0.6"/>
     <use xlink:href="#m0d944839d9" x="83.271442" y="143.90548" style="fill: #0000ff; fill-opacity: 0.6; stroke: #0000ff; stroke-opacity: 0.6"/>
     <use xlink:href="#m0d944839d9" x="146.449659" y="225.248012" style="fill: #0000ff; fill-opacity: 0.6; stroke: #0000ff; stroke-opacity: 0.6"/>
     <use xlink:href="#m0d944839d9" x="108.503821" y="236.020683" style="fill: #0000ff; fill-opacity: 0.6; stroke: #0000ff; stroke-opacity: 0.6"/>
     <use xlink:href="#m0d944839d9" x="80.470273" y="180.477699" style="fill: #0000ff; fill-opacity: 0.6; stroke: #0000ff; stroke-opacity: 0.6"/>
     <use xlink:href="#m0d944839d9" x="88.329694" y="175.512794" style="fill: #0000ff; fill-opacity: 0.6; stroke: #0000ff; stroke-opacity: 0.6"/>
     <use xlink:href="#m0d944839d9" x="105.383408" y="176.034281" style="fill: #0000ff; fill-opacity: 0.6; stroke: #0000ff; stroke-opacity: 0.6"/>
     <use xlink:href="#m0d944839d9" x="79.232045" y="87.946695" style="fill: #0000ff; fill-opacity: 0.6; stroke: #0000ff; stroke-opacity: 0.6"/>
     <use xlink:href="#m0d944839d9" x="87.607477" y="96.084299" style="fill: #0000ff; fill-opacity: 0.6; stroke: #0000ff; stroke-opacity: 0.6"/>
     <use xlink:href="#m0d944839d9" x="81.246153" y="24.794769" style="fill: #0000ff; fill-opacity: 0.6; stroke: #0000ff; stroke-opacity: 0.6"/>
     <use xlink:href="#m0d944839d9" x="126.339876" y="248.901258" style="fill: #0000ff; fill-opacity: 0.6; stroke: #0000ff; stroke-opacity: 0.6"/>
     <use xlink:href="#m0d944839d9" x="81.093859" y="39.666056" style="fill: #0000ff; fill-opacity: 0.6; stroke: #0000ff; stroke-opacity: 0.6"/>
     <use xlink:href="#m0d944839d9" x="395.946214" y="271.807601" style="fill: #0000ff; fill-opacity: 0.6; stroke: #0000ff; stroke-opacity: 0.6"/>
     <use xlink:href="#m0d944839d9" x="91.467501" y="202.578907" style="fill: #0000ff; fill-opacity: 0.6; stroke: #0000ff; stroke-opacity: 0.6"/>
     <use xlink:href="#m0d944839d9" x="83.343986" y="58.811765" style="fill: #0000ff; fill-opacity: 0.6; stroke: #0000ff; stroke-opacity: 0.6"/>
     <use xlink:href="#m0d944839d9" x="117.441725" y="230.410371" style="fill: #0000ff; fill-opacity: 0.6; stroke: #0000ff; stroke-opacity: 0.6"/>
     <use xlink:href="#m0d944839d9" x="90.892857" y="173.419821" style="fill: #0000ff; fill-opacity: 0.6; stroke: #0000ff; stroke-opacity: 0.6"/>
     <use xlink:href="#m0d944839d9" x="107.804959" y="180.266339" style="fill: #0000ff; fill-opacity: 0.6; stroke: #0000ff; stroke-opacity: 0.6"/>
     <use xlink:href="#m0d944839d9" x="82.538542" y="153.739637" style="fill: #0000ff; fill-opacity: 0.6; stroke: #0000ff; stroke-opacity: 0.6"/>
     <use xlink:href="#m0d944839d9" x="85.270644" y="204.754274" style="fill: #0000ff; fill-opacity: 0.6; stroke: #0000ff; stroke-opacity: 0.6"/>
     <use xlink:href="#m0d944839d9" x="87.112335" y="92.377557" style="fill: #0000ff; fill-opacity: 0.6; stroke: #0000ff; stroke-opacity: 0.6"/>
     <use xlink:href="#m0d944839d9" x="82.893067" y="30.266082" style="fill: #0000ff; fill-opacity: 0.6; stroke: #0000ff; stroke-opacity: 0.6"/>
     <use xlink:href="#m0d944839d9" x="85.196858" y="175.044313" style="fill: #0000ff; fill-opacity: 0.6; stroke: #0000ff; stroke-opacity: 0.6"/>
     <use xlink:href="#m0d944839d9" x="84.056514" y="69.191349" style="fill: #0000ff; fill-opacity: 0.6; stroke: #0000ff; stroke-opacity: 0.6"/>
     <use xlink:href="#m0d944839d9" x="224.861265" y="271.85042" style="fill: #0000ff; fill-opacity: 0.6; stroke: #0000ff; stroke-opacity: 0.6"/>
     <use xlink:href="#m0d944839d9" x="83.507212" y="105.827066" style="fill: #0000ff; fill-opacity: 0.6; stroke: #0000ff; stroke-opacity: 0.6"/>
     <use xlink:href="#m0d944839d9" x="97.677772" y="194.764338" style="fill: #0000ff; fill-opacity: 0.6; stroke: #0000ff; stroke-opacity: 0.6"/>
     <use xlink:href="#m0d944839d9" x="191.469843" y="244.574276" style="fill: #0000ff; fill-opacity: 0.6; stroke: #0000ff; stroke-opacity: 0.6"/>
    </g>
   </g>
   <g id="PathCollection_2">
    <defs>
     <path id="mc43afdbbd3" d="M 0 1.581139 
C 0.419323 1.581139 0.821528 1.41454 1.118034 1.118034 
C 1.41454 0.821528 1.581139 0.419323 1.581139 0 
C 1.581139 -0.419323 1.41454 -0.821528 1.118034 -1.118034 
C 0.821528 -1.41454 0.419323 -1.581139 0 -1.581139 
C -0.419323 -1.581139 -0.821528 -1.41454 -1.118034 -1.118034 
C -1.41454 -0.821528 -1.581139 -0.419323 -1.581139 0 
C -1.581139 0.419323 -1.41454 0.821528 -1.118034 1.118034 
C -0.821528 1.41454 -0.419323 1.581139 0 1.581139 
z
" style="stroke: #008000; stroke-opacity: 0.6"/>
    </defs>
    <g clip-path="url(#pe7b56ffce9)">
     <use xlink:href="#mc43afdbbd3" x="114.135725" y="213.202719" style="fill: #008000; fill-opacity: 0.6; stroke: #008000; stroke-opacity: 0.6"/>
     <use xlink:href="#mc43afdbbd3" x="83.420258" y="170.303796" style="fill: #008000; fill-opacity: 0.6; stroke: #008000; stroke-opacity: 0.6"/>
     <use xlink:href="#mc43afdbbd3" x="82.634688" y="119.53359" style="fill: #008000; fill-opacity: 0.6; stroke: #008000; stroke-opacity: 0.6"/>
     <use xlink:href="#mc43afdbbd3" x="82.016071" y="54.410859" style="fill: #008000; fill-opacity: 0.6; stroke: #008000; stroke-opacity: 0.6"/>
     <use xlink:href="#mc43afdbbd3" x="83.23194" y="97.407268" style="fill: #008000; fill-opacity: 0.6; stroke: #008000; stroke-opacity: 0.6"/>
     <use xlink:href="#mc43afdbbd3" x="82.603385" y="91.712147" style="fill: #008000; fill-opacity: 0.6; stroke: #008000; stroke-opacity: 0.6"/>
     <use xlink:href="#mc43afdbbd3" x="95.112373" y="147.005968" style="fill: #008000; fill-opacity: 0.6; stroke: #008000; stroke-opacity: 0.6"/>
     <use xlink:href="#mc43afdbbd3" x="80.807407" y="83.27603" style="fill: #008000; fill-opacity: 0.6; stroke: #008000; stroke-opacity: 0.6"/>
     <use xlink:href="#mc43afdbbd3" x="245.037878" y="262.09518" style="fill: #008000; fill-opacity: 0.6; stroke: #008000; stroke-opacity: 0.6"/>
     <use xlink:href="#mc43afdbbd3" x="115.131475" y="209.940782" style="fill: #008000; fill-opacity: 0.6; stroke: #008000; stroke-opacity: 0.6"/>
     <use xlink:href="#mc43afdbbd3" x="136.859352" y="231.484567" style="fill: #008000; fill-opacity: 0.6; stroke: #008000; stroke-opacity: 0.6"/>
     <use xlink:href="#mc43afdbbd3" x="81.924148" y="146.09281" style="fill: #008000; fill-opacity: 0.6; stroke: #008000; stroke-opacity: 0.6"/>
     <use xlink:href="#mc43afdbbd3" x="84.922082" y="51.571" style="fill: #008000; fill-opacity: 0.6; stroke: #008000; stroke-opacity: 0.6"/>
     <use xlink:href="#mc43afdbbd3" x="88.65863" y="206.233689" style="fill: #008000; fill-opacity: 0.6; stroke: #008000; stroke-opacity: 0.6"/>
     <use xlink:href="#mc43afdbbd3" x="91.351975" y="197.105235" style="fill: #008000; fill-opacity: 0.6; stroke: #008000; stroke-opacity: 0.6"/>
     <use xlink:href="#mc43afdbbd3" x="82.49904" y="184.973785" style="fill: #008000; fill-opacity: 0.6; stroke: #008000; stroke-opacity: 0.6"/>
     <use xlink:href="#mc43afdbbd3" x="107.606207" y="211.151921" style="fill: #008000; fill-opacity: 0.6; stroke: #008000; stroke-opacity: 0.6"/>
     <use xlink:href="#mc43afdbbd3" x="83.060019" y="91.51584" style="fill: #008000; fill-opacity: 0.6; stroke: #008000; stroke-opacity: 0.6"/>
     <use xlink:href="#mc43afdbbd3" x="92.113446" y="175.564194" style="fill: #008000; fill-opacity: 0.6; stroke: #008000; stroke-opacity: 0.6"/>
     <use xlink:href="#mc43afdbbd3" x="314.114325" y="280.439676" style="fill: #008000; fill-opacity: 0.6; stroke: #008000; stroke-opacity: 0.6"/>
    </g>
   </g>
   <g id="PathCollection_3">
    <defs>
     <path id="mbbde545c4b" d="M 0 1.581139 
C 0.419323 1.581139 0.821528 1.41454 1.118034 1.118034 
C 1.41454 0.821528 1.581139 0.419323 1.581139 0 
C 1.581139 -0.419323 1.41454 -0.821528 1.118034 -1.118034 
C 0.821528 -1.41454 0.419323 -1.581139 0 -1.581139 
C -0.419323 -1.581139 -0.821528 -1.41454 -1.118034 -1.118034 
C -1.41454 -0.821528 -1.581139 -0.419323 -1.581139 0 
C -1.581139 0.419323 -1.41454 0.821528 -1.118034 1.118034 
C -0.821528 1.41454 -0.419323 1.581139 0 1.581139 
z
" style="stroke: #ff0000; stroke-opacity: 0.6"/>
    </defs>
    <g clip-path="url(#pe7b56ffce9)">
     <use xlink:href="#mbbde545c4b" x="114.135725" y="215.156861" style="fill: #ff0000; fill-opacity: 0.6; stroke: #ff0000; stroke-opacity: 0.6"/>
     <use xlink:href="#mbbde545c4b" x="83.420258" y="163.225351" style="fill: #ff0000; fill-opacity: 0.6; stroke: #ff0000; stroke-opacity: 0.6"/>
     <use xlink:href="#mbbde545c4b" x="82.634688" y="101.741062" style="fill: #ff0000; fill-opacity: 0.6; stroke: #ff0000; stroke-opacity: 0.6"/>
     <use xlink:href="#mbbde545c4b" x="82.016071" y="39.547691" style="fill: #ff0000; fill-opacity: 0.6; stroke: #ff0000; stroke-opacity: 0.6"/>
     <use xlink:href="#mbbde545c4b" x="83.23194" y="77.962707" style="fill: #ff0000; fill-opacity: 0.6; stroke: #ff0000; stroke-opacity: 0.6"/>
     <use xlink:href="#mbbde545c4b" x="82.603385" y="71.601476" style="fill: #ff0000; fill-opacity: 0.6; stroke: #ff0000; stroke-opacity: 0.6"/>
     <use xlink:href="#mbbde545c4b" x="95.112373" y="141.038309" style="fill: #ff0000; fill-opacity: 0.6; stroke: #ff0000; stroke-opacity: 0.6"/>
     <use xlink:href="#mbbde545c4b" x="80.807407" y="70.948259" style="fill: #ff0000; fill-opacity: 0.6; stroke: #ff0000; stroke-opacity: 0.6"/>
     <use xlink:href="#mbbde545c4b" x="245.037878" y="257.222613" style="fill: #ff0000; fill-opacity: 0.6; stroke: #ff0000; stroke-opacity: 0.6"/>
     <use xlink:href="#mbbde545c4b" x="115.131475" y="212.552901" style="fill: #ff0000; fill-opacity: 0.6; stroke: #ff0000; stroke-opacity: 0.6"/>
     <use xlink:href="#mbbde545c4b" x="136.859352" y="231.104522" style="fill: #ff0000; fill-opacity: 0.6; stroke: #ff0000; stroke-opacity: 0.6"/>
     <use xlink:href="#mbbde545c4b" x="81.924148" y="125.014303" style="fill: #ff0000; fill-opacity: 0.6; stroke: #ff0000; stroke-opacity: 0.6"/>
     <use xlink:href="#mbbde545c4b" x="84.922082" y="24.110909" style="fill: #ff0000; fill-opacity: 0.6; stroke: #ff0000; stroke-opacity: 0.6"/>
     <use xlink:href="#mbbde545c4b" x="88.65863" y="201.688334" style="fill: #ff0000; fill-opacity: 0.6; stroke: #ff0000; stroke-opacity: 0.6"/>
     <use xlink:href="#mbbde545c4b" x="91.351975" y="194.676684" style="fill: #ff0000; fill-opacity: 0.6; stroke: #ff0000; stroke-opacity: 0.6"/>
     <use xlink:href="#mbbde545c4b" x="82.49904" y="181.098479" style="fill: #ff0000; fill-opacity: 0.6; stroke: #ff0000; stroke-opacity: 0.6"/>
     <use xlink:href="#mbbde545c4b" x="107.606207" y="210.113042" style="fill: #ff0000; fill-opacity: 0.6; stroke: #ff0000; stroke-opacity: 0.6"/>
     <use xlink:href="#mbbde545c4b" x="83.060019" y="79.013881" style="fill: #ff0000; fill-opacity: 0.6; stroke: #ff0000; stroke-opacity: 0.6"/>
     <use xlink:href="#mbbde545c4b" x="92.113446" y="177.356144" style="fill: #ff0000; fill-opacity: 0.6; stroke: #ff0000; stroke-opacity: 0.6"/>
     <use xlink:href="#mbbde545c4b" x="314.114325" y="290.329091" style="fill: #ff0000; fill-opacity: 0.6; stroke: #ff0000; stroke-opacity: 0.6"/>
    </g>
   </g>
   <g id="matplotlib.axis_1">
    <g id="xtick_1">
     <g id="line2d_1">
      <defs>
       <path id="ma7a798b4b4" d="M 0 0 
L 0 3.5 
" style="stroke: #000000; stroke-width: 0.8"/>
      </defs>
      <g>
       <use xlink:href="#ma7a798b4b4" x="77.261413" y="303.64" style="stroke: #000000; stroke-width: 0.8"/>
      </g>
     </g>
     <g id="text_1">
      <!-- 0.0 -->
      <g transform="translate(69.309851 318.238437) scale(0.1 -0.1)">
       <defs>
        <path id="DejaVuSans-30" d="M 2034 4250 
Q 1547 4250 1301 3770 
Q 1056 3291 1056 2328 
Q 1056 1369 1301 889 
Q 1547 409 2034 409 
Q 2525 409 2770 889 
Q 3016 1369 3016 2328 
Q 3016 3291 2770 3770 
Q 2525 4250 2034 4250 
z
M 2034 4750 
Q 2819 4750 3233 4129 
Q 3647 3509 3647 2328 
Q 3647 1150 3233 529 
Q 2819 -91 2034 -91 
Q 1250 -91 836 529 
Q 422 1150 422 2328 
Q 422 3509 836 4129 
Q 1250 4750 2034 4750 
z
" transform="scale(0.015625)"/>
        <path id="DejaVuSans-2e" d="M 684 794 
L 1344 794 
L 1344 0 
L 684 0 
L 684 794 
z
" transform="scale(0.015625)"/>
       </defs>
       <use xlink:href="#DejaVuSans-30"/>
       <use xlink:href="#DejaVuSans-2e" transform="translate(63.623047 0)"/>
       <use xlink:href="#DejaVuSans-30" transform="translate(95.410156 0)"/>
      </g>
     </g>
    </g>
    <g id="xtick_2">
     <g id="line2d_2">
      <g>
       <use xlink:href="#ma7a798b4b4" x="126.94955" y="303.64" style="stroke: #000000; stroke-width: 0.8"/>
      </g>
     </g>
     <g id="text_2">
      <!-- 0.2 -->
      <g transform="translate(118.997987 318.238437) scale(0.1 -0.1)">
       <defs>
        <path id="DejaVuSans-32" d="M 1228 531 
L 3431 531 
L 3431 0 
L 469 0 
L 469 531 
Q 828 903 1448 1529 
Q 2069 2156 2228 2338 
Q 2531 2678 2651 2914 
Q 2772 3150 2772 3378 
Q 2772 3750 2511 3984 
Q 2250 4219 1831 4219 
Q 1534 4219 1204 4116 
Q 875 4013 500 3803 
L 500 4441 
Q 881 4594 1212 4672 
Q 1544 4750 1819 4750 
Q 2544 4750 2975 4387 
Q 3406 4025 3406 3419 
Q 3406 3131 3298 2873 
Q 3191 2616 2906 2266 
Q 2828 2175 2409 1742 
Q 1991 1309 1228 531 
z
" transform="scale(0.015625)"/>
       </defs>
       <use xlink:href="#DejaVuSans-30"/>
       <use xlink:href="#DejaVuSans-2e" transform="translate(63.623047 0)"/>
       <use xlink:href="#DejaVuSans-32" transform="translate(95.410156 0)"/>
      </g>
     </g>
    </g>
    <g id="xtick_3">
     <g id="line2d_3">
      <g>
       <use xlink:href="#ma7a798b4b4" x="176.637686" y="303.64" style="stroke: #000000; stroke-width: 0.8"/>
      </g>
     </g>
     <g id="text_3">
      <!-- 0.4 -->
      <g transform="translate(168.686124 318.238437) scale(0.1 -0.1)">
       <defs>
        <path id="DejaVuSans-34" d="M 2419 4116 
L 825 1625 
L 2419 1625 
L 2419 4116 
z
M 2253 4666 
L 3047 4666 
L 3047 1625 
L 3713 1625 
L 3713 1100 
L 3047 1100 
L 3047 0 
L 2419 0 
L 2419 1100 
L 313 1100 
L 313 1709 
L 2253 4666 
z
" transform="scale(0.015625)"/>
       </defs>
       <use xlink:href="#DejaVuSans-30"/>
       <use xlink:href="#DejaVuSans-2e" transform="translate(63.623047 0)"/>
       <use xlink:href="#DejaVuSans-34" transform="translate(95.410156 0)"/>
      </g>
     </g>
    </g>
    <g id="xtick_4">
     <g id="line2d_4">
      <g>
       <use xlink:href="#ma7a798b4b4" x="226.325823" y="303.64" style="stroke: #000000; stroke-width: 0.8"/>
      </g>
     </g>
     <g id="text_4">
      <!-- 0.6 -->
      <g transform="translate(218.37426 318.238437) scale(0.1 -0.1)">
       <defs>
        <path id="DejaVuSans-36" d="M 2113 2584 
Q 1688 2584 1439 2293 
Q 1191 2003 1191 1497 
Q 1191 994 1439 701 
Q 1688 409 2113 409 
Q 2538 409 2786 701 
Q 3034 994 3034 1497 
Q 3034 2003 2786 2293 
Q 2538 2584 2113 2584 
z
M 3366 4563 
L 3366 3988 
Q 3128 4100 2886 4159 
Q 2644 4219 2406 4219 
Q 1781 4219 1451 3797 
Q 1122 3375 1075 2522 
Q 1259 2794 1537 2939 
Q 1816 3084 2150 3084 
Q 2853 3084 3261 2657 
Q 3669 2231 3669 1497 
Q 3669 778 3244 343 
Q 2819 -91 2113 -91 
Q 1303 -91 875 529 
Q 447 1150 447 2328 
Q 447 3434 972 4092 
Q 1497 4750 2381 4750 
Q 2619 4750 2861 4703 
Q 3103 4656 3366 4563 
z
" transform="scale(0.015625)"/>
       </defs>
       <use xlink:href="#DejaVuSans-30"/>
       <use xlink:href="#DejaVuSans-2e" transform="translate(63.623047 0)"/>
       <use xlink:href="#DejaVuSans-36" transform="translate(95.410156 0)"/>
      </g>
     </g>
    </g>
    <g id="xtick_5">
     <g id="line2d_5">
      <g>
       <use xlink:href="#ma7a798b4b4" x="276.013959" y="303.64" style="stroke: #000000; stroke-width: 0.8"/>
      </g>
     </g>
     <g id="text_5">
      <!-- 0.8 -->
      <g transform="translate(268.062397 318.238437) scale(0.1 -0.1)">
       <defs>
        <path id="DejaVuSans-38" d="M 2034 2216 
Q 1584 2216 1326 1975 
Q 1069 1734 1069 1313 
Q 1069 891 1326 650 
Q 1584 409 2034 409 
Q 2484 409 2743 651 
Q 3003 894 3003 1313 
Q 3003 1734 2745 1975 
Q 2488 2216 2034 2216 
z
M 1403 2484 
Q 997 2584 770 2862 
Q 544 3141 544 3541 
Q 544 4100 942 4425 
Q 1341 4750 2034 4750 
Q 2731 4750 3128 4425 
Q 3525 4100 3525 3541 
Q 3525 3141 3298 2862 
Q 3072 2584 2669 2484 
Q 3125 2378 3379 2068 
Q 3634 1759 3634 1313 
Q 3634 634 3220 271 
Q 2806 -91 2034 -91 
Q 1263 -91 848 271 
Q 434 634 434 1313 
Q 434 1759 690 2068 
Q 947 2378 1403 2484 
z
M 1172 3481 
Q 1172 3119 1398 2916 
Q 1625 2713 2034 2713 
Q 2441 2713 2670 2916 
Q 2900 3119 2900 3481 
Q 2900 3844 2670 4047 
Q 2441 4250 2034 4250 
Q 1625 4250 1398 4047 
Q 1172 3844 1172 3481 
z
" transform="scale(0.015625)"/>
       </defs>
       <use xlink:href="#DejaVuSans-30"/>
       <use xlink:href="#DejaVuSans-2e" transform="translate(63.623047 0)"/>
       <use xlink:href="#DejaVuSans-38" transform="translate(95.410156 0)"/>
      </g>
     </g>
    </g>
    <g id="xtick_6">
     <g id="line2d_6">
      <g>
       <use xlink:href="#ma7a798b4b4" x="325.702096" y="303.64" style="stroke: #000000; stroke-width: 0.8"/>
      </g>
     </g>
     <g id="text_6">
      <!-- 1.0 -->
      <g transform="translate(317.750533 318.238437) scale(0.1 -0.1)">
       <defs>
        <path id="DejaVuSans-31" d="M 794 531 
L 1825 531 
L 1825 4091 
L 703 3866 
L 703 4441 
L 1819 4666 
L 2450 4666 
L 2450 531 
L 3481 531 
L 3481 0 
L 794 0 
L 794 531 
z
" transform="scale(0.015625)"/>
       </defs>
       <use xlink:href="#DejaVuSans-31"/>
       <use xlink:href="#DejaVuSans-2e" transform="translate(63.623047 0)"/>
       <use xlink:href="#DejaVuSans-30" transform="translate(95.410156 0)"/>
      </g>
     </g>
    </g>
    <g id="xtick_7">
     <g id="line2d_7">
      <g>
       <use xlink:href="#ma7a798b4b4" x="375.390232" y="303.64" style="stroke: #000000; stroke-width: 0.8"/>
      </g>
     </g>
     <g id="text_7">
      <!-- 1.2 -->
      <g transform="translate(367.43867 318.238437) scale(0.1 -0.1)">
       <use xlink:href="#DejaVuSans-31"/>
       <use xlink:href="#DejaVuSans-2e" transform="translate(63.623047 0)"/>
       <use xlink:href="#DejaVuSans-32" transform="translate(95.410156 0)"/>
      </g>
     </g>
    </g>
    <g id="xtick_8">
     <g id="line2d_8">
      <g>
       <use xlink:href="#ma7a798b4b4" x="425.078369" y="303.64" style="stroke: #000000; stroke-width: 0.8"/>
      </g>
     </g>
     <g id="text_8">
      <!-- 1.4 -->
      <g transform="translate(417.126806 318.238437) scale(0.1 -0.1)">
       <use xlink:href="#DejaVuSans-31"/>
       <use xlink:href="#DejaVuSans-2e" transform="translate(63.623047 0)"/>
       <use xlink:href="#DejaVuSans-34" transform="translate(95.410156 0)"/>
      </g>
     </g>
    </g>
    <g id="text_9">
     <!-- Final [FP] -->
     <g transform="translate(232.389531 331.916562) scale(0.1 -0.1)">
      <defs>
       <path id="DejaVuSans-46" d="M 628 4666 
L 3309 4666 
L 3309 4134 
L 1259 4134 
L 1259 2759 
L 3109 2759 
L 3109 2228 
L 1259 2228 
L 1259 0 
L 628 0 
L 628 4666 
z
" transform="scale(0.015625)"/>
       <path id="DejaVuSans-69" d="M 603 3500 
L 1178 3500 
L 1178 0 
L 603 0 
L 603 3500 
z
M 603 4863 
L 1178 4863 
L 1178 4134 
L 603 4134 
L 603 4863 
z
" transform="scale(0.015625)"/>
       <path id="DejaVuSans-6e" d="M 3513 2113 
L 3513 0 
L 2938 0 
L 2938 2094 
Q 2938 2591 2744 2837 
Q 2550 3084 2163 3084 
Q 1697 3084 1428 2787 
Q 1159 2491 1159 1978 
L 1159 0 
L 581 0 
L 581 3500 
L 1159 3500 
L 1159 2956 
Q 1366 3272 1645 3428 
Q 1925 3584 2291 3584 
Q 2894 3584 3203 3211 
Q 3513 2838 3513 2113 
z
" transform="scale(0.015625)"/>
       <path id="DejaVuSans-61" d="M 2194 1759 
Q 1497 1759 1228 1600 
Q 959 1441 959 1056 
Q 959 750 1161 570 
Q 1363 391 1709 391 
Q 2188 391 2477 730 
Q 2766 1069 2766 1631 
L 2766 1759 
L 2194 1759 
z
M 3341 1997 
L 3341 0 
L 2766 0 
L 2766 531 
Q 2569 213 2275 61 
Q 1981 -91 1556 -91 
Q 1019 -91 701 211 
Q 384 513 384 1019 
Q 384 1609 779 1909 
Q 1175 2209 1959 2209 
L 2766 2209 
L 2766 2266 
Q 2766 2663 2505 2880 
Q 2244 3097 1772 3097 
Q 1472 3097 1187 3025 
Q 903 2953 641 2809 
L 641 3341 
Q 956 3463 1253 3523 
Q 1550 3584 1831 3584 
Q 2591 3584 2966 3190 
Q 3341 2797 3341 1997 
z
" transform="scale(0.015625)"/>
       <path id="DejaVuSans-6c" d="M 603 4863 
L 1178 4863 
L 1178 0 
L 603 0 
L 603 4863 
z
" transform="scale(0.015625)"/>
       <path id="DejaVuSans-20" transform="scale(0.015625)"/>
       <path id="DejaVuSans-5b" d="M 550 4863 
L 1875 4863 
L 1875 4416 
L 1125 4416 
L 1125 -397 
L 1875 -397 
L 1875 -844 
L 550 -844 
L 550 4863 
z
" transform="scale(0.015625)"/>
       <path id="DejaVuSans-50" d="M 1259 4147 
L 1259 2394 
L 2053 2394 
Q 2494 2394 2734 2622 
Q 2975 2850 2975 3272 
Q 2975 3691 2734 3919 
Q 2494 4147 2053 4147 
L 1259 4147 
z
M 628 4666 
L 2053 4666 
Q 2838 4666 3239 4311 
Q 3641 3956 3641 3272 
Q 3641 2581 3239 2228 
Q 2838 1875 2053 1875 
L 1259 1875 
L 1259 0 
L 628 0 
L 628 4666 
z
" transform="scale(0.015625)"/>
       <path id="DejaVuSans-5d" d="M 1947 4863 
L 1947 -844 
L 622 -844 
L 622 -397 
L 1369 -397 
L 1369 4416 
L 622 4416 
L 622 4863 
L 1947 4863 
z
" transform="scale(0.015625)"/>
      </defs>
      <use xlink:href="#DejaVuSans-46"/>
      <use xlink:href="#DejaVuSans-69" transform="translate(50.269531 0)"/>
      <use xlink:href="#DejaVuSans-6e" transform="translate(78.052734 0)"/>
      <use xlink:href="#DejaVuSans-61" transform="translate(141.431641 0)"/>
      <use xlink:href="#DejaVuSans-6c" transform="translate(202.710938 0)"/>
      <use xlink:href="#DejaVuSans-20" transform="translate(230.494141 0)"/>
      <use xlink:href="#DejaVuSans-5b" transform="translate(262.28125 0)"/>
      <use xlink:href="#DejaVuSans-46" transform="translate(301.294922 0)"/>
      <use xlink:href="#DejaVuSans-50" transform="translate(358.814453 0)"/>
      <use xlink:href="#DejaVuSans-5d" transform="translate(419.117188 0)"/>
     </g>
    </g>
    <g id="text_10">
     <!-- 1e6 -->
     <g transform="translate(431.121875 330.916562) scale(0.1 -0.1)">
      <defs>
       <path id="DejaVuSans-65" d="M 3597 1894 
L 3597 1613 
L 953 1613 
Q 991 1019 1311 708 
Q 1631 397 2203 397 
Q 2534 397 2845 478 
Q 3156 559 3463 722 
L 3463 178 
Q 3153 47 2828 -22 
Q 2503 -91 2169 -91 
Q 1331 -91 842 396 
Q 353 884 353 1716 
Q 353 2575 817 3079 
Q 1281 3584 2069 3584 
Q 2775 3584 3186 3129 
Q 3597 2675 3597 1894 
z
M 3022 2063 
Q 3016 2534 2758 2815 
Q 2500 3097 2075 3097 
Q 1594 3097 1305 2825 
Q 1016 2553 972 2059 
L 3022 2063 
z
" transform="scale(0.015625)"/>
      </defs>
      <use xlink:href="#DejaVuSans-31"/>
      <use xlink:href="#DejaVuSans-65" transform="translate(63.623047 0)"/>
      <use xlink:href="#DejaVuSans-36" transform="translate(125.146484 0)"/>
     </g>
    </g>
   </g>
   <g id="matplotlib.axis_2">
    <g id="ytick_1">
     <g id="line2d_9">
      <defs>
       <path id="ma5dfd86d83" d="M 0 0 
L -3.5 0 
" style="stroke: #000000; stroke-width: 0.8"/>
      </defs>
      <g>
       <use xlink:href="#ma5dfd86d83" x="60.59" y="253.075115" style="stroke: #000000; stroke-width: 0.8"/>
      </g>
     </g>
     <g id="text_11">
      <!-- 0.002 -->
      <g transform="translate(24.961875 256.874334) scale(0.1 -0.1)">
       <use xlink:href="#DejaVuSans-30"/>
       <use xlink:href="#DejaVuSans-2e" transform="translate(63.623047 0)"/>
       <use xlink:href="#DejaVuSans-30" transform="translate(95.410156 0)"/>
       <use xlink:href="#DejaVuSans-30" transform="translate(159.033203 0)"/>
       <use xlink:href="#DejaVuSans-32" transform="translate(222.65625 0)"/>
      </g>
     </g>
    </g>
    <g id="ytick_2">
     <g id="line2d_10">
      <g>
       <use xlink:href="#ma5dfd86d83" x="60.59" y="195.147599" style="stroke: #000000; stroke-width: 0.8"/>
      </g>
     </g>
     <g id="text_12">
      <!-- 0.004 -->
      <g transform="translate(24.961875 198.946818) scale(0.1 -0.1)">
       <use xlink:href="#DejaVuSans-30"/>
       <use xlink:href="#DejaVuSans-2e" transform="translate(63.623047 0)"/>
       <use xlink:href="#DejaVuSans-30" transform="translate(95.410156 0)"/>
       <use xlink:href="#DejaVuSans-30" transform="translate(159.033203 0)"/>
       <use xlink:href="#DejaVuSans-34" transform="translate(222.65625 0)"/>
      </g>
     </g>
    </g>
    <g id="ytick_3">
     <g id="line2d_11">
      <g>
       <use xlink:href="#ma5dfd86d83" x="60.59" y="137.220083" style="stroke: #000000; stroke-width: 0.8"/>
      </g>
     </g>
     <g id="text_13">
      <!-- 0.006 -->
      <g transform="translate(24.961875 141.019301) scale(0.1 -0.1)">
       <use xlink:href="#DejaVuSans-30"/>
       <use xlink:href="#DejaVuSans-2e" transform="translate(63.623047 0)"/>
       <use xlink:href="#DejaVuSans-30" transform="translate(95.410156 0)"/>
       <use xlink:href="#DejaVuSans-30" transform="translate(159.033203 0)"/>
       <use xlink:href="#DejaVuSans-36" transform="translate(222.65625 0)"/>
      </g>
     </g>
    </g>
    <g id="ytick_4">
     <g id="line2d_12">
      <g>
       <use xlink:href="#ma5dfd86d83" x="60.59" y="79.292566" style="stroke: #000000; stroke-width: 0.8"/>
      </g>
     </g>
     <g id="text_14">
      <!-- 0.008 -->
      <g transform="translate(24.961875 83.091785) scale(0.1 -0.1)">
       <use xlink:href="#DejaVuSans-30"/>
       <use xlink:href="#DejaVuSans-2e" transform="translate(63.623047 0)"/>
       <use xlink:href="#DejaVuSans-30" transform="translate(95.410156 0)"/>
       <use xlink:href="#DejaVuSans-30" transform="translate(159.033203 0)"/>
       <use xlink:href="#DejaVuSans-38" transform="translate(222.65625 0)"/>
      </g>
     </g>
    </g>
    <g id="ytick_5">
     <g id="line2d_13">
      <g>
       <use xlink:href="#ma5dfd86d83" x="60.59" y="21.36505" style="stroke: #000000; stroke-width: 0.8"/>
      </g>
     </g>
     <g id="text_15">
      <!-- 0.010 -->
      <g transform="translate(24.961875 25.164269) scale(0.1 -0.1)">
       <use xlink:href="#DejaVuSans-30"/>
       <use xlink:href="#DejaVuSans-2e" transform="translate(63.623047 0)"/>
       <use xlink:href="#DejaVuSans-30" transform="translate(95.410156 0)"/>
       <use xlink:href="#DejaVuSans-31" transform="translate(159.033203 0)"/>
       <use xlink:href="#DejaVuSans-30" transform="translate(222.65625 0)"/>
      </g>
     </g>
    </g>
    <g id="text_16">
     <!-- kdil -->
     <g transform="translate(18.882188 166.067656) rotate(-90) scale(0.1 -0.1)">
      <defs>
       <path id="DejaVuSans-6b" d="M 581 4863 
L 1159 4863 
L 1159 1991 
L 2875 3500 
L 3609 3500 
L 1753 1863 
L 3688 0 
L 2938 0 
L 1159 1709 
L 1159 0 
L 581 0 
L 581 4863 
z
" transform="scale(0.015625)"/>
       <path id="DejaVuSans-64" d="M 2906 2969 
L 2906 4863 
L 3481 4863 
L 3481 0 
L 2906 0 
L 2906 525 
Q 2725 213 2448 61 
Q 2172 -91 1784 -91 
Q 1150 -91 751 415 
Q 353 922 353 1747 
Q 353 2572 751 3078 
Q 1150 3584 1784 3584 
Q 2172 3584 2448 3432 
Q 2725 3281 2906 2969 
z
M 947 1747 
Q 947 1113 1208 752 
Q 1469 391 1925 391 
Q 2381 391 2643 752 
Q 2906 1113 2906 1747 
Q 2906 2381 2643 2742 
Q 2381 3103 1925 3103 
Q 1469 3103 1208 2742 
Q 947 2381 947 1747 
z
" transform="scale(0.015625)"/>
      </defs>
      <use xlink:href="#DejaVuSans-6b"/>
      <use xlink:href="#DejaVuSans-64" transform="translate(57.910156 0)"/>
      <use xlink:href="#DejaVuSans-69" transform="translate(121.386719 0)"/>
      <use xlink:href="#DejaVuSans-6c" transform="translate(149.169922 0)"/>
     </g>
    </g>
   </g>
   <g id="patch_3">
    <path d="M 60.59 303.64 
L 60.59 10.8 
" style="fill: none; stroke: #000000; stroke-width: 0.8; stroke-linejoin: miter; stroke-linecap: square"/>
   </g>
   <g id="patch_4">
    <path d="M 450 303.64 
L 450 10.8 
" style="fill: none; stroke: #000000; stroke-width: 0.8; stroke-linejoin: miter; stroke-linecap: square"/>
   </g>
   <g id="patch_5">
    <path d="M 60.59 303.64 
L 450 303.64 
" style="fill: none; stroke: #000000; stroke-width: 0.8; stroke-linejoin: miter; stroke-linecap: square"/>
   </g>
   <g id="patch_6">
    <path d="M 60.59 10.8 
L 450 10.8 
" style="fill: none; stroke: #000000; stroke-width: 0.8; stroke-linejoin: miter; stroke-linecap: square"/>
   </g>
  </g>
 </g>
 <defs>
  <clipPath id="pe7b56ffce9">
   <rect x="60.59" y="10.8" width="389.41" height="292.84"/>
  </clipPath>
 </defs>
</svg>
