<?xml version="1.0" encoding="utf-8" standalone="no"?>
<!DOCTYPE svg PUBLIC "-//W3C//DTD SVG 1.1//EN"
  "http://www.w3.org/Graphics/SVG/1.1/DTD/svg11.dtd">
<svg xmlns:xlink="http://www.w3.org/1999/xlink" width="460.8pt" height="345.6pt" viewBox="0 0 460.8 345.6" xmlns="http://www.w3.org/2000/svg" version="1.1">
 <metadata>
  <rdf:RDF xmlns:dc="http://purl.org/dc/elements/1.1/" xmlns:cc="http://creativecommons.org/ns#" xmlns:rdf="http://www.w3.org/1999/02/22-rdf-syntax-ns#">
   <cc:Work>
    <dc:type rdf:resource="http://purl.org/dc/dcmitype/StillImage"/>
    <dc:date>2026-06-09T20:32:08.845860</dc:date>
    <dc:format>image/svg+xml</dc:format>
    <dc:creator>
     <cc:Agent>
      <dc:title>Matplotlib v3.10.8, https://matplotlib.org/</dc:title>
     </cc:Agent>
    </dc:creator>
   </cc:Work>
  </rdf:RDF>
 </metadata>
 <defs>
  <style type="text/css">*{stroke-linejoin: round; stroke-linecap: butt}</style>
 </defs>
 <g id="figure_1">
  <g id="patch_1">
   <path d="M 0 345.6 
L 460.8 345.6 
L 460.8 0 
L 0 0 
z
" style="fill: #ffffff"/>
  </g>
  <g id="axes_1">
   <g id="patch_2">
    <path d="M 57.6 307.584 
L 414.72 307.584 
L 414.72 41.472 
L 57.6 41.472 
z
" style="fill: #ffffff"/>
   </g>
   <g id="matplotlib.axis_1">
    <g id="xtick_1">
     <g id="line2d_1">
      <defs>
       <path id="m254da9cf3e" d="M 0 0 
L 0 3.5 
" style="stroke: #000000; stroke-width: 0.8"/>
      </defs>
      <g>
       <use xlink:href="#m254da9cf3e" x="73.832727" y="307.584" style="stroke: #000000; stroke-width: 0.8"/>
      </g>
     </g>
     <g id="text_1">
      <!-- 0 -->
      <g transform="translate(70.651477 322.182437) scale(0.1 -0.1)">
       <defs>
        <path id="DejaVuSans-30" d="M 2034 4250 
Q 1547 4250 1301 3770 
Q 1056 3291 1056 2328 
Q 1056 1369 1301 889 
Q 1547 409 2034 409 
Q 2525 409 2770 889 
Q 3016 1369 3016 2328 
Q 3016 3291 2770 3770 
Q 2525 4250 2034 4250 
z
M 2034 4750 
Q 2819 4750 3233 4129 
Q 3647 3509 3647 2328 
Q 3647 1150 3233 529 
Q 2819 -91 2034 -91 
Q 1250 -91 836 529 
Q 422 1150 422 2328 
Q 422 3509 836 4129 
Q 1250 4750 2034 4750 
z
" transform="scale(0.015625)"/>
       </defs>
       <use xlink:href="#DejaVuSans-30"/>
      </g>
     </g>
    </g>
    <g id="xtick_2">
     <g id="line2d_2">
      <g>
       <use xlink:href="#m254da9cf3e" x="114.414545" y="307.584" style="stroke: #000000; stroke-width: 0.8"/>
      </g>
     </g>
     <g id="text_2">
      <!-- 250 -->
      <g transform="translate(104.870795 322.182437) scale(0.1 -0.1)">
       <defs>
        <path id="DejaVuSans-32" d="M 1228 531 
L 3431 531 
L 3431 0 
L 469 0 
L 469 531 
Q 828 903 1448 1529 
Q 2069 2156 2228 2338 
Q 2531 2678 2651 2914 
Q 2772 3150 2772 3378 
Q 2772 3750 2511 3984 
Q 2250 4219 1831 4219 
Q 1534 4219 1204 4116 
Q 875 4013 500 3803 
L 500 4441 
Q 881 4594 1212 4672 
Q 1544 4750 1819 4750 
Q 2544 4750 2975 4387 
Q 3406 4025 3406 3419 
Q 3406 3131 3298 2873 
Q 3191 2616 2906 2266 
Q 2828 2175 2409 1742 
Q 1991 1309 1228 531 
z
" transform="scale(0.015625)"/>
        <path id="DejaVuSans-35" d="M 691 4666 
L 3169 4666 
L 3169 4134 
L 1269 4134 
L 1269 2991 
Q 1406 3038 1543 3061 
Q 1681 3084 1819 3084 
Q 2600 3084 3056 2656 
Q 3513 2228 3513 1497 
Q 3513 744 3044 326 
Q 2575 -91 1722 -91 
Q 1428 -91 1123 -41 
Q 819 9 494 109 
L 494 744 
Q 775 591 1075 516 
Q 1375 441 1709 441 
Q 2250 441 2565 725 
Q 2881 1009 2881 1497 
Q 2881 1984 2565 2268 
Q 2250 2553 1709 2553 
Q 1456 2553 1204 2497 
Q 953 2441 691 2322 
L 691 4666 
z
" transform="scale(0.015625)"/>
       </defs>
       <use xlink:href="#DejaVuSans-32"/>
       <use xlink:href="#DejaVuSans-35" transform="translate(63.623047 0)"/>
       <use xlink:href="#DejaVuSans-30" transform="translate(127.246094 0)"/>
      </g>
     </g>
    </g>
    <g id="xtick_3">
     <g id="line2d_3">
      <g>
       <use xlink:href="#m254da9cf3e" x="154.996364" y="307.584" style="stroke: #000000; stroke-width: 0.8"/>
      </g>
     </g>
     <g id="text_3">
      <!-- 500 -->
      <g transform="translate(145.452614 322.182437) scale(0.1 -0.1)">
       <use xlink:href="#DejaVuSans-35"/>
       <use xlink:href="#DejaVuSans-30" transform="translate(63.623047 0)"/>
       <use xlink:href="#DejaVuSans-30" transform="translate(127.246094 0)"/>
      </g>
     </g>
    </g>
    <g id="xtick_4">
     <g id="line2d_4">
      <g>
       <use xlink:href="#m254da9cf3e" x="195.578182" y="307.584" style="stroke: #000000; stroke-width: 0.8"/>
      </g>
     </g>
     <g id="text_4">
      <!-- 750 -->
      <g transform="translate(186.034432 322.182437) scale(0.1 -0.1)">
       <defs>
        <path id="DejaVuSans-37" d="M 525 4666 
L 3525 4666 
L 3525 4397 
L 1831 0 
L 1172 0 
L 2766 4134 
L 525 4134 
L 525 4666 
z
" transform="scale(0.015625)"/>
       </defs>
       <use xlink:href="#DejaVuSans-37"/>
       <use xlink:href="#DejaVuSans-35" transform="translate(63.623047 0)"/>
       <use xlink:href="#DejaVuSans-30" transform="translate(127.246094 0)"/>
      </g>
     </g>
    </g>
    <g id="xtick_5">
     <g id="line2d_5">
      <g>
       <use xlink:href="#m254da9cf3e" x="236.16" y="307.584" style="stroke: #000000; stroke-width: 0.8"/>
      </g>
     </g>
     <g id="text_5">
      <!-- 1000 -->
      <g transform="translate(223.435 322.182437) scale(0.1 -0.1)">
       <defs>
        <path id="DejaVuSans-31" d="M 794 531 
L 1825 531 
L 1825 4091 
L 703 3866 
L 703 4441 
L 1819 4666 
L 2450 4666 
L 2450 531 
L 3481 531 
L 3481 0 
L 794 0 
L 794 531 
z
" transform="scale(0.015625)"/>
       </defs>
       <use xlink:href="#DejaVuSans-31"/>
       <use xlink:href="#DejaVuSans-30" transform="translate(63.623047 0)"/>
       <use xlink:href="#DejaVuSans-30" transform="translate(127.246094 0)"/>
       <use xlink:href="#DejaVuSans-30" transform="translate(190.869141 0)"/>
      </g>
     </g>
    </g>
    <g id="xtick_6">
     <g id="line2d_6">
      <g>
       <use xlink:href="#m254da9cf3e" x="276.741818" y="307.584" style="stroke: #000000; stroke-width: 0.8"/>
      </g>
     </g>
     <g id="text_6">
      <!-- 1250 -->
      <g transform="translate(264.016818 322.182437) scale(0.1 -0.1)">
       <use xlink:href="#DejaVuSans-31"/>
       <use xlink:href="#DejaVuSans-32" transform="translate(63.623047 0)"/>
       <use xlink:href="#DejaVuSans-35" transform="translate(127.246094 0)"/>
       <use xlink:href="#DejaVuSans-30" transform="translate(190.869141 0)"/>
      </g>
     </g>
    </g>
    <g id="xtick_7">
     <g id="line2d_7">
      <g>
       <use xlink:href="#m254da9cf3e" x="317.323636" y="307.584" style="stroke: #000000; stroke-width: 0.8"/>
      </g>
     </g>
     <g id="text_7">
      <!-- 1500 -->
      <g transform="translate(304.598636 322.182437) scale(0.1 -0.1)">
       <use xlink:href="#DejaVuSans-31"/>
       <use xlink:href="#DejaVuSans-35" transform="translate(63.623047 0)"/>
       <use xlink:href="#DejaVuSans-30" transform="translate(127.246094 0)"/>
       <use xlink:href="#DejaVuSans-30" transform="translate(190.869141 0)"/>
      </g>
     </g>
    </g>
    <g id="xtick_8">
     <g id="line2d_8">
      <g>
       <use xlink:href="#m254da9cf3e" x="357.905455" y="307.584" style="stroke: #000000; stroke-width: 0.8"/>
      </g>
     </g>
     <g id="text_8">
      <!-- 1750 -->
      <g transform="translate(345.180455 322.182437) scale(0.1 -0.1)">
       <use xlink:href="#DejaVuSans-31"/>
       <use xlink:href="#DejaVuSans-37" transform="translate(63.623047 0)"/>
       <use xlink:href="#DejaVuSans-35" transform="translate(127.246094 0)"/>
       <use xlink:href="#DejaVuSans-30" transform="translate(190.869141 0)"/>
      </g>
     </g>
    </g>
    <g id="xtick_9">
     <g id="line2d_9">
      <g>
       <use xlink:href="#m254da9cf3e" x="398.487273" y="307.584" style="stroke: #000000; stroke-width: 0.8"/>
      </g>
     </g>
     <g id="text_9">
      <!-- 2000 -->
      <g transform="translate(385.762273 322.182437) scale(0.1 -0.1)">
       <use xlink:href="#DejaVuSans-32"/>
       <use xlink:href="#DejaVuSans-30" transform="translate(63.623047 0)"/>
       <use xlink:href="#DejaVuSans-30" transform="translate(127.246094 0)"/>
       <use xlink:href="#DejaVuSans-30" transform="translate(190.869141 0)"/>
      </g>
     </g>
    </g>
    <g id="text_10">
     <!-- Epochs -->
     <g transform="translate(218.244375 335.860562) scale(0.1 -0.1)">
      <defs>
       <path id="DejaVuSans-45" d="M 628 4666 
L 3578 4666 
L 3578 4134 
L 1259 4134 
L 1259 2753 
L 3481 2753 
L 3481 2222 
L 1259 2222 
L 1259 531 
L 3634 531 
L 3634 0 
L 628 0 
L 628 4666 
z
" transform="scale(0.015625)"/>
       <path id="DejaVuSans-70" d="M 1159 525 
L 1159 -1331 
L 581 -1331 
L 581 3500 
L 1159 3500 
L 1159 2969 
Q 1341 3281 1617 3432 
Q 1894 3584 2278 3584 
Q 2916 3584 3314 3078 
Q 3713 2572 3713 1747 
Q 3713 922 3314 415 
Q 2916 -91 2278 -91 
Q 1894 -91 1617 61 
Q 1341 213 1159 525 
z
M 3116 1747 
Q 3116 2381 2855 2742 
Q 2594 3103 2138 3103 
Q 1681 3103 1420 2742 
Q 1159 2381 1159 1747 
Q 1159 1113 1420 752 
Q 1681 391 2138 391 
Q 2594 391 2855 752 
Q 3116 1113 3116 1747 
z
" transform="scale(0.015625)"/>
       <path id="DejaVuSans-6f" d="M 1959 3097 
Q 1497 3097 1228 2736 
Q 959 2375 959 1747 
Q 959 1119 1226 758 
Q 1494 397 1959 397 
Q 2419 397 2687 759 
Q 2956 1122 2956 1747 
Q 2956 2369 2687 2733 
Q 2419 3097 1959 3097 
z
M 1959 3584 
Q 2709 3584 3137 3096 
Q 3566 2609 3566 1747 
Q 3566 888 3137 398 
Q 2709 -91 1959 -91 
Q 1206 -91 779 398 
Q 353 888 353 1747 
Q 353 2609 779 3096 
Q 1206 3584 1959 3584 
z
" transform="scale(0.015625)"/>
       <path id="DejaVuSans-63" d="M 3122 3366 
L 3122 2828 
Q 2878 2963 2633 3030 
Q 2388 3097 2138 3097 
Q 1578 3097 1268 2742 
Q 959 2388 959 1747 
Q 959 1106 1268 751 
Q 1578 397 2138 397 
Q 2388 397 2633 464 
Q 2878 531 3122 666 
L 3122 134 
Q 2881 22 2623 -34 
Q 2366 -91 2075 -91 
Q 1284 -91 818 406 
Q 353 903 353 1747 
Q 353 2603 823 3093 
Q 1294 3584 2113 3584 
Q 2378 3584 2631 3529 
Q 2884 3475 3122 3366 
z
" transform="scale(0.015625)"/>
       <path id="DejaVuSans-68" d="M 3513 2113 
L 3513 0 
L 2938 0 
L 2938 2094 
Q 2938 2591 2744 2837 
Q 2550 3084 2163 3084 
Q 1697 3084 1428 2787 
Q 1159 2491 1159 1978 
L 1159 0 
L 581 0 
L 581 4863 
L 1159 4863 
L 1159 2956 
Q 1366 3272 1645 3428 
Q 1925 3584 2291 3584 
Q 2894 3584 3203 3211 
Q 3513 2838 3513 2113 
z
" transform="scale(0.015625)"/>
       <path id="DejaVuSans-73" d="M 2834 3397 
L 2834 2853 
Q 2591 2978 2328 3040 
Q 2066 3103 1784 3103 
Q 1356 3103 1142 2972 
Q 928 2841 928 2578 
Q 928 2378 1081 2264 
Q 1234 2150 1697 2047 
L 1894 2003 
Q 2506 1872 2764 1633 
Q 3022 1394 3022 966 
Q 3022 478 2636 193 
Q 2250 -91 1575 -91 
Q 1294 -91 989 -36 
Q 684 19 347 128 
L 347 722 
Q 666 556 975 473 
Q 1284 391 1588 391 
Q 1994 391 2212 530 
Q 2431 669 2431 922 
Q 2431 1156 2273 1281 
Q 2116 1406 1581 1522 
L 1381 1569 
Q 847 1681 609 1914 
Q 372 2147 372 2553 
Q 372 3047 722 3315 
Q 1072 3584 1716 3584 
Q 2034 3584 2315 3537 
Q 2597 3491 2834 3397 
z
" transform="scale(0.015625)"/>
      </defs>
      <use xlink:href="#DejaVuSans-45"/>
      <use xlink:href="#DejaVuSans-70" transform="translate(63.183594 0)"/>
      <use xlink:href="#DejaVuSans-6f" transform="translate(126.660156 0)"/>
      <use xlink:href="#DejaVuSans-63" transform="translate(187.841797 0)"/>
      <use xlink:href="#DejaVuSans-68" transform="translate(242.822266 0)"/>
      <use xlink:href="#DejaVuSans-73" transform="translate(306.201172 0)"/>
     </g>
    </g>
   </g>
   <g id="matplotlib.axis_2">
    <g id="ytick_1">
     <g id="line2d_10">
      <defs>
       <path id="ma73fd49757" d="M 0 0 
L -3.5 0 
" style="stroke: #000000; stroke-width: 0.8"/>
      </defs>
      <g>
       <use xlink:href="#ma73fd49757" x="57.6" y="295.488" style="stroke: #000000; stroke-width: 0.8"/>
      </g>
     </g>
     <g id="text_11">
      <!-- 0.0 -->
      <g transform="translate(34.696875 299.287219) scale(0.1 -0.1)">
       <defs>
        <path id="DejaVuSans-2e" d="M 684 794 
L 1344 794 
L 1344 0 
L 684 0 
L 684 794 
z
" transform="scale(0.015625)"/>
       </defs>
       <use xlink:href="#DejaVuSans-30"/>
       <use xlink:href="#DejaVuSans-2e" transform="translate(63.623047 0)"/>
       <use xlink:href="#DejaVuSans-30" transform="translate(95.410156 0)"/>
      </g>
     </g>
    </g>
    <g id="ytick_2">
     <g id="line2d_11">
      <g>
       <use xlink:href="#ma73fd49757" x="57.6" y="259.200001" style="stroke: #000000; stroke-width: 0.8"/>
      </g>
     </g>
     <g id="text_12">
      <!-- 2.5 -->
      <g transform="translate(34.696875 262.99922) scale(0.1 -0.1)">
       <use xlink:href="#DejaVuSans-32"/>
       <use xlink:href="#DejaVuSans-2e" transform="translate(63.623047 0)"/>
       <use xlink:href="#DejaVuSans-35" transform="translate(95.410156 0)"/>
      </g>
     </g>
    </g>
    <g id="ytick_3">
     <g id="line2d_12">
      <g>
       <use xlink:href="#ma73fd49757" x="57.6" y="222.912002" style="stroke: #000000; stroke-width: 0.8"/>
      </g>
     </g>
     <g id="text_13">
      <!-- 5.0 -->
      <g transform="translate(34.696875 226.711221) scale(0.1 -0.1)">
       <use xlink:href="#DejaVuSans-35"/>
       <use xlink:href="#DejaVuSans-2e" transform="translate(63.623047 0)"/>
       <use xlink:href="#DejaVuSans-30" transform="translate(95.410156 0)"/>
      </g>
     </g>
    </g>
    <g id="ytick_4">
     <g id="line2d_13">
      <g>
       <use xlink:href="#ma73fd49757" x="57.6" y="186.624003" style="stroke: #000000; stroke-width: 0.8"/>
      </g>
     </g>
     <g id="text_14">
      <!-- 7.5 -->
      <g transform="translate(34.696875 190.423222) scale(0.1 -0.1)">
       <use xlink:href="#DejaVuSans-37"/>
       <use xlink:href="#DejaVuSans-2e" transform="translate(63.623047 0)"/>
       <use xlink:href="#DejaVuSans-35" transform="translate(95.410156 0)"/>
      </g>
     </g>
    </g>
    <g id="ytick_5">
     <g id="line2d_14">
      <g>
       <use xlink:href="#ma73fd49757" x="57.6" y="150.336004" style="stroke: #000000; stroke-width: 0.8"/>
      </g>
     </g>
     <g id="text_15">
      <!-- 10.0 -->
      <g transform="translate(28.334375 154.135223) scale(0.1 -0.1)">
       <use xlink:href="#DejaVuSans-31"/>
       <use xlink:href="#DejaVuSans-30" transform="translate(63.623047 0)"/>
       <use xlink:href="#DejaVuSans-2e" transform="translate(127.246094 0)"/>
       <use xlink:href="#DejaVuSans-30" transform="translate(159.033203 0)"/>
      </g>
     </g>
    </g>
    <g id="ytick_6">
     <g id="line2d_15">
      <g>
       <use xlink:href="#ma73fd49757" x="57.6" y="114.048005" style="stroke: #000000; stroke-width: 0.8"/>
      </g>
     </g>
     <g id="text_16">
      <!-- 12.5 -->
      <g transform="translate(28.334375 117.847224) scale(0.1 -0.1)">
       <use xlink:href="#DejaVuSans-31"/>
       <use xlink:href="#DejaVuSans-32" transform="translate(63.623047 0)"/>
       <use xlink:href="#DejaVuSans-2e" transform="translate(127.246094 0)"/>
       <use xlink:href="#DejaVuSans-35" transform="translate(159.033203 0)"/>
      </g>
     </g>
    </g>
    <g id="ytick_7">
     <g id="line2d_16">
      <g>
       <use xlink:href="#ma73fd49757" x="57.6" y="77.760006" style="stroke: #000000; stroke-width: 0.8"/>
      </g>
     </g>
     <g id="text_17">
      <!-- 15.0 -->
      <g transform="translate(28.334375 81.559225) scale(0.1 -0.1)">
       <use xlink:href="#DejaVuSans-31"/>
       <use xlink:href="#DejaVuSans-35" transform="translate(63.623047 0)"/>
       <use xlink:href="#DejaVuSans-2e" transform="translate(127.246094 0)"/>
       <use xlink:href="#DejaVuSans-30" transform="translate(159.033203 0)"/>
      </g>
     </g>
    </g>
    <g id="ytick_8">
     <g id="line2d_17">
      <g>
       <use xlink:href="#ma73fd49757" x="57.6" y="41.472008" style="stroke: #000000; stroke-width: 0.8"/>
      </g>
     </g>
     <g id="text_18">
      <!-- 17.5 -->
      <g transform="translate(28.334375 45.271226) scale(0.1 -0.1)">
       <use xlink:href="#DejaVuSans-31"/>
       <use xlink:href="#DejaVuSans-37" transform="translate(63.623047 0)"/>
       <use xlink:href="#DejaVuSans-2e" transform="translate(127.246094 0)"/>
       <use xlink:href="#DejaVuSans-35" transform="translate(159.033203 0)"/>
      </g>
     </g>
    </g>
    <g id="text_19">
     <!-- Accuracy within 5% (%) -->
     <g transform="translate(22.254687 233.872531) rotate(-90) scale(0.1 -0.1)">
      <defs>
       <path id="DejaVuSans-41" d="M 2188 4044 
L 1331 1722 
L 3047 1722 
L 2188 4044 
z
M 1831 4666 
L 2547 4666 
L 4325 0 
L 3669 0 
L 3244 1197 
L 1141 1197 
L 716 0 
L 50 0 
L 1831 4666 
z
" transform="scale(0.015625)"/>
       <path id="DejaVuSans-75" d="M 544 1381 
L 544 3500 
L 1119 3500 
L 1119 1403 
Q 1119 906 1312 657 
Q 1506 409 1894 409 
Q 2359 409 2629 706 
Q 2900 1003 2900 1516 
L 2900 3500 
L 3475 3500 
L 3475 0 
L 2900 0 
L 2900 538 
Q 2691 219 2414 64 
Q 2138 -91 1772 -91 
Q 1169 -91 856 284 
Q 544 659 544 1381 
z
M 1991 3584 
L 1991 3584 
z
" transform="scale(0.015625)"/>
       <path id="DejaVuSans-72" d="M 2631 2963 
Q 2534 3019 2420 3045 
Q 2306 3072 2169 3072 
Q 1681 3072 1420 2755 
Q 1159 2438 1159 1844 
L 1159 0 
L 581 0 
L 581 3500 
L 1159 3500 
L 1159 2956 
Q 1341 3275 1631 3429 
Q 1922 3584 2338 3584 
Q 2397 3584 2469 3576 
Q 2541 3569 2628 3553 
L 2631 2963 
z
" transform="scale(0.015625)"/>
       <path id="DejaVuSans-61" d="M 2194 1759 
Q 1497 1759 1228 1600 
Q 959 1441 959 1056 
Q 959 750 1161 570 
Q 1363 391 1709 391 
Q 2188 391 2477 730 
Q 2766 1069 2766 1631 
L 2766 1759 
L 2194 1759 
z
M 3341 1997 
L 3341 0 
L 2766 0 
L 2766 531 
Q 2569 213 2275 61 
Q 1981 -91 1556 -91 
Q 1019 -91 701 211 
Q 384 513 384 1019 
Q 384 1609 779 1909 
Q 1175 2209 1959 2209 
L 2766 2209 
L 2766 2266 
Q 2766 2663 2505 2880 
Q 2244 3097 1772 3097 
Q 1472 3097 1187 3025 
Q 903 2953 641 2809 
L 641 3341 
Q 956 3463 1253 3523 
Q 1550 3584 1831 3584 
Q 2591 3584 2966 3190 
Q 3341 2797 3341 1997 
z
" transform="scale(0.015625)"/>
       <path id="DejaVuSans-79" d="M 2059 -325 
Q 1816 -950 1584 -1140 
Q 1353 -1331 966 -1331 
L 506 -1331 
L 506 -850 
L 844 -850 
Q 1081 -850 1212 -737 
Q 1344 -625 1503 -206 
L 1606 56 
L 191 3500 
L 800 3500 
L 1894 763 
L 2988 3500 
L 3597 3500 
L 2059 -325 
z
" transform="scale(0.015625)"/>
       <path id="DejaVuSans-20" transform="scale(0.015625)"/>
       <path id="DejaVuSans-77" d="M 269 3500 
L 844 3500 
L 1563 769 
L 2278 3500 
L 2956 3500 
L 3675 769 
L 4391 3500 
L 4966 3500 
L 4050 0 
L 3372 0 
L 2619 2869 
L 1863 0 
L 1184 0 
L 269 3500 
z
" transform="scale(0.015625)"/>
       <path id="DejaVuSans-69" d="M 603 3500 
L 1178 3500 
L 1178 0 
L 603 0 
L 603 3500 
z
M 603 4863 
L 1178 4863 
L 1178 4134 
L 603 4134 
L 603 4863 
z
" transform="scale(0.015625)"/>
       <path id="DejaVuSans-74" d="M 1172 4494 
L 1172 3500 
L 2356 3500 
L 2356 3053 
L 1172 3053 
L 1172 1153 
Q 1172 725 1289 603 
Q 1406 481 1766 481 
L 2356 481 
L 2356 0 
L 1766 0 
Q 1100 0 847 248 
Q 594 497 594 1153 
L 594 3053 
L 172 3053 
L 172 3500 
L 594 3500 
L 594 4494 
L 1172 4494 
z
" transform="scale(0.015625)"/>
       <path id="DejaVuSans-6e" d="M 3513 2113 
L 3513 0 
L 2938 0 
L 2938 2094 
Q 2938 2591 2744 2837 
Q 2550 3084 2163 3084 
Q 1697 3084 1428 2787 
Q 1159 2491 1159 1978 
L 1159 0 
L 581 0 
L 581 3500 
L 1159 3500 
L 1159 2956 
Q 1366 3272 1645 3428 
Q 1925 3584 2291 3584 
Q 2894 3584 3203 3211 
Q 3513 2838 3513 2113 
z
" transform="scale(0.015625)"/>
       <path id="DejaVuSans-25" d="M 4653 2053 
Q 4381 2053 4226 1822 
Q 4072 1591 4072 1178 
Q 4072 772 4226 539 
Q 4381 306 4653 306 
Q 4919 306 5073 539 
Q 5228 772 5228 1178 
Q 5228 1588 5073 1820 
Q 4919 2053 4653 2053 
z
M 4653 2450 
Q 5147 2450 5437 2106 
Q 5728 1763 5728 1178 
Q 5728 594 5436 251 
Q 5144 -91 4653 -91 
Q 4153 -91 3862 251 
Q 3572 594 3572 1178 
Q 3572 1766 3864 2108 
Q 4156 2450 4653 2450 
z
M 1428 4353 
Q 1159 4353 1004 4120 
Q 850 3888 850 3481 
Q 850 3069 1003 2837 
Q 1156 2606 1428 2606 
Q 1700 2606 1854 2837 
Q 2009 3069 2009 3481 
Q 2009 3884 1853 4118 
Q 1697 4353 1428 4353 
z
M 4250 4750 
L 4750 4750 
L 1831 -91 
L 1331 -91 
L 4250 4750 
z
M 1428 4750 
Q 1922 4750 2215 4408 
Q 2509 4066 2509 3481 
Q 2509 2891 2217 2550 
Q 1925 2209 1428 2209 
Q 931 2209 642 2551 
Q 353 2894 353 3481 
Q 353 4063 643 4406 
Q 934 4750 1428 4750 
z
" transform="scale(0.015625)"/>
       <path id="DejaVuSans-28" d="M 1984 4856 
Q 1566 4138 1362 3434 
Q 1159 2731 1159 2009 
Q 1159 1288 1364 580 
Q 1569 -128 1984 -844 
L 1484 -844 
Q 1016 -109 783 600 
Q 550 1309 550 2009 
Q 550 2706 781 3412 
Q 1013 4119 1484 4856 
L 1984 4856 
z
" transform="scale(0.015625)"/>
       <path id="DejaVuSans-29" d="M 513 4856 
L 1013 4856 
Q 1481 4119 1714 3412 
Q 1947 2706 1947 2009 
Q 1947 1309 1714 600 
Q 1481 -109 1013 -844 
L 513 -844 
Q 928 -128 1133 580 
Q 1338 1288 1338 2009 
Q 1338 2731 1133 3434 
Q 928 4138 513 4856 
z
" transform="scale(0.015625)"/>
      </defs>
      <use xlink:href="#DejaVuSans-41"/>
      <use xlink:href="#DejaVuSans-63" transform="translate(66.658203 0)"/>
      <use xlink:href="#DejaVuSans-63" transform="translate(121.638672 0)"/>
      <use xlink:href="#DejaVuSans-75" transform="translate(176.619141 0)"/>
      <use xlink:href="#DejaVuSans-72" transform="translate(239.998047 0)"/>
      <use xlink:href="#DejaVuSans-61" transform="translate(281.111328 0)"/>
      <use xlink:href="#DejaVuSans-63" transform="translate(342.390625 0)"/>
      <use xlink:href="#DejaVuSans-79" transform="translate(397.371094 0)"/>
      <use xlink:href="#DejaVuSans-20" transform="translate(456.550781 0)"/>
      <use xlink:href="#DejaVuSans-77" transform="translate(488.337891 0)"/>
      <use xlink:href="#DejaVuSans-69" transform="translate(570.125 0)"/>
      <use xlink:href="#DejaVuSans-74" transform="translate(597.908203 0)"/>
      <use xlink:href="#DejaVuSans-68" transform="translate(637.117188 0)"/>
      <use xlink:href="#DejaVuSans-69" transform="translate(700.496094 0)"/>
      <use xlink:href="#DejaVuSans-6e" transform="translate(728.279297 0)"/>
      <use xlink:href="#DejaVuSans-20" transform="translate(791.658203 0)"/>
      <use xlink:href="#DejaVuSans-35" transform="translate(823.445312 0)"/>
      <use xlink:href="#DejaVuSans-25" transform="translate(887.068359 0)"/>
      <use xlink:href="#DejaVuSans-20" transform="translate(982.087891 0)"/>
      <use xlink:href="#DejaVuSans-28" transform="translate(1013.875 0)"/>
      <use xlink:href="#DejaVuSans-25" transform="translate(1052.888672 0)"/>
      <use xlink:href="#DejaVuSans-29" transform="translate(1147.908203 0)"/>
     </g>
    </g>
   </g>
   <g id="line2d_18">
    <path d="M 73.832727 150.335991 
L 74.157382 198.719998 
L 74.319709 174.528 
L 74.482036 247.103999 
L 74.644364 150.335991 
L 74.969018 198.719998 
L 75.293673 150.335991 
L 75.456 174.528 
L 75.618327 174.528 
L 75.780655 247.103999 
L 75.942982 150.335991 
L 76.105309 198.719998 
L 76.267636 150.335991 
L 76.429964 174.528 
L 76.754618 174.528 
L 76.916945 222.911996 
L 77.079273 222.911996 
L 77.403927 101.951996 
L 77.566255 222.911996 
L 77.728582 174.528 
L 78.053236 174.528 
L 78.215564 247.103999 
L 78.540218 174.528 
L 78.702545 222.911996 
L 78.864873 101.951996 
L 79.189527 247.103999 
L 79.514182 150.335991 
L 79.676509 222.911996 
L 80.001164 174.528 
L 80.163491 198.719998 
L 80.325818 247.103999 
L 80.488145 222.911996 
L 80.650473 101.951996 
L 80.8128 271.295999 
L 80.975127 198.719998 
L 81.137455 198.719998 
L 81.299782 247.103999 
L 81.462109 174.528 
L 81.624436 247.103999 
L 81.786764 198.719998 
L 81.949091 247.103999 
L 82.273745 247.103999 
L 82.436073 222.911996 
L 82.5984 271.295999 
L 82.760727 222.911996 
L 82.923055 222.911996 
L 83.085382 271.295999 
L 83.247709 247.103999 
L 83.572364 247.103999 
L 83.734691 271.295999 
L 83.897018 271.295999 
L 84.059345 174.528 
L 84.221673 198.719998 
L 84.384 247.103999 
L 84.546327 222.911996 
L 84.708655 247.103999 
L 84.870982 222.911996 
L 85.033309 222.911996 
L 85.195636 247.103999 
L 85.357964 198.719998 
L 85.520291 222.911996 
L 85.844945 222.911996 
L 86.007273 271.295999 
L 86.1696 222.911996 
L 86.331927 222.911996 
L 86.494255 198.719998 
L 86.656582 247.103999 
L 86.818909 222.911996 
L 87.143564 222.911996 
L 87.305891 247.103999 
L 87.630545 198.719998 
L 87.9552 198.719998 
L 88.279855 247.103999 
L 88.604509 247.103999 
L 88.766836 198.719998 
L 88.929164 247.103999 
L 89.091491 126.143994 
L 89.253818 247.103999 
L 89.416145 198.719998 
L 89.578473 198.719998 
L 89.7408 247.103999 
L 89.903127 222.911996 
L 90.065455 222.911996 
L 90.227782 198.719998 
L 90.390109 222.911996 
L 90.714764 222.911996 
L 90.877091 247.103999 
L 91.039418 198.719998 
L 91.201745 247.103999 
L 91.364073 222.911996 
L 91.688727 222.911996 
L 91.851055 247.103999 
L 92.013382 222.911996 
L 92.175709 222.911996 
L 92.338036 126.143994 
L 92.500364 174.528 
L 92.662691 150.335991 
L 92.825018 247.103999 
L 92.987345 247.103999 
L 93.149673 174.528 
L 93.474327 271.295999 
L 93.798982 222.911996 
L 94.448291 222.911996 
L 94.610618 247.103999 
L 94.772945 198.719998 
L 95.0976 247.103999 
L 95.259927 198.719998 
L 95.584582 247.103999 
L 95.909236 174.528 
L 96.233891 247.103999 
L 96.396218 101.951996 
L 96.558545 247.103999 
L 96.720873 271.295999 
L 96.8832 198.719998 
L 97.207855 271.295999 
L 97.532509 198.719998 
L 97.694836 247.103999 
L 97.857164 247.103999 
L 98.019491 198.719998 
L 98.181818 222.911996 
L 98.344145 198.719998 
L 98.6688 198.719998 
L 98.831127 222.911996 
L 98.993455 198.719998 
L 99.155782 150.335991 
L 99.318109 247.103999 
L 99.480436 271.295999 
L 99.805091 174.528 
L 99.967418 247.103999 
L 100.129745 198.719998 
L 100.4544 271.295999 
L 100.616727 222.911996 
L 100.779055 222.911996 
L 100.941382 198.719998 
L 101.103709 222.911996 
L 101.266036 150.335991 
L 101.590691 222.911996 
L 101.753018 198.719998 
L 101.915345 247.103999 
L 102.24 198.719998 
L 102.402327 247.103999 
L 102.889309 247.103999 
L 103.051636 222.911996 
L 103.213964 247.103999 
L 103.376291 198.719998 
L 103.538618 222.911996 
L 104.0256 222.911996 
L 104.187927 174.528 
L 104.350255 222.911996 
L 104.512582 198.719998 
L 104.674909 222.911996 
L 104.837236 198.719998 
L 104.999564 126.143994 
L 105.161891 222.911996 
L 105.486545 174.528 
L 105.648873 222.911996 
L 105.973527 101.951996 
L 106.298182 198.719998 
L 106.460509 247.103999 
L 106.622836 101.951996 
L 106.785164 247.103999 
L 106.947491 198.719998 
L 107.272145 247.103999 
L 107.434473 174.528 
L 107.5968 198.719998 
L 108.083782 198.719998 
L 108.246109 222.911996 
L 108.408436 174.528 
L 108.570764 247.103999 
L 108.895418 198.719998 
L 109.220073 198.719998 
L 109.3824 222.911996 
L 109.544727 271.295999 
L 109.869382 174.528 
L 110.031709 222.911996 
L 110.194036 198.719998 
L 110.356364 222.911996 
L 110.518691 295.488 
L 110.681018 174.528 
L 110.843345 247.103999 
L 111.005673 222.911996 
L 111.168 271.295999 
L 111.492655 198.719998 
L 111.654982 247.103999 
L 111.817309 174.528 
L 112.141964 247.103999 
L 112.304291 198.719998 
L 112.466618 222.911996 
L 112.628945 174.528 
L 112.791273 247.103999 
L 112.9536 222.911996 
L 113.115927 247.103999 
L 113.440582 198.719998 
L 113.602909 150.335991 
L 113.927564 271.295999 
L 114.089891 247.103999 
L 114.414545 247.103999 
L 114.7392 150.335991 
L 114.901527 222.911996 
L 115.063855 222.911996 
L 115.226182 271.295999 
L 115.388509 198.719998 
L 115.550836 247.103999 
L 115.713164 198.719998 
L 115.875491 198.719998 
L 116.037818 126.143994 
L 116.362473 222.911996 
L 116.5248 247.103999 
L 116.687127 150.335991 
L 116.849455 222.911996 
L 117.011782 198.719998 
L 117.174109 150.335991 
L 117.336436 53.568 
L 117.498764 222.911996 
L 117.661091 150.335991 
L 117.985745 247.103999 
L 118.148073 198.719998 
L 118.3104 222.911996 
L 118.472727 222.911996 
L 118.635055 247.103999 
L 118.797382 174.528 
L 118.959709 222.911996 
L 119.122036 150.335991 
L 119.284364 222.911996 
L 119.446691 174.528 
L 119.771345 295.488 
L 120.096 198.719998 
L 120.258327 247.103999 
L 120.420655 247.103999 
L 120.582982 198.719998 
L 120.745309 198.719998 
L 120.907636 271.295999 
L 121.232291 198.719998 
L 121.394618 198.719998 
L 121.556945 174.528 
L 121.8816 174.528 
L 122.043927 198.719998 
L 122.206255 271.295999 
L 122.368582 198.719998 
L 122.530909 247.103999 
L 122.693236 222.911996 
L 123.017891 222.911996 
L 123.180218 247.103999 
L 123.6672 174.528 
L 123.829527 198.719998 
L 123.991855 198.719998 
L 124.154182 222.911996 
L 124.316509 222.911996 
L 124.478836 150.335991 
L 124.641164 295.488 
L 124.965818 222.911996 
L 125.128145 222.911996 
L 125.290473 271.295999 
L 125.4528 198.719998 
L 125.615127 222.911996 
L 125.939782 222.911996 
L 126.102109 174.528 
L 126.426764 271.295999 
L 126.589091 222.911996 
L 126.751418 247.103999 
L 127.076073 247.103999 
L 127.2384 271.295999 
L 127.400727 247.103999 
L 127.563055 247.103999 
L 127.725382 295.488 
L 127.887709 247.103999 
L 128.050036 247.103999 
L 128.212364 222.911996 
L 128.374691 222.911996 
L 128.537018 271.295999 
L 128.699345 222.911996 
L 128.861673 271.295999 
L 129.024 247.103999 
L 129.186327 247.103999 
L 129.348655 198.719998 
L 129.673309 271.295999 
L 129.997964 198.719998 
L 130.322618 295.488 
L 130.484945 198.719998 
L 130.647273 271.295999 
L 130.8096 271.295999 
L 131.134255 222.911996 
L 131.296582 271.295999 
L 131.458909 198.719998 
L 131.783564 271.295999 
L 131.945891 247.103999 
L 132.108218 198.719998 
L 132.270545 198.719998 
L 132.432873 247.103999 
L 132.757527 247.103999 
L 132.919855 271.295999 
L 133.082182 198.719998 
L 133.244509 247.103999 
L 133.406836 198.719998 
L 133.569164 271.295999 
L 133.893818 198.719998 
L 134.056145 247.103999 
L 134.218473 198.719998 
L 134.3808 247.103999 
L 134.543127 198.719998 
L 134.705455 247.103999 
L 134.867782 247.103999 
L 135.030109 150.335991 
L 135.354764 247.103999 
L 135.517091 271.295999 
L 135.679418 271.295999 
L 136.004073 222.911996 
L 136.1664 222.911996 
L 136.328727 271.295999 
L 136.491055 271.295999 
L 136.653382 247.103999 
L 136.815709 247.103999 
L 136.978036 198.719998 
L 137.140364 247.103999 
L 137.302691 174.528 
L 137.627345 271.295999 
L 137.789673 222.911996 
L 137.952 247.103999 
L 138.114327 247.103999 
L 138.276655 271.295999 
L 138.438982 222.911996 
L 138.601309 271.295999 
L 138.925964 271.295999 
L 139.250618 222.911996 
L 139.575273 271.295999 
L 139.7376 198.719998 
L 139.899927 247.103999 
L 140.062255 222.911996 
L 140.224582 271.295999 
L 140.386909 271.295999 
L 140.549236 222.911996 
L 140.873891 271.295999 
L 141.036218 271.295999 
L 141.198545 222.911996 
L 141.360873 271.295999 
L 141.5232 247.103999 
L 141.685527 198.719998 
L 141.847855 198.719998 
L 142.010182 222.911996 
L 142.172509 271.295999 
L 142.334836 222.911996 
L 142.497164 222.911996 
L 142.659491 198.719998 
L 142.821818 271.295999 
L 142.984145 271.295999 
L 143.146473 247.103999 
L 143.3088 247.103999 
L 143.471127 271.295999 
L 143.633455 247.103999 
L 143.795782 247.103999 
L 143.958109 271.295999 
L 144.120436 247.103999 
L 144.282764 198.719998 
L 144.607418 271.295999 
L 144.769745 174.528 
L 144.932073 271.295999 
L 145.0944 222.911996 
L 145.256727 247.103999 
L 145.581382 247.103999 
L 145.743709 271.295999 
L 145.906036 198.719998 
L 146.068364 222.911996 
L 146.230691 271.295999 
L 146.393018 271.295999 
L 146.555345 247.103999 
L 146.717673 271.295999 
L 146.88 271.295999 
L 147.042327 150.335991 
L 147.204655 271.295999 
L 147.529309 174.528 
L 147.691636 271.295999 
L 147.853964 247.103999 
L 148.016291 271.295999 
L 148.340945 271.295999 
L 148.503273 198.719998 
L 148.827927 271.295999 
L 148.990255 247.103999 
L 149.152582 247.103999 
L 149.314909 271.295999 
L 149.477236 222.911996 
L 149.801891 271.295999 
L 149.964218 198.719998 
L 150.126545 271.295999 
L 150.288873 247.103999 
L 150.4512 271.295999 
L 150.613527 271.295999 
L 150.775855 295.488 
L 150.938182 247.103999 
L 151.100509 271.295999 
L 151.262836 198.719998 
L 151.425164 247.103999 
L 151.587491 222.911996 
L 151.749818 271.295999 
L 151.912145 247.103999 
L 152.074473 198.719998 
L 152.399127 271.295999 
L 152.561455 271.295999 
L 152.886109 222.911996 
L 153.048436 271.295999 
L 153.210764 247.103999 
L 153.373091 295.488 
L 153.535418 247.103999 
L 153.697745 295.488 
L 153.860073 271.295999 
L 154.0224 198.719998 
L 154.184727 295.488 
L 154.347055 247.103999 
L 154.509382 271.295999 
L 154.834036 222.911996 
L 155.158691 271.295999 
L 155.645673 271.295999 
L 155.808 247.103999 
L 155.970327 271.295999 
L 156.132655 174.528 
L 156.294982 222.911996 
L 156.457309 222.911996 
L 156.619636 271.295999 
L 156.781964 174.528 
L 156.944291 198.719998 
L 157.268945 271.295999 
L 157.431273 271.295999 
L 157.5936 247.103999 
L 157.755927 247.103999 
L 157.918255 295.488 
L 158.080582 271.295999 
L 158.242909 295.488 
L 158.405236 222.911996 
L 158.567564 247.103999 
L 158.729891 222.911996 
L 158.892218 271.295999 
L 159.054545 174.528 
L 159.216873 247.103999 
L 159.3792 222.911996 
L 159.541527 247.103999 
L 159.703855 198.719998 
L 160.028509 271.295999 
L 160.190836 222.911996 
L 160.353164 271.295999 
L 160.515491 247.103999 
L 160.677818 295.488 
L 160.840145 174.528 
L 161.002473 198.719998 
L 161.1648 247.103999 
L 161.327127 247.103999 
L 161.489455 222.911996 
L 161.651782 271.295999 
L 161.814109 222.911996 
L 161.976436 222.911996 
L 162.301091 295.488 
L 162.463418 222.911996 
L 162.625745 222.911996 
L 162.788073 295.488 
L 162.9504 247.103999 
L 163.112727 295.488 
L 163.275055 247.103999 
L 163.437382 295.488 
L 163.762036 247.103999 
L 163.924364 247.103999 
L 164.086691 222.911996 
L 164.249018 271.295999 
L 164.411345 198.719998 
L 164.736 295.488 
L 164.898327 247.103999 
L 165.060655 247.103999 
L 165.222982 271.295999 
L 165.385309 247.103999 
L 165.547636 174.528 
L 165.709964 271.295999 
L 165.872291 271.295999 
L 166.034618 150.335991 
L 166.196945 271.295999 
L 166.359273 247.103999 
L 166.5216 247.103999 
L 166.683927 198.719998 
L 166.846255 247.103999 
L 167.657891 247.103999 
L 167.820218 271.295999 
L 168.144873 222.911996 
L 168.3072 247.103999 
L 168.469527 198.719998 
L 168.631855 222.911996 
L 168.794182 295.488 
L 168.956509 271.295999 
L 169.118836 222.911996 
L 169.443491 222.911996 
L 169.605818 247.103999 
L 169.768145 222.911996 
L 169.930473 271.295999 
L 170.0928 222.911996 
L 170.417455 222.911996 
L 170.579782 271.295999 
L 170.742109 247.103999 
L 170.904436 174.528 
L 171.553745 271.295999 
L 171.716073 247.103999 
L 171.8784 198.719998 
L 172.040727 222.911996 
L 172.203055 198.719998 
L 172.365382 271.295999 
L 172.527709 222.911996 
L 172.690036 222.911996 
L 172.852364 198.719998 
L 173.014691 198.719998 
L 173.177018 247.103999 
L 173.501673 198.719998 
L 173.664 150.335991 
L 173.826327 222.911996 
L 173.988655 198.719998 
L 174.150982 222.911996 
L 174.313309 174.528 
L 174.475636 222.911996 
L 174.637964 198.719998 
L 174.800291 222.911996 
L 174.962618 174.528 
L 175.124945 222.911996 
L 175.287273 222.911996 
L 175.4496 198.719998 
L 175.611927 198.719998 
L 175.774255 271.295999 
L 175.936582 198.719998 
L 176.098909 198.719998 
L 176.423564 247.103999 
L 176.585891 247.103999 
L 176.748218 271.295999 
L 176.910545 247.103999 
L 177.072873 271.295999 
L 177.2352 222.911996 
L 177.397527 247.103999 
L 177.559855 222.911996 
L 177.884509 222.911996 
L 178.046836 247.103999 
L 178.371491 198.719998 
L 178.533818 198.719998 
L 178.696145 222.911996 
L 178.858473 222.911996 
L 179.183127 271.295999 
L 179.670109 198.719998 
L 179.832436 247.103999 
L 179.994764 222.911996 
L 180.319418 222.911996 
L 180.481745 174.528 
L 180.8064 247.103999 
L 180.968727 150.335991 
L 181.131055 174.528 
L 181.293382 247.103999 
L 181.618036 198.719998 
L 181.780364 222.911996 
L 181.942691 222.911996 
L 182.105018 198.719998 
L 182.267345 198.719998 
L 182.429673 247.103999 
L 182.592 198.719998 
L 182.754327 271.295999 
L 182.916655 222.911996 
L 183.078982 222.911996 
L 183.241309 174.528 
L 183.403636 198.719998 
L 183.565964 198.719998 
L 183.728291 247.103999 
L 183.890618 198.719998 
L 184.052945 198.719998 
L 184.215273 222.911996 
L 184.3776 198.719998 
L 184.539927 271.295999 
L 184.702255 174.528 
L 184.864582 247.103999 
L 185.026909 198.719998 
L 185.189236 222.911996 
L 185.351564 174.528 
L 185.838545 247.103999 
L 186.000873 198.719998 
L 186.1632 271.295999 
L 186.325527 271.295999 
L 186.487855 247.103999 
L 186.650182 198.719998 
L 186.812509 247.103999 
L 186.974836 198.719998 
L 187.137164 222.911996 
L 187.299491 174.528 
L 187.461818 198.719998 
L 187.624145 198.719998 
L 187.786473 222.911996 
L 187.9488 222.911996 
L 188.111127 247.103999 
L 188.435782 174.528 
L 188.598109 247.103999 
L 188.760436 247.103999 
L 188.922764 222.911996 
L 189.085091 174.528 
L 189.247418 222.911996 
L 189.409745 198.719998 
L 189.572073 198.719998 
L 189.7344 222.911996 
L 189.896727 222.911996 
L 190.059055 198.719998 
L 190.221382 198.719998 
L 190.546036 247.103999 
L 190.708364 222.911996 
L 190.870691 174.528 
L 191.033018 198.719998 
L 191.195345 174.528 
L 191.357673 222.911996 
L 192.169309 222.911996 
L 192.331636 198.719998 
L 192.493964 222.911996 
L 192.656291 198.719998 
L 192.818618 222.911996 
L 192.980945 198.719998 
L 193.143273 222.911996 
L 193.3056 198.719998 
L 193.630255 198.719998 
L 193.792582 247.103999 
L 193.954909 247.103999 
L 194.117236 174.528 
L 194.279564 247.103999 
L 194.441891 247.103999 
L 194.604218 198.719998 
L 194.766545 222.911996 
L 195.0912 222.911996 
L 195.253527 198.719998 
L 195.578182 247.103999 
L 195.740509 222.911996 
L 195.902836 222.911996 
L 196.065164 198.719998 
L 196.227491 222.911996 
L 196.389818 198.719998 
L 196.714473 198.719998 
L 196.8768 222.911996 
L 197.039127 198.719998 
L 197.201455 222.911996 
L 197.363782 174.528 
L 197.688436 247.103999 
L 197.850764 198.719998 
L 198.013091 222.911996 
L 198.175418 198.719998 
L 198.337745 222.911996 
L 198.500073 222.911996 
L 198.6624 198.719998 
L 198.987055 198.719998 
L 199.311709 247.103999 
L 199.474036 198.719998 
L 199.636364 198.719998 
L 199.798691 174.528 
L 199.961018 222.911996 
L 200.123345 198.719998 
L 200.285673 198.719998 
L 200.448 222.911996 
L 200.610327 198.719998 
L 200.772655 198.719998 
L 200.934982 150.335991 
L 201.097309 174.528 
L 201.259636 174.528 
L 201.421964 198.719998 
L 201.584291 247.103999 
L 201.746618 247.103999 
L 201.908945 198.719998 
L 202.2336 198.719998 
L 202.395927 247.103999 
L 202.720582 198.719998 
L 202.882909 222.911996 
L 203.207564 222.911996 
L 203.369891 174.528 
L 203.532218 247.103999 
L 203.694545 150.335991 
L 203.856873 222.911996 
L 204.0192 198.719998 
L 204.181527 222.911996 
L 204.506182 174.528 
L 204.668509 271.295999 
L 204.993164 174.528 
L 205.155491 222.911996 
L 205.480145 174.528 
L 205.642473 174.528 
L 205.8048 222.911996 
L 205.967127 222.911996 
L 206.129455 247.103999 
L 206.291782 247.103999 
L 206.454109 222.911996 
L 206.616436 174.528 
L 206.778764 222.911996 
L 206.941091 198.719998 
L 207.103418 198.719998 
L 207.265745 222.911996 
L 207.752727 222.911996 
L 207.915055 198.719998 
L 208.239709 198.719998 
L 208.402036 174.528 
L 208.726691 271.295999 
L 208.889018 247.103999 
L 209.051345 247.103999 
L 209.376 198.719998 
L 209.538327 247.103999 
L 209.700655 247.103999 
L 209.862982 222.911996 
L 210.025309 222.911996 
L 210.187636 271.295999 
L 210.674618 198.719998 
L 210.836945 198.719998 
L 210.999273 222.911996 
L 211.1616 222.911996 
L 211.323927 247.103999 
L 211.648582 247.103999 
L 211.810909 198.719998 
L 211.973236 247.103999 
L 212.135564 174.528 
L 212.297891 222.911996 
L 212.460218 198.719998 
L 212.784873 247.103999 
L 213.109527 198.719998 
L 213.434182 271.295999 
L 213.596509 271.295999 
L 213.758836 198.719998 
L 213.921164 198.719998 
L 214.408145 271.295999 
L 214.7328 198.719998 
L 214.895127 222.911996 
L 215.057455 271.295999 
L 215.219782 222.911996 
L 215.382109 271.295999 
L 215.706764 222.911996 
L 215.869091 247.103999 
L 216.031418 198.719998 
L 216.193745 222.911996 
L 216.356073 198.719998 
L 216.5184 198.719998 
L 216.680727 247.103999 
L 217.005382 247.103999 
L 217.167709 222.911996 
L 217.330036 222.911996 
L 217.492364 247.103999 
L 217.654691 247.103999 
L 217.817018 198.719998 
L 217.979345 247.103999 
L 218.141673 222.911996 
L 218.304 247.103999 
L 218.466327 222.911996 
L 218.628655 222.911996 
L 218.953309 174.528 
L 219.115636 198.719998 
L 219.277964 247.103999 
L 219.602618 174.528 
L 219.764945 247.103999 
L 219.927273 247.103999 
L 220.0896 198.719998 
L 220.251927 222.911996 
L 220.414255 198.719998 
L 220.576582 222.911996 
L 220.738909 222.911996 
L 220.901236 271.295999 
L 221.063564 198.719998 
L 221.225891 222.911996 
L 221.388218 222.911996 
L 221.550545 247.103999 
L 221.712873 222.911996 
L 221.8752 247.103999 
L 222.037527 222.911996 
L 222.199855 247.103999 
L 222.524509 198.719998 
L 222.849164 247.103999 
L 223.011491 247.103999 
L 223.336145 198.719998 
L 223.498473 247.103999 
L 223.6608 247.103999 
L 223.823127 271.295999 
L 223.985455 271.295999 
L 224.310109 222.911996 
L 224.472436 222.911996 
L 224.634764 247.103999 
L 224.797091 222.911996 
L 224.959418 247.103999 
L 225.121745 222.911996 
L 225.284073 247.103999 
L 225.4464 247.103999 
L 225.608727 222.911996 
L 225.771055 222.911996 
L 225.933382 198.719998 
L 226.258036 247.103999 
L 226.420364 222.911996 
L 226.745018 222.911996 
L 226.907345 247.103999 
L 227.069673 247.103999 
L 227.232 222.911996 
L 227.394327 222.911996 
L 227.556655 198.719998 
L 227.718982 222.911996 
L 227.881309 271.295999 
L 228.043636 222.911996 
L 228.368291 271.295999 
L 228.530618 222.911996 
L 228.692945 247.103999 
L 229.179927 174.528 
L 229.504582 271.295999 
L 229.829236 198.719998 
L 229.991564 271.295999 
L 230.153891 271.295999 
L 230.640873 198.719998 
L 230.8032 247.103999 
L 230.965527 222.911996 
L 231.127855 174.528 
L 231.290182 222.911996 
L 231.452509 198.719998 
L 231.614836 247.103999 
L 231.777164 247.103999 
L 231.939491 198.719998 
L 232.101818 198.719998 
L 232.426473 271.295999 
L 232.913455 198.719998 
L 233.400436 198.719998 
L 233.562764 222.911996 
L 233.887418 222.911996 
L 234.049745 247.103999 
L 234.212073 247.103999 
L 234.3744 222.911996 
L 234.536727 271.295999 
L 234.699055 150.335991 
L 235.023709 247.103999 
L 235.186036 247.103999 
L 235.348364 174.528 
L 235.673018 271.295999 
L 235.835345 222.911996 
L 236.16 222.911996 
L 236.322327 174.528 
L 236.484655 247.103999 
L 236.646982 198.719998 
L 236.971636 247.103999 
L 237.133964 222.911996 
L 237.296291 222.911996 
L 237.458618 198.719998 
L 237.620945 222.911996 
L 237.783273 174.528 
L 237.9456 222.911996 
L 238.107927 222.911996 
L 238.270255 247.103999 
L 238.432582 222.911996 
L 238.594909 222.911996 
L 238.757236 247.103999 
L 238.919564 198.719998 
L 239.081891 222.911996 
L 239.244218 174.528 
L 239.406545 198.719998 
L 239.568873 198.719998 
L 239.7312 247.103999 
L 239.893527 247.103999 
L 240.055855 271.295999 
L 240.380509 198.719998 
L 240.542836 222.911996 
L 240.705164 174.528 
L 240.867491 222.911996 
L 241.029818 198.719998 
L 241.192145 247.103999 
L 241.354473 222.911996 
L 241.5168 222.911996 
L 241.679127 247.103999 
L 241.841455 198.719998 
L 242.003782 247.103999 
L 242.166109 174.528 
L 242.328436 247.103999 
L 242.653091 198.719998 
L 242.815418 222.911996 
L 242.977745 222.911996 
L 243.140073 247.103999 
L 243.3024 247.103999 
L 243.627055 198.719998 
L 243.789382 247.103999 
L 243.951709 222.911996 
L 244.114036 222.911996 
L 244.276364 198.719998 
L 244.438691 198.719998 
L 244.601018 295.488 
L 244.925673 150.335991 
L 245.088 271.295999 
L 245.250327 271.295999 
L 245.412655 247.103999 
L 245.574982 247.103999 
L 245.737309 271.295999 
L 246.224291 198.719998 
L 246.386618 198.719998 
L 246.548945 222.911996 
L 246.711273 222.911996 
L 246.8736 247.103999 
L 247.035927 247.103999 
L 247.198255 174.528 
L 247.522909 247.103999 
L 247.847564 174.528 
L 248.009891 271.295999 
L 248.172218 247.103999 
L 248.334545 247.103999 
L 248.496873 271.295999 
L 248.6592 222.911996 
L 248.821527 222.911996 
L 248.983855 247.103999 
L 249.146182 247.103999 
L 249.308509 174.528 
L 249.470836 174.528 
L 249.633164 222.911996 
L 249.795491 222.911996 
L 249.957818 247.103999 
L 250.120145 174.528 
L 250.282473 198.719998 
L 250.4448 271.295999 
L 250.607127 247.103999 
L 250.931782 174.528 
L 251.094109 198.719998 
L 251.256436 198.719998 
L 251.418764 247.103999 
L 251.581091 198.719998 
L 251.905745 247.103999 
L 252.068073 198.719998 
L 252.717382 198.719998 
L 252.879709 222.911996 
L 253.042036 222.911996 
L 253.204364 247.103999 
L 253.366691 222.911996 
L 253.529018 247.103999 
L 253.691345 247.103999 
L 253.853673 198.719998 
L 254.016 198.719998 
L 254.178327 271.295999 
L 254.340655 198.719998 
L 254.665309 198.719998 
L 254.827636 222.911996 
L 254.989964 222.911996 
L 255.152291 247.103999 
L 255.314618 247.103999 
L 255.476945 222.911996 
L 255.639273 174.528 
L 255.963927 271.295999 
L 256.126255 222.911996 
L 256.288582 222.911996 
L 256.450909 247.103999 
L 256.613236 198.719998 
L 256.937891 198.719998 
L 257.100218 222.911996 
L 257.262545 222.911996 
L 257.424873 198.719998 
L 257.5872 222.911996 
L 257.749527 222.911996 
L 257.911855 198.719998 
L 258.074182 247.103999 
L 258.236509 198.719998 
L 258.398836 247.103999 
L 258.561164 198.719998 
L 258.723491 198.719998 
L 258.885818 247.103999 
L 259.048145 198.719998 
L 259.210473 247.103999 
L 259.3728 198.719998 
L 259.535127 247.103999 
L 259.697455 198.719998 
L 259.859782 222.911996 
L 260.022109 222.911996 
L 260.346764 174.528 
L 260.509091 222.911996 
L 260.671418 198.719998 
L 260.833745 198.719998 
L 260.996073 247.103999 
L 261.1584 222.911996 
L 261.320727 174.528 
L 261.483055 222.911996 
L 261.645382 222.911996 
L 261.807709 198.719998 
L 261.970036 222.911996 
L 262.132364 198.719998 
L 262.294691 247.103999 
L 262.457018 247.103999 
L 262.781673 198.719998 
L 262.944 222.911996 
L 263.106327 198.719998 
L 263.268655 222.911996 
L 263.430982 198.719998 
L 263.917964 198.719998 
L 264.080291 247.103999 
L 264.242618 222.911996 
L 264.404945 271.295999 
L 264.567273 198.719998 
L 264.7296 222.911996 
L 265.054255 174.528 
L 265.216582 247.103999 
L 265.378909 247.103999 
L 265.541236 222.911996 
L 265.703564 222.911996 
L 265.865891 174.528 
L 266.028218 198.719998 
L 266.190545 174.528 
L 266.352873 222.911996 
L 266.5152 222.911996 
L 266.677527 198.719998 
L 266.839855 198.719998 
L 267.002182 247.103999 
L 267.326836 174.528 
L 267.489164 222.911996 
L 267.813818 222.911996 
L 267.976145 198.719998 
L 268.138473 198.719998 
L 268.3008 247.103999 
L 268.463127 198.719998 
L 268.625455 222.911996 
L 268.787782 222.911996 
L 268.950109 174.528 
L 269.274764 247.103999 
L 269.437091 174.528 
L 269.599418 222.911996 
L 269.761745 174.528 
L 269.924073 198.719998 
L 270.0864 174.528 
L 270.248727 174.528 
L 270.573382 271.295999 
L 270.735709 198.719998 
L 270.898036 198.719998 
L 271.060364 247.103999 
L 271.222691 247.103999 
L 271.385018 174.528 
L 271.547345 198.719998 
L 271.709673 198.719998 
L 271.872 174.528 
L 272.034327 174.528 
L 272.196655 247.103999 
L 272.358982 174.528 
L 272.683636 222.911996 
L 273.008291 174.528 
L 273.170618 174.528 
L 273.495273 222.911996 
L 273.6576 174.528 
L 273.982255 222.911996 
L 274.144582 222.911996 
L 274.306909 150.335991 
L 274.469236 174.528 
L 274.631564 222.911996 
L 274.793891 198.719998 
L 274.956218 222.911996 
L 275.118545 174.528 
L 275.280873 222.911996 
L 275.605527 222.911996 
L 275.767855 198.719998 
L 275.930182 150.335991 
L 276.092509 198.719998 
L 276.254836 174.528 
L 276.417164 222.911996 
L 276.741818 222.911996 
L 276.904145 174.528 
L 277.066473 198.719998 
L 277.2288 174.528 
L 277.391127 198.719998 
L 277.553455 174.528 
L 277.715782 174.528 
L 277.878109 222.911996 
L 278.040436 222.911996 
L 278.202764 247.103999 
L 278.689745 174.528 
L 278.852073 222.911996 
L 279.0144 198.719998 
L 279.339055 198.719998 
L 279.501382 222.911996 
L 279.663709 198.719998 
L 279.826036 222.911996 
L 279.988364 150.335991 
L 280.150691 222.911996 
L 280.313018 174.528 
L 280.637673 247.103999 
L 280.8 198.719998 
L 281.124655 247.103999 
L 281.286982 174.528 
L 281.449309 222.911996 
L 281.611636 198.719998 
L 281.773964 222.911996 
L 281.936291 198.719998 
L 282.098618 222.911996 
L 282.260945 174.528 
L 282.423273 198.719998 
L 282.5856 198.719998 
L 282.747927 247.103999 
L 283.234909 174.528 
L 283.397236 174.528 
L 283.559564 222.911996 
L 283.721891 222.911996 
L 283.884218 198.719998 
L 284.046545 222.911996 
L 284.208873 198.719998 
L 284.3712 222.911996 
L 284.695855 174.528 
L 284.858182 198.719998 
L 285.020509 198.719998 
L 285.182836 222.911996 
L 285.345164 198.719998 
L 286.1568 198.719998 
L 286.319127 174.528 
L 286.481455 126.143994 
L 286.643782 174.528 
L 286.806109 150.335991 
L 286.968436 198.719998 
L 287.130764 174.528 
L 287.293091 126.143994 
L 287.455418 198.719998 
L 287.617745 198.719998 
L 287.780073 150.335991 
L 287.9424 222.911996 
L 288.104727 198.719998 
L 288.267055 150.335991 
L 288.429382 174.528 
L 288.591709 222.911996 
L 288.916364 126.143994 
L 289.078691 174.528 
L 289.241018 174.528 
L 289.403345 198.719998 
L 289.565673 198.719998 
L 289.728 174.528 
L 289.890327 174.528 
L 290.052655 222.911996 
L 290.377309 174.528 
L 290.701964 222.911996 
L 290.864291 198.719998 
L 291.026618 198.719998 
L 291.351273 150.335991 
L 291.675927 222.911996 
L 291.838255 198.719998 
L 292.000582 126.143994 
L 292.162909 198.719998 
L 292.325236 150.335991 
L 292.487564 198.719998 
L 292.649891 174.528 
L 292.812218 222.911996 
L 292.974545 126.143994 
L 293.136873 198.719998 
L 293.2992 174.528 
L 293.461527 174.528 
L 293.786182 222.911996 
L 294.110836 222.911996 
L 294.273164 174.528 
L 294.597818 271.295999 
L 294.922473 101.951996 
L 295.0848 198.719998 
L 295.247127 222.911996 
L 295.409455 174.528 
L 295.571782 222.911996 
L 295.734109 222.911996 
L 296.058764 126.143994 
L 296.221091 222.911996 
L 296.383418 222.911996 
L 296.545745 174.528 
L 296.8704 174.528 
L 297.032727 222.911996 
L 297.195055 174.528 
L 297.357382 198.719998 
L 297.519709 174.528 
L 297.682036 198.719998 
L 298.006691 198.719998 
L 298.331345 150.335991 
L 298.493673 150.335991 
L 298.656 222.911996 
L 298.818327 222.911996 
L 298.980655 198.719998 
L 299.305309 198.719998 
L 299.467636 222.911996 
L 299.792291 222.911996 
L 300.279273 150.335991 
L 300.4416 174.528 
L 300.766255 174.528 
L 300.928582 198.719998 
L 301.090909 174.528 
L 301.253236 174.528 
L 301.415564 198.719998 
L 301.577891 198.719998 
L 301.740218 222.911996 
L 301.902545 222.911996 
L 302.2272 150.335991 
L 302.389527 126.143994 
L 302.714182 198.719998 
L 302.876509 174.528 
L 303.038836 126.143994 
L 303.201164 222.911996 
L 303.363491 222.911996 
L 303.525818 198.719998 
L 303.688145 247.103999 
L 304.0128 174.528 
L 304.175127 247.103999 
L 304.499782 150.335991 
L 304.662109 198.719998 
L 304.824436 198.719998 
L 304.986764 222.911996 
L 305.311418 222.911996 
L 305.473745 198.719998 
L 305.636073 247.103999 
L 305.7984 222.911996 
L 305.960727 126.143994 
L 306.123055 126.143994 
L 306.285382 247.103999 
L 306.447709 174.528 
L 306.610036 222.911996 
L 306.772364 198.719998 
L 306.934691 150.335991 
L 307.259345 222.911996 
L 307.584 222.911996 
L 307.746327 150.335991 
L 307.908655 150.335991 
L 308.070982 222.911996 
L 308.233309 198.719998 
L 308.395636 198.719998 
L 308.557964 222.911996 
L 308.720291 198.719998 
L 308.882618 222.911996 
L 309.044945 198.719998 
L 309.531927 198.719998 
L 309.694255 247.103999 
L 310.018909 198.719998 
L 310.505891 198.719998 
L 310.668218 222.911996 
L 310.830545 198.719998 
L 310.992873 222.911996 
L 311.317527 150.335991 
L 311.479855 198.719998 
L 312.129164 198.719998 
L 312.291491 150.335991 
L 312.616145 222.911996 
L 312.778473 222.911996 
L 312.9408 150.335991 
L 313.103127 222.911996 
L 313.265455 198.719998 
L 313.752436 198.719998 
L 313.914764 222.911996 
L 314.239418 174.528 
L 314.401745 174.528 
L 314.7264 247.103999 
L 315.051055 150.335991 
L 315.213382 222.911996 
L 315.375709 174.528 
L 315.700364 247.103999 
L 315.862691 174.528 
L 316.025018 174.528 
L 316.187345 150.335991 
L 316.349673 222.911996 
L 316.512 198.719998 
L 316.674327 198.719998 
L 316.998982 150.335991 
L 317.161309 198.719998 
L 317.323636 198.719998 
L 317.485964 174.528 
L 317.648291 198.719998 
L 317.810618 174.528 
L 318.135273 222.911996 
L 318.2976 198.719998 
L 318.459927 222.911996 
L 318.622255 222.911996 
L 318.946909 150.335991 
L 319.109236 198.719998 
L 319.271564 198.719998 
L 319.433891 174.528 
L 319.596218 198.719998 
L 319.920873 126.143994 
L 320.0832 222.911996 
L 320.245527 198.719998 
L 320.407855 222.911996 
L 320.570182 222.911996 
L 320.732509 247.103999 
L 320.894836 150.335991 
L 321.057164 198.719998 
L 321.219491 150.335991 
L 321.544145 222.911996 
L 321.706473 247.103999 
L 321.8688 198.719998 
L 322.031127 222.911996 
L 322.193455 198.719998 
L 322.355782 222.911996 
L 322.680436 222.911996 
L 322.842764 198.719998 
L 323.005091 222.911996 
L 323.167418 222.911996 
L 323.329745 198.719998 
L 323.492073 198.719998 
L 323.6544 222.911996 
L 323.816727 198.719998 
L 323.979055 222.911996 
L 324.141382 150.335991 
L 324.303709 198.719998 
L 324.466036 174.528 
L 324.628364 174.528 
L 324.790691 247.103999 
L 325.115345 150.335991 
L 325.277673 174.528 
L 325.602327 247.103999 
L 325.764655 247.103999 
L 325.926982 174.528 
L 326.089309 198.719998 
L 326.251636 198.719998 
L 326.413964 247.103999 
L 326.576291 126.143994 
L 326.738618 222.911996 
L 326.900945 222.911996 
L 327.063273 174.528 
L 327.2256 198.719998 
L 327.387927 198.719998 
L 327.550255 222.911996 
L 327.712582 198.719998 
L 327.874909 126.143994 
L 328.037236 247.103999 
L 328.199564 150.335991 
L 328.361891 222.911996 
L 328.524218 198.719998 
L 328.686545 222.911996 
L 328.848873 222.911996 
L 329.173527 174.528 
L 329.335855 198.719998 
L 329.498182 198.719998 
L 329.660509 150.335991 
L 329.822836 222.911996 
L 329.985164 222.911996 
L 330.147491 198.719998 
L 330.309818 222.911996 
L 330.634473 150.335991 
L 330.7968 222.911996 
L 330.959127 222.911996 
L 331.121455 174.528 
L 331.283782 198.719998 
L 331.446109 198.719998 
L 331.608436 222.911996 
L 331.770764 271.295999 
L 332.095418 174.528 
L 332.257745 198.719998 
L 332.420073 150.335991 
L 332.5824 174.528 
L 332.744727 126.143994 
L 333.069382 222.911996 
L 333.231709 222.911996 
L 333.394036 150.335991 
L 333.556364 150.335991 
L 333.718691 247.103999 
L 334.043345 198.719998 
L 334.205673 222.911996 
L 334.530327 222.911996 
L 334.692655 198.719998 
L 334.854982 222.911996 
L 335.017309 198.719998 
L 335.179636 247.103999 
L 335.341964 174.528 
L 335.504291 222.911996 
L 335.666618 222.911996 
L 335.828945 247.103999 
L 335.991273 198.719998 
L 336.1536 247.103999 
L 336.315927 174.528 
L 336.478255 174.528 
L 336.802909 222.911996 
L 337.127564 222.911996 
L 337.289891 198.719998 
L 337.452218 126.143994 
L 337.614545 247.103999 
L 337.9392 126.143994 
L 338.101527 222.911996 
L 338.263855 222.911996 
L 338.426182 150.335991 
L 338.588509 247.103999 
L 338.750836 271.295999 
L 338.913164 174.528 
L 339.075491 198.719998 
L 339.237818 198.719998 
L 339.400145 150.335991 
L 339.562473 174.528 
L 339.7248 174.528 
L 339.887127 198.719998 
L 340.211782 198.719998 
L 340.374109 150.335991 
L 340.536436 271.295999 
L 340.861091 198.719998 
L 341.023418 247.103999 
L 341.348073 126.143994 
L 341.5104 198.719998 
L 341.672727 198.719998 
L 341.835055 222.911996 
L 341.997382 198.719998 
L 342.159709 247.103999 
L 342.484364 174.528 
L 342.809018 222.911996 
L 343.296 222.911996 
L 343.458327 198.719998 
L 343.620655 198.719998 
L 343.782982 247.103999 
L 343.945309 174.528 
L 344.107636 198.719998 
L 344.269964 174.528 
L 344.432291 198.719998 
L 344.594618 247.103999 
L 344.756945 247.103999 
L 344.919273 222.911996 
L 345.0816 222.911996 
L 345.243927 174.528 
L 345.406255 222.911996 
L 345.568582 222.911996 
L 345.730909 126.143994 
L 345.893236 222.911996 
L 346.055564 174.528 
L 346.380218 295.488 
L 346.542545 247.103999 
L 346.704873 247.103999 
L 346.8672 198.719998 
L 347.029527 198.719998 
L 347.191855 150.335991 
L 347.516509 247.103999 
L 347.678836 247.103999 
L 347.841164 222.911996 
L 348.165818 150.335991 
L 348.328145 222.911996 
L 348.490473 198.719998 
L 348.6528 247.103999 
L 348.977455 174.528 
L 349.139782 198.719998 
L 349.302109 198.719998 
L 349.464436 247.103999 
L 349.789091 150.335991 
L 349.951418 174.528 
L 350.113745 222.911996 
L 350.276073 222.911996 
L 350.4384 247.103999 
L 350.600727 222.911996 
L 350.763055 126.143994 
L 350.925382 222.911996 
L 351.087709 247.103999 
L 351.250036 295.488 
L 351.412364 198.719998 
L 351.574691 174.528 
L 351.899345 247.103999 
L 352.061673 247.103999 
L 352.386327 174.528 
L 352.548655 247.103999 
L 352.710982 222.911996 
L 352.873309 174.528 
L 353.035636 222.911996 
L 353.522618 222.911996 
L 353.684945 198.719998 
L 353.847273 247.103999 
L 354.0096 174.528 
L 354.171927 174.528 
L 354.334255 222.911996 
L 354.496582 198.719998 
L 354.658909 222.911996 
L 354.821236 222.911996 
L 354.983564 174.528 
L 355.145891 198.719998 
L 355.308218 198.719998 
L 355.470545 174.528 
L 355.632873 247.103999 
L 355.7952 222.911996 
L 355.957527 174.528 
L 356.119855 222.911996 
L 356.282182 198.719998 
L 356.606836 271.295999 
L 356.931491 198.719998 
L 357.093818 222.911996 
L 357.256145 222.911996 
L 357.418473 174.528 
L 357.743127 222.911996 
L 357.905455 198.719998 
L 358.230109 198.719998 
L 358.392436 150.335991 
L 358.554764 247.103999 
L 358.717091 222.911996 
L 359.204073 222.911996 
L 359.3664 198.719998 
L 359.528727 198.719998 
L 359.691055 295.488 
L 359.853382 222.911996 
L 360.015709 222.911996 
L 360.178036 247.103999 
L 360.340364 198.719998 
L 360.502691 247.103999 
L 360.665018 222.911996 
L 360.827345 174.528 
L 360.989673 222.911996 
L 361.476655 222.911996 
L 361.638982 198.719998 
L 361.801309 222.911996 
L 361.963636 222.911996 
L 362.125964 198.719998 
L 362.450618 198.719998 
L 362.612945 174.528 
L 362.775273 222.911996 
L 362.9376 222.911996 
L 363.099927 198.719998 
L 363.262255 247.103999 
L 363.424582 198.719998 
L 363.586909 222.911996 
L 363.749236 222.911996 
L 363.911564 150.335991 
L 364.073891 271.295999 
L 364.398545 222.911996 
L 364.560873 222.911996 
L 364.7232 198.719998 
L 364.885527 222.911996 
L 365.047855 174.528 
L 365.210182 174.528 
L 365.372509 150.335991 
L 365.534836 247.103999 
L 365.697164 247.103999 
L 366.021818 198.719998 
L 366.184145 198.719998 
L 366.346473 150.335991 
L 366.5088 247.103999 
L 366.995782 174.528 
L 367.158109 222.911996 
L 367.320436 198.719998 
L 367.482764 198.719998 
L 367.645091 150.335991 
L 367.807418 247.103999 
L 368.132073 198.719998 
L 368.2944 247.103999 
L 368.456727 174.528 
L 368.619055 198.719998 
L 368.781382 198.719998 
L 368.943709 271.295999 
L 369.106036 150.335991 
L 369.268364 150.335991 
L 369.430691 247.103999 
L 369.755345 150.335991 
L 369.917673 222.911996 
L 370.08 174.528 
L 370.242327 198.719998 
L 370.404655 198.719998 
L 370.729309 247.103999 
L 370.891636 222.911996 
L 371.216291 150.335991 
L 371.378618 222.911996 
L 371.540945 222.911996 
L 371.703273 174.528 
L 371.8656 222.911996 
L 372.190255 174.528 
L 372.352582 295.488 
L 372.677236 126.143994 
L 373.001891 222.911996 
L 373.164218 174.528 
L 373.488873 222.911996 
L 373.6512 174.528 
L 373.813527 198.719998 
L 373.975855 198.719998 
L 374.138182 271.295999 
L 374.300509 174.528 
L 374.462836 174.528 
L 374.625164 222.911996 
L 374.787491 222.911996 
L 374.949818 198.719998 
L 375.274473 198.719998 
L 375.4368 150.335991 
L 375.599127 198.719998 
L 375.761455 174.528 
L 375.923782 174.528 
L 376.086109 247.103999 
L 376.248436 247.103999 
L 376.410764 174.528 
L 376.573091 222.911996 
L 376.897745 174.528 
L 377.060073 126.143994 
L 377.2224 222.911996 
L 377.547055 222.911996 
L 377.709382 101.951996 
L 377.871709 247.103999 
L 378.034036 222.911996 
L 378.358691 126.143994 
L 378.683345 247.103999 
L 378.845673 271.295999 
L 379.008 247.103999 
L 379.170327 271.295999 
L 379.332655 150.335991 
L 379.657309 271.295999 
L 379.981964 174.528 
L 380.144291 174.528 
L 380.306618 222.911996 
L 380.468945 222.911996 
L 380.631273 126.143994 
L 380.7936 271.295999 
L 381.118255 174.528 
L 381.280582 198.719998 
L 381.442909 198.719998 
L 381.605236 174.528 
L 381.767564 198.719998 
L 381.929891 174.528 
L 382.092218 247.103999 
L 382.254545 101.951996 
L 382.416873 295.488 
L 382.903855 174.528 
L 383.066182 174.528 
L 383.228509 150.335991 
L 383.553164 198.719998 
L 383.715491 247.103999 
L 384.040145 150.335991 
L 384.202473 150.335991 
L 384.527127 222.911996 
L 384.689455 247.103999 
L 384.851782 174.528 
L 385.014109 174.528 
L 385.176436 222.911996 
L 385.338764 222.911996 
L 385.663418 174.528 
L 385.825745 126.143994 
L 385.988073 222.911996 
L 386.1504 174.528 
L 386.312727 174.528 
L 386.475055 198.719998 
L 386.799709 101.951996 
L 387.286691 222.911996 
L 387.449018 150.335991 
L 387.773673 198.719998 
L 387.936 198.719998 
L 388.098327 150.335991 
L 388.260655 222.911996 
L 388.422982 198.719998 
L 388.585309 247.103999 
L 388.909964 174.528 
L 389.072291 174.528 
L 389.234618 126.143994 
L 389.559273 198.719998 
L 389.7216 126.143994 
L 389.883927 198.719998 
L 390.046255 198.719998 
L 390.208582 247.103999 
L 390.533236 150.335991 
L 390.695564 222.911996 
L 391.020218 222.911996 
L 391.182545 150.335991 
L 391.344873 222.911996 
L 391.5072 150.335991 
L 391.669527 174.528 
L 391.831855 101.951996 
L 391.994182 247.103999 
L 392.156509 271.295999 
L 392.318836 222.911996 
L 392.643491 222.911996 
L 392.805818 174.528 
L 393.130473 174.528 
L 393.2928 126.143994 
L 393.455127 174.528 
L 393.617455 150.335991 
L 393.779782 222.911996 
L 394.104436 126.143994 
L 394.266764 150.335991 
L 394.429091 150.335991 
L 394.591418 198.719998 
L 394.753745 198.719998 
L 394.916073 150.335991 
L 395.0784 198.719998 
L 395.240727 150.335991 
L 395.403055 150.335991 
L 395.727709 198.719998 
L 395.890036 150.335991 
L 396.214691 222.911996 
L 396.377018 77.759998 
L 396.539345 247.103999 
L 396.701673 174.528 
L 397.026327 222.911996 
L 397.350982 150.335991 
L 397.513309 198.719998 
L 397.837964 150.335991 
L 398.000291 174.528 
L 398.324945 174.528 
L 398.487273 198.719998 
L 398.487273 198.719998 
" clip-path="url(#p7236505a92)" style="fill: none; stroke: #1f77b4; stroke-width: 1.5; stroke-linecap: square"/>
   </g>
   <g id="patch_3">
    <path d="M 57.6 307.584 
L 57.6 41.472 
" style="fill: none; stroke: #000000; stroke-width: 0.8; stroke-linejoin: miter; stroke-linecap: square"/>
   </g>
   <g id="patch_4">
    <path d="M 414.72 307.584 
L 414.72 41.472 
" style="fill: none; stroke: #000000; stroke-width: 0.8; stroke-linejoin: miter; stroke-linecap: square"/>
   </g>
   <g id="patch_5">
    <path d="M 57.6 307.584 
L 414.72 307.584 
" style="fill: none; stroke: #000000; stroke-width: 0.8; stroke-linejoin: miter; stroke-linecap: square"/>
   </g>
   <g id="patch_6">
    <path d="M 57.6 41.472 
L 414.72 41.472 
" style="fill: none; stroke: #000000; stroke-width: 0.8; stroke-linejoin: miter; stroke-linecap: square"/>
   </g>
  </g>
 </g>
 <defs>
  <clipPath id="p7236505a92">
   <rect x="57.6" y="41.472" width="357.12" height="266.112"/>
  </clipPath>
 </defs>
</svg>
