<?xml version="1.0" encoding="utf-8" standalone="no"?>
<!DOCTYPE svg PUBLIC "-//W3C//DTD SVG 1.1//EN"
  "http://www.w3.org/Graphics/SVG/1.1/DTD/svg11.dtd">
<svg xmlns:xlink="http://www.w3.org/1999/xlink" width="460.8pt" height="345.6pt" viewBox="0 0 460.8 345.6" xmlns="http://www.w3.org/2000/svg" version="1.1">
 <metadata>
  <rdf:RDF xmlns:dc="http://purl.org/dc/elements/1.1/" xmlns:cc="http://creativecommons.org/ns#" xmlns:rdf="http://www.w3.org/1999/02/22-rdf-syntax-ns#">
   <cc:Work>
    <dc:type rdf:resource="http://purl.org/dc/dcmitype/StillImage"/>
    <dc:date>2026-06-09T20:30:33.590343</dc:date>
    <dc:format>image/svg+xml</dc:format>
    <dc:creator>
     <cc:Agent>
      <dc:title>Matplotlib v3.10.8, https://matplotlib.org/</dc:title>
     </cc:Agent>
    </dc:creator>
   </cc:Work>
  </rdf:RDF>
 </metadata>
 <defs>
  <style type="text/css">*{stroke-linejoin: round; stroke-linecap: butt}</style>
 </defs>
 <g id="figure_1">
  <g id="patch_1">
   <path d="M 0 345.6 
L 460.8 345.6 
L 460.8 0 
L 0 0 
z
" style="fill: #ffffff"/>
  </g>
  <g id="axes_1">
   <g id="patch_2">
    <path d="M 60.59 303.64 
L 450 303.64 
L 450 10.8 
L 60.59 10.8 
z
" style="fill: #ffffff"/>
   </g>
   <g id="PathCollection_1">
    <defs>
     <path id="mdd475d1191" d="M 0 1.581139 
C 0.419323 1.581139 0.821528 1.41454 1.118034 1.118034 
C 1.41454 0.821528 1.581139 0.419323 1.581139 0 
C 1.581139 -0.419323 1.41454 -0.821528 1.118034 -1.118034 
C 0.821528 -1.41454 0.419323 -1.581139 0 -1.581139 
C -0.419323 -1.581139 -0.821528 -1.41454 -1.118034 -1.118034 
C -1.41454 -0.821528 -1.581139 -0.419323 -1.581139 0 
C -1.581139 0.419323 -1.41454 0.821528 -1.118034 1.118034 
C -0.821528 1.41454 -0.419323 1.581139 0 1.581139 
z
" style="stroke: #0000ff; stroke-opacity: 0.6"/>
    </defs>
    <g clip-path="url(#p7df02f14c8)">
     <use xlink:href="#mdd475d1191" x="117.340572" y="190.343451" style="fill: #0000ff; fill-opacity: 0.6; stroke: #0000ff; stroke-opacity: 0.6"/>
     <use xlink:href="#mdd475d1191" x="97.364894" y="150.711333" style="fill: #0000ff; fill-opacity: 0.6; stroke: #0000ff; stroke-opacity: 0.6"/>
     <use xlink:href="#mdd475d1191" x="87.651258" y="106.048388" style="fill: #0000ff; fill-opacity: 0.6; stroke: #0000ff; stroke-opacity: 0.6"/>
     <use xlink:href="#mdd475d1191" x="100.74903" y="196.316717" style="fill: #0000ff; fill-opacity: 0.6; stroke: #0000ff; stroke-opacity: 0.6"/>
     <use xlink:href="#mdd475d1191" x="193.416975" y="255.108861" style="fill: #0000ff; fill-opacity: 0.6; stroke: #0000ff; stroke-opacity: 0.6"/>
     <use xlink:href="#mdd475d1191" x="89.933675" y="189.633698" style="fill: #0000ff; fill-opacity: 0.6; stroke: #0000ff; stroke-opacity: 0.6"/>
     <use xlink:href="#mdd475d1191" x="111.150152" y="222.993324" style="fill: #0000ff; fill-opacity: 0.6; stroke: #0000ff; stroke-opacity: 0.6"/>
     <use xlink:href="#mdd475d1191" x="88.647005" y="212.672283" style="fill: #0000ff; fill-opacity: 0.6; stroke: #0000ff; stroke-opacity: 0.6"/>
     <use xlink:href="#mdd475d1191" x="82.498737" y="110.960217" style="fill: #0000ff; fill-opacity: 0.6; stroke: #0000ff; stroke-opacity: 0.6"/>
     <use xlink:href="#mdd475d1191" x="91.318263" y="113.022511" style="fill: #0000ff; fill-opacity: 0.6; stroke: #0000ff; stroke-opacity: 0.6"/>
     <use xlink:href="#mdd475d1191" x="83.163401" y="24.805857" style="fill: #0000ff; fill-opacity: 0.6; stroke: #0000ff; stroke-opacity: 0.6"/>
     <use xlink:href="#mdd475d1191" x="81.972922" y="45.615507" style="fill: #0000ff; fill-opacity: 0.6; stroke: #0000ff; stroke-opacity: 0.6"/>
     <use xlink:href="#mdd475d1191" x="432.299545" y="261.316403" style="fill: #0000ff; fill-opacity: 0.6; stroke: #0000ff; stroke-opacity: 0.6"/>
     <use xlink:href="#mdd475d1191" x="81.316766" y="52.314651" style="fill: #0000ff; fill-opacity: 0.6; stroke: #0000ff; stroke-opacity: 0.6"/>
     <use xlink:href="#mdd475d1191" x="83.035284" y="129.64395" style="fill: #0000ff; fill-opacity: 0.6; stroke: #0000ff; stroke-opacity: 0.6"/>
     <use xlink:href="#mdd475d1191" x="88.254867" y="128.176903" style="fill: #0000ff; fill-opacity: 0.6; stroke: #0000ff; stroke-opacity: 0.6"/>
     <use xlink:href="#mdd475d1191" x="86.094204" y="138.372212" style="fill: #0000ff; fill-opacity: 0.6; stroke: #0000ff; stroke-opacity: 0.6"/>
     <use xlink:href="#mdd475d1191" x="83.661835" y="46.650746" style="fill: #0000ff; fill-opacity: 0.6; stroke: #0000ff; stroke-opacity: 0.6"/>
     <use xlink:href="#mdd475d1191" x="92.77004" y="191.963924" style="fill: #0000ff; fill-opacity: 0.6; stroke: #0000ff; stroke-opacity: 0.6"/>
     <use xlink:href="#mdd475d1191" x="80.340276" y="64.142635" style="fill: #0000ff; fill-opacity: 0.6; stroke: #0000ff; stroke-opacity: 0.6"/>
     <use xlink:href="#mdd475d1191" x="93.313493" y="134.602132" style="fill: #0000ff; fill-opacity: 0.6; stroke: #0000ff; stroke-opacity: 0.6"/>
     <use xlink:href="#mdd475d1191" x="82.838805" y="177.88274" style="fill: #0000ff; fill-opacity: 0.6; stroke: #0000ff; stroke-opacity: 0.6"/>
     <use xlink:href="#mdd475d1191" x="85.555765" y="182.846703" style="fill: #0000ff; fill-opacity: 0.6; stroke: #0000ff; stroke-opacity: 0.6"/>
     <use xlink:href="#mdd475d1191" x="83.371157" y="195.508789" style="fill: #0000ff; fill-opacity: 0.6; stroke: #0000ff; stroke-opacity: 0.6"/>
     <use xlink:href="#mdd475d1191" x="84.117211" y="89.916436" style="fill: #0000ff; fill-opacity: 0.6; stroke: #0000ff; stroke-opacity: 0.6"/>
     <use xlink:href="#mdd475d1191" x="83.443578" y="24.110909" style="fill: #0000ff; fill-opacity: 0.6; stroke: #0000ff; stroke-opacity: 0.6"/>
     <use xlink:href="#mdd475d1191" x="88.077788" y="81.777088" style="fill: #0000ff; fill-opacity: 0.6; stroke: #0000ff; stroke-opacity: 0.6"/>
     <use xlink:href="#mdd475d1191" x="88.296925" y="83.922415" style="fill: #0000ff; fill-opacity: 0.6; stroke: #0000ff; stroke-opacity: 0.6"/>
     <use xlink:href="#mdd475d1191" x="296.527773" y="260.594449" style="fill: #0000ff; fill-opacity: 0.6; stroke: #0000ff; stroke-opacity: 0.6"/>
     <use xlink:href="#mdd475d1191" x="78.290455" y="49.632971" style="fill: #0000ff; fill-opacity: 0.6; stroke: #0000ff; stroke-opacity: 0.6"/>
     <use xlink:href="#mdd475d1191" x="88.381926" y="139.837445" style="fill: #0000ff; fill-opacity: 0.6; stroke: #0000ff; stroke-opacity: 0.6"/>
     <use xlink:href="#mdd475d1191" x="117.890997" y="198.794738" style="fill: #0000ff; fill-opacity: 0.6; stroke: #0000ff; stroke-opacity: 0.6"/>
     <use xlink:href="#mdd475d1191" x="93.590791" y="124.801777" style="fill: #0000ff; fill-opacity: 0.6; stroke: #0000ff; stroke-opacity: 0.6"/>
     <use xlink:href="#mdd475d1191" x="78.954786" y="37.465647" style="fill: #0000ff; fill-opacity: 0.6; stroke: #0000ff; stroke-opacity: 0.6"/>
     <use xlink:href="#mdd475d1191" x="96.432365" y="154.458274" style="fill: #0000ff; fill-opacity: 0.6; stroke: #0000ff; stroke-opacity: 0.6"/>
     <use xlink:href="#mdd475d1191" x="134.604242" y="205.239052" style="fill: #0000ff; fill-opacity: 0.6; stroke: #0000ff; stroke-opacity: 0.6"/>
     <use xlink:href="#mdd475d1191" x="332.690448" y="264.20808" style="fill: #0000ff; fill-opacity: 0.6; stroke: #0000ff; stroke-opacity: 0.6"/>
     <use xlink:href="#mdd475d1191" x="91.359375" y="142.809446" style="fill: #0000ff; fill-opacity: 0.6; stroke: #0000ff; stroke-opacity: 0.6"/>
     <use xlink:href="#mdd475d1191" x="82.650304" y="91.906059" style="fill: #0000ff; fill-opacity: 0.6; stroke: #0000ff; stroke-opacity: 0.6"/>
     <use xlink:href="#mdd475d1191" x="83.852639" y="94.379011" style="fill: #0000ff; fill-opacity: 0.6; stroke: #0000ff; stroke-opacity: 0.6"/>
     <use xlink:href="#mdd475d1191" x="86.929052" y="84.227965" style="fill: #0000ff; fill-opacity: 0.6; stroke: #0000ff; stroke-opacity: 0.6"/>
     <use xlink:href="#mdd475d1191" x="84.847503" y="161.085823" style="fill: #0000ff; fill-opacity: 0.6; stroke: #0000ff; stroke-opacity: 0.6"/>
     <use xlink:href="#mdd475d1191" x="83.146346" y="146.647754" style="fill: #0000ff; fill-opacity: 0.6; stroke: #0000ff; stroke-opacity: 0.6"/>
     <use xlink:href="#mdd475d1191" x="83.669157" y="128.556401" style="fill: #0000ff; fill-opacity: 0.6; stroke: #0000ff; stroke-opacity: 0.6"/>
     <use xlink:href="#mdd475d1191" x="80.546635" y="25.355989" style="fill: #0000ff; fill-opacity: 0.6; stroke: #0000ff; stroke-opacity: 0.6"/>
     <use xlink:href="#mdd475d1191" x="85.719999" y="163.07492" style="fill: #0000ff; fill-opacity: 0.6; stroke: #0000ff; stroke-opacity: 0.6"/>
     <use xlink:href="#mdd475d1191" x="130.054812" y="217.055642" style="fill: #0000ff; fill-opacity: 0.6; stroke: #0000ff; stroke-opacity: 0.6"/>
     <use xlink:href="#mdd475d1191" x="217.276184" y="243.053206" style="fill: #0000ff; fill-opacity: 0.6; stroke: #0000ff; stroke-opacity: 0.6"/>
     <use xlink:href="#mdd475d1191" x="80.472211" y="83.827168" style="fill: #0000ff; fill-opacity: 0.6; stroke: #0000ff; stroke-opacity: 0.6"/>
     <use xlink:href="#mdd475d1191" x="82.095436" y="80.711564" style="fill: #0000ff; fill-opacity: 0.6; stroke: #0000ff; stroke-opacity: 0.6"/>
     <use xlink:href="#mdd475d1191" x="79.932758" y="90.92771" style="fill: #0000ff; fill-opacity: 0.6; stroke: #0000ff; stroke-opacity: 0.6"/>
     <use xlink:href="#mdd475d1191" x="79.079137" y="62.146793" style="fill: #0000ff; fill-opacity: 0.6; stroke: #0000ff; stroke-opacity: 0.6"/>
     <use xlink:href="#mdd475d1191" x="81.051121" y="74.183317" style="fill: #0000ff; fill-opacity: 0.6; stroke: #0000ff; stroke-opacity: 0.6"/>
     <use xlink:href="#mdd475d1191" x="86.096963" y="166.415582" style="fill: #0000ff; fill-opacity: 0.6; stroke: #0000ff; stroke-opacity: 0.6"/>
     <use xlink:href="#mdd475d1191" x="260.325557" y="253.790663" style="fill: #0000ff; fill-opacity: 0.6; stroke: #0000ff; stroke-opacity: 0.6"/>
     <use xlink:href="#mdd475d1191" x="99.246805" y="184.713072" style="fill: #0000ff; fill-opacity: 0.6; stroke: #0000ff; stroke-opacity: 0.6"/>
     <use xlink:href="#mdd475d1191" x="420.143179" y="256.198694" style="fill: #0000ff; fill-opacity: 0.6; stroke: #0000ff; stroke-opacity: 0.6"/>
     <use xlink:href="#mdd475d1191" x="83.45745" y="32.081163" style="fill: #0000ff; fill-opacity: 0.6; stroke: #0000ff; stroke-opacity: 0.6"/>
     <use xlink:href="#mdd475d1191" x="102.954681" y="175.479117" style="fill: #0000ff; fill-opacity: 0.6; stroke: #0000ff; stroke-opacity: 0.6"/>
     <use xlink:href="#mdd475d1191" x="188.461231" y="264.670927" style="fill: #0000ff; fill-opacity: 0.6; stroke: #0000ff; stroke-opacity: 0.6"/>
     <use xlink:href="#mdd475d1191" x="85.966955" y="67.781164" style="fill: #0000ff; fill-opacity: 0.6; stroke: #0000ff; stroke-opacity: 0.6"/>
     <use xlink:href="#mdd475d1191" x="97.82315" y="185.373843" style="fill: #0000ff; fill-opacity: 0.6; stroke: #0000ff; stroke-opacity: 0.6"/>
     <use xlink:href="#mdd475d1191" x="81.06295" y="75.942087" style="fill: #0000ff; fill-opacity: 0.6; stroke: #0000ff; stroke-opacity: 0.6"/>
     <use xlink:href="#mdd475d1191" x="79.941603" y="39.132211" style="fill: #0000ff; fill-opacity: 0.6; stroke: #0000ff; stroke-opacity: 0.6"/>
     <use xlink:href="#mdd475d1191" x="93.45125" y="166.897961" style="fill: #0000ff; fill-opacity: 0.6; stroke: #0000ff; stroke-opacity: 0.6"/>
     <use xlink:href="#mdd475d1191" x="103.012912" y="179.312156" style="fill: #0000ff; fill-opacity: 0.6; stroke: #0000ff; stroke-opacity: 0.6"/>
     <use xlink:href="#mdd475d1191" x="171.091361" y="249.373884" style="fill: #0000ff; fill-opacity: 0.6; stroke: #0000ff; stroke-opacity: 0.6"/>
     <use xlink:href="#mdd475d1191" x="110.187138" y="171.260909" style="fill: #0000ff; fill-opacity: 0.6; stroke: #0000ff; stroke-opacity: 0.6"/>
     <use xlink:href="#mdd475d1191" x="85.458109" y="122.398416" style="fill: #0000ff; fill-opacity: 0.6; stroke: #0000ff; stroke-opacity: 0.6"/>
     <use xlink:href="#mdd475d1191" x="82.828177" y="171.250009" style="fill: #0000ff; fill-opacity: 0.6; stroke: #0000ff; stroke-opacity: 0.6"/>
     <use xlink:href="#mdd475d1191" x="97.208258" y="222.045322" style="fill: #0000ff; fill-opacity: 0.6; stroke: #0000ff; stroke-opacity: 0.6"/>
     <use xlink:href="#mdd475d1191" x="119.450545" y="243.902922" style="fill: #0000ff; fill-opacity: 0.6; stroke: #0000ff; stroke-opacity: 0.6"/>
     <use xlink:href="#mdd475d1191" x="100.377853" y="159.037559" style="fill: #0000ff; fill-opacity: 0.6; stroke: #0000ff; stroke-opacity: 0.6"/>
     <use xlink:href="#mdd475d1191" x="81.391935" y="127.703009" style="fill: #0000ff; fill-opacity: 0.6; stroke: #0000ff; stroke-opacity: 0.6"/>
     <use xlink:href="#mdd475d1191" x="84.437968" y="85.443899" style="fill: #0000ff; fill-opacity: 0.6; stroke: #0000ff; stroke-opacity: 0.6"/>
     <use xlink:href="#mdd475d1191" x="87.928185" y="163.650469" style="fill: #0000ff; fill-opacity: 0.6; stroke: #0000ff; stroke-opacity: 0.6"/>
     <use xlink:href="#mdd475d1191" x="86.950868" y="175.578481" style="fill: #0000ff; fill-opacity: 0.6; stroke: #0000ff; stroke-opacity: 0.6"/>
     <use xlink:href="#mdd475d1191" x="89.966266" y="108.52442" style="fill: #0000ff; fill-opacity: 0.6; stroke: #0000ff; stroke-opacity: 0.6"/>
     <use xlink:href="#mdd475d1191" x="148.234666" y="245.529325" style="fill: #0000ff; fill-opacity: 0.6; stroke: #0000ff; stroke-opacity: 0.6"/>
     <use xlink:href="#mdd475d1191" x="90.896271" y="201.884587" style="fill: #0000ff; fill-opacity: 0.6; stroke: #0000ff; stroke-opacity: 0.6"/>
    </g>
   </g>
   <g id="PathCollection_2">
    <defs>
     <path id="m7895945c2d" d="M 0 1.581139 
C 0.419323 1.581139 0.821528 1.41454 1.118034 1.118034 
C 1.41454 0.821528 1.581139 0.419323 1.581139 0 
C 1.581139 -0.419323 1.41454 -0.821528 1.118034 -1.118034 
C 0.821528 -1.41454 0.419323 -1.581139 0 -1.581139 
C -0.419323 -1.581139 -0.821528 -1.41454 -1.118034 -1.118034 
C -1.41454 -0.821528 -1.581139 -0.419323 -1.581139 0 
C -1.581139 0.419323 -1.41454 0.821528 -1.118034 1.118034 
C -0.821528 1.41454 -0.419323 1.581139 0 1.581139 
z
" style="stroke: #008000; stroke-opacity: 0.6"/>
    </defs>
    <g clip-path="url(#p7df02f14c8)">
     <use xlink:href="#m7895945c2d" x="86.93542" y="107.823014" style="fill: #008000; fill-opacity: 0.6; stroke: #008000; stroke-opacity: 0.6"/>
     <use xlink:href="#m7895945c2d" x="84.936853" y="89.624251" style="fill: #008000; fill-opacity: 0.6; stroke: #008000; stroke-opacity: 0.6"/>
     <use xlink:href="#m7895945c2d" x="84.558222" y="96.649456" style="fill: #008000; fill-opacity: 0.6; stroke: #008000; stroke-opacity: 0.6"/>
     <use xlink:href="#m7895945c2d" x="92.425532" y="186.885104" style="fill: #008000; fill-opacity: 0.6; stroke: #008000; stroke-opacity: 0.6"/>
     <use xlink:href="#m7895945c2d" x="152.824447" y="212.997763" style="fill: #008000; fill-opacity: 0.6; stroke: #008000; stroke-opacity: 0.6"/>
     <use xlink:href="#m7895945c2d" x="92.24715" y="141.345602" style="fill: #008000; fill-opacity: 0.6; stroke: #008000; stroke-opacity: 0.6"/>
     <use xlink:href="#m7895945c2d" x="283.301928" y="263.216141" style="fill: #008000; fill-opacity: 0.6; stroke: #008000; stroke-opacity: 0.6"/>
     <use xlink:href="#m7895945c2d" x="93.790688" y="121.832629" style="fill: #008000; fill-opacity: 0.6; stroke: #008000; stroke-opacity: 0.6"/>
     <use xlink:href="#m7895945c2d" x="119.708975" y="199.492746" style="fill: #008000; fill-opacity: 0.6; stroke: #008000; stroke-opacity: 0.6"/>
     <use xlink:href="#m7895945c2d" x="81.485736" y="52.943673" style="fill: #008000; fill-opacity: 0.6; stroke: #008000; stroke-opacity: 0.6"/>
     <use xlink:href="#m7895945c2d" x="81.658496" y="27.004532" style="fill: #008000; fill-opacity: 0.6; stroke: #008000; stroke-opacity: 0.6"/>
     <use xlink:href="#m7895945c2d" x="292.02312" y="251.416014" style="fill: #008000; fill-opacity: 0.6; stroke: #008000; stroke-opacity: 0.6"/>
     <use xlink:href="#m7895945c2d" x="93.461882" y="148.288776" style="fill: #008000; fill-opacity: 0.6; stroke: #008000; stroke-opacity: 0.6"/>
     <use xlink:href="#m7895945c2d" x="153.679246" y="224.302083" style="fill: #008000; fill-opacity: 0.6; stroke: #008000; stroke-opacity: 0.6"/>
     <use xlink:href="#m7895945c2d" x="82.777797" y="51.290074" style="fill: #008000; fill-opacity: 0.6; stroke: #008000; stroke-opacity: 0.6"/>
     <use xlink:href="#m7895945c2d" x="95.839581" y="144.516669" style="fill: #008000; fill-opacity: 0.6; stroke: #008000; stroke-opacity: 0.6"/>
     <use xlink:href="#m7895945c2d" x="96.677069" y="140.399841" style="fill: #008000; fill-opacity: 0.6; stroke: #008000; stroke-opacity: 0.6"/>
     <use xlink:href="#m7895945c2d" x="117.704735" y="230.389537" style="fill: #008000; fill-opacity: 0.6; stroke: #008000; stroke-opacity: 0.6"/>
     <use xlink:href="#m7895945c2d" x="212.304599" y="257.3006" style="fill: #008000; fill-opacity: 0.6; stroke: #008000; stroke-opacity: 0.6"/>
     <use xlink:href="#m7895945c2d" x="79.415301" y="66.259366" style="fill: #008000; fill-opacity: 0.6; stroke: #008000; stroke-opacity: 0.6"/>
    </g>
   </g>
   <g id="PathCollection_3">
    <defs>
     <path id="m7327df8536" d="M 0 1.581139 
C 0.419323 1.581139 0.821528 1.41454 1.118034 1.118034 
C 1.41454 0.821528 1.581139 0.419323 1.581139 0 
C 1.581139 -0.419323 1.41454 -0.821528 1.118034 -1.118034 
C 0.821528 -1.41454 0.419323 -1.581139 0 -1.581139 
C -0.419323 -1.581139 -0.821528 -1.41454 -1.118034 -1.118034 
C -1.41454 -0.821528 -1.581139 -0.419323 -1.581139 0 
C -1.581139 0.419323 -1.41454 0.821528 -1.118034 1.118034 
C -0.821528 1.41454 -0.419323 1.581139 0 1.581139 
z
" style="stroke: #ff0000; stroke-opacity: 0.6"/>
    </defs>
    <g clip-path="url(#p7df02f14c8)">
     <use xlink:href="#m7327df8536" x="86.93542" y="138.945896" style="fill: #ff0000; fill-opacity: 0.6; stroke: #ff0000; stroke-opacity: 0.6"/>
     <use xlink:href="#m7327df8536" x="84.936853" y="114.621334" style="fill: #ff0000; fill-opacity: 0.6; stroke: #ff0000; stroke-opacity: 0.6"/>
     <use xlink:href="#m7327df8536" x="84.558222" y="115.855089" style="fill: #ff0000; fill-opacity: 0.6; stroke: #ff0000; stroke-opacity: 0.6"/>
     <use xlink:href="#m7327df8536" x="92.425532" y="144.736409" style="fill: #ff0000; fill-opacity: 0.6; stroke: #ff0000; stroke-opacity: 0.6"/>
     <use xlink:href="#m7327df8536" x="152.824447" y="232.284882" style="fill: #ff0000; fill-opacity: 0.6; stroke: #ff0000; stroke-opacity: 0.6"/>
     <use xlink:href="#m7327df8536" x="92.24715" y="161.001877" style="fill: #ff0000; fill-opacity: 0.6; stroke: #ff0000; stroke-opacity: 0.6"/>
     <use xlink:href="#m7327df8536" x="283.301928" y="290.329091" style="fill: #ff0000; fill-opacity: 0.6; stroke: #ff0000; stroke-opacity: 0.6"/>
     <use xlink:href="#m7327df8536" x="93.790688" y="166.638876" style="fill: #ff0000; fill-opacity: 0.6; stroke: #ff0000; stroke-opacity: 0.6"/>
     <use xlink:href="#m7327df8536" x="119.708975" y="210.628955" style="fill: #ff0000; fill-opacity: 0.6; stroke: #ff0000; stroke-opacity: 0.6"/>
     <use xlink:href="#m7327df8536" x="81.485736" y="95.102705" style="fill: #ff0000; fill-opacity: 0.6; stroke: #ff0000; stroke-opacity: 0.6"/>
     <use xlink:href="#m7327df8536" x="81.658496" y="90.247479" style="fill: #ff0000; fill-opacity: 0.6; stroke: #ff0000; stroke-opacity: 0.6"/>
     <use xlink:href="#m7327df8536" x="292.02312" y="244.023248" style="fill: #ff0000; fill-opacity: 0.6; stroke: #ff0000; stroke-opacity: 0.6"/>
     <use xlink:href="#m7327df8536" x="93.461882" y="163.265977" style="fill: #ff0000; fill-opacity: 0.6; stroke: #ff0000; stroke-opacity: 0.6"/>
     <use xlink:href="#m7327df8536" x="153.679246" y="245.549814" style="fill: #ff0000; fill-opacity: 0.6; stroke: #ff0000; stroke-opacity: 0.6"/>
     <use xlink:href="#m7327df8536" x="82.777797" y="111.117473" style="fill: #ff0000; fill-opacity: 0.6; stroke: #ff0000; stroke-opacity: 0.6"/>
     <use xlink:href="#m7327df8536" x="95.839581" y="169.165778" style="fill: #ff0000; fill-opacity: 0.6; stroke: #ff0000; stroke-opacity: 0.6"/>
     <use xlink:href="#m7327df8536" x="96.677069" y="173.375113" style="fill: #ff0000; fill-opacity: 0.6; stroke: #ff0000; stroke-opacity: 0.6"/>
     <use xlink:href="#m7327df8536" x="117.704735" y="202.363042" style="fill: #ff0000; fill-opacity: 0.6; stroke: #ff0000; stroke-opacity: 0.6"/>
     <use xlink:href="#m7327df8536" x="212.304599" y="268.871838" style="fill: #ff0000; fill-opacity: 0.6; stroke: #ff0000; stroke-opacity: 0.6"/>
     <use xlink:href="#m7327df8536" x="79.415301" y="60.979177" style="fill: #ff0000; fill-opacity: 0.6; stroke: #ff0000; stroke-opacity: 0.6"/>
    </g>
   </g>
   <g id="matplotlib.axis_1">
    <g id="xtick_1">
     <g id="line2d_1">
      <defs>
       <path id="m1c7cd221bf" d="M 0 0 
L 0 3.5 
" style="stroke: #000000; stroke-width: 0.8"/>
      </defs>
      <g>
       <use xlink:href="#m1c7cd221bf" x="77.393138" y="303.64" style="stroke: #000000; stroke-width: 0.8"/>
      </g>
     </g>
     <g id="text_1">
      <!-- 0.0 -->
      <g transform="translate(69.441575 318.238437) scale(0.1 -0.1)">
       <defs>
        <path id="DejaVuSans-30" d="M 2034 4250 
Q 1547 4250 1301 3770 
Q 1056 3291 1056 2328 
Q 1056 1369 1301 889 
Q 1547 409 2034 409 
Q 2525 409 2770 889 
Q 3016 1369 3016 2328 
Q 3016 3291 2770 3770 
Q 2525 4250 2034 4250 
z
M 2034 4750 
Q 2819 4750 3233 4129 
Q 3647 3509 3647 2328 
Q 3647 1150 3233 529 
Q 2819 -91 2034 -91 
Q 1250 -91 836 529 
Q 422 1150 422 2328 
Q 422 3509 836 4129 
Q 1250 4750 2034 4750 
z
" transform="scale(0.015625)"/>
        <path id="DejaVuSans-2e" d="M 684 794 
L 1344 794 
L 1344 0 
L 684 0 
L 684 794 
z
" transform="scale(0.015625)"/>
       </defs>
       <use xlink:href="#DejaVuSans-30"/>
       <use xlink:href="#DejaVuSans-2e" transform="translate(63.623047 0)"/>
       <use xlink:href="#DejaVuSans-30" transform="translate(95.410156 0)"/>
      </g>
     </g>
    </g>
    <g id="xtick_2">
     <g id="line2d_2">
      <g>
       <use xlink:href="#m1c7cd221bf" x="133.31971" y="303.64" style="stroke: #000000; stroke-width: 0.8"/>
      </g>
     </g>
     <g id="text_2">
      <!-- 0.5 -->
      <g transform="translate(125.368147 318.238437) scale(0.1 -0.1)">
       <defs>
        <path id="DejaVuSans-35" d="M 691 4666 
L 3169 4666 
L 3169 4134 
L 1269 4134 
L 1269 2991 
Q 1406 3038 1543 3061 
Q 1681 3084 1819 3084 
Q 2600 3084 3056 2656 
Q 3513 2228 3513 1497 
Q 3513 744 3044 326 
Q 2575 -91 1722 -91 
Q 1428 -91 1123 -41 
Q 819 9 494 109 
L 494 744 
Q 775 591 1075 516 
Q 1375 441 1709 441 
Q 2250 441 2565 725 
Q 2881 1009 2881 1497 
Q 2881 1984 2565 2268 
Q 2250 2553 1709 2553 
Q 1456 2553 1204 2497 
Q 953 2441 691 2322 
L 691 4666 
z
" transform="scale(0.015625)"/>
       </defs>
       <use xlink:href="#DejaVuSans-30"/>
       <use xlink:href="#DejaVuSans-2e" transform="translate(63.623047 0)"/>
       <use xlink:href="#DejaVuSans-35" transform="translate(95.410156 0)"/>
      </g>
     </g>
    </g>
    <g id="xtick_3">
     <g id="line2d_3">
      <g>
       <use xlink:href="#m1c7cd221bf" x="189.246282" y="303.64" style="stroke: #000000; stroke-width: 0.8"/>
      </g>
     </g>
     <g id="text_3">
      <!-- 1.0 -->
      <g transform="translate(181.294719 318.238437) scale(0.1 -0.1)">
       <defs>
        <path id="DejaVuSans-31" d="M 794 531 
L 1825 531 
L 1825 4091 
L 703 3866 
L 703 4441 
L 1819 4666 
L 2450 4666 
L 2450 531 
L 3481 531 
L 3481 0 
L 794 0 
L 794 531 
z
" transform="scale(0.015625)"/>
       </defs>
       <use xlink:href="#DejaVuSans-31"/>
       <use xlink:href="#DejaVuSans-2e" transform="translate(63.623047 0)"/>
       <use xlink:href="#DejaVuSans-30" transform="translate(95.410156 0)"/>
      </g>
     </g>
    </g>
    <g id="xtick_4">
     <g id="line2d_4">
      <g>
       <use xlink:href="#m1c7cd221bf" x="245.172854" y="303.64" style="stroke: #000000; stroke-width: 0.8"/>
      </g>
     </g>
     <g id="text_4">
      <!-- 1.5 -->
      <g transform="translate(237.221292 318.238437) scale(0.1 -0.1)">
       <use xlink:href="#DejaVuSans-31"/>
       <use xlink:href="#DejaVuSans-2e" transform="translate(63.623047 0)"/>
       <use xlink:href="#DejaVuSans-35" transform="translate(95.410156 0)"/>
      </g>
     </g>
    </g>
    <g id="xtick_5">
     <g id="line2d_5">
      <g>
       <use xlink:href="#m1c7cd221bf" x="301.099426" y="303.64" style="stroke: #000000; stroke-width: 0.8"/>
      </g>
     </g>
     <g id="text_5">
      <!-- 2.0 -->
      <g transform="translate(293.147864 318.238437) scale(0.1 -0.1)">
       <defs>
        <path id="DejaVuSans-32" d="M 1228 531 
L 3431 531 
L 3431 0 
L 469 0 
L 469 531 
Q 828 903 1448 1529 
Q 2069 2156 2228 2338 
Q 2531 2678 2651 2914 
Q 2772 3150 2772 3378 
Q 2772 3750 2511 3984 
Q 2250 4219 1831 4219 
Q 1534 4219 1204 4116 
Q 875 4013 500 3803 
L 500 4441 
Q 881 4594 1212 4672 
Q 1544 4750 1819 4750 
Q 2544 4750 2975 4387 
Q 3406 4025 3406 3419 
Q 3406 3131 3298 2873 
Q 3191 2616 2906 2266 
Q 2828 2175 2409 1742 
Q 1991 1309 1228 531 
z
" transform="scale(0.015625)"/>
       </defs>
       <use xlink:href="#DejaVuSans-32"/>
       <use xlink:href="#DejaVuSans-2e" transform="translate(63.623047 0)"/>
       <use xlink:href="#DejaVuSans-30" transform="translate(95.410156 0)"/>
      </g>
     </g>
    </g>
    <g id="xtick_6">
     <g id="line2d_6">
      <g>
       <use xlink:href="#m1c7cd221bf" x="357.025998" y="303.64" style="stroke: #000000; stroke-width: 0.8"/>
      </g>
     </g>
     <g id="text_6">
      <!-- 2.5 -->
      <g transform="translate(349.074436 318.238437) scale(0.1 -0.1)">
       <use xlink:href="#DejaVuSans-32"/>
       <use xlink:href="#DejaVuSans-2e" transform="translate(63.623047 0)"/>
       <use xlink:href="#DejaVuSans-35" transform="translate(95.410156 0)"/>
      </g>
     </g>
    </g>
    <g id="xtick_7">
     <g id="line2d_7">
      <g>
       <use xlink:href="#m1c7cd221bf" x="412.95257" y="303.64" style="stroke: #000000; stroke-width: 0.8"/>
      </g>
     </g>
     <g id="text_7">
      <!-- 3.0 -->
      <g transform="translate(405.001008 318.238437) scale(0.1 -0.1)">
       <defs>
        <path id="DejaVuSans-33" d="M 2597 2516 
Q 3050 2419 3304 2112 
Q 3559 1806 3559 1356 
Q 3559 666 3084 287 
Q 2609 -91 1734 -91 
Q 1441 -91 1130 -33 
Q 819 25 488 141 
L 488 750 
Q 750 597 1062 519 
Q 1375 441 1716 441 
Q 2309 441 2620 675 
Q 2931 909 2931 1356 
Q 2931 1769 2642 2001 
Q 2353 2234 1838 2234 
L 1294 2234 
L 1294 2753 
L 1863 2753 
Q 2328 2753 2575 2939 
Q 2822 3125 2822 3475 
Q 2822 3834 2567 4026 
Q 2313 4219 1838 4219 
Q 1578 4219 1281 4162 
Q 984 4106 628 3988 
L 628 4550 
Q 988 4650 1302 4700 
Q 1616 4750 1894 4750 
Q 2613 4750 3031 4423 
Q 3450 4097 3450 3541 
Q 3450 3153 3228 2886 
Q 3006 2619 2597 2516 
z
" transform="scale(0.015625)"/>
       </defs>
       <use xlink:href="#DejaVuSans-33"/>
       <use xlink:href="#DejaVuSans-2e" transform="translate(63.623047 0)"/>
       <use xlink:href="#DejaVuSans-30" transform="translate(95.410156 0)"/>
      </g>
     </g>
    </g>
    <g id="text_8">
     <!-- Final [FP] -->
     <g transform="translate(232.389531 331.916562) scale(0.1 -0.1)">
      <defs>
       <path id="DejaVuSans-46" d="M 628 4666 
L 3309 4666 
L 3309 4134 
L 1259 4134 
L 1259 2759 
L 3109 2759 
L 3109 2228 
L 1259 2228 
L 1259 0 
L 628 0 
L 628 4666 
z
" transform="scale(0.015625)"/>
       <path id="DejaVuSans-69" d="M 603 3500 
L 1178 3500 
L 1178 0 
L 603 0 
L 603 3500 
z
M 603 4863 
L 1178 4863 
L 1178 4134 
L 603 4134 
L 603 4863 
z
" transform="scale(0.015625)"/>
       <path id="DejaVuSans-6e" d="M 3513 2113 
L 3513 0 
L 2938 0 
L 2938 2094 
Q 2938 2591 2744 2837 
Q 2550 3084 2163 3084 
Q 1697 3084 1428 2787 
Q 1159 2491 1159 1978 
L 1159 0 
L 581 0 
L 581 3500 
L 1159 3500 
L 1159 2956 
Q 1366 3272 1645 3428 
Q 1925 3584 2291 3584 
Q 2894 3584 3203 3211 
Q 3513 2838 3513 2113 
z
" transform="scale(0.015625)"/>
       <path id="DejaVuSans-61" d="M 2194 1759 
Q 1497 1759 1228 1600 
Q 959 1441 959 1056 
Q 959 750 1161 570 
Q 1363 391 1709 391 
Q 2188 391 2477 730 
Q 2766 1069 2766 1631 
L 2766 1759 
L 2194 1759 
z
M 3341 1997 
L 3341 0 
L 2766 0 
L 2766 531 
Q 2569 213 2275 61 
Q 1981 -91 1556 -91 
Q 1019 -91 701 211 
Q 384 513 384 1019 
Q 384 1609 779 1909 
Q 1175 2209 1959 2209 
L 2766 2209 
L 2766 2266 
Q 2766 2663 2505 2880 
Q 2244 3097 1772 3097 
Q 1472 3097 1187 3025 
Q 903 2953 641 2809 
L 641 3341 
Q 956 3463 1253 3523 
Q 1550 3584 1831 3584 
Q 2591 3584 2966 3190 
Q 3341 2797 3341 1997 
z
" transform="scale(0.015625)"/>
       <path id="DejaVuSans-6c" d="M 603 4863 
L 1178 4863 
L 1178 0 
L 603 0 
L 603 4863 
z
" transform="scale(0.015625)"/>
       <path id="DejaVuSans-20" transform="scale(0.015625)"/>
       <path id="DejaVuSans-5b" d="M 550 4863 
L 1875 4863 
L 1875 4416 
L 1125 4416 
L 1125 -397 
L 1875 -397 
L 1875 -844 
L 550 -844 
L 550 4863 
z
" transform="scale(0.015625)"/>
       <path id="DejaVuSans-50" d="M 1259 4147 
L 1259 2394 
L 2053 2394 
Q 2494 2394 2734 2622 
Q 2975 2850 2975 3272 
Q 2975 3691 2734 3919 
Q 2494 4147 2053 4147 
L 1259 4147 
z
M 628 4666 
L 2053 4666 
Q 2838 4666 3239 4311 
Q 3641 3956 3641 3272 
Q 3641 2581 3239 2228 
Q 2838 1875 2053 1875 
L 1259 1875 
L 1259 0 
L 628 0 
L 628 4666 
z
" transform="scale(0.015625)"/>
       <path id="DejaVuSans-5d" d="M 1947 4863 
L 1947 -844 
L 622 -844 
L 622 -397 
L 1369 -397 
L 1369 4416 
L 622 4416 
L 622 4863 
L 1947 4863 
z
" transform="scale(0.015625)"/>
      </defs>
      <use xlink:href="#DejaVuSans-46"/>
      <use xlink:href="#DejaVuSans-69" transform="translate(50.269531 0)"/>
      <use xlink:href="#DejaVuSans-6e" transform="translate(78.052734 0)"/>
      <use xlink:href="#DejaVuSans-61" transform="translate(141.431641 0)"/>
      <use xlink:href="#DejaVuSans-6c" transform="translate(202.710938 0)"/>
      <use xlink:href="#DejaVuSans-20" transform="translate(230.494141 0)"/>
      <use xlink:href="#DejaVuSans-5b" transform="translate(262.28125 0)"/>
      <use xlink:href="#DejaVuSans-46" transform="translate(301.294922 0)"/>
      <use xlink:href="#DejaVuSans-50" transform="translate(358.814453 0)"/>
      <use xlink:href="#DejaVuSans-5d" transform="translate(419.117188 0)"/>
     </g>
    </g>
    <g id="text_9">
     <!-- 1e12 -->
     <g transform="translate(424.759375 330.916562) scale(0.1 -0.1)">
      <defs>
       <path id="DejaVuSans-65" d="M 3597 1894 
L 3597 1613 
L 953 1613 
Q 991 1019 1311 708 
Q 1631 397 2203 397 
Q 2534 397 2845 478 
Q 3156 559 3463 722 
L 3463 178 
Q 3153 47 2828 -22 
Q 2503 -91 2169 -91 
Q 1331 -91 842 396 
Q 353 884 353 1716 
Q 353 2575 817 3079 
Q 1281 3584 2069 3584 
Q 2775 3584 3186 3129 
Q 3597 2675 3597 1894 
z
M 3022 2063 
Q 3016 2534 2758 2815 
Q 2500 3097 2075 3097 
Q 1594 3097 1305 2825 
Q 1016 2553 972 2059 
L 3022 2063 
z
" transform="scale(0.015625)"/>
      </defs>
      <use xlink:href="#DejaVuSans-31"/>
      <use xlink:href="#DejaVuSans-65" transform="translate(63.623047 0)"/>
      <use xlink:href="#DejaVuSans-31" transform="translate(125.146484 0)"/>
      <use xlink:href="#DejaVuSans-32" transform="translate(188.769531 0)"/>
     </g>
    </g>
   </g>
   <g id="matplotlib.axis_2">
    <g id="ytick_1">
     <g id="line2d_8">
      <defs>
       <path id="m2622d66a1f" d="M 0 0 
L -3.5 0 
" style="stroke: #000000; stroke-width: 0.8"/>
      </defs>
      <g>
       <use xlink:href="#m2622d66a1f" x="60.59" y="292.566328" style="stroke: #000000; stroke-width: 0.8"/>
      </g>
     </g>
     <g id="text_10">
      <!-- 0.000 -->
      <g transform="translate(24.961875 296.365546) scale(0.1 -0.1)">
       <use xlink:href="#DejaVuSans-30"/>
       <use xlink:href="#DejaVuSans-2e" transform="translate(63.623047 0)"/>
       <use xlink:href="#DejaVuSans-30" transform="translate(95.410156 0)"/>
       <use xlink:href="#DejaVuSans-30" transform="translate(159.033203 0)"/>
       <use xlink:href="#DejaVuSans-30" transform="translate(222.65625 0)"/>
      </g>
     </g>
    </g>
    <g id="ytick_2">
     <g id="line2d_9">
      <g>
       <use xlink:href="#m2622d66a1f" x="60.59" y="238.817506" style="stroke: #000000; stroke-width: 0.8"/>
      </g>
     </g>
     <g id="text_11">
      <!-- 0.002 -->
      <g transform="translate(24.961875 242.616725) scale(0.1 -0.1)">
       <use xlink:href="#DejaVuSans-30"/>
       <use xlink:href="#DejaVuSans-2e" transform="translate(63.623047 0)"/>
       <use xlink:href="#DejaVuSans-30" transform="translate(95.410156 0)"/>
       <use xlink:href="#DejaVuSans-30" transform="translate(159.033203 0)"/>
       <use xlink:href="#DejaVuSans-32" transform="translate(222.65625 0)"/>
      </g>
     </g>
    </g>
    <g id="ytick_3">
     <g id="line2d_10">
      <g>
       <use xlink:href="#m2622d66a1f" x="60.59" y="185.068685" style="stroke: #000000; stroke-width: 0.8"/>
      </g>
     </g>
     <g id="text_12">
      <!-- 0.004 -->
      <g transform="translate(24.961875 188.867904) scale(0.1 -0.1)">
       <defs>
        <path id="DejaVuSans-34" d="M 2419 4116 
L 825 1625 
L 2419 1625 
L 2419 4116 
z
M 2253 4666 
L 3047 4666 
L 3047 1625 
L 3713 1625 
L 3713 1100 
L 3047 1100 
L 3047 0 
L 2419 0 
L 2419 1100 
L 313 1100 
L 313 1709 
L 2253 4666 
z
" transform="scale(0.015625)"/>
       </defs>
       <use xlink:href="#DejaVuSans-30"/>
       <use xlink:href="#DejaVuSans-2e" transform="translate(63.623047 0)"/>
       <use xlink:href="#DejaVuSans-30" transform="translate(95.410156 0)"/>
       <use xlink:href="#DejaVuSans-30" transform="translate(159.033203 0)"/>
       <use xlink:href="#DejaVuSans-34" transform="translate(222.65625 0)"/>
      </g>
     </g>
    </g>
    <g id="ytick_4">
     <g id="line2d_11">
      <g>
       <use xlink:href="#m2622d66a1f" x="60.59" y="131.319864" style="stroke: #000000; stroke-width: 0.8"/>
      </g>
     </g>
     <g id="text_13">
      <!-- 0.006 -->
      <g transform="translate(24.961875 135.119083) scale(0.1 -0.1)">
       <defs>
        <path id="DejaVuSans-36" d="M 2113 2584 
Q 1688 2584 1439 2293 
Q 1191 2003 1191 1497 
Q 1191 994 1439 701 
Q 1688 409 2113 409 
Q 2538 409 2786 701 
Q 3034 994 3034 1497 
Q 3034 2003 2786 2293 
Q 2538 2584 2113 2584 
z
M 3366 4563 
L 3366 3988 
Q 3128 4100 2886 4159 
Q 2644 4219 2406 4219 
Q 1781 4219 1451 3797 
Q 1122 3375 1075 2522 
Q 1259 2794 1537 2939 
Q 1816 3084 2150 3084 
Q 2853 3084 3261 2657 
Q 3669 2231 3669 1497 
Q 3669 778 3244 343 
Q 2819 -91 2113 -91 
Q 1303 -91 875 529 
Q 447 1150 447 2328 
Q 447 3434 972 4092 
Q 1497 4750 2381 4750 
Q 2619 4750 2861 4703 
Q 3103 4656 3366 4563 
z
" transform="scale(0.015625)"/>
       </defs>
       <use xlink:href="#DejaVuSans-30"/>
       <use xlink:href="#DejaVuSans-2e" transform="translate(63.623047 0)"/>
       <use xlink:href="#DejaVuSans-30" transform="translate(95.410156 0)"/>
       <use xlink:href="#DejaVuSans-30" transform="translate(159.033203 0)"/>
       <use xlink:href="#DejaVuSans-36" transform="translate(222.65625 0)"/>
      </g>
     </g>
    </g>
    <g id="ytick_5">
     <g id="line2d_12">
      <g>
       <use xlink:href="#m2622d66a1f" x="60.59" y="77.571043" style="stroke: #000000; stroke-width: 0.8"/>
      </g>
     </g>
     <g id="text_14">
      <!-- 0.008 -->
      <g transform="translate(24.961875 81.370261) scale(0.1 -0.1)">
       <defs>
        <path id="DejaVuSans-38" d="M 2034 2216 
Q 1584 2216 1326 1975 
Q 1069 1734 1069 1313 
Q 1069 891 1326 650 
Q 1584 409 2034 409 
Q 2484 409 2743 651 
Q 3003 894 3003 1313 
Q 3003 1734 2745 1975 
Q 2488 2216 2034 2216 
z
M 1403 2484 
Q 997 2584 770 2862 
Q 544 3141 544 3541 
Q 544 4100 942 4425 
Q 1341 4750 2034 4750 
Q 2731 4750 3128 4425 
Q 3525 4100 3525 3541 
Q 3525 3141 3298 2862 
Q 3072 2584 2669 2484 
Q 3125 2378 3379 2068 
Q 3634 1759 3634 1313 
Q 3634 634 3220 271 
Q 2806 -91 2034 -91 
Q 1263 -91 848 271 
Q 434 634 434 1313 
Q 434 1759 690 2068 
Q 947 2378 1403 2484 
z
M 1172 3481 
Q 1172 3119 1398 2916 
Q 1625 2713 2034 2713 
Q 2441 2713 2670 2916 
Q 2900 3119 2900 3481 
Q 2900 3844 2670 4047 
Q 2441 4250 2034 4250 
Q 1625 4250 1398 4047 
Q 1172 3844 1172 3481 
z
" transform="scale(0.015625)"/>
       </defs>
       <use xlink:href="#DejaVuSans-30"/>
       <use xlink:href="#DejaVuSans-2e" transform="translate(63.623047 0)"/>
       <use xlink:href="#DejaVuSans-30" transform="translate(95.410156 0)"/>
       <use xlink:href="#DejaVuSans-30" transform="translate(159.033203 0)"/>
       <use xlink:href="#DejaVuSans-38" transform="translate(222.65625 0)"/>
      </g>
     </g>
    </g>
    <g id="ytick_6">
     <g id="line2d_13">
      <g>
       <use xlink:href="#m2622d66a1f" x="60.59" y="23.822222" style="stroke: #000000; stroke-width: 0.8"/>
      </g>
     </g>
     <g id="text_15">
      <!-- 0.010 -->
      <g transform="translate(24.961875 27.62144) scale(0.1 -0.1)">
       <use xlink:href="#DejaVuSans-30"/>
       <use xlink:href="#DejaVuSans-2e" transform="translate(63.623047 0)"/>
       <use xlink:href="#DejaVuSans-30" transform="translate(95.410156 0)"/>
       <use xlink:href="#DejaVuSans-31" transform="translate(159.033203 0)"/>
       <use xlink:href="#DejaVuSans-30" transform="translate(222.65625 0)"/>
      </g>
     </g>
    </g>
    <g id="text_16">
     <!-- kdil -->
     <g transform="translate(18.882188 166.067656) rotate(-90) scale(0.1 -0.1)">
      <defs>
       <path id="DejaVuSans-6b" d="M 581 4863 
L 1159 4863 
L 1159 1991 
L 2875 3500 
L 3609 3500 
L 1753 1863 
L 3688 0 
L 2938 0 
L 1159 1709 
L 1159 0 
L 581 0 
L 581 4863 
z
" transform="scale(0.015625)"/>
       <path id="DejaVuSans-64" d="M 2906 2969 
L 2906 4863 
L 3481 4863 
L 3481 0 
L 2906 0 
L 2906 525 
Q 2725 213 2448 61 
Q 2172 -91 1784 -91 
Q 1150 -91 751 415 
Q 353 922 353 1747 
Q 353 2572 751 3078 
Q 1150 3584 1784 3584 
Q 2172 3584 2448 3432 
Q 2725 3281 2906 2969 
z
M 947 1747 
Q 947 1113 1208 752 
Q 1469 391 1925 391 
Q 2381 391 2643 752 
Q 2906 1113 2906 1747 
Q 2906 2381 2643 2742 
Q 2381 3103 1925 3103 
Q 1469 3103 1208 2742 
Q 947 2381 947 1747 
z
" transform="scale(0.015625)"/>
      </defs>
      <use xlink:href="#DejaVuSans-6b"/>
      <use xlink:href="#DejaVuSans-64" transform="translate(57.910156 0)"/>
      <use xlink:href="#DejaVuSans-69" transform="translate(121.386719 0)"/>
      <use xlink:href="#DejaVuSans-6c" transform="translate(149.169922 0)"/>
     </g>
    </g>
   </g>
   <g id="patch_3">
    <path d="M 60.59 303.64 
L 60.59 10.8 
" style="fill: none; stroke: #000000; stroke-width: 0.8; stroke-linejoin: miter; stroke-linecap: square"/>
   </g>
   <g id="patch_4">
    <path d="M 450 303.64 
L 450 10.8 
" style="fill: none; stroke: #000000; stroke-width: 0.8; stroke-linejoin: miter; stroke-linecap: square"/>
   </g>
   <g id="patch_5">
    <path d="M 60.59 303.64 
L 450 303.64 
" style="fill: none; stroke: #000000; stroke-width: 0.8; stroke-linejoin: miter; stroke-linecap: square"/>
   </g>
   <g id="patch_6">
    <path d="M 60.59 10.8 
L 450 10.8 
" style="fill: none; stroke: #000000; stroke-width: 0.8; stroke-linejoin: miter; stroke-linecap: square"/>
   </g>
  </g>
 </g>
 <defs>
  <clipPath id="p7df02f14c8">
   <rect x="60.59" y="10.8" width="389.41" height="292.84"/>
  </clipPath>
 </defs>
</svg>
