<?xml version="1.0" encoding="utf-8" standalone="no"?>
<!DOCTYPE svg PUBLIC "-//W3C//DTD SVG 1.1//EN"
  "http://www.w3.org/Graphics/SVG/1.1/DTD/svg11.dtd">
<svg xmlns:xlink="http://www.w3.org/1999/xlink" width="460.8pt" height="345.6pt" viewBox="0 0 460.8 345.6" xmlns="http://www.w3.org/2000/svg" version="1.1">
 <metadata>
  <rdf:RDF xmlns:dc="http://purl.org/dc/elements/1.1/" xmlns:cc="http://creativecommons.org/ns#" xmlns:rdf="http://www.w3.org/1999/02/22-rdf-syntax-ns#">
   <cc:Work>
    <dc:type rdf:resource="http://purl.org/dc/dcmitype/StillImage"/>
    <dc:date>2026-05-31T16:17:25.276634</dc:date>
    <dc:format>image/svg+xml</dc:format>
    <dc:creator>
     <cc:Agent>
      <dc:title>Matplotlib v3.10.8, https://matplotlib.org/</dc:title>
     </cc:Agent>
    </dc:creator>
   </cc:Work>
  </rdf:RDF>
 </metadata>
 <defs>
  <style type="text/css">*{stroke-linejoin: round; stroke-linecap: butt}</style>
 </defs>
 <g id="figure_1">
  <g id="patch_1">
   <path d="M 0 345.6 
L 460.8 345.6 
L 460.8 0 
L 0 0 
z
" style="fill: #ffffff"/>
  </g>
  <g id="axes_1">
   <g id="patch_2">
    <path d="M 57.6 307.584 
L 414.72 307.584 
L 414.72 41.472 
L 57.6 41.472 
z
" style="fill: #ffffff"/>
   </g>
   <g id="matplotlib.axis_1">
    <g id="xtick_1">
     <g id="line2d_1">
      <defs>
       <path id="md830ed77f5" d="M 0 0 
L 0 3.5 
" style="stroke: #000000; stroke-width: 0.8"/>
      </defs>
      <g>
       <use xlink:href="#md830ed77f5" x="73.832727" y="307.584" style="stroke: #000000; stroke-width: 0.8"/>
      </g>
     </g>
     <g id="text_1">
      <!-- 0 -->
      <g transform="translate(70.651477 322.182437) scale(0.1 -0.1)">
       <defs>
        <path id="DejaVuSans-30" d="M 2034 4250 
Q 1547 4250 1301 3770 
Q 1056 3291 1056 2328 
Q 1056 1369 1301 889 
Q 1547 409 2034 409 
Q 2525 409 2770 889 
Q 3016 1369 3016 2328 
Q 3016 3291 2770 3770 
Q 2525 4250 2034 4250 
z
M 2034 4750 
Q 2819 4750 3233 4129 
Q 3647 3509 3647 2328 
Q 3647 1150 3233 529 
Q 2819 -91 2034 -91 
Q 1250 -91 836 529 
Q 422 1150 422 2328 
Q 422 3509 836 4129 
Q 1250 4750 2034 4750 
z
" transform="scale(0.015625)"/>
       </defs>
       <use xlink:href="#DejaVuSans-30"/>
      </g>
     </g>
    </g>
    <g id="xtick_2">
     <g id="line2d_2">
      <g>
       <use xlink:href="#md830ed77f5" x="138.763636" y="307.584" style="stroke: #000000; stroke-width: 0.8"/>
      </g>
     </g>
     <g id="text_2">
      <!-- 200 -->
      <g transform="translate(129.219886 322.182437) scale(0.1 -0.1)">
       <defs>
        <path id="DejaVuSans-32" d="M 1228 531 
L 3431 531 
L 3431 0 
L 469 0 
L 469 531 
Q 828 903 1448 1529 
Q 2069 2156 2228 2338 
Q 2531 2678 2651 2914 
Q 2772 3150 2772 3378 
Q 2772 3750 2511 3984 
Q 2250 4219 1831 4219 
Q 1534 4219 1204 4116 
Q 875 4013 500 3803 
L 500 4441 
Q 881 4594 1212 4672 
Q 1544 4750 1819 4750 
Q 2544 4750 2975 4387 
Q 3406 4025 3406 3419 
Q 3406 3131 3298 2873 
Q 3191 2616 2906 2266 
Q 2828 2175 2409 1742 
Q 1991 1309 1228 531 
z
" transform="scale(0.015625)"/>
       </defs>
       <use xlink:href="#DejaVuSans-32"/>
       <use xlink:href="#DejaVuSans-30" transform="translate(63.623047 0)"/>
       <use xlink:href="#DejaVuSans-30" transform="translate(127.246094 0)"/>
      </g>
     </g>
    </g>
    <g id="xtick_3">
     <g id="line2d_3">
      <g>
       <use xlink:href="#md830ed77f5" x="203.694545" y="307.584" style="stroke: #000000; stroke-width: 0.8"/>
      </g>
     </g>
     <g id="text_3">
      <!-- 400 -->
      <g transform="translate(194.150795 322.182437) scale(0.1 -0.1)">
       <defs>
        <path id="DejaVuSans-34" d="M 2419 4116 
L 825 1625 
L 2419 1625 
L 2419 4116 
z
M 2253 4666 
L 3047 4666 
L 3047 1625 
L 3713 1625 
L 3713 1100 
L 3047 1100 
L 3047 0 
L 2419 0 
L 2419 1100 
L 313 1100 
L 313 1709 
L 2253 4666 
z
" transform="scale(0.015625)"/>
       </defs>
       <use xlink:href="#DejaVuSans-34"/>
       <use xlink:href="#DejaVuSans-30" transform="translate(63.623047 0)"/>
       <use xlink:href="#DejaVuSans-30" transform="translate(127.246094 0)"/>
      </g>
     </g>
    </g>
    <g id="xtick_4">
     <g id="line2d_4">
      <g>
       <use xlink:href="#md830ed77f5" x="268.625455" y="307.584" style="stroke: #000000; stroke-width: 0.8"/>
      </g>
     </g>
     <g id="text_4">
      <!-- 600 -->
      <g transform="translate(259.081705 322.182437) scale(0.1 -0.1)">
       <defs>
        <path id="DejaVuSans-36" d="M 2113 2584 
Q 1688 2584 1439 2293 
Q 1191 2003 1191 1497 
Q 1191 994 1439 701 
Q 1688 409 2113 409 
Q 2538 409 2786 701 
Q 3034 994 3034 1497 
Q 3034 2003 2786 2293 
Q 2538 2584 2113 2584 
z
M 3366 4563 
L 3366 3988 
Q 3128 4100 2886 4159 
Q 2644 4219 2406 4219 
Q 1781 4219 1451 3797 
Q 1122 3375 1075 2522 
Q 1259 2794 1537 2939 
Q 1816 3084 2150 3084 
Q 2853 3084 3261 2657 
Q 3669 2231 3669 1497 
Q 3669 778 3244 343 
Q 2819 -91 2113 -91 
Q 1303 -91 875 529 
Q 447 1150 447 2328 
Q 447 3434 972 4092 
Q 1497 4750 2381 4750 
Q 2619 4750 2861 4703 
Q 3103 4656 3366 4563 
z
" transform="scale(0.015625)"/>
       </defs>
       <use xlink:href="#DejaVuSans-36"/>
       <use xlink:href="#DejaVuSans-30" transform="translate(63.623047 0)"/>
       <use xlink:href="#DejaVuSans-30" transform="translate(127.246094 0)"/>
      </g>
     </g>
    </g>
    <g id="xtick_5">
     <g id="line2d_5">
      <g>
       <use xlink:href="#md830ed77f5" x="333.556364" y="307.584" style="stroke: #000000; stroke-width: 0.8"/>
      </g>
     </g>
     <g id="text_5">
      <!-- 800 -->
      <g transform="translate(324.012614 322.182437) scale(0.1 -0.1)">
       <defs>
        <path id="DejaVuSans-38" d="M 2034 2216 
Q 1584 2216 1326 1975 
Q 1069 1734 1069 1313 
Q 1069 891 1326 650 
Q 1584 409 2034 409 
Q 2484 409 2743 651 
Q 3003 894 3003 1313 
Q 3003 1734 2745 1975 
Q 2488 2216 2034 2216 
z
M 1403 2484 
Q 997 2584 770 2862 
Q 544 3141 544 3541 
Q 544 4100 942 4425 
Q 1341 4750 2034 4750 
Q 2731 4750 3128 4425 
Q 3525 4100 3525 3541 
Q 3525 3141 3298 2862 
Q 3072 2584 2669 2484 
Q 3125 2378 3379 2068 
Q 3634 1759 3634 1313 
Q 3634 634 3220 271 
Q 2806 -91 2034 -91 
Q 1263 -91 848 271 
Q 434 634 434 1313 
Q 434 1759 690 2068 
Q 947 2378 1403 2484 
z
M 1172 3481 
Q 1172 3119 1398 2916 
Q 1625 2713 2034 2713 
Q 2441 2713 2670 2916 
Q 2900 3119 2900 3481 
Q 2900 3844 2670 4047 
Q 2441 4250 2034 4250 
Q 1625 4250 1398 4047 
Q 1172 3844 1172 3481 
z
" transform="scale(0.015625)"/>
       </defs>
       <use xlink:href="#DejaVuSans-38"/>
       <use xlink:href="#DejaVuSans-30" transform="translate(63.623047 0)"/>
       <use xlink:href="#DejaVuSans-30" transform="translate(127.246094 0)"/>
      </g>
     </g>
    </g>
    <g id="xtick_6">
     <g id="line2d_6">
      <g>
       <use xlink:href="#md830ed77f5" x="398.487273" y="307.584" style="stroke: #000000; stroke-width: 0.8"/>
      </g>
     </g>
     <g id="text_6">
      <!-- 1000 -->
      <g transform="translate(385.762273 322.182437) scale(0.1 -0.1)">
       <defs>
        <path id="DejaVuSans-31" d="M 794 531 
L 1825 531 
L 1825 4091 
L 703 3866 
L 703 4441 
L 1819 4666 
L 2450 4666 
L 2450 531 
L 3481 531 
L 3481 0 
L 794 0 
L 794 531 
z
" transform="scale(0.015625)"/>
       </defs>
       <use xlink:href="#DejaVuSans-31"/>
       <use xlink:href="#DejaVuSans-30" transform="translate(63.623047 0)"/>
       <use xlink:href="#DejaVuSans-30" transform="translate(127.246094 0)"/>
       <use xlink:href="#DejaVuSans-30" transform="translate(190.869141 0)"/>
      </g>
     </g>
    </g>
    <g id="text_7">
     <!-- Epochs -->
     <g transform="translate(218.244375 335.860562) scale(0.1 -0.1)">
      <defs>
       <path id="DejaVuSans-45" d="M 628 4666 
L 3578 4666 
L 3578 4134 
L 1259 4134 
L 1259 2753 
L 3481 2753 
L 3481 2222 
L 1259 2222 
L 1259 531 
L 3634 531 
L 3634 0 
L 628 0 
L 628 4666 
z
" transform="scale(0.015625)"/>
       <path id="DejaVuSans-70" d="M 1159 525 
L 1159 -1331 
L 581 -1331 
L 581 3500 
L 1159 3500 
L 1159 2969 
Q 1341 3281 1617 3432 
Q 1894 3584 2278 3584 
Q 2916 3584 3314 3078 
Q 3713 2572 3713 1747 
Q 3713 922 3314 415 
Q 2916 -91 2278 -91 
Q 1894 -91 1617 61 
Q 1341 213 1159 525 
z
M 3116 1747 
Q 3116 2381 2855 2742 
Q 2594 3103 2138 3103 
Q 1681 3103 1420 2742 
Q 1159 2381 1159 1747 
Q 1159 1113 1420 752 
Q 1681 391 2138 391 
Q 2594 391 2855 752 
Q 3116 1113 3116 1747 
z
" transform="scale(0.015625)"/>
       <path id="DejaVuSans-6f" d="M 1959 3097 
Q 1497 3097 1228 2736 
Q 959 2375 959 1747 
Q 959 1119 1226 758 
Q 1494 397 1959 397 
Q 2419 397 2687 759 
Q 2956 1122 2956 1747 
Q 2956 2369 2687 2733 
Q 2419 3097 1959 3097 
z
M 1959 3584 
Q 2709 3584 3137 3096 
Q 3566 2609 3566 1747 
Q 3566 888 3137 398 
Q 2709 -91 1959 -91 
Q 1206 -91 779 398 
Q 353 888 353 1747 
Q 353 2609 779 3096 
Q 1206 3584 1959 3584 
z
" transform="scale(0.015625)"/>
       <path id="DejaVuSans-63" d="M 3122 3366 
L 3122 2828 
Q 2878 2963 2633 3030 
Q 2388 3097 2138 3097 
Q 1578 3097 1268 2742 
Q 959 2388 959 1747 
Q 959 1106 1268 751 
Q 1578 397 2138 397 
Q 2388 397 2633 464 
Q 2878 531 3122 666 
L 3122 134 
Q 2881 22 2623 -34 
Q 2366 -91 2075 -91 
Q 1284 -91 818 406 
Q 353 903 353 1747 
Q 353 2603 823 3093 
Q 1294 3584 2113 3584 
Q 2378 3584 2631 3529 
Q 2884 3475 3122 3366 
z
" transform="scale(0.015625)"/>
       <path id="DejaVuSans-68" d="M 3513 2113 
L 3513 0 
L 2938 0 
L 2938 2094 
Q 2938 2591 2744 2837 
Q 2550 3084 2163 3084 
Q 1697 3084 1428 2787 
Q 1159 2491 1159 1978 
L 1159 0 
L 581 0 
L 581 4863 
L 1159 4863 
L 1159 2956 
Q 1366 3272 1645 3428 
Q 1925 3584 2291 3584 
Q 2894 3584 3203 3211 
Q 3513 2838 3513 2113 
z
" transform="scale(0.015625)"/>
       <path id="DejaVuSans-73" d="M 2834 3397 
L 2834 2853 
Q 2591 2978 2328 3040 
Q 2066 3103 1784 3103 
Q 1356 3103 1142 2972 
Q 928 2841 928 2578 
Q 928 2378 1081 2264 
Q 1234 2150 1697 2047 
L 1894 2003 
Q 2506 1872 2764 1633 
Q 3022 1394 3022 966 
Q 3022 478 2636 193 
Q 2250 -91 1575 -91 
Q 1294 -91 989 -36 
Q 684 19 347 128 
L 347 722 
Q 666 556 975 473 
Q 1284 391 1588 391 
Q 1994 391 2212 530 
Q 2431 669 2431 922 
Q 2431 1156 2273 1281 
Q 2116 1406 1581 1522 
L 1381 1569 
Q 847 1681 609 1914 
Q 372 2147 372 2553 
Q 372 3047 722 3315 
Q 1072 3584 1716 3584 
Q 2034 3584 2315 3537 
Q 2597 3491 2834 3397 
z
" transform="scale(0.015625)"/>
      </defs>
      <use xlink:href="#DejaVuSans-45"/>
      <use xlink:href="#DejaVuSans-70" transform="translate(63.183594 0)"/>
      <use xlink:href="#DejaVuSans-6f" transform="translate(126.660156 0)"/>
      <use xlink:href="#DejaVuSans-63" transform="translate(187.841797 0)"/>
      <use xlink:href="#DejaVuSans-68" transform="translate(242.822266 0)"/>
      <use xlink:href="#DejaVuSans-73" transform="translate(306.201172 0)"/>
     </g>
    </g>
   </g>
   <g id="matplotlib.axis_2">
    <g id="ytick_1">
     <g id="line2d_7">
      <defs>
       <path id="m147594eb73" d="M 0 0 
L -3.5 0 
" style="stroke: #000000; stroke-width: 0.8"/>
      </defs>
      <g>
       <use xlink:href="#m147594eb73" x="57.6" y="260.427132" style="stroke: #000000; stroke-width: 0.8"/>
      </g>
     </g>
     <g id="text_8">
      <!-- 20 -->
      <g transform="translate(37.875 264.22635) scale(0.1 -0.1)">
       <use xlink:href="#DejaVuSans-32"/>
       <use xlink:href="#DejaVuSans-30" transform="translate(63.623047 0)"/>
      </g>
     </g>
    </g>
    <g id="ytick_2">
     <g id="line2d_8">
      <g>
       <use xlink:href="#m147594eb73" x="57.6" y="207.835828" style="stroke: #000000; stroke-width: 0.8"/>
      </g>
     </g>
     <g id="text_9">
      <!-- 40 -->
      <g transform="translate(37.875 211.635047) scale(0.1 -0.1)">
       <use xlink:href="#DejaVuSans-34"/>
       <use xlink:href="#DejaVuSans-30" transform="translate(63.623047 0)"/>
      </g>
     </g>
    </g>
    <g id="ytick_3">
     <g id="line2d_9">
      <g>
       <use xlink:href="#m147594eb73" x="57.6" y="155.244524" style="stroke: #000000; stroke-width: 0.8"/>
      </g>
     </g>
     <g id="text_10">
      <!-- 60 -->
      <g transform="translate(37.875 159.043743) scale(0.1 -0.1)">
       <use xlink:href="#DejaVuSans-36"/>
       <use xlink:href="#DejaVuSans-30" transform="translate(63.623047 0)"/>
      </g>
     </g>
    </g>
    <g id="ytick_4">
     <g id="line2d_10">
      <g>
       <use xlink:href="#m147594eb73" x="57.6" y="102.65322" style="stroke: #000000; stroke-width: 0.8"/>
      </g>
     </g>
     <g id="text_11">
      <!-- 80 -->
      <g transform="translate(37.875 106.452439) scale(0.1 -0.1)">
       <use xlink:href="#DejaVuSans-38"/>
       <use xlink:href="#DejaVuSans-30" transform="translate(63.623047 0)"/>
      </g>
     </g>
    </g>
    <g id="ytick_5">
     <g id="line2d_11">
      <g>
       <use xlink:href="#m147594eb73" x="57.6" y="50.061916" style="stroke: #000000; stroke-width: 0.8"/>
      </g>
     </g>
     <g id="text_12">
      <!-- 100 -->
      <g transform="translate(31.5125 53.861135) scale(0.1 -0.1)">
       <use xlink:href="#DejaVuSans-31"/>
       <use xlink:href="#DejaVuSans-30" transform="translate(63.623047 0)"/>
       <use xlink:href="#DejaVuSans-30" transform="translate(127.246094 0)"/>
      </g>
     </g>
    </g>
    <g id="text_13">
     <!-- Accuracy within 5% (%) -->
     <g transform="translate(25.432812 233.872531) rotate(-90) scale(0.1 -0.1)">
      <defs>
       <path id="DejaVuSans-41" d="M 2188 4044 
L 1331 1722 
L 3047 1722 
L 2188 4044 
z
M 1831 4666 
L 2547 4666 
L 4325 0 
L 3669 0 
L 3244 1197 
L 1141 1197 
L 716 0 
L 50 0 
L 1831 4666 
z
" transform="scale(0.015625)"/>
       <path id="DejaVuSans-75" d="M 544 1381 
L 544 3500 
L 1119 3500 
L 1119 1403 
Q 1119 906 1312 657 
Q 1506 409 1894 409 
Q 2359 409 2629 706 
Q 2900 1003 2900 1516 
L 2900 3500 
L 3475 3500 
L 3475 0 
L 2900 0 
L 2900 538 
Q 2691 219 2414 64 
Q 2138 -91 1772 -91 
Q 1169 -91 856 284 
Q 544 659 544 1381 
z
M 1991 3584 
L 1991 3584 
z
" transform="scale(0.015625)"/>
       <path id="DejaVuSans-72" d="M 2631 2963 
Q 2534 3019 2420 3045 
Q 2306 3072 2169 3072 
Q 1681 3072 1420 2755 
Q 1159 2438 1159 1844 
L 1159 0 
L 581 0 
L 581 3500 
L 1159 3500 
L 1159 2956 
Q 1341 3275 1631 3429 
Q 1922 3584 2338 3584 
Q 2397 3584 2469 3576 
Q 2541 3569 2628 3553 
L 2631 2963 
z
" transform="scale(0.015625)"/>
       <path id="DejaVuSans-61" d="M 2194 1759 
Q 1497 1759 1228 1600 
Q 959 1441 959 1056 
Q 959 750 1161 570 
Q 1363 391 1709 391 
Q 2188 391 2477 730 
Q 2766 1069 2766 1631 
L 2766 1759 
L 2194 1759 
z
M 3341 1997 
L 3341 0 
L 2766 0 
L 2766 531 
Q 2569 213 2275 61 
Q 1981 -91 1556 -91 
Q 1019 -91 701 211 
Q 384 513 384 1019 
Q 384 1609 779 1909 
Q 1175 2209 1959 2209 
L 2766 2209 
L 2766 2266 
Q 2766 2663 2505 2880 
Q 2244 3097 1772 3097 
Q 1472 3097 1187 3025 
Q 903 2953 641 2809 
L 641 3341 
Q 956 3463 1253 3523 
Q 1550 3584 1831 3584 
Q 2591 3584 2966 3190 
Q 3341 2797 3341 1997 
z
" transform="scale(0.015625)"/>
       <path id="DejaVuSans-79" d="M 2059 -325 
Q 1816 -950 1584 -1140 
Q 1353 -1331 966 -1331 
L 506 -1331 
L 506 -850 
L 844 -850 
Q 1081 -850 1212 -737 
Q 1344 -625 1503 -206 
L 1606 56 
L 191 3500 
L 800 3500 
L 1894 763 
L 2988 3500 
L 3597 3500 
L 2059 -325 
z
" transform="scale(0.015625)"/>
       <path id="DejaVuSans-20" transform="scale(0.015625)"/>
       <path id="DejaVuSans-77" d="M 269 3500 
L 844 3500 
L 1563 769 
L 2278 3500 
L 2956 3500 
L 3675 769 
L 4391 3500 
L 4966 3500 
L 4050 0 
L 3372 0 
L 2619 2869 
L 1863 0 
L 1184 0 
L 269 3500 
z
" transform="scale(0.015625)"/>
       <path id="DejaVuSans-69" d="M 603 3500 
L 1178 3500 
L 1178 0 
L 603 0 
L 603 3500 
z
M 603 4863 
L 1178 4863 
L 1178 4134 
L 603 4134 
L 603 4863 
z
" transform="scale(0.015625)"/>
       <path id="DejaVuSans-74" d="M 1172 4494 
L 1172 3500 
L 2356 3500 
L 2356 3053 
L 1172 3053 
L 1172 1153 
Q 1172 725 1289 603 
Q 1406 481 1766 481 
L 2356 481 
L 2356 0 
L 1766 0 
Q 1100 0 847 248 
Q 594 497 594 1153 
L 594 3053 
L 172 3053 
L 172 3500 
L 594 3500 
L 594 4494 
L 1172 4494 
z
" transform="scale(0.015625)"/>
       <path id="DejaVuSans-6e" d="M 3513 2113 
L 3513 0 
L 2938 0 
L 2938 2094 
Q 2938 2591 2744 2837 
Q 2550 3084 2163 3084 
Q 1697 3084 1428 2787 
Q 1159 2491 1159 1978 
L 1159 0 
L 581 0 
L 581 3500 
L 1159 3500 
L 1159 2956 
Q 1366 3272 1645 3428 
Q 1925 3584 2291 3584 
Q 2894 3584 3203 3211 
Q 3513 2838 3513 2113 
z
" transform="scale(0.015625)"/>
       <path id="DejaVuSans-35" d="M 691 4666 
L 3169 4666 
L 3169 4134 
L 1269 4134 
L 1269 2991 
Q 1406 3038 1543 3061 
Q 1681 3084 1819 3084 
Q 2600 3084 3056 2656 
Q 3513 2228 3513 1497 
Q 3513 744 3044 326 
Q 2575 -91 1722 -91 
Q 1428 -91 1123 -41 
Q 819 9 494 109 
L 494 744 
Q 775 591 1075 516 
Q 1375 441 1709 441 
Q 2250 441 2565 725 
Q 2881 1009 2881 1497 
Q 2881 1984 2565 2268 
Q 2250 2553 1709 2553 
Q 1456 2553 1204 2497 
Q 953 2441 691 2322 
L 691 4666 
z
" transform="scale(0.015625)"/>
       <path id="DejaVuSans-25" d="M 4653 2053 
Q 4381 2053 4226 1822 
Q 4072 1591 4072 1178 
Q 4072 772 4226 539 
Q 4381 306 4653 306 
Q 4919 306 5073 539 
Q 5228 772 5228 1178 
Q 5228 1588 5073 1820 
Q 4919 2053 4653 2053 
z
M 4653 2450 
Q 5147 2450 5437 2106 
Q 5728 1763 5728 1178 
Q 5728 594 5436 251 
Q 5144 -91 4653 -91 
Q 4153 -91 3862 251 
Q 3572 594 3572 1178 
Q 3572 1766 3864 2108 
Q 4156 2450 4653 2450 
z
M 1428 4353 
Q 1159 4353 1004 4120 
Q 850 3888 850 3481 
Q 850 3069 1003 2837 
Q 1156 2606 1428 2606 
Q 1700 2606 1854 2837 
Q 2009 3069 2009 3481 
Q 2009 3884 1853 4118 
Q 1697 4353 1428 4353 
z
M 4250 4750 
L 4750 4750 
L 1831 -91 
L 1331 -91 
L 4250 4750 
z
M 1428 4750 
Q 1922 4750 2215 4408 
Q 2509 4066 2509 3481 
Q 2509 2891 2217 2550 
Q 1925 2209 1428 2209 
Q 931 2209 642 2551 
Q 353 2894 353 3481 
Q 353 4063 643 4406 
Q 934 4750 1428 4750 
z
" transform="scale(0.015625)"/>
       <path id="DejaVuSans-28" d="M 1984 4856 
Q 1566 4138 1362 3434 
Q 1159 2731 1159 2009 
Q 1159 1288 1364 580 
Q 1569 -128 1984 -844 
L 1484 -844 
Q 1016 -109 783 600 
Q 550 1309 550 2009 
Q 550 2706 781 3412 
Q 1013 4119 1484 4856 
L 1984 4856 
z
" transform="scale(0.015625)"/>
       <path id="DejaVuSans-29" d="M 513 4856 
L 1013 4856 
Q 1481 4119 1714 3412 
Q 1947 2706 1947 2009 
Q 1947 1309 1714 600 
Q 1481 -109 1013 -844 
L 513 -844 
Q 928 -128 1133 580 
Q 1338 1288 1338 2009 
Q 1338 2731 1133 3434 
Q 928 4138 513 4856 
z
" transform="scale(0.015625)"/>
      </defs>
      <use xlink:href="#DejaVuSans-41"/>
      <use xlink:href="#DejaVuSans-63" transform="translate(66.658203 0)"/>
      <use xlink:href="#DejaVuSans-63" transform="translate(121.638672 0)"/>
      <use xlink:href="#DejaVuSans-75" transform="translate(176.619141 0)"/>
      <use xlink:href="#DejaVuSans-72" transform="translate(239.998047 0)"/>
      <use xlink:href="#DejaVuSans-61" transform="translate(281.111328 0)"/>
      <use xlink:href="#DejaVuSans-63" transform="translate(342.390625 0)"/>
      <use xlink:href="#DejaVuSans-79" transform="translate(397.371094 0)"/>
      <use xlink:href="#DejaVuSans-20" transform="translate(456.550781 0)"/>
      <use xlink:href="#DejaVuSans-77" transform="translate(488.337891 0)"/>
      <use xlink:href="#DejaVuSans-69" transform="translate(570.125 0)"/>
      <use xlink:href="#DejaVuSans-74" transform="translate(597.908203 0)"/>
      <use xlink:href="#DejaVuSans-68" transform="translate(637.117188 0)"/>
      <use xlink:href="#DejaVuSans-69" transform="translate(700.496094 0)"/>
      <use xlink:href="#DejaVuSans-6e" transform="translate(728.279297 0)"/>
      <use xlink:href="#DejaVuSans-20" transform="translate(791.658203 0)"/>
      <use xlink:href="#DejaVuSans-35" transform="translate(823.445312 0)"/>
      <use xlink:href="#DejaVuSans-25" transform="translate(887.068359 0)"/>
      <use xlink:href="#DejaVuSans-20" transform="translate(982.087891 0)"/>
      <use xlink:href="#DejaVuSans-28" transform="translate(1013.875 0)"/>
      <use xlink:href="#DejaVuSans-25" transform="translate(1052.888672 0)"/>
      <use xlink:href="#DejaVuSans-29" transform="translate(1147.908203 0)"/>
     </g>
    </g>
   </g>
   <g id="line2d_12">
    <path d="M 73.832727 295.488 
L 74.157382 290.228871 
L 74.482036 290.667131 
L 74.806691 284.969739 
L 75.131345 285.408 
L 75.456 286.722783 
L 75.780655 284.969739 
L 76.105309 284.969739 
L 76.429964 286.284523 
L 76.754618 284.093219 
L 77.079273 283.216696 
L 77.403927 285.408 
L 78.053236 281.463652 
L 78.377891 282.340175 
L 78.702545 281.901912 
L 79.0272 287.599304 
L 79.351855 287.599304 
L 79.676509 284.531479 
L 80.001164 273.574956 
L 80.325818 269.630608 
L 80.650473 271.821914 
L 80.975127 269.192348 
L 81.299782 247.279306 
L 81.624436 271.821914 
L 81.949091 241.581912 
L 82.273745 267.439306 
L 82.5984 215.724522 
L 82.923055 238.075829 
L 83.572364 203.453214 
L 83.897018 213.09496 
L 84.221673 208.274087 
L 84.546327 219.668866 
L 84.870982 205.206264 
L 85.195636 205.644524 
L 85.520291 211.34191 
L 85.844945 225.36626 
L 86.818909 189.428872 
L 87.143564 182.854957 
L 87.468218 187.237562 
L 87.792873 188.990611 
L 88.117527 200.385391 
L 88.442182 180.225395 
L 88.766836 207.397566 
L 89.091491 206.959305 
L 89.416145 222.298437 
L 89.7408 190.743653 
L 90.065455 183.731478 
L 90.390109 167.954086 
L 90.714764 188.552343 
L 91.039418 193.373216 
L 91.364073 170.145389 
L 91.688727 199.94713 
L 92.013382 161.38018 
L 92.338036 182.416697 
L 92.662691 226.242781 
L 92.987345 191.620174 
L 93.312 169.268868 
L 93.636655 171.46017 
L 94.285964 183.293218 
L 94.610618 180.663655 
L 94.935273 187.675822 
L 95.259927 158.312341 
L 95.584582 153.053216 
L 95.909236 162.694961 
L 96.233891 150.423653 
L 96.558545 155.682778 
L 96.8832 167.077566 
L 97.207855 166.201045 
L 97.532509 163.133222 
L 97.857164 131.140178 
L 98.181818 185.48452 
L 98.506473 150.423653 
L 98.831127 248.155827 
L 99.155782 244.211475 
L 99.480436 184.169739 
L 99.805091 175.842774 
L 100.129745 140.343647 
L 100.4544 144.287991 
L 100.779055 172.336691 
L 101.103709 174.527993 
L 101.428364 161.81844 
L 101.753018 163.133222 
L 102.077673 131.578438 
L 102.402327 143.84973 
L 102.726982 143.84973 
L 103.051636 128.510599 
L 103.376291 154.806257 
L 103.700945 128.948875 
L 104.0256 142.97321 
L 104.350255 134.208001 
L 104.999564 127.634078 
L 105.324218 117.115828 
L 105.973527 234.131477 
L 106.298182 136.399303 
L 106.622836 167.954086 
L 106.947491 129.825396 
L 107.272145 160.503643 
L 107.5968 159.188862 
L 107.921455 117.115828 
L 108.246109 108.350603 
L 108.570764 111.856686 
L 109.220073 149.985392 
L 109.544727 158.312341 
L 109.869382 147.79409 
L 110.194036 103.529738 
L 110.518691 148.670611 
L 110.843345 125.442776 
L 111.168 117.554088 
L 111.492655 100.900175 
L 111.817309 111.418426 
L 112.141964 110.541905 
L 112.791273 171.02191 
L 113.115927 152.614955 
L 113.765236 101.338436 
L 114.089891 101.776696 
L 114.414545 101.776696 
L 114.7392 96.955831 
L 115.063855 94.764513 
L 115.388509 146.917569 
L 115.713164 101.338436 
L 116.037818 104.406259 
L 116.687127 183.731478 
L 117.011782 147.79409 
L 117.336436 95.202774 
L 117.661091 112.294947 
L 118.3104 112.294947 
L 118.635055 98.708873 
L 118.959709 157.43582 
L 119.284364 101.776696 
L 119.609018 141.658428 
L 119.933673 99.147134 
L 120.258327 90.381909 
L 120.582982 90.820169 
L 120.907636 112.294947 
L 121.232291 86.875825 
L 121.8816 163.571482 
L 122.206255 176.281035 
L 122.530909 100.900175 
L 122.855564 166.639305 
L 123.180218 87.314086 
L 123.504873 90.381909 
L 123.829527 86.437565 
L 124.154182 86.875825 
L 124.478836 174.089733 
L 124.803491 159.627122 
L 125.128145 82.05496 
L 125.4528 178.472353 
L 125.777455 88.628867 
L 126.102109 97.832352 
L 126.426764 96.079295 
L 126.751418 95.202774 
L 127.076073 86.875825 
L 127.400727 94.764513 
L 127.725382 86.875825 
L 128.050036 92.134951 
L 128.374691 92.573211 
L 128.699345 86.875825 
L 129.024 88.190607 
L 129.348655 78.987122 
L 129.673309 84.684523 
L 129.997964 115.801046 
L 130.322618 86.437565 
L 130.647273 95.641034 
L 130.971927 118.868869 
L 131.296582 133.33148 
L 131.621236 82.05496 
L 131.945891 79.863643 
L 132.270545 87.752346 
L 132.5952 80.740179 
L 132.919855 91.25843 
L 133.244509 83.808002 
L 133.569164 103.967998 
L 133.893818 93.887992 
L 134.218473 95.641034 
L 134.543127 89.943648 
L 134.867782 78.548861 
L 135.192436 97.394092 
L 135.841745 86.437565 
L 136.1664 104.406259 
L 136.491055 96.955831 
L 136.815709 113.609744 
L 137.140364 103.091478 
L 137.465018 106.597561 
L 137.789673 87.752346 
L 138.114327 90.381909 
L 138.438982 89.067128 
L 138.763636 85.122784 
L 139.088291 77.67234 
L 139.412945 83.808002 
L 139.7376 96.079295 
L 140.062255 74.604517 
L 140.386909 89.505388 
L 140.711564 82.931481 
L 141.036218 86.437565 
L 141.360873 76.357559 
L 141.685527 100.023654 
L 142.010182 78.987122 
L 142.334836 85.561044 
L 142.659491 80.740179 
L 142.984145 97.832352 
L 143.3088 86.437565 
L 143.633455 79.863643 
L 143.958109 83.369742 
L 144.282764 82.493221 
L 144.607418 77.23408 
L 144.932073 76.795819 
L 145.256727 114.048004 
L 145.581382 78.548861 
L 145.906036 77.67234 
L 146.230691 76.357559 
L 146.555345 86.437565 
L 146.88 76.795819 
L 147.204655 76.357559 
L 147.529309 95.641034 
L 147.853964 93.449732 
L 148.178618 84.684523 
L 148.503273 128.072339 
L 148.827927 136.399303 
L 149.152582 107.035822 
L 149.801891 76.795819 
L 150.4512 100.461915 
L 150.775855 81.17844 
L 151.100509 90.820169 
L 151.749818 81.17844 
L 152.074473 87.752346 
L 152.399127 85.561044 
L 152.723782 82.05496 
L 153.048436 75.919298 
L 153.373091 93.449732 
L 153.697745 90.820169 
L 154.0224 82.05496 
L 154.347055 70.221913 
L 154.671709 71.536694 
L 154.996364 75.481038 
L 155.321018 86.437565 
L 155.645673 91.69669 
L 155.970327 83.808002 
L 156.294982 101.776696 
L 156.619636 81.6167 
L 156.944291 81.17844 
L 157.268945 76.795819 
L 157.5936 85.561044 
L 157.918255 77.67234 
L 158.242909 75.919298 
L 158.567564 78.548861 
L 158.892218 78.548861 
L 159.216873 82.931481 
L 159.541527 72.851475 
L 159.866182 73.289736 
L 160.190836 78.110601 
L 160.515491 76.795819 
L 160.840145 77.23408 
L 161.1648 87.314086 
L 161.489455 88.190607 
L 161.814109 78.110601 
L 162.138764 87.314086 
L 162.463418 73.727996 
L 162.788073 67.59235 
L 163.112727 82.493221 
L 163.437382 70.221913 
L 163.762036 83.808002 
L 164.086691 83.369742 
L 164.411345 91.25843 
L 164.736 75.042778 
L 165.060655 70.221913 
L 165.385309 95.202774 
L 165.709964 70.660173 
L 166.034618 80.301903 
L 166.359273 84.246263 
L 166.683927 79.863643 
L 167.008582 173.651472 
L 167.333236 83.808002 
L 167.657891 93.449732 
L 167.982545 85.122784 
L 168.3072 73.289736 
L 168.631855 70.660173 
L 168.956509 70.660173 
L 169.281164 78.110601 
L 169.605818 75.042778 
L 169.930473 68.907131 
L 170.255127 76.357559 
L 170.579782 73.727996 
L 170.904436 91.25843 
L 171.229091 74.166257 
L 171.553745 80.740179 
L 171.8784 72.413215 
L 172.203055 82.493221 
L 172.527709 82.05496 
L 172.852364 75.042778 
L 173.501673 83.808002 
L 173.826327 70.660173 
L 174.150982 76.795819 
L 174.475636 71.974954 
L 174.800291 70.221913 
L 175.124945 70.660173 
L 175.4496 72.851475 
L 175.774255 78.110601 
L 176.098909 69.345392 
L 176.423564 70.660173 
L 176.748218 77.67234 
L 177.072873 68.468871 
L 177.397527 86.875825 
L 177.722182 70.221913 
L 178.046836 87.314086 
L 178.371491 72.851475 
L 178.696145 66.715829 
L 179.345455 76.795819 
L 179.670109 74.166257 
L 179.994764 72.851475 
L 180.319418 80.740179 
L 180.968727 68.468871 
L 181.293382 69.783652 
L 181.618036 72.851475 
L 181.942691 78.987122 
L 182.267345 82.05496 
L 182.592 82.493221 
L 182.916655 75.042778 
L 183.241309 80.740179 
L 183.565964 73.727996 
L 183.890618 130.701917 
L 184.215273 102.653217 
L 184.539927 122.374953 
L 184.864582 83.369742 
L 185.189236 72.413215 
L 185.513891 74.604517 
L 185.838545 80.301903 
L 186.1632 78.548861 
L 186.487855 69.345392 
L 186.812509 74.166257 
L 187.137164 70.660173 
L 187.461818 70.660173 
L 187.786473 69.783652 
L 188.111127 84.246263 
L 188.435782 81.6167 
L 188.760436 89.943648 
L 189.409745 72.851475 
L 189.7344 78.987122 
L 190.059055 71.974954 
L 190.383709 68.468871 
L 190.708364 75.919298 
L 191.033018 77.67234 
L 191.357673 111.856686 
L 191.682327 80.740179 
L 192.006982 84.246263 
L 192.331636 69.345392 
L 192.656291 71.536694 
L 192.980945 68.03061 
L 193.3056 71.098434 
L 193.630255 80.301903 
L 193.954909 68.468871 
L 194.279564 71.974954 
L 194.604218 68.907131 
L 194.928873 78.548861 
L 195.253527 92.134951 
L 195.578182 77.23408 
L 195.902836 83.808002 
L 196.227491 79.425382 
L 196.552145 110.103645 
L 196.8768 68.907131 
L 197.201455 67.59235 
L 197.526109 82.931481 
L 197.850764 68.468871 
L 198.175418 68.468871 
L 198.500073 76.795819 
L 198.824727 64.962787 
L 199.149382 71.536694 
L 199.474036 89.067128 
L 199.798691 119.74539 
L 200.123345 68.468871 
L 200.772655 75.481038 
L 201.097309 67.59235 
L 201.746618 73.727996 
L 202.071273 69.345392 
L 202.395927 80.740179 
L 202.720582 71.536694 
L 203.045236 68.907131 
L 203.369891 64.524511 
L 204.0192 72.413215 
L 204.343855 63.20973 
L 204.668509 76.795819 
L 204.993164 78.548861 
L 205.317818 66.277569 
L 205.642473 65.839308 
L 205.967127 64.962787 
L 206.291782 69.345392 
L 206.616436 70.221913 
L 206.941091 67.59235 
L 207.265745 70.660173 
L 207.5904 67.15409 
L 207.915055 67.59235 
L 208.239709 73.727996 
L 208.564364 71.536694 
L 208.889018 73.727996 
L 209.213673 64.962787 
L 209.538327 70.660173 
L 209.862982 70.221913 
L 210.187636 63.64799 
L 210.512291 64.086251 
L 210.836945 69.783652 
L 211.1616 66.277569 
L 211.486255 73.289736 
L 212.135564 64.524511 
L 212.460218 71.098434 
L 212.784873 66.277569 
L 213.434182 72.851475 
L 213.758836 72.413215 
L 214.083491 63.20973 
L 214.408145 71.536694 
L 214.7328 75.042778 
L 215.057455 64.086251 
L 215.382109 71.098434 
L 215.706764 68.03061 
L 216.031418 132.893219 
L 216.356073 160.503643 
L 217.005382 66.715829 
L 217.330036 72.851475 
L 217.654691 64.524511 
L 217.979345 66.277569 
L 218.304 69.345392 
L 218.628655 64.524511 
L 218.953309 67.15409 
L 219.277964 72.851475 
L 219.602618 65.401048 
L 219.927273 63.20973 
L 220.251927 73.727996 
L 220.576582 72.413215 
L 220.901236 66.715829 
L 221.225891 63.20973 
L 221.550545 75.919298 
L 221.8752 76.795819 
L 222.199855 69.783652 
L 222.524509 73.289736 
L 222.849164 126.757557 
L 223.173818 78.548861 
L 223.498473 63.64799 
L 223.823127 85.561044 
L 224.147782 71.974954 
L 224.472436 73.727996 
L 224.797091 66.715829 
L 225.121745 71.974954 
L 225.4464 85.561044 
L 225.771055 62.771469 
L 226.095709 61.018428 
L 226.420364 68.468871 
L 226.745018 64.086251 
L 227.069673 75.919298 
L 227.394327 73.727996 
L 227.718982 83.808002 
L 228.043636 70.221913 
L 228.368291 70.221913 
L 228.692945 85.122784 
L 229.342255 64.086251 
L 229.666909 72.851475 
L 229.991564 68.907131 
L 230.316218 76.795819 
L 230.640873 68.03061 
L 230.965527 66.715829 
L 231.290182 67.59235 
L 231.614836 83.808002 
L 231.939491 66.277569 
L 232.264145 68.03061 
L 232.5888 65.839308 
L 232.913455 71.974954 
L 233.238109 99.585394 
L 233.562764 63.20973 
L 233.887418 62.333209 
L 234.212073 68.907131 
L 234.536727 63.64799 
L 234.861382 71.974954 
L 235.186036 104.406259 
L 235.510691 66.715829 
L 235.835345 70.660173 
L 236.16 68.03061 
L 236.484655 68.907131 
L 236.809309 83.808002 
L 237.458618 67.15409 
L 237.783273 71.974954 
L 238.107927 67.15409 
L 238.432582 65.401048 
L 238.757236 66.277569 
L 239.081891 71.098434 
L 239.406545 79.863643 
L 239.7312 75.919298 
L 240.055855 65.839308 
L 240.380509 69.345392 
L 240.705164 60.580167 
L 241.354473 75.481038 
L 241.679127 65.839308 
L 242.003782 71.536694 
L 242.328436 63.64799 
L 242.653091 65.401048 
L 242.977745 60.141907 
L 243.3024 64.962787 
L 243.627055 63.20973 
L 243.951709 60.580167 
L 244.601018 67.15409 
L 244.925673 60.141907 
L 245.250327 83.369742 
L 245.574982 126.319297 
L 245.899636 71.536694 
L 246.224291 62.771469 
L 246.548945 64.524511 
L 246.8736 70.660173 
L 247.198255 68.03061 
L 247.522909 62.771469 
L 247.847564 74.166257 
L 248.172218 72.413215 
L 248.821527 75.919298 
L 249.470836 60.141907 
L 249.795491 68.468871 
L 250.120145 63.64799 
L 250.4448 78.110601 
L 250.769455 72.851475 
L 251.094109 61.018428 
L 251.418764 65.839308 
L 251.743418 59.265386 
L 252.068073 63.64799 
L 252.392727 59.265386 
L 252.717382 60.580167 
L 253.366691 66.277569 
L 253.691345 64.962787 
L 254.016 64.962787 
L 254.340655 70.221913 
L 254.665309 71.098434 
L 254.989964 68.468871 
L 255.314618 62.771469 
L 255.639273 61.018428 
L 255.963927 70.221913 
L 256.288582 58.827125 
L 256.613236 63.20973 
L 256.937891 70.221913 
L 257.262545 60.580167 
L 257.5872 63.64799 
L 257.911855 62.771469 
L 258.236509 64.086251 
L 258.885818 72.851475 
L 259.210473 59.265386 
L 259.535127 62.771469 
L 259.859782 62.771469 
L 260.184436 60.141907 
L 260.509091 89.505388 
L 260.833745 60.580167 
L 261.1584 75.042778 
L 261.483055 72.851475 
L 261.807709 76.795819 
L 262.132364 62.333209 
L 262.457018 60.580167 
L 262.781673 62.333209 
L 263.106327 137.275824 
L 263.755636 71.098434 
L 264.080291 62.771469 
L 264.404945 78.987122 
L 264.7296 74.604517 
L 265.054255 78.110601 
L 265.378909 68.468871 
L 266.028218 60.141907 
L 266.352873 65.839308 
L 266.677527 68.03061 
L 267.002182 60.580167 
L 267.326836 67.15409 
L 267.651491 61.018428 
L 267.976145 68.468871 
L 268.3008 66.715829 
L 268.625455 61.894948 
L 268.950109 61.456688 
L 269.274764 62.333209 
L 269.599418 67.59235 
L 269.924073 59.703646 
L 270.248727 68.907131 
L 270.573382 83.369742 
L 270.898036 60.580167 
L 271.222691 59.265386 
L 271.547345 62.333209 
L 271.872 68.907131 
L 272.196655 62.333209 
L 272.521309 61.894948 
L 272.845964 68.03061 
L 273.170618 83.808002 
L 273.495273 72.413215 
L 274.144582 60.141907 
L 274.469236 58.827125 
L 274.793891 70.221913 
L 275.118545 59.703646 
L 275.4432 71.536694 
L 275.767855 73.727996 
L 276.092509 59.265386 
L 276.417164 61.894948 
L 276.741818 68.468871 
L 277.066473 62.771469 
L 277.391127 61.018428 
L 277.715782 71.098434 
L 278.040436 65.401048 
L 278.365091 68.907131 
L 278.689745 64.524511 
L 279.0144 71.098434 
L 279.339055 60.141907 
L 279.663709 61.456688 
L 279.988364 66.277569 
L 280.313018 74.604517 
L 280.637673 59.703646 
L 280.962327 61.018428 
L 281.286982 61.018428 
L 281.611636 64.086251 
L 281.936291 58.827125 
L 282.260945 64.086251 
L 282.5856 58.388865 
L 282.910255 57.074084 
L 283.234909 57.950604 
L 283.559564 68.468871 
L 283.884218 61.894948 
L 284.208873 65.401048 
L 284.533527 67.15409 
L 284.858182 63.20973 
L 285.182836 72.851475 
L 285.507491 61.894948 
L 285.832145 61.018428 
L 286.1568 64.524511 
L 286.481455 82.931481 
L 287.130764 64.524511 
L 287.455418 60.141907 
L 287.780073 61.456688 
L 288.104727 68.468871 
L 288.429382 57.950604 
L 288.754036 65.839308 
L 289.078691 59.703646 
L 289.403345 57.512344 
L 289.728 68.03061 
L 290.052655 65.839308 
L 290.377309 71.974954 
L 290.701964 57.950604 
L 291.351273 63.64799 
L 291.675927 61.894948 
L 292.000582 57.074084 
L 292.325236 62.333209 
L 292.649891 59.265386 
L 292.974545 64.962787 
L 293.623855 57.950604 
L 293.948509 62.333209 
L 294.273164 64.524511 
L 294.597818 57.950604 
L 294.922473 67.15409 
L 295.247127 59.265386 
L 295.896436 56.197563 
L 296.221091 63.20973 
L 296.545745 62.333209 
L 296.8704 66.715829 
L 297.195055 60.141907 
L 297.519709 56.635823 
L 297.844364 69.345392 
L 298.169018 67.59235 
L 298.493673 59.703646 
L 298.818327 57.512344 
L 299.142982 58.388865 
L 299.467636 61.894948 
L 299.792291 58.388865 
L 300.116945 58.827125 
L 300.766255 63.64799 
L 301.090909 58.827125 
L 301.415564 56.197563 
L 301.740218 57.950604 
L 302.064873 57.074084 
L 302.389527 58.388865 
L 303.038836 64.962787 
L 303.363491 64.524511 
L 303.688145 65.401048 
L 304.0128 59.265386 
L 304.337455 81.6167 
L 304.662109 56.635823 
L 304.986764 66.277569 
L 305.311418 62.333209 
L 305.636073 69.345392 
L 305.960727 59.703646 
L 306.285382 60.141907 
L 306.610036 68.468871 
L 307.259345 66.277569 
L 307.584 61.456688 
L 307.908655 61.018428 
L 308.233309 56.635823 
L 308.557964 60.580167 
L 308.882618 56.635823 
L 309.207273 64.524511 
L 309.531927 58.827125 
L 309.856582 60.141907 
L 310.505891 57.950604 
L 310.830545 68.03061 
L 311.1552 61.894948 
L 311.479855 59.703646 
L 311.804509 70.660173 
L 312.129164 66.715829 
L 312.453818 66.277569 
L 312.778473 61.456688 
L 313.103127 65.401048 
L 313.752436 57.950604 
L 314.077091 59.265386 
L 314.401745 63.64799 
L 314.7264 58.827125 
L 315.051055 58.827125 
L 315.375709 56.635823 
L 315.700364 55.759302 
L 316.349673 60.141907 
L 316.998982 68.907131 
L 317.323636 66.277569 
L 317.648291 59.703646 
L 317.972945 59.265386 
L 318.2976 58.388865 
L 318.622255 56.197563 
L 318.946909 58.827125 
L 319.271564 60.141907 
L 319.596218 60.580167 
L 320.245527 57.074084 
L 320.570182 68.03061 
L 320.894836 69.783652 
L 321.219491 66.277569 
L 321.544145 61.018428 
L 321.8688 81.17844 
L 322.193455 62.333209 
L 322.518109 67.15409 
L 322.842764 62.771469 
L 323.167418 60.141907 
L 323.492073 59.703646 
L 323.816727 71.536694 
L 324.141382 69.783652 
L 324.466036 59.265386 
L 324.790691 57.074084 
L 325.115345 62.333209 
L 325.44 61.456688 
L 325.764655 56.635823 
L 326.089309 65.401048 
L 326.413964 64.086251 
L 326.738618 64.962787 
L 327.063273 58.388865 
L 327.387927 63.20973 
L 327.712582 64.524511 
L 328.037236 55.759302 
L 328.361891 56.197563 
L 328.686545 60.141907 
L 329.0112 58.827125 
L 329.335855 71.098434 
L 329.660509 57.074084 
L 329.985164 64.524511 
L 330.309818 62.333209 
L 330.634473 71.536694 
L 330.959127 69.345392 
L 331.283782 59.703646 
L 331.608436 93.449732 
L 331.933091 70.660173 
L 332.257745 68.468871 
L 332.5824 63.64799 
L 332.907055 75.042778 
L 333.231709 62.771469 
L 333.556364 59.703646 
L 333.881018 57.950604 
L 334.205673 57.074084 
L 334.530327 58.388865 
L 334.854982 57.512344 
L 335.179636 57.512344 
L 335.504291 65.401048 
L 335.828945 56.197563 
L 336.1536 71.536694 
L 336.478255 62.333209 
L 336.802909 74.166257 
L 337.127564 59.265386 
L 337.452218 58.827125 
L 337.776873 66.277569 
L 338.101527 64.086251 
L 338.426182 71.536694 
L 338.750836 60.580167 
L 339.075491 65.839308 
L 339.400145 58.827125 
L 339.7248 57.074084 
L 340.049455 58.827125 
L 340.374109 56.635823 
L 341.023418 62.771469 
L 341.348073 64.086251 
L 341.672727 58.388865 
L 341.997382 57.512344 
L 342.322036 62.771469 
L 342.646691 58.827125 
L 342.971345 74.166257 
L 343.296 61.894948 
L 343.620655 59.703646 
L 343.945309 58.388865 
L 344.269964 64.524511 
L 344.594618 62.771469 
L 344.919273 62.333209 
L 345.243927 63.20973 
L 345.568582 54.882781 
L 345.893236 60.141907 
L 346.217891 68.468871 
L 346.542545 54.882781 
L 346.8672 67.15409 
L 347.516509 65.401048 
L 347.841164 62.771469 
L 348.165818 56.197563 
L 348.490473 70.660173 
L 348.815127 66.715829 
L 349.139782 59.703646 
L 349.464436 66.715829 
L 349.789091 58.388865 
L 350.113745 63.20973 
L 350.4384 58.827125 
L 350.763055 71.536694 
L 351.087709 59.265386 
L 351.412364 64.086251 
L 351.737018 57.074084 
L 352.061673 56.635823 
L 352.386327 60.141907 
L 352.710982 55.759302 
L 353.035636 67.15409 
L 353.360291 60.580167 
L 353.684945 60.580167 
L 354.0096 65.401048 
L 354.334255 57.950604 
L 354.658909 57.512344 
L 354.983564 60.141907 
L 355.308218 59.703646 
L 355.632873 69.345392 
L 355.957527 63.20973 
L 356.282182 59.703646 
L 356.606836 64.524511 
L 356.931491 56.635823 
L 357.256145 55.759302 
L 357.905455 61.894948 
L 358.230109 57.074084 
L 358.554764 65.401048 
L 358.879418 54.882781 
L 359.204073 57.950604 
L 359.528727 65.401048 
L 359.853382 60.580167 
L 360.178036 57.512344 
L 360.502691 56.197563 
L 360.827345 55.759302 
L 361.152 57.074084 
L 361.476655 65.839308 
L 362.125964 58.827125 
L 362.775273 64.524511 
L 363.099927 74.166257 
L 363.424582 63.64799 
L 363.749236 60.141907 
L 364.073891 61.018428 
L 364.398545 56.197563 
L 364.7232 62.771469 
L 365.047855 61.894948 
L 365.372509 61.456688 
L 365.697164 64.086251 
L 366.021818 68.03061 
L 366.346473 59.265386 
L 366.671127 66.277569 
L 366.995782 92.573211 
L 367.320436 56.635823 
L 367.645091 57.950604 
L 367.969745 60.580167 
L 368.2944 61.456688 
L 368.619055 69.345392 
L 368.943709 57.074084 
L 369.268364 68.907131 
L 369.593018 61.894948 
L 369.917673 60.580167 
L 370.242327 56.635823 
L 370.566982 61.894948 
L 370.891636 59.265386 
L 371.216291 61.018428 
L 371.540945 55.759302 
L 371.8656 62.771469 
L 372.190255 62.771469 
L 372.839564 68.468871 
L 373.164218 56.635823 
L 373.488873 66.715829 
L 373.813527 66.715829 
L 374.138182 65.839308 
L 374.462836 72.413215 
L 374.787491 55.759302 
L 375.4368 59.703646 
L 375.761455 55.759302 
L 376.086109 57.074084 
L 376.410764 60.141907 
L 376.735418 61.018428 
L 377.060073 57.950604 
L 377.384727 57.512344 
L 377.709382 55.321042 
L 378.358691 59.703646 
L 378.683345 54.882781 
L 379.008 69.783652 
L 379.332655 57.512344 
L 379.657309 61.894948 
L 379.981964 59.265386 
L 380.306618 63.64799 
L 380.955927 67.59235 
L 381.280582 64.524511 
L 381.605236 55.321042 
L 381.929891 54.882781 
L 382.254545 61.018428 
L 382.5792 54.444521 
L 382.903855 63.20973 
L 383.228509 59.265386 
L 383.553164 58.388865 
L 383.877818 60.580167 
L 384.202473 56.635823 
L 384.527127 55.321042 
L 384.851782 55.759302 
L 385.176436 68.03061 
L 385.501091 56.197563 
L 385.825745 63.20973 
L 386.1504 54.882781 
L 386.475055 54.882781 
L 386.799709 68.468871 
L 387.124364 54.882781 
L 387.449018 69.345392 
L 388.098327 56.635823 
L 388.422982 65.839308 
L 389.072291 57.074084 
L 389.396945 54.882781 
L 389.7216 55.321042 
L 390.046255 55.321042 
L 390.370909 61.456688 
L 390.695564 56.197563 
L 391.020218 55.759302 
L 391.344873 59.703646 
L 391.669527 69.345392 
L 391.994182 57.074084 
L 392.318836 57.074084 
L 392.643491 60.141907 
L 392.968145 54.444521 
L 393.2928 55.321042 
L 393.617455 57.512344 
L 393.942109 53.568 
L 394.266764 57.512344 
L 394.591418 54.444521 
L 394.916073 54.882781 
L 395.240727 61.018428 
L 395.565382 55.321042 
L 395.890036 60.141907 
L 396.214691 55.759302 
L 396.539345 58.388865 
L 396.864 57.950604 
L 397.188655 58.827125 
L 397.513309 61.456688 
L 397.837964 56.635823 
L 398.487273 60.580167 
L 398.487273 60.580167 
" clip-path="url(#pd5f307ded4)" style="fill: none; stroke: #1f77b4; stroke-width: 1.5; stroke-linecap: square"/>
   </g>
   <g id="patch_3">
    <path d="M 57.6 307.584 
L 57.6 41.472 
" style="fill: none; stroke: #000000; stroke-width: 0.8; stroke-linejoin: miter; stroke-linecap: square"/>
   </g>
   <g id="patch_4">
    <path d="M 414.72 307.584 
L 414.72 41.472 
" style="fill: none; stroke: #000000; stroke-width: 0.8; stroke-linejoin: miter; stroke-linecap: square"/>
   </g>
   <g id="patch_5">
    <path d="M 57.6 307.584 
L 414.72 307.584 
" style="fill: none; stroke: #000000; stroke-width: 0.8; stroke-linejoin: miter; stroke-linecap: square"/>
   </g>
   <g id="patch_6">
    <path d="M 57.6 41.472 
L 414.72 41.472 
" style="fill: none; stroke: #000000; stroke-width: 0.8; stroke-linejoin: miter; stroke-linecap: square"/>
   </g>
  </g>
 </g>
 <defs>
  <clipPath id="pd5f307ded4">
   <rect x="57.6" y="41.472" width="357.12" height="266.112"/>
  </clipPath>
 </defs>
</svg>
