<?xml version="1.0" encoding="utf-8" standalone="no"?>
<!DOCTYPE svg PUBLIC "-//W3C//DTD SVG 1.1//EN"
  "http://www.w3.org/Graphics/SVG/1.1/DTD/svg11.dtd">
<svg xmlns:xlink="http://www.w3.org/1999/xlink" width="460.8pt" height="345.6pt" viewBox="0 0 460.8 345.6" xmlns="http://www.w3.org/2000/svg" version="1.1">
 <metadata>
  <rdf:RDF xmlns:dc="http://purl.org/dc/elements/1.1/" xmlns:cc="http://creativecommons.org/ns#" xmlns:rdf="http://www.w3.org/1999/02/22-rdf-syntax-ns#">
   <cc:Work>
    <dc:type rdf:resource="http://purl.org/dc/dcmitype/StillImage"/>
    <dc:date>2026-05-31T16:16:14.248907</dc:date>
    <dc:format>image/svg+xml</dc:format>
    <dc:creator>
     <cc:Agent>
      <dc:title>Matplotlib v3.10.8, https://matplotlib.org/</dc:title>
     </cc:Agent>
    </dc:creator>
   </cc:Work>
  </rdf:RDF>
 </metadata>
 <defs>
  <style type="text/css">*{stroke-linejoin: round; stroke-linecap: butt}</style>
 </defs>
 <g id="figure_1">
  <g id="patch_1">
   <path d="M 0 345.6 
L 460.8 345.6 
L 460.8 0 
L 0 0 
z
" style="fill: #ffffff"/>
  </g>
  <g id="axes_1">
   <g id="patch_2">
    <path d="M 57.6 307.584 
L 414.72 307.584 
L 414.72 41.472 
L 57.6 41.472 
z
" style="fill: #ffffff"/>
   </g>
   <g id="matplotlib.axis_1">
    <g id="xtick_1">
     <g id="line2d_1">
      <defs>
       <path id="m5f79671f2a" d="M 0 0 
L 0 3.5 
" style="stroke: #000000; stroke-width: 0.8"/>
      </defs>
      <g>
       <use xlink:href="#m5f79671f2a" x="73.832727" y="307.584" style="stroke: #000000; stroke-width: 0.8"/>
      </g>
     </g>
     <g id="text_1">
      <!-- 0 -->
      <g transform="translate(70.651477 322.182437) scale(0.1 -0.1)">
       <defs>
        <path id="DejaVuSans-30" d="M 2034 4250 
Q 1547 4250 1301 3770 
Q 1056 3291 1056 2328 
Q 1056 1369 1301 889 
Q 1547 409 2034 409 
Q 2525 409 2770 889 
Q 3016 1369 3016 2328 
Q 3016 3291 2770 3770 
Q 2525 4250 2034 4250 
z
M 2034 4750 
Q 2819 4750 3233 4129 
Q 3647 3509 3647 2328 
Q 3647 1150 3233 529 
Q 2819 -91 2034 -91 
Q 1250 -91 836 529 
Q 422 1150 422 2328 
Q 422 3509 836 4129 
Q 1250 4750 2034 4750 
z
" transform="scale(0.015625)"/>
       </defs>
       <use xlink:href="#DejaVuSans-30"/>
      </g>
     </g>
    </g>
    <g id="xtick_2">
     <g id="line2d_2">
      <g>
       <use xlink:href="#m5f79671f2a" x="138.763636" y="307.584" style="stroke: #000000; stroke-width: 0.8"/>
      </g>
     </g>
     <g id="text_2">
      <!-- 200 -->
      <g transform="translate(129.219886 322.182437) scale(0.1 -0.1)">
       <defs>
        <path id="DejaVuSans-32" d="M 1228 531 
L 3431 531 
L 3431 0 
L 469 0 
L 469 531 
Q 828 903 1448 1529 
Q 2069 2156 2228 2338 
Q 2531 2678 2651 2914 
Q 2772 3150 2772 3378 
Q 2772 3750 2511 3984 
Q 2250 4219 1831 4219 
Q 1534 4219 1204 4116 
Q 875 4013 500 3803 
L 500 4441 
Q 881 4594 1212 4672 
Q 1544 4750 1819 4750 
Q 2544 4750 2975 4387 
Q 3406 4025 3406 3419 
Q 3406 3131 3298 2873 
Q 3191 2616 2906 2266 
Q 2828 2175 2409 1742 
Q 1991 1309 1228 531 
z
" transform="scale(0.015625)"/>
       </defs>
       <use xlink:href="#DejaVuSans-32"/>
       <use xlink:href="#DejaVuSans-30" transform="translate(63.623047 0)"/>
       <use xlink:href="#DejaVuSans-30" transform="translate(127.246094 0)"/>
      </g>
     </g>
    </g>
    <g id="xtick_3">
     <g id="line2d_3">
      <g>
       <use xlink:href="#m5f79671f2a" x="203.694545" y="307.584" style="stroke: #000000; stroke-width: 0.8"/>
      </g>
     </g>
     <g id="text_3">
      <!-- 400 -->
      <g transform="translate(194.150795 322.182437) scale(0.1 -0.1)">
       <defs>
        <path id="DejaVuSans-34" d="M 2419 4116 
L 825 1625 
L 2419 1625 
L 2419 4116 
z
M 2253 4666 
L 3047 4666 
L 3047 1625 
L 3713 1625 
L 3713 1100 
L 3047 1100 
L 3047 0 
L 2419 0 
L 2419 1100 
L 313 1100 
L 313 1709 
L 2253 4666 
z
" transform="scale(0.015625)"/>
       </defs>
       <use xlink:href="#DejaVuSans-34"/>
       <use xlink:href="#DejaVuSans-30" transform="translate(63.623047 0)"/>
       <use xlink:href="#DejaVuSans-30" transform="translate(127.246094 0)"/>
      </g>
     </g>
    </g>
    <g id="xtick_4">
     <g id="line2d_4">
      <g>
       <use xlink:href="#m5f79671f2a" x="268.625455" y="307.584" style="stroke: #000000; stroke-width: 0.8"/>
      </g>
     </g>
     <g id="text_4">
      <!-- 600 -->
      <g transform="translate(259.081705 322.182437) scale(0.1 -0.1)">
       <defs>
        <path id="DejaVuSans-36" d="M 2113 2584 
Q 1688 2584 1439 2293 
Q 1191 2003 1191 1497 
Q 1191 994 1439 701 
Q 1688 409 2113 409 
Q 2538 409 2786 701 
Q 3034 994 3034 1497 
Q 3034 2003 2786 2293 
Q 2538 2584 2113 2584 
z
M 3366 4563 
L 3366 3988 
Q 3128 4100 2886 4159 
Q 2644 4219 2406 4219 
Q 1781 4219 1451 3797 
Q 1122 3375 1075 2522 
Q 1259 2794 1537 2939 
Q 1816 3084 2150 3084 
Q 2853 3084 3261 2657 
Q 3669 2231 3669 1497 
Q 3669 778 3244 343 
Q 2819 -91 2113 -91 
Q 1303 -91 875 529 
Q 447 1150 447 2328 
Q 447 3434 972 4092 
Q 1497 4750 2381 4750 
Q 2619 4750 2861 4703 
Q 3103 4656 3366 4563 
z
" transform="scale(0.015625)"/>
       </defs>
       <use xlink:href="#DejaVuSans-36"/>
       <use xlink:href="#DejaVuSans-30" transform="translate(63.623047 0)"/>
       <use xlink:href="#DejaVuSans-30" transform="translate(127.246094 0)"/>
      </g>
     </g>
    </g>
    <g id="xtick_5">
     <g id="line2d_5">
      <g>
       <use xlink:href="#m5f79671f2a" x="333.556364" y="307.584" style="stroke: #000000; stroke-width: 0.8"/>
      </g>
     </g>
     <g id="text_5">
      <!-- 800 -->
      <g transform="translate(324.012614 322.182437) scale(0.1 -0.1)">
       <defs>
        <path id="DejaVuSans-38" d="M 2034 2216 
Q 1584 2216 1326 1975 
Q 1069 1734 1069 1313 
Q 1069 891 1326 650 
Q 1584 409 2034 409 
Q 2484 409 2743 651 
Q 3003 894 3003 1313 
Q 3003 1734 2745 1975 
Q 2488 2216 2034 2216 
z
M 1403 2484 
Q 997 2584 770 2862 
Q 544 3141 544 3541 
Q 544 4100 942 4425 
Q 1341 4750 2034 4750 
Q 2731 4750 3128 4425 
Q 3525 4100 3525 3541 
Q 3525 3141 3298 2862 
Q 3072 2584 2669 2484 
Q 3125 2378 3379 2068 
Q 3634 1759 3634 1313 
Q 3634 634 3220 271 
Q 2806 -91 2034 -91 
Q 1263 -91 848 271 
Q 434 634 434 1313 
Q 434 1759 690 2068 
Q 947 2378 1403 2484 
z
M 1172 3481 
Q 1172 3119 1398 2916 
Q 1625 2713 2034 2713 
Q 2441 2713 2670 2916 
Q 2900 3119 2900 3481 
Q 2900 3844 2670 4047 
Q 2441 4250 2034 4250 
Q 1625 4250 1398 4047 
Q 1172 3844 1172 3481 
z
" transform="scale(0.015625)"/>
       </defs>
       <use xlink:href="#DejaVuSans-38"/>
       <use xlink:href="#DejaVuSans-30" transform="translate(63.623047 0)"/>
       <use xlink:href="#DejaVuSans-30" transform="translate(127.246094 0)"/>
      </g>
     </g>
    </g>
    <g id="xtick_6">
     <g id="line2d_6">
      <g>
       <use xlink:href="#m5f79671f2a" x="398.487273" y="307.584" style="stroke: #000000; stroke-width: 0.8"/>
      </g>
     </g>
     <g id="text_6">
      <!-- 1000 -->
      <g transform="translate(385.762273 322.182437) scale(0.1 -0.1)">
       <defs>
        <path id="DejaVuSans-31" d="M 794 531 
L 1825 531 
L 1825 4091 
L 703 3866 
L 703 4441 
L 1819 4666 
L 2450 4666 
L 2450 531 
L 3481 531 
L 3481 0 
L 794 0 
L 794 531 
z
" transform="scale(0.015625)"/>
       </defs>
       <use xlink:href="#DejaVuSans-31"/>
       <use xlink:href="#DejaVuSans-30" transform="translate(63.623047 0)"/>
       <use xlink:href="#DejaVuSans-30" transform="translate(127.246094 0)"/>
       <use xlink:href="#DejaVuSans-30" transform="translate(190.869141 0)"/>
      </g>
     </g>
    </g>
    <g id="text_7">
     <!-- Epochs -->
     <g transform="translate(218.244375 335.860562) scale(0.1 -0.1)">
      <defs>
       <path id="DejaVuSans-45" d="M 628 4666 
L 3578 4666 
L 3578 4134 
L 1259 4134 
L 1259 2753 
L 3481 2753 
L 3481 2222 
L 1259 2222 
L 1259 531 
L 3634 531 
L 3634 0 
L 628 0 
L 628 4666 
z
" transform="scale(0.015625)"/>
       <path id="DejaVuSans-70" d="M 1159 525 
L 1159 -1331 
L 581 -1331 
L 581 3500 
L 1159 3500 
L 1159 2969 
Q 1341 3281 1617 3432 
Q 1894 3584 2278 3584 
Q 2916 3584 3314 3078 
Q 3713 2572 3713 1747 
Q 3713 922 3314 415 
Q 2916 -91 2278 -91 
Q 1894 -91 1617 61 
Q 1341 213 1159 525 
z
M 3116 1747 
Q 3116 2381 2855 2742 
Q 2594 3103 2138 3103 
Q 1681 3103 1420 2742 
Q 1159 2381 1159 1747 
Q 1159 1113 1420 752 
Q 1681 391 2138 391 
Q 2594 391 2855 752 
Q 3116 1113 3116 1747 
z
" transform="scale(0.015625)"/>
       <path id="DejaVuSans-6f" d="M 1959 3097 
Q 1497 3097 1228 2736 
Q 959 2375 959 1747 
Q 959 1119 1226 758 
Q 1494 397 1959 397 
Q 2419 397 2687 759 
Q 2956 1122 2956 1747 
Q 2956 2369 2687 2733 
Q 2419 3097 1959 3097 
z
M 1959 3584 
Q 2709 3584 3137 3096 
Q 3566 2609 3566 1747 
Q 3566 888 3137 398 
Q 2709 -91 1959 -91 
Q 1206 -91 779 398 
Q 353 888 353 1747 
Q 353 2609 779 3096 
Q 1206 3584 1959 3584 
z
" transform="scale(0.015625)"/>
       <path id="DejaVuSans-63" d="M 3122 3366 
L 3122 2828 
Q 2878 2963 2633 3030 
Q 2388 3097 2138 3097 
Q 1578 3097 1268 2742 
Q 959 2388 959 1747 
Q 959 1106 1268 751 
Q 1578 397 2138 397 
Q 2388 397 2633 464 
Q 2878 531 3122 666 
L 3122 134 
Q 2881 22 2623 -34 
Q 2366 -91 2075 -91 
Q 1284 -91 818 406 
Q 353 903 353 1747 
Q 353 2603 823 3093 
Q 1294 3584 2113 3584 
Q 2378 3584 2631 3529 
Q 2884 3475 3122 3366 
z
" transform="scale(0.015625)"/>
       <path id="DejaVuSans-68" d="M 3513 2113 
L 3513 0 
L 2938 0 
L 2938 2094 
Q 2938 2591 2744 2837 
Q 2550 3084 2163 3084 
Q 1697 3084 1428 2787 
Q 1159 2491 1159 1978 
L 1159 0 
L 581 0 
L 581 4863 
L 1159 4863 
L 1159 2956 
Q 1366 3272 1645 3428 
Q 1925 3584 2291 3584 
Q 2894 3584 3203 3211 
Q 3513 2838 3513 2113 
z
" transform="scale(0.015625)"/>
       <path id="DejaVuSans-73" d="M 2834 3397 
L 2834 2853 
Q 2591 2978 2328 3040 
Q 2066 3103 1784 3103 
Q 1356 3103 1142 2972 
Q 928 2841 928 2578 
Q 928 2378 1081 2264 
Q 1234 2150 1697 2047 
L 1894 2003 
Q 2506 1872 2764 1633 
Q 3022 1394 3022 966 
Q 3022 478 2636 193 
Q 2250 -91 1575 -91 
Q 1294 -91 989 -36 
Q 684 19 347 128 
L 347 722 
Q 666 556 975 473 
Q 1284 391 1588 391 
Q 1994 391 2212 530 
Q 2431 669 2431 922 
Q 2431 1156 2273 1281 
Q 2116 1406 1581 1522 
L 1381 1569 
Q 847 1681 609 1914 
Q 372 2147 372 2553 
Q 372 3047 722 3315 
Q 1072 3584 1716 3584 
Q 2034 3584 2315 3537 
Q 2597 3491 2834 3397 
z
" transform="scale(0.015625)"/>
      </defs>
      <use xlink:href="#DejaVuSans-45"/>
      <use xlink:href="#DejaVuSans-70" transform="translate(63.183594 0)"/>
      <use xlink:href="#DejaVuSans-6f" transform="translate(126.660156 0)"/>
      <use xlink:href="#DejaVuSans-63" transform="translate(187.841797 0)"/>
      <use xlink:href="#DejaVuSans-68" transform="translate(242.822266 0)"/>
      <use xlink:href="#DejaVuSans-73" transform="translate(306.201172 0)"/>
     </g>
    </g>
   </g>
   <g id="matplotlib.axis_2">
    <g id="ytick_1">
     <g id="line2d_7">
      <defs>
       <path id="m8b317fb248" d="M 0 0 
L -3.5 0 
" style="stroke: #000000; stroke-width: 0.8"/>
      </defs>
      <g>
       <use xlink:href="#m8b317fb248" x="57.6" y="261.671226" style="stroke: #000000; stroke-width: 0.8"/>
      </g>
     </g>
     <g id="text_8">
      <!-- 20 -->
      <g transform="translate(37.875 265.470445) scale(0.1 -0.1)">
       <use xlink:href="#DejaVuSans-32"/>
       <use xlink:href="#DejaVuSans-30" transform="translate(63.623047 0)"/>
      </g>
     </g>
    </g>
    <g id="ytick_2">
     <g id="line2d_8">
      <g>
       <use xlink:href="#m8b317fb248" x="57.6" y="209.645419" style="stroke: #000000; stroke-width: 0.8"/>
      </g>
     </g>
     <g id="text_9">
      <!-- 40 -->
      <g transform="translate(37.875 213.444638) scale(0.1 -0.1)">
       <use xlink:href="#DejaVuSans-34"/>
       <use xlink:href="#DejaVuSans-30" transform="translate(63.623047 0)"/>
      </g>
     </g>
    </g>
    <g id="ytick_3">
     <g id="line2d_9">
      <g>
       <use xlink:href="#m8b317fb248" x="57.6" y="157.619613" style="stroke: #000000; stroke-width: 0.8"/>
      </g>
     </g>
     <g id="text_10">
      <!-- 60 -->
      <g transform="translate(37.875 161.418832) scale(0.1 -0.1)">
       <use xlink:href="#DejaVuSans-36"/>
       <use xlink:href="#DejaVuSans-30" transform="translate(63.623047 0)"/>
      </g>
     </g>
    </g>
    <g id="ytick_4">
     <g id="line2d_10">
      <g>
       <use xlink:href="#m8b317fb248" x="57.6" y="105.593806" style="stroke: #000000; stroke-width: 0.8"/>
      </g>
     </g>
     <g id="text_11">
      <!-- 80 -->
      <g transform="translate(37.875 109.393025) scale(0.1 -0.1)">
       <use xlink:href="#DejaVuSans-38"/>
       <use xlink:href="#DejaVuSans-30" transform="translate(63.623047 0)"/>
      </g>
     </g>
    </g>
    <g id="ytick_5">
     <g id="line2d_11">
      <g>
       <use xlink:href="#m8b317fb248" x="57.6" y="53.568" style="stroke: #000000; stroke-width: 0.8"/>
      </g>
     </g>
     <g id="text_12">
      <!-- 100 -->
      <g transform="translate(31.5125 57.367219) scale(0.1 -0.1)">
       <use xlink:href="#DejaVuSans-31"/>
       <use xlink:href="#DejaVuSans-30" transform="translate(63.623047 0)"/>
       <use xlink:href="#DejaVuSans-30" transform="translate(127.246094 0)"/>
      </g>
     </g>
    </g>
    <g id="text_13">
     <!-- Accuracy within 5% (%) -->
     <g transform="translate(25.432812 233.872531) rotate(-90) scale(0.1 -0.1)">
      <defs>
       <path id="DejaVuSans-41" d="M 2188 4044 
L 1331 1722 
L 3047 1722 
L 2188 4044 
z
M 1831 4666 
L 2547 4666 
L 4325 0 
L 3669 0 
L 3244 1197 
L 1141 1197 
L 716 0 
L 50 0 
L 1831 4666 
z
" transform="scale(0.015625)"/>
       <path id="DejaVuSans-75" d="M 544 1381 
L 544 3500 
L 1119 3500 
L 1119 1403 
Q 1119 906 1312 657 
Q 1506 409 1894 409 
Q 2359 409 2629 706 
Q 2900 1003 2900 1516 
L 2900 3500 
L 3475 3500 
L 3475 0 
L 2900 0 
L 2900 538 
Q 2691 219 2414 64 
Q 2138 -91 1772 -91 
Q 1169 -91 856 284 
Q 544 659 544 1381 
z
M 1991 3584 
L 1991 3584 
z
" transform="scale(0.015625)"/>
       <path id="DejaVuSans-72" d="M 2631 2963 
Q 2534 3019 2420 3045 
Q 2306 3072 2169 3072 
Q 1681 3072 1420 2755 
Q 1159 2438 1159 1844 
L 1159 0 
L 581 0 
L 581 3500 
L 1159 3500 
L 1159 2956 
Q 1341 3275 1631 3429 
Q 1922 3584 2338 3584 
Q 2397 3584 2469 3576 
Q 2541 3569 2628 3553 
L 2631 2963 
z
" transform="scale(0.015625)"/>
       <path id="DejaVuSans-61" d="M 2194 1759 
Q 1497 1759 1228 1600 
Q 959 1441 959 1056 
Q 959 750 1161 570 
Q 1363 391 1709 391 
Q 2188 391 2477 730 
Q 2766 1069 2766 1631 
L 2766 1759 
L 2194 1759 
z
M 3341 1997 
L 3341 0 
L 2766 0 
L 2766 531 
Q 2569 213 2275 61 
Q 1981 -91 1556 -91 
Q 1019 -91 701 211 
Q 384 513 384 1019 
Q 384 1609 779 1909 
Q 1175 2209 1959 2209 
L 2766 2209 
L 2766 2266 
Q 2766 2663 2505 2880 
Q 2244 3097 1772 3097 
Q 1472 3097 1187 3025 
Q 903 2953 641 2809 
L 641 3341 
Q 956 3463 1253 3523 
Q 1550 3584 1831 3584 
Q 2591 3584 2966 3190 
Q 3341 2797 3341 1997 
z
" transform="scale(0.015625)"/>
       <path id="DejaVuSans-79" d="M 2059 -325 
Q 1816 -950 1584 -1140 
Q 1353 -1331 966 -1331 
L 506 -1331 
L 506 -850 
L 844 -850 
Q 1081 -850 1212 -737 
Q 1344 -625 1503 -206 
L 1606 56 
L 191 3500 
L 800 3500 
L 1894 763 
L 2988 3500 
L 3597 3500 
L 2059 -325 
z
" transform="scale(0.015625)"/>
       <path id="DejaVuSans-20" transform="scale(0.015625)"/>
       <path id="DejaVuSans-77" d="M 269 3500 
L 844 3500 
L 1563 769 
L 2278 3500 
L 2956 3500 
L 3675 769 
L 4391 3500 
L 4966 3500 
L 4050 0 
L 3372 0 
L 2619 2869 
L 1863 0 
L 1184 0 
L 269 3500 
z
" transform="scale(0.015625)"/>
       <path id="DejaVuSans-69" d="M 603 3500 
L 1178 3500 
L 1178 0 
L 603 0 
L 603 3500 
z
M 603 4863 
L 1178 4863 
L 1178 4134 
L 603 4134 
L 603 4863 
z
" transform="scale(0.015625)"/>
       <path id="DejaVuSans-74" d="M 1172 4494 
L 1172 3500 
L 2356 3500 
L 2356 3053 
L 1172 3053 
L 1172 1153 
Q 1172 725 1289 603 
Q 1406 481 1766 481 
L 2356 481 
L 2356 0 
L 1766 0 
Q 1100 0 847 248 
Q 594 497 594 1153 
L 594 3053 
L 172 3053 
L 172 3500 
L 594 3500 
L 594 4494 
L 1172 4494 
z
" transform="scale(0.015625)"/>
       <path id="DejaVuSans-6e" d="M 3513 2113 
L 3513 0 
L 2938 0 
L 2938 2094 
Q 2938 2591 2744 2837 
Q 2550 3084 2163 3084 
Q 1697 3084 1428 2787 
Q 1159 2491 1159 1978 
L 1159 0 
L 581 0 
L 581 3500 
L 1159 3500 
L 1159 2956 
Q 1366 3272 1645 3428 
Q 1925 3584 2291 3584 
Q 2894 3584 3203 3211 
Q 3513 2838 3513 2113 
z
" transform="scale(0.015625)"/>
       <path id="DejaVuSans-35" d="M 691 4666 
L 3169 4666 
L 3169 4134 
L 1269 4134 
L 1269 2991 
Q 1406 3038 1543 3061 
Q 1681 3084 1819 3084 
Q 2600 3084 3056 2656 
Q 3513 2228 3513 1497 
Q 3513 744 3044 326 
Q 2575 -91 1722 -91 
Q 1428 -91 1123 -41 
Q 819 9 494 109 
L 494 744 
Q 775 591 1075 516 
Q 1375 441 1709 441 
Q 2250 441 2565 725 
Q 2881 1009 2881 1497 
Q 2881 1984 2565 2268 
Q 2250 2553 1709 2553 
Q 1456 2553 1204 2497 
Q 953 2441 691 2322 
L 691 4666 
z
" transform="scale(0.015625)"/>
       <path id="DejaVuSans-25" d="M 4653 2053 
Q 4381 2053 4226 1822 
Q 4072 1591 4072 1178 
Q 4072 772 4226 539 
Q 4381 306 4653 306 
Q 4919 306 5073 539 
Q 5228 772 5228 1178 
Q 5228 1588 5073 1820 
Q 4919 2053 4653 2053 
z
M 4653 2450 
Q 5147 2450 5437 2106 
Q 5728 1763 5728 1178 
Q 5728 594 5436 251 
Q 5144 -91 4653 -91 
Q 4153 -91 3862 251 
Q 3572 594 3572 1178 
Q 3572 1766 3864 2108 
Q 4156 2450 4653 2450 
z
M 1428 4353 
Q 1159 4353 1004 4120 
Q 850 3888 850 3481 
Q 850 3069 1003 2837 
Q 1156 2606 1428 2606 
Q 1700 2606 1854 2837 
Q 2009 3069 2009 3481 
Q 2009 3884 1853 4118 
Q 1697 4353 1428 4353 
z
M 4250 4750 
L 4750 4750 
L 1831 -91 
L 1331 -91 
L 4250 4750 
z
M 1428 4750 
Q 1922 4750 2215 4408 
Q 2509 4066 2509 3481 
Q 2509 2891 2217 2550 
Q 1925 2209 1428 2209 
Q 931 2209 642 2551 
Q 353 2894 353 3481 
Q 353 4063 643 4406 
Q 934 4750 1428 4750 
z
" transform="scale(0.015625)"/>
       <path id="DejaVuSans-28" d="M 1984 4856 
Q 1566 4138 1362 3434 
Q 1159 2731 1159 2009 
Q 1159 1288 1364 580 
Q 1569 -128 1984 -844 
L 1484 -844 
Q 1016 -109 783 600 
Q 550 1309 550 2009 
Q 550 2706 781 3412 
Q 1013 4119 1484 4856 
L 1984 4856 
z
" transform="scale(0.015625)"/>
       <path id="DejaVuSans-29" d="M 513 4856 
L 1013 4856 
Q 1481 4119 1714 3412 
Q 1947 2706 1947 2009 
Q 1947 1309 1714 600 
Q 1481 -109 1013 -844 
L 513 -844 
Q 928 -128 1133 580 
Q 1338 1288 1338 2009 
Q 1338 2731 1133 3434 
Q 928 4138 513 4856 
z
" transform="scale(0.015625)"/>
      </defs>
      <use xlink:href="#DejaVuSans-41"/>
      <use xlink:href="#DejaVuSans-63" transform="translate(66.658203 0)"/>
      <use xlink:href="#DejaVuSans-63" transform="translate(121.638672 0)"/>
      <use xlink:href="#DejaVuSans-75" transform="translate(176.619141 0)"/>
      <use xlink:href="#DejaVuSans-72" transform="translate(239.998047 0)"/>
      <use xlink:href="#DejaVuSans-61" transform="translate(281.111328 0)"/>
      <use xlink:href="#DejaVuSans-63" transform="translate(342.390625 0)"/>
      <use xlink:href="#DejaVuSans-79" transform="translate(397.371094 0)"/>
      <use xlink:href="#DejaVuSans-20" transform="translate(456.550781 0)"/>
      <use xlink:href="#DejaVuSans-77" transform="translate(488.337891 0)"/>
      <use xlink:href="#DejaVuSans-69" transform="translate(570.125 0)"/>
      <use xlink:href="#DejaVuSans-74" transform="translate(597.908203 0)"/>
      <use xlink:href="#DejaVuSans-68" transform="translate(637.117188 0)"/>
      <use xlink:href="#DejaVuSans-69" transform="translate(700.496094 0)"/>
      <use xlink:href="#DejaVuSans-6e" transform="translate(728.279297 0)"/>
      <use xlink:href="#DejaVuSans-20" transform="translate(791.658203 0)"/>
      <use xlink:href="#DejaVuSans-35" transform="translate(823.445312 0)"/>
      <use xlink:href="#DejaVuSans-25" transform="translate(887.068359 0)"/>
      <use xlink:href="#DejaVuSans-20" transform="translate(982.087891 0)"/>
      <use xlink:href="#DejaVuSans-28" transform="translate(1013.875 0)"/>
      <use xlink:href="#DejaVuSans-25" transform="translate(1052.888672 0)"/>
      <use xlink:href="#DejaVuSans-29" transform="translate(1147.908203 0)"/>
     </g>
    </g>
   </g>
   <g id="line2d_12">
    <path d="M 73.832727 295.488 
L 74.157382 289.418323 
L 74.482036 290.285419 
L 74.806691 292.45316 
L 75.131345 292.019612 
L 75.456 288.117677 
L 75.780655 291.586064 
L 76.105309 287.250581 
L 76.429964 292.019612 
L 76.754618 285.082839 
L 77.079273 291.586064 
L 77.403927 285.516387 
L 77.728582 284.215741 
L 78.053236 284.649289 
L 78.377891 283.782193 
L 78.702545 284.649289 
L 79.351855 280.747355 
L 79.676509 277.278968 
L 80.001164 279.446708 
L 80.325818 279.880256 
L 80.650473 262.971869 
L 80.975127 267.740901 
L 81.299782 244.329287 
L 81.624436 255.601546 
L 81.949091 238.693163 
L 82.273745 260.370581 
L 82.923055 220.484125 
L 83.247709 221.784769 
L 83.572364 236.525415 
L 83.897018 220.050577 
L 84.221673 231.32284 
L 84.870982 218.749933 
L 85.195636 223.952516 
L 85.520291 225.686708 
L 85.844945 223.085421 
L 86.1696 215.715097 
L 86.494255 223.952516 
L 87.143564 196.205415 
L 87.468218 215.281549 
L 87.792873 209.645418 
L 88.117527 212.246706 
L 88.442182 205.30993 
L 88.766836 193.170579 
L 89.091491 190.135736 
L 89.416145 190.569284 
L 89.7408 195.771867 
L 90.065455 188.835092 
L 90.390109 204.876382 
L 91.364073 194.471223 
L 91.688727 191.002839 
L 92.013382 173.660897 
L 92.338036 171.926705 
L 92.662691 166.290582 
L 92.987345 174.094445 
L 93.312 189.26864 
L 93.636655 187.534448 
L 93.961309 164.55639 
L 94.285964 211.37961 
L 94.935273 153.717675 
L 95.584582 223.518969 
L 95.909236 179.297036 
L 96.233891 179.730584 
L 96.558545 168.458322 
L 96.8832 172.360253 
L 97.857164 154.584771 
L 98.181818 171.059609 
L 98.506473 159.787347 
L 98.831127 159.787347 
L 99.155782 169.758966 
L 99.480436 162.388634 
L 99.805091 160.654443 
L 100.129745 166.290582 
L 100.4544 155.885415 
L 100.779055 173.660897 
L 101.753018 151.549935 
L 102.077673 152.417031 
L 102.402327 155.018319 
L 102.726982 181.031228 
L 103.051636 155.018319 
L 103.376291 179.730584 
L 103.700945 155.018319 
L 104.0256 147.214455 
L 104.350255 145.480248 
L 104.674909 157.619607 
L 104.999564 148.948647 
L 105.324218 145.913796 
L 105.648873 147.214455 
L 105.973527 139.844124 
L 106.298182 144.613152 
L 106.622836 135.508645 
L 106.947491 151.549935 
L 107.272145 137.242836 
L 107.5968 161.955086 
L 107.921455 158.053155 
L 108.246109 140.277672 
L 108.570764 149.815743 
L 108.895418 145.913796 
L 109.220073 179.297036 
L 109.544727 193.604127 
L 109.869382 142.011864 
L 110.194036 144.179604 
L 110.518691 138.977028 
L 110.843345 135.942193 
L 111.168 151.116387 
L 111.492655 149.382195 
L 111.817309 135.508645 
L 112.141964 148.081551 
L 112.466618 143.312508 
L 112.791273 135.942193 
L 113.115927 137.676384 
L 113.440582 135.942193 
L 113.765236 138.54348 
L 114.414545 129.872505 
L 114.7392 131.606713 
L 115.063855 141.578316 
L 115.388509 143.746056 
L 115.713164 127.271218 
L 116.037818 155.018319 
L 116.362473 134.641549 
L 116.687127 136.809288 
L 117.011782 127.704766 
L 117.336436 128.571861 
L 117.661091 129.872505 
L 117.985745 124.236382 
L 118.3104 133.340905 
L 118.635055 122.935738 
L 118.959709 125.103478 
L 119.284364 125.103478 
L 119.609018 140.277672 
L 119.933673 128.138314 
L 120.258327 129.005409 
L 120.582982 140.277672 
L 120.907636 129.005409 
L 121.556945 125.970574 
L 121.8816 120.33445 
L 122.206255 133.340905 
L 122.530909 124.66993 
L 122.855564 139.844124 
L 123.180218 123.369286 
L 123.504873 129.872505 
L 123.829527 144.613152 
L 124.154182 118.600258 
L 124.803491 129.438957 
L 125.128145 123.802834 
L 125.4528 123.369286 
L 125.777455 115.99897 
L 126.102109 121.635094 
L 126.426764 157.186059 
L 126.751418 121.201546 
L 127.076073 124.236382 
L 127.400727 120.33445 
L 128.050036 142.011864 
L 128.699345 105.160255 
L 129.024 106.027351 
L 129.348655 110.796379 
L 129.673309 117.299614 
L 129.997964 108.195091 
L 130.322618 115.565422 
L 130.647273 134.641549 
L 131.296582 119.900902 
L 131.621236 120.33445 
L 131.945891 100.391228 
L 132.270545 103.859611 
L 132.5952 106.027351 
L 133.244509 128.571861 
L 133.569164 127.271218 
L 133.893818 105.593803 
L 134.218473 112.964119 
L 134.543127 116.866066 
L 134.867782 98.65702 
L 135.192436 108.628639 
L 135.517091 103.426063 
L 135.841745 114.264763 
L 136.1664 140.71122 
L 136.491055 112.964119 
L 136.815709 117.299614 
L 137.140364 105.593803 
L 137.465018 100.391228 
L 137.789673 105.160255 
L 138.114327 128.138314 
L 138.438982 111.663475 
L 138.763636 127.271218 
L 139.088291 98.65702 
L 139.7376 103.426063 
L 140.062255 96.922828 
L 140.386909 95.622184 
L 140.711564 106.027351 
L 141.036218 93.020897 
L 141.360873 96.055732 
L 141.685527 96.055732 
L 142.010182 93.454445 
L 142.334836 111.663475 
L 142.659491 92.153801 
L 142.984145 93.454445 
L 143.3088 97.789924 
L 143.958109 89.118965 
L 144.282764 89.986061 
L 144.607418 87.818321 
L 144.932073 90.853157 
L 145.256727 89.552513 
L 145.581382 97.789924 
L 146.230691 82.61573 
L 146.555345 96.48928 
L 146.88 91.720253 
L 147.204655 84.349937 
L 147.529309 87.818321 
L 147.853964 87.818321 
L 148.178618 121.635094 
L 148.503273 101.691872 
L 148.827927 96.922828 
L 149.152582 109.062187 
L 149.477236 90.853157 
L 149.801891 86.951225 
L 150.126545 92.587349 
L 150.4512 85.650581 
L 150.775855 116.866066 
L 151.100509 78.28025 
L 151.425164 100.391228 
L 151.749818 83.049278 
L 152.074473 98.65702 
L 152.399127 83.049278 
L 152.723782 79.147346 
L 153.048436 84.349937 
L 153.373091 82.182182 
L 153.697745 80.881538 
L 154.0224 83.482826 
L 154.347055 109.062187 
L 154.671709 101.691872 
L 154.996364 80.014442 
L 155.321018 79.147346 
L 155.645673 77.846702 
L 155.970327 75.245414 
L 156.294982 81.315086 
L 156.619636 74.378318 
L 156.944291 82.61573 
L 157.268945 87.384773 
L 157.5936 116.866066 
L 158.242909 77.846702 
L 158.567564 83.916389 
L 158.892218 76.979606 
L 159.216873 78.713798 
L 159.541527 97.789924 
L 159.866182 72.210578 
L 160.515491 96.055732 
L 160.840145 75.678962 
L 161.1648 73.94477 
L 161.489455 74.811866 
L 161.814109 77.846702 
L 162.138764 73.511222 
L 162.463418 94.755089 
L 162.788073 93.020897 
L 163.112727 70.909934 
L 163.437382 91.286705 
L 163.762036 68.308647 
L 164.411345 86.517677 
L 165.060655 69.175743 
L 165.385309 76.546058 
L 165.709964 79.147346 
L 166.034618 70.042839 
L 166.683927 74.811866 
L 167.008582 66.574439 
L 167.333236 73.94477 
L 167.657891 68.308647 
L 167.982545 70.476386 
L 168.3072 73.94477 
L 168.631855 67.007987 
L 168.956509 69.175743 
L 169.281164 68.742195 
L 169.605818 72.210578 
L 169.930473 70.042839 
L 170.255127 65.707343 
L 170.579782 67.441535 
L 171.229091 76.979606 
L 171.553745 67.441535 
L 171.8784 66.140891 
L 172.527709 68.742195 
L 172.852364 64.840247 
L 173.177018 69.175743 
L 173.501673 92.587349 
L 173.826327 100.824776 
L 174.150982 64.406699 
L 174.800291 73.511222 
L 175.124945 67.007987 
L 175.4496 69.175743 
L 175.774255 62.238959 
L 176.098909 69.175743 
L 176.423564 71.343482 
L 176.748218 93.887993 
L 177.072873 76.11251 
L 177.397527 68.742195 
L 177.722182 69.609291 
L 178.046836 73.077674 
L 178.371491 63.539603 
L 178.696145 73.077674 
L 179.0208 69.609291 
L 179.345455 62.238959 
L 179.670109 69.609291 
L 179.994764 70.042839 
L 180.319418 68.742195 
L 180.644073 71.77703 
L 180.968727 67.441535 
L 181.293382 60.504768 
L 181.618036 65.273795 
L 181.942691 62.672507 
L 182.267345 61.371864 
L 182.592 64.406699 
L 182.916655 72.644126 
L 183.241309 68.308647 
L 183.565964 61.805412 
L 183.890618 67.007987 
L 184.215273 63.973151 
L 184.539927 63.106055 
L 184.864582 67.875083 
L 185.189236 70.909934 
L 185.513891 67.875083 
L 185.838545 62.238959 
L 186.1632 61.805412 
L 186.487855 60.938316 
L 186.812509 63.106055 
L 187.137164 67.875083 
L 187.461818 68.742195 
L 187.786473 73.511222 
L 188.111127 74.811866 
L 188.435782 63.106055 
L 188.760436 70.476386 
L 189.409745 62.238959 
L 189.7344 60.504768 
L 190.059055 66.574439 
L 190.383709 65.707343 
L 191.033018 75.245414 
L 191.357673 70.476386 
L 191.682327 63.539603 
L 192.006982 60.07122 
L 192.331636 63.539603 
L 192.656291 71.343482 
L 193.3056 67.441535 
L 193.630255 67.875083 
L 193.954909 65.273795 
L 194.279564 60.938316 
L 194.604218 76.979606 
L 194.928873 77.413154 
L 195.253527 82.61573 
L 195.578182 76.979606 
L 195.902836 65.273795 
L 196.227491 73.511222 
L 196.552145 63.539603 
L 196.8768 58.770576 
L 197.201455 62.238959 
L 197.526109 67.007987 
L 197.850764 64.406699 
L 198.175418 69.609291 
L 198.500073 66.574439 
L 198.824727 69.609291 
L 199.149382 65.273795 
L 199.798691 68.308647 
L 200.123345 66.140891 
L 200.448 68.742195 
L 200.772655 84.349937 
L 201.097309 69.609291 
L 201.421964 93.020897 
L 202.071273 66.140891 
L 202.395927 80.44799 
L 202.720582 74.378318 
L 203.045236 62.672507 
L 203.694545 67.441535 
L 204.0192 72.644126 
L 204.668509 60.938316 
L 204.993164 59.204124 
L 205.642473 69.609291 
L 206.291782 74.378318 
L 206.941091 66.574439 
L 207.265745 70.476386 
L 207.5904 67.007987 
L 207.915055 59.204124 
L 208.239709 59.637672 
L 208.564364 81.315086 
L 208.889018 75.678962 
L 209.213673 63.539603 
L 209.538327 58.770576 
L 209.862982 66.574439 
L 210.187636 60.504768 
L 210.512291 76.11251 
L 210.836945 62.238959 
L 211.1616 77.846702 
L 211.486255 80.881538 
L 212.135564 62.238959 
L 212.460218 78.28025 
L 212.784873 85.650581 
L 213.109527 57.90348 
L 213.434182 59.637672 
L 213.758836 71.343482 
L 214.083491 58.770576 
L 214.408145 61.805412 
L 214.7328 66.140891 
L 215.057455 58.337028 
L 215.382109 66.140891 
L 215.706764 59.637672 
L 216.031418 59.204124 
L 216.356073 61.805412 
L 216.680727 58.337028 
L 217.005382 84.783485 
L 217.330036 78.713798 
L 217.654691 59.204124 
L 218.304 62.238959 
L 218.628655 65.707343 
L 218.953309 74.811866 
L 219.277964 61.371864 
L 219.602618 62.672507 
L 219.927273 62.672507 
L 220.251927 57.469932 
L 220.576582 62.238959 
L 220.901236 60.504768 
L 221.225891 68.742195 
L 221.550545 66.574439 
L 221.8752 68.742195 
L 222.199855 68.308647 
L 222.524509 68.742195 
L 222.849164 57.90348 
L 223.173818 60.938316 
L 223.498473 66.574439 
L 223.823127 60.07122 
L 224.147782 56.602836 
L 224.472436 58.337028 
L 224.797091 62.238959 
L 225.4464 62.238959 
L 225.771055 57.036384 
L 226.095709 57.036384 
L 226.420364 96.922828 
L 226.745018 67.007987 
L 227.069673 77.413154 
L 227.394327 63.539603 
L 227.718982 67.875083 
L 228.043636 70.476386 
L 228.368291 79.580894 
L 228.692945 82.61573 
L 229.0176 64.840247 
L 229.342255 56.602836 
L 229.666909 63.973151 
L 229.991564 57.036384 
L 230.316218 57.469932 
L 230.640873 64.840247 
L 230.965527 64.840247 
L 231.290182 55.302192 
L 231.614836 57.469932 
L 231.939491 67.875083 
L 232.264145 59.637672 
L 232.5888 56.602836 
L 232.913455 60.938316 
L 233.238109 54.435096 
L 233.887418 65.273795 
L 234.212073 71.343482 
L 234.536727 59.637672 
L 234.861382 57.036384 
L 235.186036 61.805412 
L 235.510691 75.678962 
L 235.835345 70.909934 
L 236.16 59.204124 
L 236.484655 55.302192 
L 236.809309 58.770576 
L 237.133964 57.036384 
L 237.458618 57.036384 
L 237.783273 62.672507 
L 238.107927 62.238959 
L 238.432582 69.609291 
L 238.757236 54.868644 
L 239.081891 62.672507 
L 239.406545 62.238959 
L 240.055855 69.175743 
L 240.380509 73.511222 
L 240.705164 54.001548 
L 241.029818 79.147346 
L 241.354473 64.840247 
L 241.679127 73.077674 
L 242.328436 56.169288 
L 242.653091 71.343482 
L 242.977745 59.204124 
L 243.3024 69.175743 
L 243.627055 56.169288 
L 243.951709 59.204124 
L 244.276364 60.938316 
L 244.601018 57.469932 
L 244.925673 55.302192 
L 245.250327 57.90348 
L 245.574982 54.435096 
L 245.899636 57.036384 
L 246.548945 72.210578 
L 246.8736 57.469932 
L 247.198255 55.73574 
L 247.522909 66.574439 
L 247.847564 67.441535 
L 248.172218 67.007987 
L 248.496873 54.435096 
L 249.146182 72.210578 
L 249.470836 58.770576 
L 249.795491 66.140891 
L 250.120145 66.574439 
L 250.4448 60.938316 
L 250.769455 60.504768 
L 251.094109 66.140891 
L 251.418764 61.805412 
L 251.743418 55.302192 
L 252.068073 63.539603 
L 252.392727 57.90348 
L 252.717382 64.406699 
L 253.042036 57.036384 
L 253.366691 60.938316 
L 253.691345 60.504768 
L 254.016 60.938316 
L 254.340655 67.007987 
L 254.665309 55.302192 
L 255.314618 55.302192 
L 255.639273 54.868644 
L 255.963927 60.07122 
L 256.288582 58.770576 
L 256.613236 68.308647 
L 256.937891 66.140891 
L 257.262545 66.140891 
L 257.5872 55.73574 
L 257.911855 72.210578 
L 258.236509 59.204124 
L 258.561164 56.602836 
L 258.885818 63.106055 
L 259.210473 59.204124 
L 259.535127 66.574439 
L 259.859782 60.938316 
L 260.184436 60.938316 
L 260.509091 75.245414 
L 260.833745 55.302192 
L 261.1584 70.042839 
L 261.483055 70.909934 
L 261.807709 67.875083 
L 262.132364 57.036384 
L 262.457018 56.602836 
L 262.781673 66.574439 
L 263.430982 62.672507 
L 263.755636 60.504768 
L 264.080291 63.539603 
L 264.7296 60.938316 
L 265.054255 54.435096 
L 265.378909 58.770576 
L 265.703564 72.210578 
L 266.028218 70.909934 
L 266.352873 65.273795 
L 266.677527 66.574439 
L 267.002182 55.73574 
L 267.326836 63.539603 
L 267.651491 59.204124 
L 267.976145 57.469932 
L 268.3008 57.036384 
L 268.625455 55.302192 
L 268.950109 59.204124 
L 269.599418 71.77703 
L 269.924073 53.568 
L 270.248727 70.476386 
L 270.573382 103.426063 
L 270.898036 57.90348 
L 271.222691 64.406699 
L 271.547345 66.574439 
L 271.872 54.001548 
L 272.196655 54.868644 
L 272.521309 55.302192 
L 273.170618 59.204124 
L 273.495273 53.568 
L 273.819927 57.90348 
L 274.144582 58.770576 
L 274.469236 54.868644 
L 274.793891 66.574439 
L 275.118545 54.868644 
L 275.4432 59.204124 
L 275.767855 59.204124 
L 276.092509 63.539603 
L 276.417164 73.511222 
L 277.066473 64.840247 
L 277.391127 54.001548 
L 277.715782 56.602836 
L 278.040436 75.245414 
L 278.365091 70.476386 
L 278.689745 54.435096 
L 279.0144 57.469932 
L 279.339055 55.302192 
L 279.663709 59.204124 
L 279.988364 55.302192 
L 280.313018 64.406699 
L 280.637673 69.609291 
L 280.962327 58.337028 
L 281.286982 70.909934 
L 281.611636 68.742195 
L 281.936291 58.770576 
L 282.260945 54.001548 
L 282.5856 55.73574 
L 282.910255 54.435096 
L 283.234909 55.73574 
L 283.559564 54.435096 
L 283.884218 54.435096 
L 284.208873 60.07122 
L 284.533527 55.73574 
L 284.858182 58.770576 
L 285.182836 57.469932 
L 285.507491 58.337028 
L 285.832145 54.868644 
L 286.1568 56.169288 
L 286.481455 58.337028 
L 286.806109 56.169288 
L 287.130764 55.73574 
L 287.455418 57.469932 
L 287.780073 64.406699 
L 288.104727 66.574439 
L 288.429382 60.504768 
L 288.754036 62.238959 
L 289.078691 61.371864 
L 289.403345 75.678962 
L 289.728 61.805412 
L 290.052655 58.337028 
L 290.701964 54.435096 
L 291.026618 54.001548 
L 291.351273 60.938316 
L 291.675927 60.07122 
L 292.000582 56.169288 
L 292.325236 58.337028 
L 292.649891 57.036384 
L 292.974545 59.204124 
L 293.2992 62.238959 
L 293.623855 55.302192 
L 293.948509 54.868644 
L 294.597818 73.077674 
L 294.922473 67.441535 
L 295.247127 54.001548 
L 295.571782 71.77703 
L 295.896436 60.938316 
L 296.221091 56.602836 
L 296.8704 68.308647 
L 297.195055 58.337028 
L 297.519709 60.938316 
L 297.844364 54.435096 
L 298.169018 60.938316 
L 298.493673 63.106055 
L 298.818327 67.875083 
L 299.142982 86.951225 
L 299.467636 55.302192 
L 299.792291 61.371864 
L 300.116945 62.672507 
L 300.4416 64.840247 
L 300.766255 68.308647 
L 301.090909 75.678962 
L 301.415564 61.805412 
L 301.740218 63.106055 
L 302.064873 57.036384 
L 302.389527 56.169288 
L 302.714182 57.90348 
L 303.038836 57.036384 
L 303.363491 54.001548 
L 303.688145 63.539603 
L 304.0128 57.036384 
L 304.337455 67.007987 
L 304.986764 56.169288 
L 305.311418 56.602836 
L 305.636073 58.770576 
L 305.960727 54.868644 
L 306.285382 54.868644 
L 306.610036 62.672507 
L 306.934691 60.07122 
L 307.259345 85.650581 
L 307.584 54.001548 
L 307.908655 59.204124 
L 308.233309 57.90348 
L 308.557964 54.001548 
L 308.882618 57.90348 
L 309.207273 55.302192 
L 309.531927 57.469932 
L 309.856582 57.90348 
L 310.181236 54.001548 
L 310.505891 55.73574 
L 310.830545 55.302192 
L 311.1552 57.036384 
L 311.479855 54.001548 
L 311.804509 60.504768 
L 312.129164 57.90348 
L 312.453818 57.036384 
L 312.778473 73.94477 
L 313.103127 55.73574 
L 313.427782 65.707343 
L 314.077091 55.73574 
L 314.401745 54.001548 
L 314.7264 56.602836 
L 315.051055 53.568 
L 315.375709 55.302192 
L 315.700364 56.169288 
L 316.025018 61.371864 
L 316.349673 59.204124 
L 316.674327 64.406699 
L 316.998982 59.637672 
L 317.648291 62.672507 
L 318.2976 64.406699 
L 318.622255 63.106055 
L 318.946909 54.868644 
L 319.271564 55.73574 
L 319.596218 55.73574 
L 319.920873 55.302192 
L 320.245527 56.602836 
L 320.570182 54.868644 
L 320.894836 55.73574 
L 321.219491 57.469932 
L 321.544145 57.469932 
L 321.8688 66.140891 
L 322.193455 64.406699 
L 322.518109 58.337028 
L 323.167418 61.371864 
L 323.492073 57.036384 
L 323.816727 54.868644 
L 324.141382 60.938316 
L 324.466036 60.938316 
L 324.790691 57.469932 
L 325.115345 58.337028 
L 325.44 55.73574 
L 325.764655 58.337028 
L 326.089309 55.73574 
L 326.413964 58.770576 
L 326.738618 63.539603 
L 327.063273 55.302192 
L 327.387927 55.73574 
L 327.712582 58.770576 
L 328.037236 54.868644 
L 328.361891 54.001548 
L 329.0112 64.840247 
L 329.335855 55.302192 
L 329.660509 64.406699 
L 329.985164 57.90348 
L 330.309818 59.204124 
L 330.634473 55.302192 
L 330.959127 54.001548 
L 331.283782 54.001548 
L 331.608436 55.302192 
L 331.933091 59.637672 
L 332.257745 54.868644 
L 332.5824 60.504768 
L 332.907055 61.805412 
L 333.231709 55.302192 
L 333.556364 56.602836 
L 333.881018 54.001548 
L 334.205673 54.868644 
L 334.530327 63.973151 
L 334.854982 55.73574 
L 335.179636 63.539603 
L 335.504291 55.73574 
L 335.828945 56.169288 
L 336.1536 60.07122 
L 336.478255 65.707343 
L 336.802909 55.302192 
L 337.127564 68.742195 
L 337.452218 55.302192 
L 337.776873 63.106055 
L 338.101527 58.337028 
L 338.426182 64.840247 
L 338.750836 64.406699 
L 339.075491 72.644126 
L 339.400145 56.602836 
L 339.7248 68.742195 
L 340.049455 72.644126 
L 340.374109 60.07122 
L 341.023418 62.672507 
L 341.348073 54.001548 
L 341.672727 54.868644 
L 341.997382 57.90348 
L 342.322036 55.73574 
L 342.646691 55.73574 
L 342.971345 54.868644 
L 343.296 67.007987 
L 343.620655 63.106055 
L 343.945309 60.938316 
L 344.269964 56.169288 
L 344.594618 56.169288 
L 344.919273 55.302192 
L 345.243927 55.73574 
L 345.568582 58.770576 
L 345.893236 67.875083 
L 346.217891 59.204124 
L 346.542545 57.90348 
L 346.8672 60.504768 
L 347.191855 55.302192 
L 347.516509 54.001548 
L 347.841164 57.469932 
L 348.165818 65.273795 
L 348.815127 54.001548 
L 349.139782 68.308647 
L 349.464436 65.273795 
L 349.789091 69.609291 
L 350.113745 56.169288 
L 350.4384 57.469932 
L 350.763055 55.73574 
L 351.087709 54.868644 
L 351.412364 57.90348 
L 351.737018 54.001548 
L 352.061673 64.840247 
L 352.386327 62.672507 
L 352.710982 55.73574 
L 353.035636 59.204124 
L 353.360291 59.637672 
L 353.684945 54.001548 
L 354.0096 71.343482 
L 354.334255 56.602836 
L 354.658909 54.001548 
L 354.983564 54.001548 
L 355.308218 56.169288 
L 355.632873 54.001548 
L 355.957527 54.001548 
L 356.282182 56.169288 
L 356.606836 54.868644 
L 356.931491 55.73574 
L 357.256145 65.273795 
L 357.5808 55.73574 
L 357.905455 55.302192 
L 358.230109 54.435096 
L 358.554764 58.770576 
L 358.879418 55.73574 
L 359.204073 55.302192 
L 359.528727 65.707343 
L 359.853382 55.73574 
L 360.178036 57.469932 
L 360.502691 112.964119 
L 360.827345 73.94477 
L 361.152 107.761543 
L 361.476655 76.546058 
L 362.125964 54.001548 
L 362.450618 54.001548 
L 362.775273 56.602836 
L 363.099927 61.805412 
L 363.424582 60.07122 
L 363.749236 56.602836 
L 364.073891 54.868644 
L 364.7232 54.868644 
L 365.047855 56.169288 
L 365.372509 56.169288 
L 365.697164 57.036384 
L 366.021818 60.938316 
L 366.346473 58.337028 
L 366.671127 64.406699 
L 366.995782 60.504768 
L 367.320436 58.337028 
L 367.645091 58.770576 
L 367.969745 61.371864 
L 368.2944 54.868644 
L 368.943709 54.868644 
L 369.268364 61.371864 
L 369.593018 58.337028 
L 369.917673 54.001548 
L 370.242327 57.90348 
L 370.566982 55.73574 
L 370.891636 62.672507 
L 371.216291 56.169288 
L 371.540945 57.036384 
L 371.8656 59.637672 
L 372.190255 54.001548 
L 372.514909 59.637672 
L 373.164218 55.302192 
L 373.488873 63.106055 
L 373.813527 54.435096 
L 374.462836 57.036384 
L 374.787491 54.435096 
L 375.112145 83.049278 
L 375.4368 54.435096 
L 375.761455 57.469932 
L 376.086109 56.602836 
L 376.410764 58.770576 
L 376.735418 62.672507 
L 377.060073 70.042839 
L 377.384727 57.036384 
L 377.709382 62.672507 
L 378.034036 58.770576 
L 378.358691 80.014442 
L 378.683345 70.476386 
L 379.008 89.118965 
L 379.332655 68.308647 
L 379.657309 65.707343 
L 380.306618 91.720253 
L 380.631273 59.204124 
L 380.955927 73.94477 
L 381.280582 66.140891 
L 381.605236 69.175743 
L 381.929891 55.302192 
L 382.254545 55.73574 
L 382.5792 58.770576 
L 383.553164 55.302192 
L 383.877818 56.602836 
L 384.202473 57.036384 
L 384.527127 55.302192 
L 384.851782 57.036384 
L 385.176436 56.169288 
L 385.501091 56.169288 
L 385.825745 61.371864 
L 386.1504 56.169288 
L 386.475055 56.169288 
L 386.799709 60.504768 
L 387.124364 55.73574 
L 387.449018 55.302192 
L 387.773673 55.302192 
L 388.098327 54.868644 
L 388.422982 57.036384 
L 388.747636 56.169288 
L 389.072291 62.238959 
L 389.396945 62.672507 
L 389.7216 63.973151 
L 390.046255 61.805412 
L 390.370909 54.868644 
L 390.695564 54.435096 
L 391.020218 57.469932 
L 391.344873 56.169288 
L 391.669527 57.90348 
L 391.994182 54.001548 
L 392.318836 55.302192 
L 392.643491 54.435096 
L 392.968145 57.90348 
L 393.2928 58.337028 
L 393.617455 53.568 
L 393.942109 62.238959 
L 394.266764 64.406699 
L 394.591418 57.036384 
L 394.916073 59.204124 
L 395.240727 66.574439 
L 395.565382 57.469932 
L 395.890036 65.707343 
L 396.214691 57.036384 
L 396.539345 58.337028 
L 396.864 69.175743 
L 397.513309 65.273795 
L 397.837964 60.07122 
L 398.162618 66.574439 
L 398.487273 55.302192 
L 398.487273 55.302192 
" clip-path="url(#p30973ad3a2)" style="fill: none; stroke: #1f77b4; stroke-width: 1.5; stroke-linecap: square"/>
   </g>
   <g id="patch_3">
    <path d="M 57.6 307.584 
L 57.6 41.472 
" style="fill: none; stroke: #000000; stroke-width: 0.8; stroke-linejoin: miter; stroke-linecap: square"/>
   </g>
   <g id="patch_4">
    <path d="M 414.72 307.584 
L 414.72 41.472 
" style="fill: none; stroke: #000000; stroke-width: 0.8; stroke-linejoin: miter; stroke-linecap: square"/>
   </g>
   <g id="patch_5">
    <path d="M 57.6 307.584 
L 414.72 307.584 
" style="fill: none; stroke: #000000; stroke-width: 0.8; stroke-linejoin: miter; stroke-linecap: square"/>
   </g>
   <g id="patch_6">
    <path d="M 57.6 41.472 
L 414.72 41.472 
" style="fill: none; stroke: #000000; stroke-width: 0.8; stroke-linejoin: miter; stroke-linecap: square"/>
   </g>
  </g>
 </g>
 <defs>
  <clipPath id="p30973ad3a2">
   <rect x="57.6" y="41.472" width="357.12" height="266.112"/>
  </clipPath>
 </defs>
</svg>
