<?xml version="1.0" encoding="utf-8" standalone="no"?>
<!DOCTYPE svg PUBLIC "-//W3C//DTD SVG 1.1//EN"
  "http://www.w3.org/Graphics/SVG/1.1/DTD/svg11.dtd">
<svg xmlns:xlink="http://www.w3.org/1999/xlink" width="460.8pt" height="345.6pt" viewBox="0 0 460.8 345.6" xmlns="http://www.w3.org/2000/svg" version="1.1">
 <metadata>
  <rdf:RDF xmlns:dc="http://purl.org/dc/elements/1.1/" xmlns:cc="http://creativecommons.org/ns#" xmlns:rdf="http://www.w3.org/1999/02/22-rdf-syntax-ns#">
   <cc:Work>
    <dc:type rdf:resource="http://purl.org/dc/dcmitype/StillImage"/>
    <dc:date>2026-06-14T19:04:42.221886</dc:date>
    <dc:format>image/svg+xml</dc:format>
    <dc:creator>
     <cc:Agent>
      <dc:title>Matplotlib v3.10.8, https://matplotlib.org/</dc:title>
     </cc:Agent>
    </dc:creator>
   </cc:Work>
  </rdf:RDF>
 </metadata>
 <defs>
  <style type="text/css">*{stroke-linejoin: round; stroke-linecap: butt}</style>
 </defs>
 <g id="figure_1">
  <g id="patch_1">
   <path d="M 0 345.6 
L 460.8 345.6 
L 460.8 0 
L 0 0 
z
" style="fill: #ffffff"/>
  </g>
  <g id="axes_1">
   <g id="patch_2">
    <path d="M 57.6 307.584 
L 414.72 307.584 
L 414.72 41.472 
L 57.6 41.472 
z
" style="fill: #ffffff"/>
   </g>
   <g id="matplotlib.axis_1">
    <g id="xtick_1">
     <g id="line2d_1">
      <defs>
       <path id="m27345c5049" d="M 0 0 
L 0 3.5 
" style="stroke: #000000; stroke-width: 0.8"/>
      </defs>
      <g>
       <use xlink:href="#m27345c5049" x="73.832727" y="307.584" style="stroke: #000000; stroke-width: 0.8"/>
      </g>
     </g>
     <g id="text_1">
      <!-- 0 -->
      <g transform="translate(70.651477 322.182437) scale(0.1 -0.1)">
       <defs>
        <path id="DejaVuSans-30" d="M 2034 4250 
Q 1547 4250 1301 3770 
Q 1056 3291 1056 2328 
Q 1056 1369 1301 889 
Q 1547 409 2034 409 
Q 2525 409 2770 889 
Q 3016 1369 3016 2328 
Q 3016 3291 2770 3770 
Q 2525 4250 2034 4250 
z
M 2034 4750 
Q 2819 4750 3233 4129 
Q 3647 3509 3647 2328 
Q 3647 1150 3233 529 
Q 2819 -91 2034 -91 
Q 1250 -91 836 529 
Q 422 1150 422 2328 
Q 422 3509 836 4129 
Q 1250 4750 2034 4750 
z
" transform="scale(0.015625)"/>
       </defs>
       <use xlink:href="#DejaVuSans-30"/>
      </g>
     </g>
    </g>
    <g id="xtick_2">
     <g id="line2d_2">
      <g>
       <use xlink:href="#m27345c5049" x="114.414545" y="307.584" style="stroke: #000000; stroke-width: 0.8"/>
      </g>
     </g>
     <g id="text_2">
      <!-- 250 -->
      <g transform="translate(104.870795 322.182437) scale(0.1 -0.1)">
       <defs>
        <path id="DejaVuSans-32" d="M 1228 531 
L 3431 531 
L 3431 0 
L 469 0 
L 469 531 
Q 828 903 1448 1529 
Q 2069 2156 2228 2338 
Q 2531 2678 2651 2914 
Q 2772 3150 2772 3378 
Q 2772 3750 2511 3984 
Q 2250 4219 1831 4219 
Q 1534 4219 1204 4116 
Q 875 4013 500 3803 
L 500 4441 
Q 881 4594 1212 4672 
Q 1544 4750 1819 4750 
Q 2544 4750 2975 4387 
Q 3406 4025 3406 3419 
Q 3406 3131 3298 2873 
Q 3191 2616 2906 2266 
Q 2828 2175 2409 1742 
Q 1991 1309 1228 531 
z
" transform="scale(0.015625)"/>
        <path id="DejaVuSans-35" d="M 691 4666 
L 3169 4666 
L 3169 4134 
L 1269 4134 
L 1269 2991 
Q 1406 3038 1543 3061 
Q 1681 3084 1819 3084 
Q 2600 3084 3056 2656 
Q 3513 2228 3513 1497 
Q 3513 744 3044 326 
Q 2575 -91 1722 -91 
Q 1428 -91 1123 -41 
Q 819 9 494 109 
L 494 744 
Q 775 591 1075 516 
Q 1375 441 1709 441 
Q 2250 441 2565 725 
Q 2881 1009 2881 1497 
Q 2881 1984 2565 2268 
Q 2250 2553 1709 2553 
Q 1456 2553 1204 2497 
Q 953 2441 691 2322 
L 691 4666 
z
" transform="scale(0.015625)"/>
       </defs>
       <use xlink:href="#DejaVuSans-32"/>
       <use xlink:href="#DejaVuSans-35" transform="translate(63.623047 0)"/>
       <use xlink:href="#DejaVuSans-30" transform="translate(127.246094 0)"/>
      </g>
     </g>
    </g>
    <g id="xtick_3">
     <g id="line2d_3">
      <g>
       <use xlink:href="#m27345c5049" x="154.996364" y="307.584" style="stroke: #000000; stroke-width: 0.8"/>
      </g>
     </g>
     <g id="text_3">
      <!-- 500 -->
      <g transform="translate(145.452614 322.182437) scale(0.1 -0.1)">
       <use xlink:href="#DejaVuSans-35"/>
       <use xlink:href="#DejaVuSans-30" transform="translate(63.623047 0)"/>
       <use xlink:href="#DejaVuSans-30" transform="translate(127.246094 0)"/>
      </g>
     </g>
    </g>
    <g id="xtick_4">
     <g id="line2d_4">
      <g>
       <use xlink:href="#m27345c5049" x="195.578182" y="307.584" style="stroke: #000000; stroke-width: 0.8"/>
      </g>
     </g>
     <g id="text_4">
      <!-- 750 -->
      <g transform="translate(186.034432 322.182437) scale(0.1 -0.1)">
       <defs>
        <path id="DejaVuSans-37" d="M 525 4666 
L 3525 4666 
L 3525 4397 
L 1831 0 
L 1172 0 
L 2766 4134 
L 525 4134 
L 525 4666 
z
" transform="scale(0.015625)"/>
       </defs>
       <use xlink:href="#DejaVuSans-37"/>
       <use xlink:href="#DejaVuSans-35" transform="translate(63.623047 0)"/>
       <use xlink:href="#DejaVuSans-30" transform="translate(127.246094 0)"/>
      </g>
     </g>
    </g>
    <g id="xtick_5">
     <g id="line2d_5">
      <g>
       <use xlink:href="#m27345c5049" x="236.16" y="307.584" style="stroke: #000000; stroke-width: 0.8"/>
      </g>
     </g>
     <g id="text_5">
      <!-- 1000 -->
      <g transform="translate(223.435 322.182437) scale(0.1 -0.1)">
       <defs>
        <path id="DejaVuSans-31" d="M 794 531 
L 1825 531 
L 1825 4091 
L 703 3866 
L 703 4441 
L 1819 4666 
L 2450 4666 
L 2450 531 
L 3481 531 
L 3481 0 
L 794 0 
L 794 531 
z
" transform="scale(0.015625)"/>
       </defs>
       <use xlink:href="#DejaVuSans-31"/>
       <use xlink:href="#DejaVuSans-30" transform="translate(63.623047 0)"/>
       <use xlink:href="#DejaVuSans-30" transform="translate(127.246094 0)"/>
       <use xlink:href="#DejaVuSans-30" transform="translate(190.869141 0)"/>
      </g>
     </g>
    </g>
    <g id="xtick_6">
     <g id="line2d_6">
      <g>
       <use xlink:href="#m27345c5049" x="276.741818" y="307.584" style="stroke: #000000; stroke-width: 0.8"/>
      </g>
     </g>
     <g id="text_6">
      <!-- 1250 -->
      <g transform="translate(264.016818 322.182437) scale(0.1 -0.1)">
       <use xlink:href="#DejaVuSans-31"/>
       <use xlink:href="#DejaVuSans-32" transform="translate(63.623047 0)"/>
       <use xlink:href="#DejaVuSans-35" transform="translate(127.246094 0)"/>
       <use xlink:href="#DejaVuSans-30" transform="translate(190.869141 0)"/>
      </g>
     </g>
    </g>
    <g id="xtick_7">
     <g id="line2d_7">
      <g>
       <use xlink:href="#m27345c5049" x="317.323636" y="307.584" style="stroke: #000000; stroke-width: 0.8"/>
      </g>
     </g>
     <g id="text_7">
      <!-- 1500 -->
      <g transform="translate(304.598636 322.182437) scale(0.1 -0.1)">
       <use xlink:href="#DejaVuSans-31"/>
       <use xlink:href="#DejaVuSans-35" transform="translate(63.623047 0)"/>
       <use xlink:href="#DejaVuSans-30" transform="translate(127.246094 0)"/>
       <use xlink:href="#DejaVuSans-30" transform="translate(190.869141 0)"/>
      </g>
     </g>
    </g>
    <g id="xtick_8">
     <g id="line2d_8">
      <g>
       <use xlink:href="#m27345c5049" x="357.905455" y="307.584" style="stroke: #000000; stroke-width: 0.8"/>
      </g>
     </g>
     <g id="text_8">
      <!-- 1750 -->
      <g transform="translate(345.180455 322.182437) scale(0.1 -0.1)">
       <use xlink:href="#DejaVuSans-31"/>
       <use xlink:href="#DejaVuSans-37" transform="translate(63.623047 0)"/>
       <use xlink:href="#DejaVuSans-35" transform="translate(127.246094 0)"/>
       <use xlink:href="#DejaVuSans-30" transform="translate(190.869141 0)"/>
      </g>
     </g>
    </g>
    <g id="xtick_9">
     <g id="line2d_9">
      <g>
       <use xlink:href="#m27345c5049" x="398.487273" y="307.584" style="stroke: #000000; stroke-width: 0.8"/>
      </g>
     </g>
     <g id="text_9">
      <!-- 2000 -->
      <g transform="translate(385.762273 322.182437) scale(0.1 -0.1)">
       <use xlink:href="#DejaVuSans-32"/>
       <use xlink:href="#DejaVuSans-30" transform="translate(63.623047 0)"/>
       <use xlink:href="#DejaVuSans-30" transform="translate(127.246094 0)"/>
       <use xlink:href="#DejaVuSans-30" transform="translate(190.869141 0)"/>
      </g>
     </g>
    </g>
    <g id="text_10">
     <!-- Epochs -->
     <g transform="translate(218.244375 335.860562) scale(0.1 -0.1)">
      <defs>
       <path id="DejaVuSans-45" d="M 628 4666 
L 3578 4666 
L 3578 4134 
L 1259 4134 
L 1259 2753 
L 3481 2753 
L 3481 2222 
L 1259 2222 
L 1259 531 
L 3634 531 
L 3634 0 
L 628 0 
L 628 4666 
z
" transform="scale(0.015625)"/>
       <path id="DejaVuSans-70" d="M 1159 525 
L 1159 -1331 
L 581 -1331 
L 581 3500 
L 1159 3500 
L 1159 2969 
Q 1341 3281 1617 3432 
Q 1894 3584 2278 3584 
Q 2916 3584 3314 3078 
Q 3713 2572 3713 1747 
Q 3713 922 3314 415 
Q 2916 -91 2278 -91 
Q 1894 -91 1617 61 
Q 1341 213 1159 525 
z
M 3116 1747 
Q 3116 2381 2855 2742 
Q 2594 3103 2138 3103 
Q 1681 3103 1420 2742 
Q 1159 2381 1159 1747 
Q 1159 1113 1420 752 
Q 1681 391 2138 391 
Q 2594 391 2855 752 
Q 3116 1113 3116 1747 
z
" transform="scale(0.015625)"/>
       <path id="DejaVuSans-6f" d="M 1959 3097 
Q 1497 3097 1228 2736 
Q 959 2375 959 1747 
Q 959 1119 1226 758 
Q 1494 397 1959 397 
Q 2419 397 2687 759 
Q 2956 1122 2956 1747 
Q 2956 2369 2687 2733 
Q 2419 3097 1959 3097 
z
M 1959 3584 
Q 2709 3584 3137 3096 
Q 3566 2609 3566 1747 
Q 3566 888 3137 398 
Q 2709 -91 1959 -91 
Q 1206 -91 779 398 
Q 353 888 353 1747 
Q 353 2609 779 3096 
Q 1206 3584 1959 3584 
z
" transform="scale(0.015625)"/>
       <path id="DejaVuSans-63" d="M 3122 3366 
L 3122 2828 
Q 2878 2963 2633 3030 
Q 2388 3097 2138 3097 
Q 1578 3097 1268 2742 
Q 959 2388 959 1747 
Q 959 1106 1268 751 
Q 1578 397 2138 397 
Q 2388 397 2633 464 
Q 2878 531 3122 666 
L 3122 134 
Q 2881 22 2623 -34 
Q 2366 -91 2075 -91 
Q 1284 -91 818 406 
Q 353 903 353 1747 
Q 353 2603 823 3093 
Q 1294 3584 2113 3584 
Q 2378 3584 2631 3529 
Q 2884 3475 3122 3366 
z
" transform="scale(0.015625)"/>
       <path id="DejaVuSans-68" d="M 3513 2113 
L 3513 0 
L 2938 0 
L 2938 2094 
Q 2938 2591 2744 2837 
Q 2550 3084 2163 3084 
Q 1697 3084 1428 2787 
Q 1159 2491 1159 1978 
L 1159 0 
L 581 0 
L 581 4863 
L 1159 4863 
L 1159 2956 
Q 1366 3272 1645 3428 
Q 1925 3584 2291 3584 
Q 2894 3584 3203 3211 
Q 3513 2838 3513 2113 
z
" transform="scale(0.015625)"/>
       <path id="DejaVuSans-73" d="M 2834 3397 
L 2834 2853 
Q 2591 2978 2328 3040 
Q 2066 3103 1784 3103 
Q 1356 3103 1142 2972 
Q 928 2841 928 2578 
Q 928 2378 1081 2264 
Q 1234 2150 1697 2047 
L 1894 2003 
Q 2506 1872 2764 1633 
Q 3022 1394 3022 966 
Q 3022 478 2636 193 
Q 2250 -91 1575 -91 
Q 1294 -91 989 -36 
Q 684 19 347 128 
L 347 722 
Q 666 556 975 473 
Q 1284 391 1588 391 
Q 1994 391 2212 530 
Q 2431 669 2431 922 
Q 2431 1156 2273 1281 
Q 2116 1406 1581 1522 
L 1381 1569 
Q 847 1681 609 1914 
Q 372 2147 372 2553 
Q 372 3047 722 3315 
Q 1072 3584 1716 3584 
Q 2034 3584 2315 3537 
Q 2597 3491 2834 3397 
z
" transform="scale(0.015625)"/>
      </defs>
      <use xlink:href="#DejaVuSans-45"/>
      <use xlink:href="#DejaVuSans-70" transform="translate(63.183594 0)"/>
      <use xlink:href="#DejaVuSans-6f" transform="translate(126.660156 0)"/>
      <use xlink:href="#DejaVuSans-63" transform="translate(187.841797 0)"/>
      <use xlink:href="#DejaVuSans-68" transform="translate(242.822266 0)"/>
      <use xlink:href="#DejaVuSans-73" transform="translate(306.201172 0)"/>
     </g>
    </g>
   </g>
   <g id="matplotlib.axis_2">
    <g id="ytick_1">
     <g id="line2d_10">
      <defs>
       <path id="m1cb49ba663" d="M 0 0 
L -3.5 0 
" style="stroke: #000000; stroke-width: 0.8"/>
      </defs>
      <g>
       <use xlink:href="#m1cb49ba663" x="57.6" y="256.933324" style="stroke: #000000; stroke-width: 0.8"/>
      </g>
     </g>
     <g id="text_11">
      <!-- 20 -->
      <g transform="translate(37.875 260.732543) scale(0.1 -0.1)">
       <use xlink:href="#DejaVuSans-32"/>
       <use xlink:href="#DejaVuSans-30" transform="translate(63.623047 0)"/>
      </g>
     </g>
    </g>
    <g id="ytick_2">
     <g id="line2d_11">
      <g>
       <use xlink:href="#m1cb49ba663" x="57.6" y="206.091993" style="stroke: #000000; stroke-width: 0.8"/>
      </g>
     </g>
     <g id="text_12">
      <!-- 40 -->
      <g transform="translate(37.875 209.891212) scale(0.1 -0.1)">
       <defs>
        <path id="DejaVuSans-34" d="M 2419 4116 
L 825 1625 
L 2419 1625 
L 2419 4116 
z
M 2253 4666 
L 3047 4666 
L 3047 1625 
L 3713 1625 
L 3713 1100 
L 3047 1100 
L 3047 0 
L 2419 0 
L 2419 1100 
L 313 1100 
L 313 1709 
L 2253 4666 
z
" transform="scale(0.015625)"/>
       </defs>
       <use xlink:href="#DejaVuSans-34"/>
       <use xlink:href="#DejaVuSans-30" transform="translate(63.623047 0)"/>
      </g>
     </g>
    </g>
    <g id="ytick_3">
     <g id="line2d_12">
      <g>
       <use xlink:href="#m1cb49ba663" x="57.6" y="155.250662" style="stroke: #000000; stroke-width: 0.8"/>
      </g>
     </g>
     <g id="text_13">
      <!-- 60 -->
      <g transform="translate(37.875 159.049881) scale(0.1 -0.1)">
       <defs>
        <path id="DejaVuSans-36" d="M 2113 2584 
Q 1688 2584 1439 2293 
Q 1191 2003 1191 1497 
Q 1191 994 1439 701 
Q 1688 409 2113 409 
Q 2538 409 2786 701 
Q 3034 994 3034 1497 
Q 3034 2003 2786 2293 
Q 2538 2584 2113 2584 
z
M 3366 4563 
L 3366 3988 
Q 3128 4100 2886 4159 
Q 2644 4219 2406 4219 
Q 1781 4219 1451 3797 
Q 1122 3375 1075 2522 
Q 1259 2794 1537 2939 
Q 1816 3084 2150 3084 
Q 2853 3084 3261 2657 
Q 3669 2231 3669 1497 
Q 3669 778 3244 343 
Q 2819 -91 2113 -91 
Q 1303 -91 875 529 
Q 447 1150 447 2328 
Q 447 3434 972 4092 
Q 1497 4750 2381 4750 
Q 2619 4750 2861 4703 
Q 3103 4656 3366 4563 
z
" transform="scale(0.015625)"/>
       </defs>
       <use xlink:href="#DejaVuSans-36"/>
       <use xlink:href="#DejaVuSans-30" transform="translate(63.623047 0)"/>
      </g>
     </g>
    </g>
    <g id="ytick_4">
     <g id="line2d_13">
      <g>
       <use xlink:href="#m1cb49ba663" x="57.6" y="104.409331" style="stroke: #000000; stroke-width: 0.8"/>
      </g>
     </g>
     <g id="text_14">
      <!-- 80 -->
      <g transform="translate(37.875 108.20855) scale(0.1 -0.1)">
       <defs>
        <path id="DejaVuSans-38" d="M 2034 2216 
Q 1584 2216 1326 1975 
Q 1069 1734 1069 1313 
Q 1069 891 1326 650 
Q 1584 409 2034 409 
Q 2484 409 2743 651 
Q 3003 894 3003 1313 
Q 3003 1734 2745 1975 
Q 2488 2216 2034 2216 
z
M 1403 2484 
Q 997 2584 770 2862 
Q 544 3141 544 3541 
Q 544 4100 942 4425 
Q 1341 4750 2034 4750 
Q 2731 4750 3128 4425 
Q 3525 4100 3525 3541 
Q 3525 3141 3298 2862 
Q 3072 2584 2669 2484 
Q 3125 2378 3379 2068 
Q 3634 1759 3634 1313 
Q 3634 634 3220 271 
Q 2806 -91 2034 -91 
Q 1263 -91 848 271 
Q 434 634 434 1313 
Q 434 1759 690 2068 
Q 947 2378 1403 2484 
z
M 1172 3481 
Q 1172 3119 1398 2916 
Q 1625 2713 2034 2713 
Q 2441 2713 2670 2916 
Q 2900 3119 2900 3481 
Q 2900 3844 2670 4047 
Q 2441 4250 2034 4250 
Q 1625 4250 1398 4047 
Q 1172 3844 1172 3481 
z
" transform="scale(0.015625)"/>
       </defs>
       <use xlink:href="#DejaVuSans-38"/>
       <use xlink:href="#DejaVuSans-30" transform="translate(63.623047 0)"/>
      </g>
     </g>
    </g>
    <g id="ytick_5">
     <g id="line2d_14">
      <g>
       <use xlink:href="#m1cb49ba663" x="57.6" y="53.568" style="stroke: #000000; stroke-width: 0.8"/>
      </g>
     </g>
     <g id="text_15">
      <!-- 100 -->
      <g transform="translate(31.5125 57.367219) scale(0.1 -0.1)">
       <use xlink:href="#DejaVuSans-31"/>
       <use xlink:href="#DejaVuSans-30" transform="translate(63.623047 0)"/>
       <use xlink:href="#DejaVuSans-30" transform="translate(127.246094 0)"/>
      </g>
     </g>
    </g>
    <g id="text_16">
     <!-- Accuracy within 5% (%) -->
     <g transform="translate(25.432812 233.872531) rotate(-90) scale(0.1 -0.1)">
      <defs>
       <path id="DejaVuSans-41" d="M 2188 4044 
L 1331 1722 
L 3047 1722 
L 2188 4044 
z
M 1831 4666 
L 2547 4666 
L 4325 0 
L 3669 0 
L 3244 1197 
L 1141 1197 
L 716 0 
L 50 0 
L 1831 4666 
z
" transform="scale(0.015625)"/>
       <path id="DejaVuSans-75" d="M 544 1381 
L 544 3500 
L 1119 3500 
L 1119 1403 
Q 1119 906 1312 657 
Q 1506 409 1894 409 
Q 2359 409 2629 706 
Q 2900 1003 2900 1516 
L 2900 3500 
L 3475 3500 
L 3475 0 
L 2900 0 
L 2900 538 
Q 2691 219 2414 64 
Q 2138 -91 1772 -91 
Q 1169 -91 856 284 
Q 544 659 544 1381 
z
M 1991 3584 
L 1991 3584 
z
" transform="scale(0.015625)"/>
       <path id="DejaVuSans-72" d="M 2631 2963 
Q 2534 3019 2420 3045 
Q 2306 3072 2169 3072 
Q 1681 3072 1420 2755 
Q 1159 2438 1159 1844 
L 1159 0 
L 581 0 
L 581 3500 
L 1159 3500 
L 1159 2956 
Q 1341 3275 1631 3429 
Q 1922 3584 2338 3584 
Q 2397 3584 2469 3576 
Q 2541 3569 2628 3553 
L 2631 2963 
z
" transform="scale(0.015625)"/>
       <path id="DejaVuSans-61" d="M 2194 1759 
Q 1497 1759 1228 1600 
Q 959 1441 959 1056 
Q 959 750 1161 570 
Q 1363 391 1709 391 
Q 2188 391 2477 730 
Q 2766 1069 2766 1631 
L 2766 1759 
L 2194 1759 
z
M 3341 1997 
L 3341 0 
L 2766 0 
L 2766 531 
Q 2569 213 2275 61 
Q 1981 -91 1556 -91 
Q 1019 -91 701 211 
Q 384 513 384 1019 
Q 384 1609 779 1909 
Q 1175 2209 1959 2209 
L 2766 2209 
L 2766 2266 
Q 2766 2663 2505 2880 
Q 2244 3097 1772 3097 
Q 1472 3097 1187 3025 
Q 903 2953 641 2809 
L 641 3341 
Q 956 3463 1253 3523 
Q 1550 3584 1831 3584 
Q 2591 3584 2966 3190 
Q 3341 2797 3341 1997 
z
" transform="scale(0.015625)"/>
       <path id="DejaVuSans-79" d="M 2059 -325 
Q 1816 -950 1584 -1140 
Q 1353 -1331 966 -1331 
L 506 -1331 
L 506 -850 
L 844 -850 
Q 1081 -850 1212 -737 
Q 1344 -625 1503 -206 
L 1606 56 
L 191 3500 
L 800 3500 
L 1894 763 
L 2988 3500 
L 3597 3500 
L 2059 -325 
z
" transform="scale(0.015625)"/>
       <path id="DejaVuSans-20" transform="scale(0.015625)"/>
       <path id="DejaVuSans-77" d="M 269 3500 
L 844 3500 
L 1563 769 
L 2278 3500 
L 2956 3500 
L 3675 769 
L 4391 3500 
L 4966 3500 
L 4050 0 
L 3372 0 
L 2619 2869 
L 1863 0 
L 1184 0 
L 269 3500 
z
" transform="scale(0.015625)"/>
       <path id="DejaVuSans-69" d="M 603 3500 
L 1178 3500 
L 1178 0 
L 603 0 
L 603 3500 
z
M 603 4863 
L 1178 4863 
L 1178 4134 
L 603 4134 
L 603 4863 
z
" transform="scale(0.015625)"/>
       <path id="DejaVuSans-74" d="M 1172 4494 
L 1172 3500 
L 2356 3500 
L 2356 3053 
L 1172 3053 
L 1172 1153 
Q 1172 725 1289 603 
Q 1406 481 1766 481 
L 2356 481 
L 2356 0 
L 1766 0 
Q 1100 0 847 248 
Q 594 497 594 1153 
L 594 3053 
L 172 3053 
L 172 3500 
L 594 3500 
L 594 4494 
L 1172 4494 
z
" transform="scale(0.015625)"/>
       <path id="DejaVuSans-6e" d="M 3513 2113 
L 3513 0 
L 2938 0 
L 2938 2094 
Q 2938 2591 2744 2837 
Q 2550 3084 2163 3084 
Q 1697 3084 1428 2787 
Q 1159 2491 1159 1978 
L 1159 0 
L 581 0 
L 581 3500 
L 1159 3500 
L 1159 2956 
Q 1366 3272 1645 3428 
Q 1925 3584 2291 3584 
Q 2894 3584 3203 3211 
Q 3513 2838 3513 2113 
z
" transform="scale(0.015625)"/>
       <path id="DejaVuSans-25" d="M 4653 2053 
Q 4381 2053 4226 1822 
Q 4072 1591 4072 1178 
Q 4072 772 4226 539 
Q 4381 306 4653 306 
Q 4919 306 5073 539 
Q 5228 772 5228 1178 
Q 5228 1588 5073 1820 
Q 4919 2053 4653 2053 
z
M 4653 2450 
Q 5147 2450 5437 2106 
Q 5728 1763 5728 1178 
Q 5728 594 5436 251 
Q 5144 -91 4653 -91 
Q 4153 -91 3862 251 
Q 3572 594 3572 1178 
Q 3572 1766 3864 2108 
Q 4156 2450 4653 2450 
z
M 1428 4353 
Q 1159 4353 1004 4120 
Q 850 3888 850 3481 
Q 850 3069 1003 2837 
Q 1156 2606 1428 2606 
Q 1700 2606 1854 2837 
Q 2009 3069 2009 3481 
Q 2009 3884 1853 4118 
Q 1697 4353 1428 4353 
z
M 4250 4750 
L 4750 4750 
L 1831 -91 
L 1331 -91 
L 4250 4750 
z
M 1428 4750 
Q 1922 4750 2215 4408 
Q 2509 4066 2509 3481 
Q 2509 2891 2217 2550 
Q 1925 2209 1428 2209 
Q 931 2209 642 2551 
Q 353 2894 353 3481 
Q 353 4063 643 4406 
Q 934 4750 1428 4750 
z
" transform="scale(0.015625)"/>
       <path id="DejaVuSans-28" d="M 1984 4856 
Q 1566 4138 1362 3434 
Q 1159 2731 1159 2009 
Q 1159 1288 1364 580 
Q 1569 -128 1984 -844 
L 1484 -844 
Q 1016 -109 783 600 
Q 550 1309 550 2009 
Q 550 2706 781 3412 
Q 1013 4119 1484 4856 
L 1984 4856 
z
" transform="scale(0.015625)"/>
       <path id="DejaVuSans-29" d="M 513 4856 
L 1013 4856 
Q 1481 4119 1714 3412 
Q 1947 2706 1947 2009 
Q 1947 1309 1714 600 
Q 1481 -109 1013 -844 
L 513 -844 
Q 928 -128 1133 580 
Q 1338 1288 1338 2009 
Q 1338 2731 1133 3434 
Q 928 4138 513 4856 
z
" transform="scale(0.015625)"/>
      </defs>
      <use xlink:href="#DejaVuSans-41"/>
      <use xlink:href="#DejaVuSans-63" transform="translate(66.658203 0)"/>
      <use xlink:href="#DejaVuSans-63" transform="translate(121.638672 0)"/>
      <use xlink:href="#DejaVuSans-75" transform="translate(176.619141 0)"/>
      <use xlink:href="#DejaVuSans-72" transform="translate(239.998047 0)"/>
      <use xlink:href="#DejaVuSans-61" transform="translate(281.111328 0)"/>
      <use xlink:href="#DejaVuSans-63" transform="translate(342.390625 0)"/>
      <use xlink:href="#DejaVuSans-79" transform="translate(397.371094 0)"/>
      <use xlink:href="#DejaVuSans-20" transform="translate(456.550781 0)"/>
      <use xlink:href="#DejaVuSans-77" transform="translate(488.337891 0)"/>
      <use xlink:href="#DejaVuSans-69" transform="translate(570.125 0)"/>
      <use xlink:href="#DejaVuSans-74" transform="translate(597.908203 0)"/>
      <use xlink:href="#DejaVuSans-68" transform="translate(637.117188 0)"/>
      <use xlink:href="#DejaVuSans-69" transform="translate(700.496094 0)"/>
      <use xlink:href="#DejaVuSans-6e" transform="translate(728.279297 0)"/>
      <use xlink:href="#DejaVuSans-20" transform="translate(791.658203 0)"/>
      <use xlink:href="#DejaVuSans-35" transform="translate(823.445312 0)"/>
      <use xlink:href="#DejaVuSans-25" transform="translate(887.068359 0)"/>
      <use xlink:href="#DejaVuSans-20" transform="translate(982.087891 0)"/>
      <use xlink:href="#DejaVuSans-28" transform="translate(1013.875 0)"/>
      <use xlink:href="#DejaVuSans-25" transform="translate(1052.888672 0)"/>
      <use xlink:href="#DejaVuSans-29" transform="translate(1147.908203 0)"/>
     </g>
    </g>
   </g>
   <g id="line2d_15">
    <path d="M 73.832727 295.488 
L 74.319709 282.35399 
L 74.482036 284.472378 
L 74.644364 283.201344 
L 74.806691 275.998824 
L 75.131345 278.964567 
L 75.456 270.067333 
L 75.780655 284.472378 
L 75.942982 285.743412 
L 76.267636 273.033078 
L 76.429964 262.017456 
L 76.592291 220.497037 
L 76.754618 244.646669 
L 77.079273 254.814933 
L 77.2416 162.876864 
L 77.403927 143.811352 
L 77.566255 164.571573 
L 77.728582 142.116643 
L 78.053236 247.188733 
L 78.215564 152.708592 
L 78.377891 186.602811 
L 78.540218 137.456192 
L 78.702545 140.421934 
L 78.864873 139.574579 
L 79.0272 188.721205 
L 79.189527 155.674334 
L 79.351855 250.578156 
L 79.514182 92.546347 
L 79.676509 81.954398 
L 79.838836 82.378075 
L 80.001164 71.362464 
L 80.163491 78.141302 
L 80.325818 260.746424 
L 80.488145 119.661728 
L 80.650473 110.340811 
L 80.8128 126.016888 
L 80.975127 109.493456 
L 81.137455 79.412334 
L 81.299782 100.596232 
L 81.462109 88.309573 
L 81.624436 104.833005 
L 81.786764 69.667755 
L 81.949091 69.244077 
L 82.111418 191.686947 
L 82.273745 162.029509 
L 82.436073 245.917701 
L 82.5984 129.406307 
L 82.760727 136.608837 
L 82.923055 76.446592 
L 83.085382 68.8204 
L 83.247709 70.515109 
L 83.410036 67.973045 
L 83.572364 68.396723 
L 83.897018 96.359443 
L 84.059345 137.456192 
L 84.221673 65.854643 
L 84.384 75.17556 
L 84.546327 76.446592 
L 84.708655 92.12267 
L 84.870982 135.337805 
L 85.033309 87.462219 
L 85.195636 94.664734 
L 85.357964 68.396723 
L 85.520291 66.278321 
L 85.682618 67.549353 
L 85.844945 70.938787 
L 86.007273 100.172555 
L 86.1696 66.278321 
L 86.331927 59.499483 
L 86.494255 105.68036 
L 86.656582 62.888902 
L 86.818909 90.004283 
L 86.981236 68.396723 
L 87.143564 70.515109 
L 87.305891 142.963998 
L 87.468218 61.61787 
L 87.630545 104.833005 
L 87.792873 108.646102 
L 88.117527 62.888902 
L 88.279855 105.256683 
L 88.442182 62.888902 
L 88.604509 59.075806 
L 88.766836 66.278321 
L 88.929164 78.988656 
L 89.253818 64.159934 
L 89.416145 126.864243 
L 89.578473 120.93276 
L 89.903127 68.396723 
L 90.065455 76.446592 
L 90.227782 74.751883 
L 90.390109 81.107043 
L 90.552436 115.424954 
L 90.714764 59.92316 
L 90.877091 63.312579 
L 91.039418 62.041547 
L 91.201745 74.751883 
L 91.364073 147.624464 
L 91.688727 78.564979 
L 91.851055 157.369043 
L 92.013382 142.116643 
L 92.175709 116.272309 
L 92.338036 65.007289 
L 92.500364 70.515109 
L 92.662691 68.8204 
L 92.987345 59.92316 
L 93.149673 64.583611 
L 93.312 60.770515 
L 93.474327 81.954398 
L 93.636655 88.309573 
L 93.798982 178.129264 
L 93.961309 90.004283 
L 94.123636 62.888902 
L 94.285964 76.022915 
L 94.448291 66.701998 
L 94.610618 74.751883 
L 94.772945 159.063752 
L 94.935273 164.571573 
L 95.259927 64.159934 
L 95.422255 118.390696 
L 95.584582 106.104038 
L 95.909236 210.752443 
L 96.071564 74.328206 
L 96.233891 87.885896 
L 96.558545 76.87027 
L 96.720873 71.362464 
L 96.8832 58.228451 
L 97.045527 84.496477 
L 97.207855 70.938787 
L 97.370182 70.515109 
L 97.532509 61.194192 
L 97.694836 150.166528 
L 97.857164 106.104038 
L 98.019491 119.238051 
L 98.344145 62.888902 
L 98.506473 153.555947 
L 98.6688 59.075806 
L 98.831127 59.075806 
L 98.993455 72.633496 
L 99.155782 69.667755 
L 99.318109 59.92316 
L 99.480436 94.241056 
L 99.642764 59.92316 
L 99.805091 69.244077 
L 99.967418 61.61787 
L 100.129745 87.885896 
L 100.292073 74.328206 
L 100.4544 234.05472 
L 100.779055 70.938787 
L 100.941382 122.203792 
L 101.103709 62.041547 
L 101.266036 60.770515 
L 101.428364 64.583611 
L 101.753018 56.957419 
L 101.915345 65.854643 
L 102.077673 56.957419 
L 102.24 98.901522 
L 102.402327 61.61787 
L 102.564655 71.362464 
L 102.726982 210.752443 
L 102.889309 97.206798 
L 103.213964 191.263269 
L 103.538618 66.701998 
L 103.700945 60.346838 
L 103.863273 63.736257 
L 104.0256 57.381096 
L 104.187927 66.278321 
L 104.350255 60.346838 
L 104.512582 63.312579 
L 104.674909 59.92316 
L 104.837236 86.191187 
L 104.999564 67.125675 
L 105.161891 145.506077 
L 105.324218 79.412334 
L 105.486545 61.194192 
L 105.648873 58.228451 
L 105.973527 77.717624 
L 106.135855 123.898502 
L 106.460509 65.430966 
L 106.622836 58.228451 
L 106.785164 64.159934 
L 106.947491 75.17556 
L 107.109818 73.480851 
L 107.272145 121.780115 
L 107.434473 89.580606 
L 107.5968 149.319173 
L 107.759127 282.777667 
L 107.921455 240.833565 
L 108.083782 259.899069 
L 108.246109 84.496477 
L 108.408436 67.125675 
L 108.570764 62.041547 
L 108.733091 90.42796 
L 108.895418 63.312579 
L 109.057745 58.652128 
L 109.220073 68.8204 
L 109.3824 60.770515 
L 109.544727 66.278321 
L 109.707055 62.888902 
L 109.869382 67.973045 
L 110.031709 89.580606 
L 110.194036 58.652128 
L 110.356364 58.228451 
L 110.518691 58.228451 
L 110.681018 75.17556 
L 110.843345 57.804774 
L 111.005673 67.549353 
L 111.168 56.110064 
L 111.492655 65.854643 
L 111.654982 57.381096 
L 111.817309 56.533741 
L 111.979636 57.804774 
L 112.141964 55.686387 
L 112.304291 71.362464 
L 112.466618 59.075806 
L 112.628945 78.141302 
L 112.9536 56.533741 
L 113.115927 57.381096 
L 113.278255 56.533741 
L 113.440582 57.381096 
L 113.765236 101.019909 
L 113.927564 145.929754 
L 114.252218 70.091432 
L 114.414545 58.228451 
L 114.576873 62.041547 
L 114.7392 59.92316 
L 114.901527 67.125675 
L 115.063855 61.194192 
L 115.226182 62.888902 
L 115.388509 57.381096 
L 115.550836 91.698992 
L 116.037818 56.110064 
L 116.200145 60.770515 
L 116.362473 56.110064 
L 116.5248 56.957419 
L 116.687127 63.312579 
L 116.849455 91.698992 
L 117.011782 139.574579 
L 117.174109 69.667755 
L 117.336436 75.17556 
L 117.661091 59.075806 
L 117.823418 56.110064 
L 117.985745 56.110064 
L 118.3104 63.736257 
L 118.472727 62.041547 
L 118.635055 57.381096 
L 118.797382 77.717624 
L 118.959709 60.346838 
L 119.122036 56.533741 
L 119.284364 62.888902 
L 119.446691 131.524709 
L 119.609018 65.430966 
L 119.771345 66.278321 
L 119.933673 157.79272 
L 120.096 156.945366 
L 120.258327 274.30411 
L 120.582982 100.596232 
L 120.745309 118.814373 
L 121.069964 57.381096 
L 121.232291 60.770515 
L 121.394618 58.652128 
L 121.556945 60.346838 
L 121.719273 58.652128 
L 121.8816 59.92316 
L 122.043927 66.701998 
L 122.206255 60.346838 
L 122.368582 60.346838 
L 122.530909 57.804774 
L 122.855564 62.888902 
L 123.017891 62.888902 
L 123.180218 55.686387 
L 123.342545 67.549353 
L 123.504873 56.533741 
L 123.6672 57.381096 
L 124.154182 91.698992 
L 124.478836 67.549353 
L 124.641164 77.293947 
L 124.803491 67.549353 
L 125.128145 105.256683 
L 125.290473 57.381096 
L 125.4528 58.228451 
L 125.615127 56.533741 
L 125.777455 74.751883 
L 125.939782 59.499483 
L 126.102109 62.465224 
L 126.264436 107.798747 
L 126.426764 74.328206 
L 126.589091 91.275315 
L 126.913745 100.596232 
L 127.076073 228.970592 
L 127.563055 84.496477 
L 127.725382 66.701998 
L 127.887709 68.8204 
L 128.050036 57.381096 
L 128.212364 58.652128 
L 128.374691 123.474824 
L 128.537018 60.770515 
L 128.699345 84.496477 
L 128.861673 58.652128 
L 129.024 67.973045 
L 129.348655 59.075806 
L 129.510982 54.839032 
L 129.997964 61.194192 
L 130.160291 60.770515 
L 130.322618 57.381096 
L 130.484945 62.465224 
L 130.647273 56.110064 
L 130.8096 70.515109 
L 130.971927 95.512088 
L 131.296582 58.652128 
L 131.458909 59.499483 
L 131.621236 55.686387 
L 131.945891 56.957419 
L 132.108218 56.110064 
L 132.270545 56.957419 
L 132.432873 70.091432 
L 132.5952 67.549353 
L 132.757527 57.381096 
L 132.919855 129.406307 
L 133.082182 66.278321 
L 133.244509 60.346838 
L 133.569164 83.225445 
L 133.731491 131.948386 
L 133.893818 79.412334 
L 134.056145 82.378075 
L 134.218473 69.667755 
L 134.3808 66.701998 
L 134.543127 75.17556 
L 134.705455 108.222424 
L 134.867782 190.415915 
L 135.030109 82.378075 
L 135.192436 142.963998 
L 135.354764 60.770515 
L 135.517091 64.159934 
L 135.679418 62.041547 
L 136.1664 70.515109 
L 136.328727 58.652128 
L 136.491055 66.701998 
L 136.653382 57.804774 
L 136.815709 61.61787 
L 136.978036 56.957419 
L 137.140364 63.312579 
L 137.302691 62.465224 
L 137.465018 57.381096 
L 137.627345 58.652128 
L 137.789673 134.066773 
L 137.952 55.262709 
L 138.114327 65.007289 
L 138.276655 56.957419 
L 138.438982 55.686387 
L 138.601309 55.686387 
L 138.763636 60.770515 
L 138.925964 56.110064 
L 139.088291 56.957419 
L 139.250618 56.110064 
L 139.412945 189.56856 
L 139.575273 76.446592 
L 139.7376 87.885896 
L 139.899927 70.938787 
L 140.062255 70.938787 
L 140.224582 57.804774 
L 140.386909 58.652128 
L 140.549236 58.652128 
L 140.873891 82.378075 
L 141.036218 74.751883 
L 141.198545 78.564979 
L 141.360873 62.888902 
L 141.5232 69.244077 
L 141.685527 61.61787 
L 141.847855 62.465224 
L 142.010182 61.61787 
L 142.334836 219.649682 
L 142.497164 288.285478 
L 142.659491 292.522256 
L 142.821818 268.372624 
L 142.984145 137.456192 
L 143.3088 79.836011 
L 143.471127 82.378075 
L 143.633455 143.811352 
L 143.795782 90.851638 
L 143.958109 100.596232 
L 144.282764 62.465224 
L 144.445091 63.736257 
L 144.607418 101.867264 
L 144.769745 68.396723 
L 144.932073 65.007289 
L 145.0944 65.007289 
L 145.256727 56.957419 
L 145.419055 59.075806 
L 145.743709 56.533741 
L 145.906036 60.346838 
L 146.230691 55.262709 
L 146.555345 56.110064 
L 146.717673 61.194192 
L 146.88 61.194192 
L 147.042327 56.110064 
L 147.204655 56.957419 
L 147.366982 63.312579 
L 147.529309 87.885896 
L 147.691636 68.396723 
L 147.853964 63.312579 
L 148.016291 63.312579 
L 148.340945 57.804774 
L 148.503273 56.957419 
L 148.6656 59.499483 
L 148.990255 56.110064 
L 149.152582 56.957419 
L 149.477236 55.262709 
L 149.639564 56.110064 
L 149.801891 55.262709 
L 150.126545 57.804774 
L 150.288873 147.200786 
L 150.4512 151.013883 
L 150.613527 73.480851 
L 150.775855 56.957419 
L 150.938182 60.770515 
L 151.100509 54.415355 
L 151.262836 54.839032 
L 151.587491 57.804774 
L 151.749818 57.381096 
L 151.912145 55.262709 
L 152.074473 55.262709 
L 152.2368 54.839032 
L 152.399127 56.110064 
L 152.561455 53.991677 
L 152.886109 57.804774 
L 153.210764 54.839032 
L 153.535418 65.430966 
L 153.860073 54.415355 
L 154.0224 62.041547 
L 154.184727 138.727224 
L 154.347055 63.736257 
L 154.509382 58.652128 
L 154.671709 109.493456 
L 154.834036 56.957419 
L 154.996364 60.346838 
L 155.158691 74.328206 
L 155.321018 57.381096 
L 155.483345 56.957419 
L 155.645673 56.110064 
L 155.808 57.381096 
L 155.970327 55.686387 
L 156.132655 56.957419 
L 156.294982 53.991677 
L 156.619636 56.110064 
L 156.781964 54.415355 
L 157.106618 54.415355 
L 157.268945 55.262709 
L 157.5936 86.614864 
L 157.755927 79.412334 
L 157.918255 81.107043 
L 158.080582 70.938787 
L 158.242909 73.904528 
L 158.405236 63.736257 
L 158.567564 66.278321 
L 158.729891 58.228451 
L 158.892218 57.381096 
L 159.054545 61.61787 
L 159.3792 55.686387 
L 159.541527 71.362464 
L 160.028509 56.533741 
L 160.190836 55.686387 
L 160.353164 56.533741 
L 160.515491 55.686387 
L 160.677818 64.159934 
L 160.840145 56.533741 
L 161.002473 59.075806 
L 161.1648 56.110064 
L 161.327127 62.041547 
L 161.489455 59.499483 
L 161.651782 188.297528 
L 161.976436 67.549353 
L 162.138764 87.885896 
L 162.301091 92.970024 
L 162.463418 106.104038 
L 162.9504 61.61787 
L 163.112727 59.92316 
L 163.275055 67.973045 
L 163.437382 58.228451 
L 163.599709 62.465224 
L 163.762036 56.533741 
L 163.924364 65.430966 
L 164.086691 62.465224 
L 164.249018 75.17556 
L 164.411345 78.988656 
L 164.573673 156.521688 
L 164.736 66.278321 
L 164.898327 58.652128 
L 165.060655 70.515109 
L 165.222982 71.786141 
L 165.385309 94.241056 
L 165.709964 61.194192 
L 165.872291 96.783121 
L 166.034618 71.786141 
L 166.196945 67.125675 
L 166.359273 57.804774 
L 166.5216 61.61787 
L 166.683927 57.804774 
L 166.846255 57.381096 
L 167.008582 58.228451 
L 167.333236 66.278321 
L 167.495564 58.228451 
L 167.657891 66.278321 
L 167.820218 66.278321 
L 167.982545 63.312579 
L 168.144873 62.888902 
L 168.3072 55.686387 
L 168.469527 78.988656 
L 168.631855 128.135275 
L 168.794182 58.228451 
L 168.956509 67.125675 
L 169.118836 58.228451 
L 169.281164 61.194192 
L 169.443491 56.533741 
L 169.605818 56.533741 
L 169.768145 56.957419 
L 169.930473 55.262709 
L 170.0928 60.346838 
L 170.255127 72.209819 
L 170.417455 56.110064 
L 170.579782 64.159934 
L 170.742109 65.007289 
L 170.904436 57.381096 
L 171.066764 58.228451 
L 171.229091 70.515109 
L 171.391418 64.583611 
L 171.553745 98.054153 
L 171.716073 99.3252 
L 171.8784 85.343832 
L 172.040727 184.060747 
L 172.203055 80.259689 
L 172.365382 63.312579 
L 172.527709 65.007289 
L 172.690036 58.652128 
L 172.852364 66.278321 
L 173.014691 55.686387 
L 173.177018 57.381096 
L 173.339345 62.465224 
L 173.501673 75.599238 
L 173.664 56.533741 
L 173.826327 95.088411 
L 173.988655 65.007289 
L 174.150982 69.667755 
L 174.313309 58.228451 
L 174.475636 55.686387 
L 174.637964 56.533741 
L 174.962618 54.415355 
L 175.124945 55.686387 
L 175.4496 62.888902 
L 175.611927 58.652128 
L 175.774255 62.041547 
L 175.936582 56.957419 
L 176.098909 68.8204 
L 176.261236 92.546347 
L 176.423564 62.041547 
L 176.910545 92.970024 
L 177.072873 58.652128 
L 177.2352 89.156928 
L 177.559855 61.194192 
L 177.722182 59.075806 
L 177.884509 58.652128 
L 178.046836 58.652128 
L 178.209164 59.075806 
L 178.371491 56.533741 
L 178.533818 58.228451 
L 178.696145 95.088411 
L 178.858473 61.194192 
L 179.0208 67.973045 
L 179.183127 57.381096 
L 179.345455 58.228451 
L 179.507782 58.228451 
L 179.670109 65.854643 
L 179.832436 103.138296 
L 179.994764 60.770515 
L 180.157091 62.041547 
L 180.319418 56.533741 
L 180.481745 54.839032 
L 180.8064 58.228451 
L 180.968727 71.362464 
L 181.293382 56.110064 
L 181.455709 54.415355 
L 181.618036 55.686387 
L 181.780364 60.346838 
L 181.942691 53.991677 
L 182.105018 65.430966 
L 182.429673 199.313147 
L 182.592 151.013883 
L 182.754327 161.605832 
L 183.078982 81.107043 
L 183.403636 118.814373 
L 183.890618 56.110064 
L 184.052945 60.346838 
L 184.215273 57.381096 
L 184.3776 59.92316 
L 184.539927 60.346838 
L 184.702255 59.075806 
L 184.864582 59.075806 
L 185.189236 56.110064 
L 185.351564 56.533741 
L 185.513891 54.415355 
L 185.676218 55.686387 
L 185.838545 62.465224 
L 186.000873 57.381096 
L 186.1632 56.110064 
L 186.325527 57.381096 
L 186.487855 66.278321 
L 186.650182 92.12267 
L 186.812509 58.652128 
L 187.137164 55.262709 
L 187.299491 150.590205 
L 187.461818 123.051147 
L 187.624145 131.948386 
L 187.9488 84.920155 
L 188.111127 104.833005 
L 188.273455 59.075806 
L 188.435782 55.686387 
L 188.598109 64.159934 
L 188.760436 57.804774 
L 188.922764 56.533741 
L 189.085091 56.957419 
L 189.247418 88.733251 
L 189.409745 59.075806 
L 189.572073 56.110064 
L 189.7344 61.194192 
L 190.059055 54.415355 
L 190.221382 85.343832 
L 190.383709 67.549353 
L 190.546036 62.888902 
L 190.708364 68.396723 
L 190.870691 68.396723 
L 191.033018 57.381096 
L 191.195345 55.686387 
L 191.357673 55.262709 
L 191.52 56.957419 
L 191.682327 55.262709 
L 191.844655 68.8204 
L 192.006982 69.667755 
L 192.169309 59.075806 
L 192.331636 56.533741 
L 192.493964 67.549353 
L 192.656291 58.228451 
L 192.818618 59.499483 
L 192.980945 67.973045 
L 193.143273 89.580606 
L 193.3056 70.938787 
L 193.467927 81.530721 
L 193.630255 59.92316 
L 193.792582 60.346838 
L 193.954909 54.415355 
L 194.117236 82.801753 
L 194.279564 76.87027 
L 194.441891 57.804774 
L 194.604218 62.465224 
L 194.766545 57.381096 
L 194.928873 56.110064 
L 195.0912 56.957419 
L 195.253527 55.686387 
L 195.578182 58.228451 
L 195.902836 65.007289 
L 196.065164 204.82096 
L 196.389818 98.47783 
L 196.552145 80.259689 
L 196.714473 81.107043 
L 196.8768 65.854643 
L 197.039127 80.683366 
L 197.201455 171.774088 
L 197.526109 80.683366 
L 197.688436 72.633496 
L 197.850764 84.496477 
L 198.013091 66.701998 
L 198.175418 78.988656 
L 198.337745 60.770515 
L 198.500073 118.390696 
L 198.6624 115.848632 
L 198.824727 71.362464 
L 198.987055 69.667755 
L 199.149382 69.244077 
L 199.311709 76.022915 
L 199.474036 68.396723 
L 199.636364 86.614864 
L 199.798691 55.686387 
L 199.961018 57.804774 
L 200.123345 58.228451 
L 200.285673 56.533741 
L 200.610327 57.381096 
L 200.772655 60.346838 
L 200.934982 55.262709 
L 201.259636 57.804774 
L 201.421964 55.686387 
L 201.584291 58.228451 
L 201.746618 55.262709 
L 201.908945 63.312579 
L 202.071273 56.957419 
L 202.2336 59.499483 
L 202.395927 55.262709 
L 202.720582 54.415355 
L 202.882909 54.839032 
L 203.045236 54.839032 
L 203.207564 53.568 
L 203.369891 65.007289 
L 203.532218 56.533741 
L 203.694545 60.346838 
L 203.856873 56.533741 
L 204.181527 57.804774 
L 204.343855 60.346838 
L 204.506182 55.686387 
L 204.668509 54.415355 
L 204.830836 56.533741 
L 204.993164 56.533741 
L 205.317818 75.599238 
L 205.480145 115.424954 
L 205.642473 70.515109 
L 205.8048 94.664734 
L 205.967127 92.970024 
L 206.129455 63.312579 
L 206.454109 98.901522 
L 206.941091 60.346838 
L 207.103418 103.985651 
L 207.265745 67.973045 
L 207.428073 80.683366 
L 207.5904 105.256683 
L 207.752727 178.552941 
L 208.239709 63.312579 
L 208.402036 70.938787 
L 208.726691 56.533741 
L 208.889018 87.038541 
L 209.051345 80.259689 
L 209.213673 136.608837 
L 209.376 79.412334 
L 209.538327 85.343832 
L 210.025309 56.110064 
L 210.187636 56.957419 
L 210.349964 58.228451 
L 210.674618 54.839032 
L 210.836945 54.839032 
L 210.999273 54.415355 
L 211.323927 56.533741 
L 211.486255 55.262709 
L 211.810909 55.262709 
L 212.135564 53.991677 
L 212.297891 54.839032 
L 212.460218 54.839032 
L 212.622545 58.228451 
L 212.9472 55.262709 
L 213.109527 55.686387 
L 213.271855 53.991677 
L 213.434182 54.415355 
L 213.596509 53.568 
L 213.758836 53.568 
L 213.921164 55.262709 
L 214.245818 65.430966 
L 214.408145 57.381096 
L 214.570473 60.346838 
L 214.7328 53.991677 
L 214.895127 54.839032 
L 215.057455 53.991677 
L 215.219782 53.991677 
L 215.382109 56.110064 
L 215.544436 54.415355 
L 215.706764 89.580606 
L 215.869091 81.954398 
L 216.031418 56.533741 
L 216.193745 59.92316 
L 216.5184 62.041547 
L 216.680727 68.396723 
L 217.005382 55.262709 
L 217.167709 56.957419 
L 217.330036 84.496477 
L 217.492364 78.564979 
L 217.654691 56.533741 
L 217.817018 83.649123 
L 217.979345 65.007289 
L 218.304 55.686387 
L 218.466327 57.804774 
L 218.790982 53.568 
L 218.953309 53.568 
L 219.115636 55.262709 
L 219.440291 68.8204 
L 219.602618 55.686387 
L 219.764945 201.855211 
L 219.927273 95.512088 
L 220.0896 213.294514 
L 220.414255 263.288492 
L 220.738909 135.337805 
L 221.225891 66.701998 
L 221.388218 61.61787 
L 221.550545 73.480851 
L 221.712873 67.973045 
L 221.8752 66.701998 
L 222.037527 67.125675 
L 222.199855 59.92316 
L 222.362182 60.346838 
L 222.524509 64.159934 
L 222.686836 57.381096 
L 222.849164 58.228451 
L 223.011491 69.244077 
L 223.173818 59.92316 
L 223.336145 65.007289 
L 223.498473 56.533741 
L 223.6608 62.465224 
L 223.823127 60.346838 
L 223.985455 56.533741 
L 224.147782 65.854643 
L 224.310109 56.533741 
L 224.472436 56.110064 
L 224.797091 53.991677 
L 225.121745 78.988656 
L 225.284073 58.652128 
L 225.4464 54.839032 
L 225.608727 56.110064 
L 225.771055 55.686387 
L 225.933382 56.957419 
L 226.095709 54.415355 
L 226.258036 54.839032 
L 226.420364 53.568 
L 226.582691 54.415355 
L 226.745018 54.415355 
L 227.069673 53.568 
L 227.232 61.194192 
L 227.556655 53.568 
L 227.881309 56.533741 
L 228.043636 60.770515 
L 228.205964 60.770515 
L 228.368291 58.652128 
L 228.530618 58.652128 
L 228.692945 56.110064 
L 228.855273 56.110064 
L 229.0176 53.991677 
L 229.179927 54.839032 
L 229.342255 54.415355 
L 229.504582 60.770515 
L 229.666909 53.991677 
L 229.829236 118.390696 
L 229.991564 57.804774 
L 230.153891 54.839032 
L 230.316218 57.381096 
L 230.478545 54.415355 
L 230.8032 56.110064 
L 230.965527 62.888902 
L 231.127855 55.686387 
L 231.290182 55.686387 
L 231.777164 76.446592 
L 231.939491 61.61787 
L 232.101818 59.075806 
L 232.264145 62.041547 
L 232.426473 54.839032 
L 232.5888 54.415355 
L 232.751127 60.770515 
L 232.913455 55.686387 
L 233.075782 54.415355 
L 233.238109 59.075806 
L 233.562764 55.262709 
L 233.725091 62.888902 
L 233.887418 54.839032 
L 234.049745 54.415355 
L 234.212073 56.110064 
L 234.3744 54.415355 
L 234.536727 53.991677 
L 234.699055 53.991677 
L 234.861382 54.839032 
L 235.023709 54.415355 
L 235.186036 60.770515 
L 235.348364 56.110064 
L 235.510691 55.686387 
L 235.835345 54.415355 
L 235.997673 59.075806 
L 236.16 59.499483 
L 236.322327 58.652128 
L 236.484655 56.957419 
L 236.646982 53.991677 
L 236.809309 61.194192 
L 236.971636 55.262709 
L 237.133964 57.381096 
L 237.296291 54.839032 
L 237.458618 54.415355 
L 237.620945 58.652128 
L 237.783273 58.228451 
L 237.9456 54.415355 
L 238.107927 53.991677 
L 238.270255 55.262709 
L 238.432582 54.839032 
L 238.594909 57.804774 
L 238.757236 78.988656 
L 239.081891 71.786141 
L 239.244218 59.92316 
L 239.406545 60.770515 
L 239.568873 56.957419 
L 239.7312 61.194192 
L 240.055855 54.839032 
L 240.218182 60.346838 
L 240.380509 57.381096 
L 240.542836 60.346838 
L 240.705164 54.415355 
L 240.867491 56.533741 
L 241.192145 70.515109 
L 241.354473 134.066773 
L 241.5168 134.066773 
L 241.679127 145.506077 
L 242.166109 62.888902 
L 242.328436 66.701998 
L 242.490764 57.804774 
L 242.653091 55.262709 
L 242.815418 56.957419 
L 242.977745 55.686387 
L 243.140073 58.228451 
L 243.3024 57.804774 
L 243.464727 56.533741 
L 243.627055 59.499483 
L 243.951709 55.686387 
L 244.114036 54.839032 
L 244.276364 56.957419 
L 244.601018 54.839032 
L 244.763345 55.262709 
L 244.925673 56.110064 
L 245.088 53.568 
L 245.250327 58.228451 
L 245.412655 54.415355 
L 245.574982 55.262709 
L 245.737309 59.92316 
L 245.899636 55.262709 
L 246.061964 54.415355 
L 246.224291 55.686387 
L 246.386618 62.888902 
L 246.548945 62.888902 
L 246.8736 55.686387 
L 247.035927 56.110064 
L 247.198255 108.646102 
L 247.360582 66.701998 
L 247.522909 73.057173 
L 247.847564 59.075806 
L 248.009891 62.041547 
L 248.334545 58.652128 
L 248.496873 55.686387 
L 248.821527 53.568 
L 248.983855 54.415355 
L 249.308509 53.568 
L 249.470836 54.415355 
L 249.633164 53.991677 
L 249.795491 54.415355 
L 249.957818 53.991677 
L 250.120145 55.686387 
L 250.607127 65.430966 
L 250.769455 62.888902 
L 251.094109 82.801753 
L 251.256436 229.817946 
L 251.418764 67.125675 
L 251.581091 67.125675 
L 251.743418 65.430966 
L 251.905745 70.515109 
L 252.068073 56.533741 
L 252.2304 56.110064 
L 252.392727 69.667755 
L 252.555055 66.278321 
L 252.717382 56.533741 
L 252.879709 56.957419 
L 253.042036 56.110064 
L 253.204364 56.533741 
L 253.366691 55.262709 
L 253.529018 56.110064 
L 253.691345 54.415355 
L 253.853673 57.381096 
L 254.016 54.839032 
L 254.178327 54.415355 
L 254.340655 54.415355 
L 254.502982 56.110064 
L 254.665309 54.415355 
L 254.827636 54.415355 
L 254.989964 54.839032 
L 255.314618 53.991677 
L 255.639273 57.804774 
L 255.963927 80.259689 
L 256.126255 55.686387 
L 256.288582 55.262709 
L 256.450909 64.583611 
L 256.613236 56.533741 
L 256.775564 55.262709 
L 256.937891 55.686387 
L 257.100218 53.991677 
L 257.262545 56.110064 
L 257.424873 75.599238 
L 257.5872 56.533741 
L 257.749527 137.879869 
L 257.911855 59.92316 
L 258.074182 56.533741 
L 258.398836 88.309573 
L 258.723491 55.262709 
L 259.048145 60.346838 
L 259.210473 54.415355 
L 259.3728 54.415355 
L 259.697455 56.110064 
L 259.859782 55.686387 
L 260.022109 64.159934 
L 260.184436 54.415355 
L 260.346764 57.381096 
L 260.509091 54.839032 
L 260.671418 56.533741 
L 260.996073 80.683366 
L 261.1584 104.409328 
L 261.483055 60.346838 
L 262.132364 76.022915 
L 262.294691 65.007289 
L 262.457018 72.633496 
L 262.619345 73.480851 
L 262.781673 57.381096 
L 262.944 76.87027 
L 263.106327 56.957419 
L 263.268655 54.839032 
L 263.593309 56.957419 
L 263.755636 53.991677 
L 263.917964 53.991677 
L 264.080291 54.415355 
L 264.242618 53.568 
L 264.404945 56.533741 
L 264.567273 55.262709 
L 264.7296 59.499483 
L 264.891927 91.275315 
L 265.054255 65.007289 
L 265.216582 56.957419 
L 265.378909 66.701998 
L 265.541236 67.549353 
L 265.703564 69.244077 
L 265.865891 87.885896 
L 266.028218 126.016888 
L 266.190545 73.480851 
L 266.352873 123.051147 
L 267.002182 66.701998 
L 267.164509 58.228451 
L 267.326836 57.804774 
L 267.489164 56.957419 
L 267.651491 59.92316 
L 267.813818 56.110064 
L 267.976145 69.244077 
L 268.138473 55.686387 
L 268.3008 57.804774 
L 268.463127 66.701998 
L 268.625455 55.686387 
L 268.787782 126.016888 
L 268.950109 70.091432 
L 269.112436 150.590205 
L 269.274764 64.583611 
L 269.437091 79.412334 
L 269.599418 64.159934 
L 269.924073 62.465224 
L 270.0864 68.396723 
L 270.248727 67.125675 
L 270.411055 63.312579 
L 270.573382 62.465224 
L 270.735709 78.988656 
L 271.060364 56.533741 
L 271.222691 56.957419 
L 271.385018 66.278321 
L 271.547345 55.262709 
L 271.709673 55.686387 
L 271.872 63.736257 
L 272.034327 62.465224 
L 272.358982 56.533741 
L 272.521309 56.957419 
L 272.683636 54.415355 
L 272.845964 54.415355 
L 273.008291 56.957419 
L 273.170618 63.312579 
L 273.332945 54.415355 
L 273.6576 64.159934 
L 273.819927 59.92316 
L 273.982255 69.667755 
L 274.144582 58.228451 
L 274.306909 57.381096 
L 274.469236 57.381096 
L 274.793891 54.415355 
L 275.118545 53.568 
L 275.280873 53.991677 
L 275.4432 53.568 
L 275.767855 54.839032 
L 275.930182 61.61787 
L 276.092509 53.568 
L 276.254836 53.568 
L 276.417164 58.228451 
L 276.579491 53.991677 
L 276.741818 53.991677 
L 276.904145 61.61787 
L 277.066473 54.415355 
L 277.2288 58.652128 
L 277.391127 56.957419 
L 277.715782 61.194192 
L 277.878109 59.499483 
L 278.040436 59.499483 
L 278.202764 89.156928 
L 278.365091 59.92316 
L 278.527418 73.480851 
L 278.852073 62.041547 
L 279.0144 57.804774 
L 279.176727 70.091432 
L 279.339055 69.244077 
L 279.501382 101.867264 
L 279.826036 55.262709 
L 279.988364 62.465224 
L 280.150691 64.159934 
L 280.313018 55.262709 
L 280.475345 55.686387 
L 280.637673 102.714619 
L 280.8 69.244077 
L 280.962327 61.194192 
L 281.124655 60.770515 
L 281.449309 54.415355 
L 281.611636 56.533741 
L 281.773964 53.568 
L 281.936291 53.568 
L 282.098618 57.804774 
L 282.260945 53.568 
L 282.423273 53.991677 
L 282.5856 53.991677 
L 282.910255 56.533741 
L 283.072582 67.125675 
L 283.234909 136.608837 
L 283.397236 282.777667 
L 283.559564 281.082956 
L 283.721891 222.615424 
L 283.884218 215.412901 
L 284.046545 150.166528 
L 284.208873 150.590205 
L 284.3712 85.343832 
L 284.533527 86.191187 
L 284.858182 70.515109 
L 285.020509 67.973045 
L 285.182836 70.938787 
L 285.345164 62.465224 
L 285.507491 60.770515 
L 285.669818 67.125675 
L 285.832145 59.499483 
L 285.994473 67.973045 
L 286.1568 65.430966 
L 286.319127 86.614864 
L 286.481455 92.12267 
L 286.643782 108.646102 
L 286.806109 67.125675 
L 286.968436 60.346838 
L 287.130764 58.652128 
L 287.455418 65.007289 
L 287.617745 58.228451 
L 287.9424 61.194192 
L 288.104727 56.957419 
L 288.267055 56.957419 
L 288.429382 58.228451 
L 288.591709 57.804774 
L 288.754036 62.888902 
L 288.916364 62.465224 
L 289.078691 60.346838 
L 289.241018 60.770515 
L 289.403345 62.041547 
L 289.565673 57.381096 
L 289.728 59.499483 
L 289.890327 56.110064 
L 290.214982 62.465224 
L 290.377309 57.804774 
L 290.539636 59.92316 
L 290.701964 55.262709 
L 290.864291 58.652128 
L 291.026618 54.415355 
L 291.188945 73.057173 
L 291.5136 61.61787 
L 291.675927 73.057173 
L 291.838255 73.904528 
L 292.000582 65.854643 
L 292.162909 65.007289 
L 292.325236 61.61787 
L 292.487564 66.701998 
L 292.649891 55.686387 
L 292.812218 56.533741 
L 292.974545 55.262709 
L 293.136873 56.110064 
L 293.2992 55.262709 
L 293.461527 59.075806 
L 293.623855 54.415355 
L 293.786182 55.686387 
L 293.948509 59.075806 
L 294.110836 65.430966 
L 294.273164 63.736257 
L 294.597818 57.381096 
L 294.760145 55.262709 
L 294.922473 55.686387 
L 295.0848 57.381096 
L 295.247127 56.110064 
L 295.409455 56.110064 
L 295.571782 56.957419 
L 295.734109 55.686387 
L 295.896436 56.957419 
L 296.058764 59.92316 
L 296.221091 56.110064 
L 296.383418 55.262709 
L 296.545745 55.262709 
L 296.708073 54.839032 
L 296.8704 54.839032 
L 297.032727 55.262709 
L 297.357382 55.262709 
L 297.519709 55.686387 
L 297.682036 54.839032 
L 298.006691 70.091432 
L 298.331345 55.686387 
L 298.493673 57.381096 
L 298.656 57.804774 
L 298.818327 73.904528 
L 298.980655 73.480851 
L 299.142982 62.041547 
L 299.305309 86.614864 
L 299.467636 78.988656 
L 299.629964 77.293947 
L 299.792291 92.970024 
L 299.954618 60.770515 
L 300.279273 54.839032 
L 300.4416 55.262709 
L 300.603927 66.278321 
L 300.766255 59.075806 
L 300.928582 63.736257 
L 301.090909 55.262709 
L 301.253236 58.652128 
L 301.577891 54.839032 
L 301.740218 56.110064 
L 301.902545 59.075806 
L 302.064873 54.415355 
L 302.2272 54.839032 
L 302.389527 54.415355 
L 302.551855 54.839032 
L 302.876509 58.652128 
L 303.038836 74.328206 
L 303.201164 54.839032 
L 303.363491 56.110064 
L 303.525818 56.110064 
L 303.688145 61.194192 
L 303.850473 55.686387 
L 304.0128 84.496477 
L 304.175127 56.110064 
L 304.337455 54.839032 
L 304.499782 55.686387 
L 304.662109 58.228451 
L 304.824436 64.583611 
L 304.986764 55.262709 
L 305.149091 56.957419 
L 305.311418 53.991677 
L 305.636073 57.381096 
L 305.7984 56.110064 
L 305.960727 58.652128 
L 306.123055 55.686387 
L 306.285382 56.533741 
L 306.447709 59.075806 
L 306.610036 66.701998 
L 306.772364 57.381096 
L 306.934691 65.854643 
L 307.097018 54.839032 
L 307.259345 55.262709 
L 307.421673 59.499483 
L 307.584 60.346838 
L 307.746327 75.17556 
L 307.908655 58.652128 
L 308.233309 69.244077 
L 308.395636 66.278321 
L 308.720291 56.533741 
L 308.882618 69.667755 
L 309.044945 58.228451 
L 309.207273 55.262709 
L 309.3696 56.957419 
L 309.531927 76.87027 
L 309.856582 58.228451 
L 310.018909 143.387675 
L 310.181236 81.954398 
L 310.343564 72.209819 
L 310.505891 71.786141 
L 310.668218 99.748877 
L 310.830545 59.92316 
L 310.992873 56.533741 
L 311.1552 56.957419 
L 311.317527 60.770515 
L 311.479855 56.110064 
L 311.642182 54.839032 
L 311.804509 56.110064 
L 311.966836 53.991677 
L 312.129164 55.262709 
L 312.291491 54.839032 
L 312.453818 54.839032 
L 312.616145 55.262709 
L 312.778473 56.110064 
L 312.9408 53.991677 
L 313.103127 54.415355 
L 313.265455 53.991677 
L 313.427782 54.839032 
L 313.590109 53.991677 
L 313.752436 54.839032 
L 313.914764 53.568 
L 314.077091 53.568 
L 314.239418 53.991677 
L 314.401745 70.938787 
L 314.564073 53.568 
L 314.7264 61.61787 
L 314.888727 59.499483 
L 315.051055 61.194192 
L 315.213382 66.278321 
L 315.375709 104.833005 
L 315.700364 63.312579 
L 315.862691 70.515109 
L 316.025018 96.359443 
L 316.187345 97.206798 
L 316.512 65.854643 
L 316.836655 56.110064 
L 316.998982 67.125675 
L 317.161309 60.346838 
L 317.323636 61.194192 
L 317.485964 58.652128 
L 317.648291 68.8204 
L 317.810618 56.957419 
L 317.972945 55.262709 
L 318.135273 58.652128 
L 318.2976 55.686387 
L 318.459927 55.262709 
L 318.622255 56.957419 
L 318.784582 56.533741 
L 318.946909 55.262709 
L 319.109236 63.312579 
L 319.433891 66.701998 
L 319.596218 65.430966 
L 320.0832 53.991677 
L 320.245527 57.804774 
L 320.407855 95.088411 
L 320.732509 57.804774 
L 320.894836 60.346838 
L 321.057164 58.652128 
L 321.219491 54.839032 
L 321.381818 54.415355 
L 321.544145 54.839032 
L 321.706473 56.533741 
L 321.8688 56.110064 
L 322.031127 57.381096 
L 322.193455 66.278321 
L 322.355782 82.801753 
L 322.518109 60.346838 
L 322.680436 54.415355 
L 322.842764 57.804774 
L 323.005091 54.839032 
L 323.167418 55.262709 
L 323.329745 61.194192 
L 323.492073 56.110064 
L 323.6544 55.686387 
L 323.816727 54.839032 
L 323.979055 63.312579 
L 324.141382 61.61787 
L 324.303709 100.596232 
L 324.466036 200.584179 
L 324.628364 67.549353 
L 324.790691 61.194192 
L 324.953018 94.664734 
L 325.115345 56.957419 
L 325.277673 57.804774 
L 325.44 106.951392 
L 325.602327 64.583611 
L 325.926982 56.110064 
L 326.089309 61.61787 
L 326.251636 55.262709 
L 326.413964 55.262709 
L 326.576291 54.839032 
L 326.738618 55.686387 
L 326.900945 55.686387 
L 327.063273 53.991677 
L 327.2256 62.041547 
L 327.387927 62.465224 
L 327.712582 55.686387 
L 327.874909 59.92316 
L 328.037236 54.415355 
L 328.199564 62.465224 
L 328.524218 55.262709 
L 328.686545 54.415355 
L 328.848873 54.415355 
L 329.0112 59.499483 
L 329.173527 56.533741 
L 329.335855 67.973045 
L 329.498182 54.839032 
L 329.660509 54.839032 
L 329.985164 66.278321 
L 330.147491 81.107043 
L 330.309818 248.036092 
L 330.634473 88.309573 
L 330.959127 70.091432 
L 331.121455 61.61787 
L 331.283782 59.92316 
L 331.446109 54.839032 
L 331.608436 56.957419 
L 331.770764 55.262709 
L 331.933091 54.839032 
L 332.095418 55.686387 
L 332.257745 57.381096 
L 332.5824 54.839032 
L 332.744727 55.262709 
L 332.907055 53.991677 
L 333.069382 57.804774 
L 333.394036 54.839032 
L 333.556364 53.991677 
L 333.718691 56.110064 
L 333.881018 53.991677 
L 334.043345 54.415355 
L 334.205673 56.533741 
L 334.368 64.583611 
L 334.530327 57.804774 
L 334.692655 62.465224 
L 334.854982 56.110064 
L 335.017309 60.770515 
L 335.179636 56.533741 
L 335.504291 62.465224 
L 335.666618 73.480851 
L 335.828945 72.633496 
L 335.991273 59.499483 
L 336.1536 80.683366 
L 336.640582 59.499483 
L 336.802909 64.159934 
L 337.127564 54.415355 
L 337.289891 54.415355 
L 337.452218 59.075806 
L 337.614545 58.228451 
L 337.776873 54.839032 
L 337.9392 59.075806 
L 338.101527 53.991677 
L 338.263855 63.312579 
L 338.588509 55.262709 
L 338.750836 54.415355 
L 338.913164 54.839032 
L 339.075491 62.465224 
L 339.237818 63.312579 
L 339.400145 112.459198 
L 339.562473 60.770515 
L 339.7248 57.804774 
L 340.211782 55.262709 
L 340.374109 65.430966 
L 340.536436 55.262709 
L 340.698764 69.244077 
L 340.861091 110.764488 
L 341.023418 81.530721 
L 341.185745 118.814373 
L 341.348073 67.125675 
L 341.5104 56.110064 
L 341.835055 70.091432 
L 342.159709 63.312579 
L 342.322036 76.022915 
L 342.646691 56.533741 
L 342.809018 57.804774 
L 342.971345 55.262709 
L 343.133673 56.957419 
L 343.296 56.957419 
L 343.620655 73.904528 
L 343.782982 55.686387 
L 343.945309 56.110064 
L 344.107636 55.262709 
L 344.269964 62.888902 
L 344.432291 127.711598 
L 344.594618 123.898502 
L 344.756945 72.633496 
L 344.919273 56.533741 
L 345.0816 54.415355 
L 345.406255 59.075806 
L 345.568582 54.839032 
L 345.730909 54.839032 
L 345.893236 68.8204 
L 346.055564 57.381096 
L 346.380218 54.839032 
L 346.704873 60.346838 
L 346.8672 67.125675 
L 347.029527 54.839032 
L 347.191855 56.533741 
L 347.354182 56.110064 
L 347.516509 53.991677 
L 347.678836 64.159934 
L 348.003491 58.652128 
L 348.165818 55.686387 
L 348.328145 56.957419 
L 348.490473 76.446592 
L 348.815127 56.110064 
L 349.139782 64.159934 
L 349.302109 56.533741 
L 349.464436 55.686387 
L 349.626764 53.991677 
L 349.951418 61.194192 
L 350.113745 55.686387 
L 350.276073 61.194192 
L 350.4384 59.075806 
L 350.600727 62.888902 
L 350.763055 62.888902 
L 350.925382 57.804774 
L 351.087709 72.633496 
L 351.250036 75.17556 
L 351.412364 93.393702 
L 351.737018 65.430966 
L 351.899345 62.465224 
L 352.061673 72.633496 
L 352.224 91.275315 
L 352.386327 66.278321 
L 352.548655 78.564979 
L 352.710982 74.328206 
L 352.873309 62.888902 
L 353.035636 62.465224 
L 353.197964 56.110064 
L 353.360291 56.110064 
L 353.522618 56.533741 
L 353.684945 63.736257 
L 353.847273 54.415355 
L 354.0096 54.415355 
L 354.171927 58.652128 
L 354.334255 53.991677 
L 354.496582 54.415355 
L 354.821236 54.415355 
L 354.983564 53.991677 
L 355.145891 58.228451 
L 355.308218 53.991677 
L 355.470545 54.415355 
L 355.632873 54.415355 
L 355.7952 56.957419 
L 355.957527 55.262709 
L 356.119855 55.686387 
L 356.282182 54.415355 
L 356.444509 55.686387 
L 356.769164 53.991677 
L 356.931491 70.091432 
L 357.093818 56.110064 
L 357.256145 57.381096 
L 357.418473 54.415355 
L 357.905455 65.007289 
L 358.392436 57.804774 
L 358.554764 79.412334 
L 358.879418 56.533741 
L 359.041745 60.346838 
L 359.204073 56.110064 
L 359.3664 54.839032 
L 359.528727 54.839032 
L 359.691055 53.568 
L 359.853382 56.110064 
L 360.015709 54.839032 
L 360.178036 81.530721 
L 360.340364 81.107043 
L 360.502691 82.378075 
L 360.665018 59.499483 
L 360.827345 61.61787 
L 360.989673 81.954398 
L 361.152 57.381096 
L 361.314327 77.293947 
L 361.476655 57.804774 
L 361.638982 58.652128 
L 361.801309 54.839032 
L 361.963636 56.110064 
L 362.125964 54.839032 
L 362.288291 56.110064 
L 362.450618 55.686387 
L 362.612945 58.652128 
L 362.9376 73.480851 
L 363.262255 98.47783 
L 363.424582 85.767509 
L 363.586909 59.499483 
L 363.749236 71.362464 
L 363.911564 57.804774 
L 364.073891 53.991677 
L 364.236218 53.991677 
L 364.398545 53.568 
L 364.560873 53.568 
L 364.885527 59.075806 
L 365.047855 55.262709 
L 365.372509 53.991677 
L 365.534836 58.228451 
L 365.859491 54.415355 
L 366.021818 56.110064 
L 366.184145 56.110064 
L 366.346473 53.568 
L 366.5088 56.957419 
L 366.671127 56.957419 
L 366.833455 58.652128 
L 367.158109 55.686387 
L 367.320436 64.583611 
L 367.482764 61.61787 
L 367.645091 54.839032 
L 367.807418 62.888902 
L 367.969745 61.194192 
L 368.132073 166.68996 
L 368.2944 73.057173 
L 368.456727 117.119664 
L 368.619055 261.593778 
L 368.943709 93.817379 
L 369.106036 90.42796 
L 369.268364 63.312579 
L 369.430691 64.583611 
L 369.917673 53.991677 
L 370.08 56.110064 
L 370.242327 54.839032 
L 370.404655 55.686387 
L 370.729309 54.415355 
L 370.891636 54.415355 
L 371.053964 53.568 
L 371.216291 58.228451 
L 371.378618 53.991677 
L 371.540945 55.686387 
L 371.8656 53.991677 
L 372.027927 55.262709 
L 372.190255 53.991677 
L 372.352582 54.415355 
L 372.514909 53.991677 
L 372.677236 54.415355 
L 372.839564 53.991677 
L 373.164218 53.991677 
L 373.326545 53.568 
L 373.488873 53.568 
L 373.6512 53.991677 
L 373.975855 53.991677 
L 374.138182 53.568 
L 374.300509 53.991677 
L 374.462836 53.568 
L 374.625164 53.568 
L 374.787491 53.991677 
L 374.949818 59.92316 
L 375.112145 53.568 
L 375.274473 53.568 
L 375.4368 53.991677 
L 375.599127 55.262709 
L 375.761455 53.568 
L 375.923782 55.686387 
L 376.086109 53.568 
L 376.248436 54.839032 
L 376.410764 66.701998 
L 376.573091 55.686387 
L 376.735418 54.839032 
L 377.060073 57.804774 
L 377.2224 54.415355 
L 377.384727 54.415355 
L 377.709382 53.568 
L 378.034036 53.568 
L 378.196364 53.991677 
L 378.358691 55.262709 
L 378.521018 53.568 
L 378.683345 60.346838 
L 378.845673 54.415355 
L 379.008 56.110064 
L 379.170327 53.568 
L 379.332655 54.415355 
L 379.494982 53.991677 
L 379.657309 56.533741 
L 379.819636 67.125675 
L 380.144291 55.262709 
L 380.306618 61.61787 
L 380.468945 53.568 
L 380.631273 55.262709 
L 380.7936 54.839032 
L 381.280582 63.312579 
L 381.442909 80.683366 
L 381.767564 56.110064 
L 382.092218 105.68036 
L 382.254545 73.057173 
L 382.416873 85.343832 
L 382.5792 70.938787 
L 382.903855 65.430966 
L 383.066182 55.686387 
L 383.228509 56.957419 
L 383.390836 53.991677 
L 383.553164 54.839032 
L 383.715491 60.770515 
L 383.877818 54.839032 
L 384.040145 62.465224 
L 384.202473 57.804774 
L 384.3648 56.533741 
L 384.527127 53.991677 
L 384.689455 74.751883 
L 384.851782 57.381096 
L 385.014109 55.686387 
L 385.176436 60.346838 
L 385.338764 54.415355 
L 385.501091 53.991677 
L 385.663418 54.415355 
L 385.825745 56.110064 
L 385.988073 59.92316 
L 386.1504 55.686387 
L 386.312727 71.362464 
L 386.475055 68.396723 
L 386.637382 55.686387 
L 386.799709 62.041547 
L 386.962036 56.533741 
L 387.124364 56.533741 
L 387.286691 55.262709 
L 387.449018 59.499483 
L 387.611345 58.228451 
L 387.773673 53.991677 
L 387.936 54.415355 
L 388.098327 53.991677 
L 388.260655 53.991677 
L 388.422982 54.415355 
L 388.585309 53.991677 
L 389.234618 53.991677 
L 389.396945 55.262709 
L 389.559273 65.430966 
L 389.7216 54.839032 
L 389.883927 55.686387 
L 390.046255 57.804774 
L 390.208582 54.839032 
L 390.370909 53.991677 
L 390.533236 53.991677 
L 390.695564 55.686387 
L 390.857891 54.415355 
L 391.020218 54.415355 
L 391.182545 53.991677 
L 391.5072 66.278321 
L 391.669527 65.430966 
L 391.831855 82.378075 
L 391.994182 66.278321 
L 392.318836 96.783121 
L 392.481164 74.328206 
L 392.643491 103.138296 
L 392.805818 57.804774 
L 392.968145 58.652128 
L 393.130473 54.839032 
L 393.455127 53.991677 
L 393.617455 67.125675 
L 393.779782 67.973045 
L 393.942109 57.804774 
L 394.104436 54.839032 
L 394.266764 54.839032 
L 394.429091 55.262709 
L 394.591418 54.415355 
L 394.753745 56.957419 
L 394.916073 54.415355 
L 395.0784 66.278321 
L 395.240727 62.041547 
L 395.403055 53.991677 
L 395.727709 54.839032 
L 395.890036 62.041547 
L 396.052364 78.141302 
L 396.214691 65.854643 
L 396.377018 62.041547 
L 396.539345 80.259689 
L 396.701673 56.957419 
L 396.864 63.736257 
L 397.026327 55.686387 
L 397.188655 61.194192 
L 397.350982 57.381096 
L 397.675636 64.159934 
L 397.837964 66.278321 
L 398.000291 64.583611 
L 398.162618 66.278321 
L 398.324945 60.346838 
L 398.487273 70.938787 
L 398.487273 70.938787 
" clip-path="url(#p378c2b1a5d)" style="fill: none; stroke: #1f77b4; stroke-width: 1.5; stroke-linecap: square"/>
   </g>
   <g id="patch_3">
    <path d="M 57.6 307.584 
L 57.6 41.472 
" style="fill: none; stroke: #000000; stroke-width: 0.8; stroke-linejoin: miter; stroke-linecap: square"/>
   </g>
   <g id="patch_4">
    <path d="M 57.6 307.584 
L 414.72 307.584 
" style="fill: none; stroke: #000000; stroke-width: 0.8; stroke-linejoin: miter; stroke-linecap: square"/>
   </g>
  </g>
 </g>
 <defs>
  <clipPath id="p378c2b1a5d">
   <rect x="57.6" y="41.472" width="357.12" height="266.112"/>
  </clipPath>
 </defs>
</svg>
