<?xml version="1.0" encoding="utf-8" standalone="no"?>
<!DOCTYPE svg PUBLIC "-//W3C//DTD SVG 1.1//EN"
  "http://www.w3.org/Graphics/SVG/1.1/DTD/svg11.dtd">
<svg xmlns:xlink="http://www.w3.org/1999/xlink" width="460.8pt" height="345.6pt" viewBox="0 0 460.8 345.6" xmlns="http://www.w3.org/2000/svg" version="1.1">
 <metadata>
  <rdf:RDF xmlns:dc="http://purl.org/dc/elements/1.1/" xmlns:cc="http://creativecommons.org/ns#" xmlns:rdf="http://www.w3.org/1999/02/22-rdf-syntax-ns#">
   <cc:Work>
    <dc:type rdf:resource="http://purl.org/dc/dcmitype/StillImage"/>
    <dc:date>2026-06-10T02:11:49.907129</dc:date>
    <dc:format>image/svg+xml</dc:format>
    <dc:creator>
     <cc:Agent>
      <dc:title>Matplotlib v3.10.8, https://matplotlib.org/</dc:title>
     </cc:Agent>
    </dc:creator>
   </cc:Work>
  </rdf:RDF>
 </metadata>
 <defs>
  <style type="text/css">*{stroke-linejoin: round; stroke-linecap: butt}</style>
 </defs>
 <g id="figure_1">
  <g id="patch_1">
   <path d="M 0 345.6 
L 460.8 345.6 
L 460.8 0 
L 0 0 
z
" style="fill: #ffffff"/>
  </g>
  <g id="axes_1">
   <g id="patch_2">
    <path d="M 57.6 307.584 
L 414.72 307.584 
L 414.72 41.472 
L 57.6 41.472 
z
" style="fill: #ffffff"/>
   </g>
   <g id="matplotlib.axis_1">
    <g id="xtick_1">
     <g id="line2d_1">
      <defs>
       <path id="mad0a05b335" d="M 0 0 
L 0 3.5 
" style="stroke: #000000; stroke-width: 0.8"/>
      </defs>
      <g>
       <use xlink:href="#mad0a05b335" x="73.832727" y="307.584" style="stroke: #000000; stroke-width: 0.8"/>
      </g>
     </g>
     <g id="text_1">
      <!-- 0 -->
      <g transform="translate(70.651477 322.182437) scale(0.1 -0.1)">
       <defs>
        <path id="DejaVuSans-30" d="M 2034 4250 
Q 1547 4250 1301 3770 
Q 1056 3291 1056 2328 
Q 1056 1369 1301 889 
Q 1547 409 2034 409 
Q 2525 409 2770 889 
Q 3016 1369 3016 2328 
Q 3016 3291 2770 3770 
Q 2525 4250 2034 4250 
z
M 2034 4750 
Q 2819 4750 3233 4129 
Q 3647 3509 3647 2328 
Q 3647 1150 3233 529 
Q 2819 -91 2034 -91 
Q 1250 -91 836 529 
Q 422 1150 422 2328 
Q 422 3509 836 4129 
Q 1250 4750 2034 4750 
z
" transform="scale(0.015625)"/>
       </defs>
       <use xlink:href="#DejaVuSans-30"/>
      </g>
     </g>
    </g>
    <g id="xtick_2">
     <g id="line2d_2">
      <g>
       <use xlink:href="#mad0a05b335" x="114.414545" y="307.584" style="stroke: #000000; stroke-width: 0.8"/>
      </g>
     </g>
     <g id="text_2">
      <!-- 250 -->
      <g transform="translate(104.870795 322.182437) scale(0.1 -0.1)">
       <defs>
        <path id="DejaVuSans-32" d="M 1228 531 
L 3431 531 
L 3431 0 
L 469 0 
L 469 531 
Q 828 903 1448 1529 
Q 2069 2156 2228 2338 
Q 2531 2678 2651 2914 
Q 2772 3150 2772 3378 
Q 2772 3750 2511 3984 
Q 2250 4219 1831 4219 
Q 1534 4219 1204 4116 
Q 875 4013 500 3803 
L 500 4441 
Q 881 4594 1212 4672 
Q 1544 4750 1819 4750 
Q 2544 4750 2975 4387 
Q 3406 4025 3406 3419 
Q 3406 3131 3298 2873 
Q 3191 2616 2906 2266 
Q 2828 2175 2409 1742 
Q 1991 1309 1228 531 
z
" transform="scale(0.015625)"/>
        <path id="DejaVuSans-35" d="M 691 4666 
L 3169 4666 
L 3169 4134 
L 1269 4134 
L 1269 2991 
Q 1406 3038 1543 3061 
Q 1681 3084 1819 3084 
Q 2600 3084 3056 2656 
Q 3513 2228 3513 1497 
Q 3513 744 3044 326 
Q 2575 -91 1722 -91 
Q 1428 -91 1123 -41 
Q 819 9 494 109 
L 494 744 
Q 775 591 1075 516 
Q 1375 441 1709 441 
Q 2250 441 2565 725 
Q 2881 1009 2881 1497 
Q 2881 1984 2565 2268 
Q 2250 2553 1709 2553 
Q 1456 2553 1204 2497 
Q 953 2441 691 2322 
L 691 4666 
z
" transform="scale(0.015625)"/>
       </defs>
       <use xlink:href="#DejaVuSans-32"/>
       <use xlink:href="#DejaVuSans-35" transform="translate(63.623047 0)"/>
       <use xlink:href="#DejaVuSans-30" transform="translate(127.246094 0)"/>
      </g>
     </g>
    </g>
    <g id="xtick_3">
     <g id="line2d_3">
      <g>
       <use xlink:href="#mad0a05b335" x="154.996364" y="307.584" style="stroke: #000000; stroke-width: 0.8"/>
      </g>
     </g>
     <g id="text_3">
      <!-- 500 -->
      <g transform="translate(145.452614 322.182437) scale(0.1 -0.1)">
       <use xlink:href="#DejaVuSans-35"/>
       <use xlink:href="#DejaVuSans-30" transform="translate(63.623047 0)"/>
       <use xlink:href="#DejaVuSans-30" transform="translate(127.246094 0)"/>
      </g>
     </g>
    </g>
    <g id="xtick_4">
     <g id="line2d_4">
      <g>
       <use xlink:href="#mad0a05b335" x="195.578182" y="307.584" style="stroke: #000000; stroke-width: 0.8"/>
      </g>
     </g>
     <g id="text_4">
      <!-- 750 -->
      <g transform="translate(186.034432 322.182437) scale(0.1 -0.1)">
       <defs>
        <path id="DejaVuSans-37" d="M 525 4666 
L 3525 4666 
L 3525 4397 
L 1831 0 
L 1172 0 
L 2766 4134 
L 525 4134 
L 525 4666 
z
" transform="scale(0.015625)"/>
       </defs>
       <use xlink:href="#DejaVuSans-37"/>
       <use xlink:href="#DejaVuSans-35" transform="translate(63.623047 0)"/>
       <use xlink:href="#DejaVuSans-30" transform="translate(127.246094 0)"/>
      </g>
     </g>
    </g>
    <g id="xtick_5">
     <g id="line2d_5">
      <g>
       <use xlink:href="#mad0a05b335" x="236.16" y="307.584" style="stroke: #000000; stroke-width: 0.8"/>
      </g>
     </g>
     <g id="text_5">
      <!-- 1000 -->
      <g transform="translate(223.435 322.182437) scale(0.1 -0.1)">
       <defs>
        <path id="DejaVuSans-31" d="M 794 531 
L 1825 531 
L 1825 4091 
L 703 3866 
L 703 4441 
L 1819 4666 
L 2450 4666 
L 2450 531 
L 3481 531 
L 3481 0 
L 794 0 
L 794 531 
z
" transform="scale(0.015625)"/>
       </defs>
       <use xlink:href="#DejaVuSans-31"/>
       <use xlink:href="#DejaVuSans-30" transform="translate(63.623047 0)"/>
       <use xlink:href="#DejaVuSans-30" transform="translate(127.246094 0)"/>
       <use xlink:href="#DejaVuSans-30" transform="translate(190.869141 0)"/>
      </g>
     </g>
    </g>
    <g id="xtick_6">
     <g id="line2d_6">
      <g>
       <use xlink:href="#mad0a05b335" x="276.741818" y="307.584" style="stroke: #000000; stroke-width: 0.8"/>
      </g>
     </g>
     <g id="text_6">
      <!-- 1250 -->
      <g transform="translate(264.016818 322.182437) scale(0.1 -0.1)">
       <use xlink:href="#DejaVuSans-31"/>
       <use xlink:href="#DejaVuSans-32" transform="translate(63.623047 0)"/>
       <use xlink:href="#DejaVuSans-35" transform="translate(127.246094 0)"/>
       <use xlink:href="#DejaVuSans-30" transform="translate(190.869141 0)"/>
      </g>
     </g>
    </g>
    <g id="xtick_7">
     <g id="line2d_7">
      <g>
       <use xlink:href="#mad0a05b335" x="317.323636" y="307.584" style="stroke: #000000; stroke-width: 0.8"/>
      </g>
     </g>
     <g id="text_7">
      <!-- 1500 -->
      <g transform="translate(304.598636 322.182437) scale(0.1 -0.1)">
       <use xlink:href="#DejaVuSans-31"/>
       <use xlink:href="#DejaVuSans-35" transform="translate(63.623047 0)"/>
       <use xlink:href="#DejaVuSans-30" transform="translate(127.246094 0)"/>
       <use xlink:href="#DejaVuSans-30" transform="translate(190.869141 0)"/>
      </g>
     </g>
    </g>
    <g id="xtick_8">
     <g id="line2d_8">
      <g>
       <use xlink:href="#mad0a05b335" x="357.905455" y="307.584" style="stroke: #000000; stroke-width: 0.8"/>
      </g>
     </g>
     <g id="text_8">
      <!-- 1750 -->
      <g transform="translate(345.180455 322.182437) scale(0.1 -0.1)">
       <use xlink:href="#DejaVuSans-31"/>
       <use xlink:href="#DejaVuSans-37" transform="translate(63.623047 0)"/>
       <use xlink:href="#DejaVuSans-35" transform="translate(127.246094 0)"/>
       <use xlink:href="#DejaVuSans-30" transform="translate(190.869141 0)"/>
      </g>
     </g>
    </g>
    <g id="xtick_9">
     <g id="line2d_9">
      <g>
       <use xlink:href="#mad0a05b335" x="398.487273" y="307.584" style="stroke: #000000; stroke-width: 0.8"/>
      </g>
     </g>
     <g id="text_9">
      <!-- 2000 -->
      <g transform="translate(385.762273 322.182437) scale(0.1 -0.1)">
       <use xlink:href="#DejaVuSans-32"/>
       <use xlink:href="#DejaVuSans-30" transform="translate(63.623047 0)"/>
       <use xlink:href="#DejaVuSans-30" transform="translate(127.246094 0)"/>
       <use xlink:href="#DejaVuSans-30" transform="translate(190.869141 0)"/>
      </g>
     </g>
    </g>
    <g id="text_10">
     <!-- Epochs -->
     <g transform="translate(218.244375 335.860562) scale(0.1 -0.1)">
      <defs>
       <path id="DejaVuSans-45" d="M 628 4666 
L 3578 4666 
L 3578 4134 
L 1259 4134 
L 1259 2753 
L 3481 2753 
L 3481 2222 
L 1259 2222 
L 1259 531 
L 3634 531 
L 3634 0 
L 628 0 
L 628 4666 
z
" transform="scale(0.015625)"/>
       <path id="DejaVuSans-70" d="M 1159 525 
L 1159 -1331 
L 581 -1331 
L 581 3500 
L 1159 3500 
L 1159 2969 
Q 1341 3281 1617 3432 
Q 1894 3584 2278 3584 
Q 2916 3584 3314 3078 
Q 3713 2572 3713 1747 
Q 3713 922 3314 415 
Q 2916 -91 2278 -91 
Q 1894 -91 1617 61 
Q 1341 213 1159 525 
z
M 3116 1747 
Q 3116 2381 2855 2742 
Q 2594 3103 2138 3103 
Q 1681 3103 1420 2742 
Q 1159 2381 1159 1747 
Q 1159 1113 1420 752 
Q 1681 391 2138 391 
Q 2594 391 2855 752 
Q 3116 1113 3116 1747 
z
" transform="scale(0.015625)"/>
       <path id="DejaVuSans-6f" d="M 1959 3097 
Q 1497 3097 1228 2736 
Q 959 2375 959 1747 
Q 959 1119 1226 758 
Q 1494 397 1959 397 
Q 2419 397 2687 759 
Q 2956 1122 2956 1747 
Q 2956 2369 2687 2733 
Q 2419 3097 1959 3097 
z
M 1959 3584 
Q 2709 3584 3137 3096 
Q 3566 2609 3566 1747 
Q 3566 888 3137 398 
Q 2709 -91 1959 -91 
Q 1206 -91 779 398 
Q 353 888 353 1747 
Q 353 2609 779 3096 
Q 1206 3584 1959 3584 
z
" transform="scale(0.015625)"/>
       <path id="DejaVuSans-63" d="M 3122 3366 
L 3122 2828 
Q 2878 2963 2633 3030 
Q 2388 3097 2138 3097 
Q 1578 3097 1268 2742 
Q 959 2388 959 1747 
Q 959 1106 1268 751 
Q 1578 397 2138 397 
Q 2388 397 2633 464 
Q 2878 531 3122 666 
L 3122 134 
Q 2881 22 2623 -34 
Q 2366 -91 2075 -91 
Q 1284 -91 818 406 
Q 353 903 353 1747 
Q 353 2603 823 3093 
Q 1294 3584 2113 3584 
Q 2378 3584 2631 3529 
Q 2884 3475 3122 3366 
z
" transform="scale(0.015625)"/>
       <path id="DejaVuSans-68" d="M 3513 2113 
L 3513 0 
L 2938 0 
L 2938 2094 
Q 2938 2591 2744 2837 
Q 2550 3084 2163 3084 
Q 1697 3084 1428 2787 
Q 1159 2491 1159 1978 
L 1159 0 
L 581 0 
L 581 4863 
L 1159 4863 
L 1159 2956 
Q 1366 3272 1645 3428 
Q 1925 3584 2291 3584 
Q 2894 3584 3203 3211 
Q 3513 2838 3513 2113 
z
" transform="scale(0.015625)"/>
       <path id="DejaVuSans-73" d="M 2834 3397 
L 2834 2853 
Q 2591 2978 2328 3040 
Q 2066 3103 1784 3103 
Q 1356 3103 1142 2972 
Q 928 2841 928 2578 
Q 928 2378 1081 2264 
Q 1234 2150 1697 2047 
L 1894 2003 
Q 2506 1872 2764 1633 
Q 3022 1394 3022 966 
Q 3022 478 2636 193 
Q 2250 -91 1575 -91 
Q 1294 -91 989 -36 
Q 684 19 347 128 
L 347 722 
Q 666 556 975 473 
Q 1284 391 1588 391 
Q 1994 391 2212 530 
Q 2431 669 2431 922 
Q 2431 1156 2273 1281 
Q 2116 1406 1581 1522 
L 1381 1569 
Q 847 1681 609 1914 
Q 372 2147 372 2553 
Q 372 3047 722 3315 
Q 1072 3584 1716 3584 
Q 2034 3584 2315 3537 
Q 2597 3491 2834 3397 
z
" transform="scale(0.015625)"/>
      </defs>
      <use xlink:href="#DejaVuSans-45"/>
      <use xlink:href="#DejaVuSans-70" transform="translate(63.183594 0)"/>
      <use xlink:href="#DejaVuSans-6f" transform="translate(126.660156 0)"/>
      <use xlink:href="#DejaVuSans-63" transform="translate(187.841797 0)"/>
      <use xlink:href="#DejaVuSans-68" transform="translate(242.822266 0)"/>
      <use xlink:href="#DejaVuSans-73" transform="translate(306.201172 0)"/>
     </g>
    </g>
   </g>
   <g id="matplotlib.axis_2">
    <g id="ytick_1">
     <g id="line2d_10">
      <defs>
       <path id="ma04ab198cb" d="M 0 0 
L -3.5 0 
" style="stroke: #000000; stroke-width: 0.8"/>
      </defs>
      <g>
       <use xlink:href="#ma04ab198cb" x="57.6" y="306.484364" style="stroke: #000000; stroke-width: 0.8"/>
      </g>
     </g>
     <g id="text_11">
      <!-- 0 -->
      <g transform="translate(44.2375 310.283582) scale(0.1 -0.1)">
       <use xlink:href="#DejaVuSans-30"/>
      </g>
     </g>
    </g>
    <g id="ytick_2">
     <g id="line2d_11">
      <g>
       <use xlink:href="#ma04ab198cb" x="57.6" y="255.731916" style="stroke: #000000; stroke-width: 0.8"/>
      </g>
     </g>
     <g id="text_12">
      <!-- 20 -->
      <g transform="translate(37.875 259.531135) scale(0.1 -0.1)">
       <use xlink:href="#DejaVuSans-32"/>
       <use xlink:href="#DejaVuSans-30" transform="translate(63.623047 0)"/>
      </g>
     </g>
    </g>
    <g id="ytick_3">
     <g id="line2d_12">
      <g>
       <use xlink:href="#ma04ab198cb" x="57.6" y="204.979469" style="stroke: #000000; stroke-width: 0.8"/>
      </g>
     </g>
     <g id="text_13">
      <!-- 40 -->
      <g transform="translate(37.875 208.778688) scale(0.1 -0.1)">
       <defs>
        <path id="DejaVuSans-34" d="M 2419 4116 
L 825 1625 
L 2419 1625 
L 2419 4116 
z
M 2253 4666 
L 3047 4666 
L 3047 1625 
L 3713 1625 
L 3713 1100 
L 3047 1100 
L 3047 0 
L 2419 0 
L 2419 1100 
L 313 1100 
L 313 1709 
L 2253 4666 
z
" transform="scale(0.015625)"/>
       </defs>
       <use xlink:href="#DejaVuSans-34"/>
       <use xlink:href="#DejaVuSans-30" transform="translate(63.623047 0)"/>
      </g>
     </g>
    </g>
    <g id="ytick_4">
     <g id="line2d_13">
      <g>
       <use xlink:href="#ma04ab198cb" x="57.6" y="154.227021" style="stroke: #000000; stroke-width: 0.8"/>
      </g>
     </g>
     <g id="text_14">
      <!-- 60 -->
      <g transform="translate(37.875 158.02624) scale(0.1 -0.1)">
       <defs>
        <path id="DejaVuSans-36" d="M 2113 2584 
Q 1688 2584 1439 2293 
Q 1191 2003 1191 1497 
Q 1191 994 1439 701 
Q 1688 409 2113 409 
Q 2538 409 2786 701 
Q 3034 994 3034 1497 
Q 3034 2003 2786 2293 
Q 2538 2584 2113 2584 
z
M 3366 4563 
L 3366 3988 
Q 3128 4100 2886 4159 
Q 2644 4219 2406 4219 
Q 1781 4219 1451 3797 
Q 1122 3375 1075 2522 
Q 1259 2794 1537 2939 
Q 1816 3084 2150 3084 
Q 2853 3084 3261 2657 
Q 3669 2231 3669 1497 
Q 3669 778 3244 343 
Q 2819 -91 2113 -91 
Q 1303 -91 875 529 
Q 447 1150 447 2328 
Q 447 3434 972 4092 
Q 1497 4750 2381 4750 
Q 2619 4750 2861 4703 
Q 3103 4656 3366 4563 
z
" transform="scale(0.015625)"/>
       </defs>
       <use xlink:href="#DejaVuSans-36"/>
       <use xlink:href="#DejaVuSans-30" transform="translate(63.623047 0)"/>
      </g>
     </g>
    </g>
    <g id="ytick_5">
     <g id="line2d_14">
      <g>
       <use xlink:href="#ma04ab198cb" x="57.6" y="103.474574" style="stroke: #000000; stroke-width: 0.8"/>
      </g>
     </g>
     <g id="text_15">
      <!-- 80 -->
      <g transform="translate(37.875 107.273793) scale(0.1 -0.1)">
       <defs>
        <path id="DejaVuSans-38" d="M 2034 2216 
Q 1584 2216 1326 1975 
Q 1069 1734 1069 1313 
Q 1069 891 1326 650 
Q 1584 409 2034 409 
Q 2484 409 2743 651 
Q 3003 894 3003 1313 
Q 3003 1734 2745 1975 
Q 2488 2216 2034 2216 
z
M 1403 2484 
Q 997 2584 770 2862 
Q 544 3141 544 3541 
Q 544 4100 942 4425 
Q 1341 4750 2034 4750 
Q 2731 4750 3128 4425 
Q 3525 4100 3525 3541 
Q 3525 3141 3298 2862 
Q 3072 2584 2669 2484 
Q 3125 2378 3379 2068 
Q 3634 1759 3634 1313 
Q 3634 634 3220 271 
Q 2806 -91 2034 -91 
Q 1263 -91 848 271 
Q 434 634 434 1313 
Q 434 1759 690 2068 
Q 947 2378 1403 2484 
z
M 1172 3481 
Q 1172 3119 1398 2916 
Q 1625 2713 2034 2713 
Q 2441 2713 2670 2916 
Q 2900 3119 2900 3481 
Q 2900 3844 2670 4047 
Q 2441 4250 2034 4250 
Q 1625 4250 1398 4047 
Q 1172 3844 1172 3481 
z
" transform="scale(0.015625)"/>
       </defs>
       <use xlink:href="#DejaVuSans-38"/>
       <use xlink:href="#DejaVuSans-30" transform="translate(63.623047 0)"/>
      </g>
     </g>
    </g>
    <g id="ytick_6">
     <g id="line2d_15">
      <g>
       <use xlink:href="#ma04ab198cb" x="57.6" y="52.722127" style="stroke: #000000; stroke-width: 0.8"/>
      </g>
     </g>
     <g id="text_16">
      <!-- 100 -->
      <g transform="translate(31.5125 56.521345) scale(0.1 -0.1)">
       <use xlink:href="#DejaVuSans-31"/>
       <use xlink:href="#DejaVuSans-30" transform="translate(63.623047 0)"/>
       <use xlink:href="#DejaVuSans-30" transform="translate(127.246094 0)"/>
      </g>
     </g>
    </g>
    <g id="text_17">
     <!-- Accuracy within 5% (%) -->
     <g transform="translate(25.432812 233.872531) rotate(-90) scale(0.1 -0.1)">
      <defs>
       <path id="DejaVuSans-41" d="M 2188 4044 
L 1331 1722 
L 3047 1722 
L 2188 4044 
z
M 1831 4666 
L 2547 4666 
L 4325 0 
L 3669 0 
L 3244 1197 
L 1141 1197 
L 716 0 
L 50 0 
L 1831 4666 
z
" transform="scale(0.015625)"/>
       <path id="DejaVuSans-75" d="M 544 1381 
L 544 3500 
L 1119 3500 
L 1119 1403 
Q 1119 906 1312 657 
Q 1506 409 1894 409 
Q 2359 409 2629 706 
Q 2900 1003 2900 1516 
L 2900 3500 
L 3475 3500 
L 3475 0 
L 2900 0 
L 2900 538 
Q 2691 219 2414 64 
Q 2138 -91 1772 -91 
Q 1169 -91 856 284 
Q 544 659 544 1381 
z
M 1991 3584 
L 1991 3584 
z
" transform="scale(0.015625)"/>
       <path id="DejaVuSans-72" d="M 2631 2963 
Q 2534 3019 2420 3045 
Q 2306 3072 2169 3072 
Q 1681 3072 1420 2755 
Q 1159 2438 1159 1844 
L 1159 0 
L 581 0 
L 581 3500 
L 1159 3500 
L 1159 2956 
Q 1341 3275 1631 3429 
Q 1922 3584 2338 3584 
Q 2397 3584 2469 3576 
Q 2541 3569 2628 3553 
L 2631 2963 
z
" transform="scale(0.015625)"/>
       <path id="DejaVuSans-61" d="M 2194 1759 
Q 1497 1759 1228 1600 
Q 959 1441 959 1056 
Q 959 750 1161 570 
Q 1363 391 1709 391 
Q 2188 391 2477 730 
Q 2766 1069 2766 1631 
L 2766 1759 
L 2194 1759 
z
M 3341 1997 
L 3341 0 
L 2766 0 
L 2766 531 
Q 2569 213 2275 61 
Q 1981 -91 1556 -91 
Q 1019 -91 701 211 
Q 384 513 384 1019 
Q 384 1609 779 1909 
Q 1175 2209 1959 2209 
L 2766 2209 
L 2766 2266 
Q 2766 2663 2505 2880 
Q 2244 3097 1772 3097 
Q 1472 3097 1187 3025 
Q 903 2953 641 2809 
L 641 3341 
Q 956 3463 1253 3523 
Q 1550 3584 1831 3584 
Q 2591 3584 2966 3190 
Q 3341 2797 3341 1997 
z
" transform="scale(0.015625)"/>
       <path id="DejaVuSans-79" d="M 2059 -325 
Q 1816 -950 1584 -1140 
Q 1353 -1331 966 -1331 
L 506 -1331 
L 506 -850 
L 844 -850 
Q 1081 -850 1212 -737 
Q 1344 -625 1503 -206 
L 1606 56 
L 191 3500 
L 800 3500 
L 1894 763 
L 2988 3500 
L 3597 3500 
L 2059 -325 
z
" transform="scale(0.015625)"/>
       <path id="DejaVuSans-20" transform="scale(0.015625)"/>
       <path id="DejaVuSans-77" d="M 269 3500 
L 844 3500 
L 1563 769 
L 2278 3500 
L 2956 3500 
L 3675 769 
L 4391 3500 
L 4966 3500 
L 4050 0 
L 3372 0 
L 2619 2869 
L 1863 0 
L 1184 0 
L 269 3500 
z
" transform="scale(0.015625)"/>
       <path id="DejaVuSans-69" d="M 603 3500 
L 1178 3500 
L 1178 0 
L 603 0 
L 603 3500 
z
M 603 4863 
L 1178 4863 
L 1178 4134 
L 603 4134 
L 603 4863 
z
" transform="scale(0.015625)"/>
       <path id="DejaVuSans-74" d="M 1172 4494 
L 1172 3500 
L 2356 3500 
L 2356 3053 
L 1172 3053 
L 1172 1153 
Q 1172 725 1289 603 
Q 1406 481 1766 481 
L 2356 481 
L 2356 0 
L 1766 0 
Q 1100 0 847 248 
Q 594 497 594 1153 
L 594 3053 
L 172 3053 
L 172 3500 
L 594 3500 
L 594 4494 
L 1172 4494 
z
" transform="scale(0.015625)"/>
       <path id="DejaVuSans-6e" d="M 3513 2113 
L 3513 0 
L 2938 0 
L 2938 2094 
Q 2938 2591 2744 2837 
Q 2550 3084 2163 3084 
Q 1697 3084 1428 2787 
Q 1159 2491 1159 1978 
L 1159 0 
L 581 0 
L 581 3500 
L 1159 3500 
L 1159 2956 
Q 1366 3272 1645 3428 
Q 1925 3584 2291 3584 
Q 2894 3584 3203 3211 
Q 3513 2838 3513 2113 
z
" transform="scale(0.015625)"/>
       <path id="DejaVuSans-25" d="M 4653 2053 
Q 4381 2053 4226 1822 
Q 4072 1591 4072 1178 
Q 4072 772 4226 539 
Q 4381 306 4653 306 
Q 4919 306 5073 539 
Q 5228 772 5228 1178 
Q 5228 1588 5073 1820 
Q 4919 2053 4653 2053 
z
M 4653 2450 
Q 5147 2450 5437 2106 
Q 5728 1763 5728 1178 
Q 5728 594 5436 251 
Q 5144 -91 4653 -91 
Q 4153 -91 3862 251 
Q 3572 594 3572 1178 
Q 3572 1766 3864 2108 
Q 4156 2450 4653 2450 
z
M 1428 4353 
Q 1159 4353 1004 4120 
Q 850 3888 850 3481 
Q 850 3069 1003 2837 
Q 1156 2606 1428 2606 
Q 1700 2606 1854 2837 
Q 2009 3069 2009 3481 
Q 2009 3884 1853 4118 
Q 1697 4353 1428 4353 
z
M 4250 4750 
L 4750 4750 
L 1831 -91 
L 1331 -91 
L 4250 4750 
z
M 1428 4750 
Q 1922 4750 2215 4408 
Q 2509 4066 2509 3481 
Q 2509 2891 2217 2550 
Q 1925 2209 1428 2209 
Q 931 2209 642 2551 
Q 353 2894 353 3481 
Q 353 4063 643 4406 
Q 934 4750 1428 4750 
z
" transform="scale(0.015625)"/>
       <path id="DejaVuSans-28" d="M 1984 4856 
Q 1566 4138 1362 3434 
Q 1159 2731 1159 2009 
Q 1159 1288 1364 580 
Q 1569 -128 1984 -844 
L 1484 -844 
Q 1016 -109 783 600 
Q 550 1309 550 2009 
Q 550 2706 781 3412 
Q 1013 4119 1484 4856 
L 1984 4856 
z
" transform="scale(0.015625)"/>
       <path id="DejaVuSans-29" d="M 513 4856 
L 1013 4856 
Q 1481 4119 1714 3412 
Q 1947 2706 1947 2009 
Q 1947 1309 1714 600 
Q 1481 -109 1013 -844 
L 513 -844 
Q 928 -128 1133 580 
Q 1338 1288 1338 2009 
Q 1338 2731 1133 3434 
Q 928 4138 513 4856 
z
" transform="scale(0.015625)"/>
      </defs>
      <use xlink:href="#DejaVuSans-41"/>
      <use xlink:href="#DejaVuSans-63" transform="translate(66.658203 0)"/>
      <use xlink:href="#DejaVuSans-63" transform="translate(121.638672 0)"/>
      <use xlink:href="#DejaVuSans-75" transform="translate(176.619141 0)"/>
      <use xlink:href="#DejaVuSans-72" transform="translate(239.998047 0)"/>
      <use xlink:href="#DejaVuSans-61" transform="translate(281.111328 0)"/>
      <use xlink:href="#DejaVuSans-63" transform="translate(342.390625 0)"/>
      <use xlink:href="#DejaVuSans-79" transform="translate(397.371094 0)"/>
      <use xlink:href="#DejaVuSans-20" transform="translate(456.550781 0)"/>
      <use xlink:href="#DejaVuSans-77" transform="translate(488.337891 0)"/>
      <use xlink:href="#DejaVuSans-69" transform="translate(570.125 0)"/>
      <use xlink:href="#DejaVuSans-74" transform="translate(597.908203 0)"/>
      <use xlink:href="#DejaVuSans-68" transform="translate(637.117188 0)"/>
      <use xlink:href="#DejaVuSans-69" transform="translate(700.496094 0)"/>
      <use xlink:href="#DejaVuSans-6e" transform="translate(728.279297 0)"/>
      <use xlink:href="#DejaVuSans-20" transform="translate(791.658203 0)"/>
      <use xlink:href="#DejaVuSans-35" transform="translate(823.445312 0)"/>
      <use xlink:href="#DejaVuSans-25" transform="translate(887.068359 0)"/>
      <use xlink:href="#DejaVuSans-20" transform="translate(982.087891 0)"/>
      <use xlink:href="#DejaVuSans-28" transform="translate(1013.875 0)"/>
      <use xlink:href="#DejaVuSans-25" transform="translate(1052.888672 0)"/>
      <use xlink:href="#DejaVuSans-29" transform="translate(1147.908203 0)"/>
     </g>
    </g>
   </g>
   <g id="line2d_16">
    <path d="M 73.832727 293.373314 
L 73.995055 290.412755 
L 74.157382 295.488 
L 74.319709 289.143944 
L 74.482036 291.258629 
L 74.644364 289.56688 
L 74.806691 289.56688 
L 74.969018 281.954013 
L 75.131345 281.531076 
L 75.293673 276.455831 
L 75.618327 281.954013 
L 75.780655 279.839328 
L 75.942982 276.032894 
L 76.267636 278.147579 
L 76.429964 277.724642 
L 76.592291 278.570518 
L 76.754618 278.570518 
L 76.916945 278.993454 
L 77.079273 276.878769 
L 77.2416 277.301706 
L 77.403927 274.764084 
L 77.566255 278.993454 
L 77.728582 274.764084 
L 77.890909 277.301706 
L 78.053236 274.341147 
L 78.215564 275.609957 
L 78.377891 274.764084 
L 78.540218 274.764084 
L 78.702545 273.918211 
L 78.864873 274.764084 
L 79.351855 269.688836 
L 79.838836 272.649397 
L 80.001164 271.380587 
L 80.163491 275.187021 
L 80.325818 269.2659 
L 80.488145 276.455831 
L 81.137455 252.771355 
L 81.299782 252.348418 
L 81.462109 251.502545 
L 81.624436 252.348418 
L 81.786764 247.273175 
L 81.949091 251.502545 
L 82.111418 237.968557 
L 82.273745 236.699747 
L 82.5984 225.28045 
L 82.760727 222.742822 
L 82.923055 233.73919 
L 83.085382 235.853874 
L 83.247709 211.746461 
L 83.410036 213.015271 
L 83.572364 229.086879 
L 83.734691 215.552891 
L 83.897018 214.284081 
L 84.059345 218.090519 
L 84.384 207.940024 
L 84.546327 192.714289 
L 84.708655 201.17303 
L 84.870982 203.710657 
L 85.033309 214.284081 
L 85.195636 198.63541 
L 85.520291 191.868416 
L 85.682618 196.943663 
L 85.844945 191.445479 
L 86.007273 192.714289 
L 86.1696 192.714289 
L 86.331927 181.717928 
L 86.494255 182.140865 
L 86.656582 194.406043 
L 86.818909 196.520727 
L 86.981236 191.022542 
L 87.143564 181.294992 
L 87.305891 180.449118 
L 87.468218 190.599606 
L 87.792873 174.105053 
L 88.279855 182.986738 
L 88.442182 160.994017 
L 88.604509 155.495825 
L 88.766836 168.18394 
L 88.929164 199.481283 
L 89.253818 159.302255 
L 89.416145 160.57108 
L 89.578473 189.330796 
L 89.7408 164.37751 
L 89.903127 175.796815 
L 90.065455 174.105053 
L 90.227782 202.441847 
L 90.714764 151.689395 
L 90.877091 146.614156 
L 91.039418 167.761004 
L 91.201745 174.105053 
L 91.364073 175.796815 
L 91.688727 148.305902 
L 91.851055 144.922409 
L 92.013382 152.535269 
L 92.175709 152.112332 
L 92.338036 168.18394 
L 92.500364 167.761004 
L 92.662691 153.381142 
L 92.825018 157.187572 
L 92.987345 157.187572 
L 93.149673 137.732471 
L 93.312 149.997649 
L 93.474327 146.191219 
L 93.798982 133.926041 
L 93.961309 139.847154 
L 94.123636 157.187572 
L 94.285964 155.918762 
L 94.448291 165.223384 
L 94.610618 144.922409 
L 94.772945 140.270091 
L 94.935273 128.427849 
L 95.0976 134.348977 
L 95.259927 144.499472 
L 95.422255 138.155407 
L 95.584582 136.463661 
L 95.746909 145.345346 
L 95.909236 137.732471 
L 96.233891 117.008559 
L 96.396218 122.506736 
L 96.720873 120.392052 
L 96.8832 125.467292 
L 97.045527 119.546179 
L 97.207855 127.581976 
L 97.532509 112.356241 
L 97.857164 128.850801 
L 98.019491 128.004912 
L 98.181818 119.546179 
L 98.344145 118.700306 
L 98.506473 125.044356 
L 98.6688 143.653584 
L 98.831127 121.660862 
L 98.993455 116.162686 
L 99.155782 128.427849 
L 99.318109 128.004912 
L 99.480436 107.281001 
L 99.642764 107.281001 
L 99.805091 107.703938 
L 99.967418 107.703938 
L 100.129745 105.589254 
L 100.292073 115.316813 
L 100.4544 107.703938 
L 100.779055 123.352609 
L 100.941382 147.460029 
L 101.103709 136.463661 
L 101.266036 111.087431 
L 101.428364 114.893876 
L 101.590691 102.205761 
L 101.753018 127.581976 
L 101.915345 125.467292 
L 102.24 96.284633 
L 102.402327 106.435128 
L 102.564655 105.166318 
L 102.726982 109.818621 
L 103.051636 90.363519 
L 103.213964 93.324076 
L 103.376291 113.202129 
L 103.538618 111.087431 
L 103.700945 98.399331 
L 103.863273 106.435128 
L 104.187927 95.438759 
L 104.350255 101.782824 
L 104.512582 89.940583 
L 104.674909 97.553443 
L 104.837236 94.592886 
L 105.161891 129.273737 
L 105.324218 116.162686 
L 105.486545 90.786456 
L 105.648873 101.359888 
L 105.8112 101.782824 
L 105.973527 113.202129 
L 106.135855 93.747013 
L 106.298182 102.205761 
L 106.622836 86.980026 
L 106.785164 87.402963 
L 106.947491 100.936951 
L 107.272145 94.592886 
L 107.434473 95.861696 
L 107.5968 86.55709 
L 107.759127 86.980026 
L 107.921455 88.671773 
L 108.083782 87.402963 
L 108.246109 96.707569 
L 108.408436 88.671773 
L 108.570764 87.8259 
L 108.895418 81.904771 
L 109.057745 115.316813 
L 109.220073 111.933304 
L 109.3824 89.940583 
L 109.544727 121.660862 
L 109.707055 89.517646 
L 109.869382 115.739749 
L 110.031709 121.237926 
L 110.194036 103.051634 
L 110.356364 101.782824 
L 110.518691 83.173596 
L 110.843345 108.126874 
L 111.005673 106.012191 
L 111.168 81.058898 
L 111.330327 80.213025 
L 111.654982 83.173596 
L 111.979636 91.632329 
L 112.141964 88.671773 
L 112.304291 81.481835 
L 112.466618 80.635961 
L 112.628945 78.521278 
L 112.791273 79.790088 
L 112.9536 79.790088 
L 113.115927 81.058898 
L 113.440582 86.134153 
L 113.602909 89.09471 
L 113.765236 78.521278 
L 113.927564 81.058898 
L 114.089891 77.675405 
L 114.414545 97.976394 
L 114.576873 77.675405 
L 114.7392 79.367151 
L 115.226182 89.09471 
L 115.388509 83.173596 
L 115.550836 92.901139 
L 115.713164 83.596533 
L 115.875491 81.481835 
L 116.037818 77.675405 
L 116.200145 82.327723 
L 116.362473 91.632329 
L 116.687127 78.944215 
L 116.849455 77.675405 
L 117.011782 85.28828 
L 117.336436 79.367151 
L 117.498764 77.252468 
L 117.661091 99.668141 
L 117.985745 80.635961 
L 118.148073 78.944215 
L 118.3104 103.474571 
L 118.472727 82.75066 
L 118.635055 95.015823 
L 118.797382 82.327723 
L 118.959709 96.284633 
L 119.284364 75.983658 
L 119.609018 75.983658 
L 119.771345 81.904771 
L 119.933673 76.406595 
L 120.096 81.058898 
L 120.258327 75.137785 
L 120.582982 72.600165 
L 120.745309 82.75066 
L 121.069964 76.406595 
L 121.232291 82.75066 
L 121.394618 84.01947 
L 121.556945 72.600165 
L 121.719273 75.137785 
L 121.8816 81.481835 
L 122.043927 72.600165 
L 122.206255 76.406595 
L 122.368582 72.600165 
L 122.530909 73.446038 
L 122.693236 80.213025 
L 122.855564 74.291911 
L 123.017891 75.560721 
L 123.342545 82.75066 
L 123.504873 83.173596 
L 123.6672 74.291911 
L 123.829527 87.402963 
L 123.991855 75.137785 
L 124.154182 78.521278 
L 124.316509 89.09471 
L 124.478836 74.291911 
L 124.641164 76.829531 
L 124.803491 75.560721 
L 125.128145 84.442406 
L 125.4528 70.485481 
L 125.615127 72.600165 
L 125.939782 70.485481 
L 126.102109 81.058898 
L 126.426764 69.639608 
L 126.589091 73.446038 
L 126.751418 73.446038 
L 126.913745 97.976394 
L 127.076073 97.976394 
L 127.2384 75.137785 
L 127.400727 99.668141 
L 127.563055 73.446038 
L 127.725382 70.908418 
L 127.887709 95.015823 
L 128.050036 78.944215 
L 128.212364 84.01947 
L 128.374691 71.754291 
L 128.537018 105.589254 
L 128.699345 72.600165 
L 128.861673 81.481835 
L 129.024 81.481835 
L 129.186327 84.01947 
L 129.510982 72.600165 
L 129.673309 69.639608 
L 129.997964 71.331355 
L 130.160291 74.714848 
L 130.322618 71.754291 
L 130.484945 85.711216 
L 130.647273 72.600165 
L 130.8096 79.367151 
L 130.971927 75.983658 
L 131.134255 79.790088 
L 131.296582 69.216671 
L 131.458909 70.908418 
L 131.783564 78.098341 
L 131.945891 70.485481 
L 132.108218 84.442406 
L 132.432873 70.485481 
L 132.5952 81.058898 
L 132.757527 70.062545 
L 132.919855 77.675405 
L 133.082182 73.868975 
L 133.244509 82.75066 
L 133.406836 69.216671 
L 133.569164 70.062545 
L 133.893818 70.062545 
L 134.056145 70.485481 
L 134.218473 67.947861 
L 134.3808 71.754291 
L 134.543127 67.947861 
L 134.867782 70.485481 
L 135.192436 69.639608 
L 135.354764 75.983658 
L 135.517091 67.524925 
L 135.679418 77.252468 
L 136.004073 68.793735 
L 136.1664 68.370798 
L 136.328727 68.793735 
L 136.491055 68.370798 
L 136.815709 68.370798 
L 136.978036 66.679036 
L 137.302691 68.370798 
L 137.465018 67.524925 
L 137.627345 78.944215 
L 137.789673 69.216671 
L 137.952 69.639608 
L 138.114327 66.679036 
L 138.276655 68.793735 
L 138.438982 69.216671 
L 138.601309 64.98729 
L 138.763636 74.291911 
L 139.088291 67.524925 
L 139.250618 66.679036 
L 139.412945 67.947861 
L 139.575273 71.331355 
L 139.899927 67.101988 
L 140.062255 79.790088 
L 140.224582 64.141416 
L 140.386909 67.101988 
L 140.549236 67.947861 
L 140.711564 66.2561 
L 140.873891 77.675405 
L 141.036218 79.367151 
L 141.198545 84.865343 
L 141.360873 67.101988 
L 141.5232 74.291911 
L 141.685527 92.055266 
L 141.847855 71.754291 
L 142.010182 69.639608 
L 142.172509 79.367151 
L 142.497164 67.947861 
L 142.659491 71.754291 
L 142.821818 67.947861 
L 142.984145 68.370798 
L 143.146473 64.564353 
L 143.3088 64.141416 
L 143.471127 68.793735 
L 143.795782 64.564353 
L 143.958109 64.98729 
L 144.120436 67.101988 
L 144.282764 70.908418 
L 144.445091 70.485481 
L 144.607418 67.101988 
L 144.769745 67.947861 
L 144.932073 67.524925 
L 145.0944 64.141416 
L 145.419055 69.216671 
L 145.581382 63.71848 
L 145.743709 65.833163 
L 145.906036 64.564353 
L 146.068364 65.833163 
L 146.230691 69.639608 
L 146.393018 79.790088 
L 146.555345 102.205761 
L 146.717673 89.517646 
L 146.88 67.524925 
L 147.042327 79.367151 
L 147.204655 67.101988 
L 147.366982 63.71848 
L 147.529309 68.793735 
L 147.691636 68.370798 
L 147.853964 64.98729 
L 148.016291 65.410226 
L 148.340945 72.600165 
L 148.503273 67.101988 
L 148.6656 74.714848 
L 148.827927 95.015823 
L 149.314909 64.141416 
L 149.477236 63.295543 
L 149.801891 69.639608 
L 149.964218 62.44967 
L 150.126545 63.295543 
L 150.288873 71.331355 
L 150.4512 65.833163 
L 150.613527 66.679036 
L 150.775855 65.833163 
L 150.938182 72.177228 
L 151.100509 70.908418 
L 151.262836 64.564353 
L 151.587491 68.370798 
L 151.749818 64.141416 
L 151.912145 68.793735 
L 152.2368 63.295543 
L 152.399127 63.71848 
L 152.561455 66.2561 
L 152.723782 63.295543 
L 153.048436 64.98729 
L 153.210764 68.370798 
L 153.373091 69.216671 
L 153.535418 70.908418 
L 153.697745 61.603797 
L 154.0224 75.983658 
L 154.184727 66.679036 
L 154.509382 63.71848 
L 154.671709 71.754291 
L 154.834036 63.295543 
L 154.996364 69.216671 
L 155.158691 69.216671 
L 155.321018 65.833163 
L 155.483345 71.754291 
L 155.808 62.44967 
L 155.970327 65.410226 
L 156.132655 64.141416 
L 156.294982 68.370798 
L 156.457309 64.141416 
L 156.619636 68.793735 
L 156.781964 81.058898 
L 156.944291 78.098341 
L 157.106618 64.564353 
L 157.431273 76.406595 
L 157.755927 67.947861 
L 157.918255 67.524925 
L 158.080582 63.295543 
L 158.242909 64.141416 
L 158.405236 62.44967 
L 158.567564 67.524925 
L 158.729891 83.173596 
L 158.892218 69.216671 
L 159.216873 64.141416 
L 159.3792 65.410226 
L 159.541527 72.177228 
L 159.703855 68.793735 
L 159.866182 75.560721 
L 160.028509 62.026733 
L 160.190836 66.679036 
L 160.515491 65.410226 
L 160.677818 65.833163 
L 160.840145 68.370798 
L 161.1648 85.711216 
L 161.327127 64.564353 
L 161.489455 66.2561 
L 161.814109 64.564353 
L 161.976436 75.560721 
L 162.138764 68.370798 
L 162.301091 67.101988 
L 162.463418 67.101988 
L 162.625745 62.026733 
L 162.788073 62.872606 
L 162.9504 66.679036 
L 163.275055 64.141416 
L 163.437382 67.947861 
L 163.599709 63.71848 
L 163.762036 69.216671 
L 163.924364 70.485481 
L 164.086691 69.216671 
L 164.249018 64.141416 
L 164.411345 67.524925 
L 164.573673 75.983658 
L 164.736 63.295543 
L 164.898327 62.026733 
L 165.222982 64.141416 
L 165.385309 62.026733 
L 165.547636 67.101988 
L 165.709964 61.18086 
L 165.872291 64.141416 
L 166.034618 61.603797 
L 166.359273 78.944215 
L 166.683927 65.833163 
L 166.846255 63.71848 
L 167.008582 63.71848 
L 167.170909 64.564353 
L 167.333236 72.177228 
L 167.820218 64.564353 
L 167.982545 64.141416 
L 168.144873 70.062545 
L 168.3072 67.101988 
L 168.469527 61.18086 
L 168.631855 63.295543 
L 168.794182 67.101988 
L 168.956509 62.44967 
L 169.118836 67.101988 
L 169.281164 62.026733 
L 169.443491 70.062545 
L 169.605818 68.793735 
L 169.768145 65.833163 
L 169.930473 65.410226 
L 170.0928 63.295543 
L 170.255127 66.679036 
L 170.417455 62.026733 
L 170.579782 64.564353 
L 170.742109 62.872606 
L 170.904436 64.141416 
L 171.066764 62.872606 
L 171.229091 63.295543 
L 171.391418 62.026733 
L 171.553745 68.370798 
L 171.716073 61.18086 
L 172.040727 72.177228 
L 172.203055 66.2561 
L 172.365382 64.564353 
L 172.527709 67.524925 
L 172.690036 60.757923 
L 172.852364 61.18086 
L 173.177018 70.062545 
L 173.339345 61.603797 
L 173.501673 80.635961 
L 173.664 66.679036 
L 173.826327 67.524925 
L 173.988655 67.101988 
L 174.313309 62.026733 
L 174.475636 62.44967 
L 174.637964 70.485481 
L 174.962618 60.334987 
L 175.124945 63.295543 
L 175.287273 62.026733 
L 175.4496 73.023101 
L 175.611927 64.98729 
L 175.774255 63.295543 
L 175.936582 62.872606 
L 176.098909 60.334987 
L 176.261236 63.295543 
L 176.423564 60.757923 
L 176.585891 67.524925 
L 176.748218 63.295543 
L 176.910545 66.679036 
L 177.072873 62.872606 
L 177.2352 63.71848 
L 177.397527 62.44967 
L 177.559855 62.872606 
L 177.722182 64.564353 
L 177.884509 63.295543 
L 178.046836 60.334987 
L 178.209164 63.71848 
L 178.533818 62.44967 
L 178.696145 59.91205 
L 178.858473 64.564353 
L 179.0208 65.833163 
L 179.183127 63.71848 
L 179.507782 65.410226 
L 179.670109 60.757923 
L 179.832436 66.2561 
L 179.994764 61.603797 
L 180.157091 68.370798 
L 180.319418 61.18086 
L 180.481745 67.947861 
L 180.644073 59.91205 
L 180.8064 62.872606 
L 181.131055 61.603797 
L 181.455709 69.216671 
L 181.780364 59.489113 
L 181.942691 62.44967 
L 182.105018 61.603797 
L 182.267345 62.872606 
L 182.429673 61.18086 
L 182.592 62.872606 
L 182.754327 62.026733 
L 183.078982 67.101988 
L 183.241309 59.91205 
L 183.403636 59.066177 
L 183.565964 68.370798 
L 183.728291 62.872606 
L 183.890618 61.18086 
L 184.215273 62.44967 
L 184.3776 62.026733 
L 184.539927 66.2561 
L 184.702255 59.91205 
L 184.864582 66.679036 
L 185.026909 66.2561 
L 185.351564 59.489113 
L 185.513891 63.295543 
L 185.676218 60.334987 
L 185.838545 64.98729 
L 186.000873 60.757923 
L 186.1632 63.295543 
L 186.325527 58.220303 
L 186.487855 67.101988 
L 186.812509 68.793735 
L 186.974836 59.91205 
L 187.137164 64.564353 
L 187.299491 59.91205 
L 187.461818 61.603797 
L 187.624145 64.564353 
L 187.786473 64.98729 
L 187.9488 70.485481 
L 188.111127 60.757923 
L 188.273455 63.71848 
L 188.435782 58.64324 
L 188.598109 58.64324 
L 188.760436 68.370798 
L 188.922764 57.797367 
L 189.085091 66.679036 
L 189.247418 59.066177 
L 189.409745 66.2561 
L 189.7344 58.220303 
L 190.059055 64.98729 
L 190.221382 62.872606 
L 190.383709 59.066177 
L 190.546036 61.603797 
L 190.708364 69.639608 
L 190.870691 66.679036 
L 191.033018 56.951493 
L 191.357673 67.101988 
L 191.52 59.489113 
L 191.844655 62.44967 
L 192.006982 65.833163 
L 192.169309 65.410226 
L 192.331636 63.295543 
L 192.493964 59.489113 
L 192.656291 59.489113 
L 192.818618 59.91205 
L 192.980945 64.141416 
L 193.143273 61.603797 
L 193.3056 64.564353 
L 193.467927 60.757923 
L 193.630255 65.833163 
L 193.792582 62.872606 
L 193.954909 77.252468 
L 194.117236 70.485481 
L 194.279564 71.754291 
L 194.441891 58.220303 
L 194.766545 70.062545 
L 195.0912 61.18086 
L 195.253527 63.295543 
L 195.415855 60.334987 
L 195.578182 69.216671 
L 195.740509 60.334987 
L 195.902836 64.564353 
L 196.065164 64.98729 
L 196.227491 57.37443 
L 196.552145 74.714848 
L 197.039127 57.797367 
L 197.201455 59.066177 
L 197.363782 66.679036 
L 197.526109 62.872606 
L 197.688436 70.062545 
L 197.850764 70.485481 
L 198.013091 67.101988 
L 198.175418 68.370798 
L 198.337745 57.37443 
L 198.500073 63.71848 
L 198.6624 59.066177 
L 198.824727 58.220303 
L 198.987055 69.639608 
L 199.311709 75.560721 
L 199.474036 58.220303 
L 199.636364 64.564353 
L 199.798691 64.564353 
L 200.123345 70.062545 
L 200.285673 62.026733 
L 200.448 82.327723 
L 200.772655 62.872606 
L 200.934982 58.220303 
L 201.097309 58.220303 
L 201.259636 61.18086 
L 201.421964 61.18086 
L 201.584291 59.91205 
L 201.746618 57.37443 
L 202.2336 76.406595 
L 202.720582 58.64324 
L 202.882909 61.18086 
L 203.045236 66.679036 
L 203.207564 68.370798 
L 203.369891 71.754291 
L 203.532218 60.334987 
L 203.694545 70.485481 
L 204.181527 57.37443 
L 204.343855 63.295543 
L 204.506182 62.026733 
L 204.668509 58.64324 
L 204.830836 64.141416 
L 204.993164 60.334987 
L 205.155491 61.603797 
L 205.317818 67.524925 
L 205.480145 58.64324 
L 205.642473 66.2561 
L 205.8048 56.951493 
L 205.967127 59.91205 
L 206.129455 59.91205 
L 206.291782 66.2561 
L 206.454109 58.220303 
L 206.616436 64.141416 
L 206.778764 56.951493 
L 206.941091 65.410226 
L 207.103418 58.220303 
L 207.265745 62.44967 
L 207.428073 59.489113 
L 207.752727 62.872606 
L 208.077382 70.908418 
L 208.239709 66.2561 
L 208.402036 76.406595 
L 208.564364 63.71848 
L 208.726691 59.91205 
L 208.889018 62.026733 
L 209.051345 56.951493 
L 209.213673 63.295543 
L 209.700655 58.220303 
L 209.862982 59.066177 
L 210.187636 70.062545 
L 210.349964 64.564353 
L 210.512291 65.833163 
L 210.999273 58.64324 
L 211.1616 58.64324 
L 211.323927 56.528557 
L 211.486255 63.295543 
L 211.973236 56.951493 
L 212.135564 60.757923 
L 212.622545 56.951493 
L 212.784873 62.872606 
L 212.9472 59.066177 
L 213.109527 59.91205 
L 213.271855 59.066177 
L 213.434182 59.489113 
L 213.596509 59.489113 
L 213.758836 58.64324 
L 213.921164 59.066177 
L 214.083491 58.220303 
L 214.245818 60.757923 
L 214.408145 57.37443 
L 214.570473 60.334987 
L 214.7328 57.797367 
L 214.895127 61.18086 
L 215.382109 58.220303 
L 215.544436 66.679036 
L 215.706764 57.37443 
L 215.869091 64.564353 
L 216.031418 62.872606 
L 216.193745 64.98729 
L 216.5184 56.528557 
L 216.680727 59.91205 
L 216.843055 56.528557 
L 217.005382 66.2561 
L 217.167709 57.797367 
L 217.330036 59.489113 
L 217.492364 58.220303 
L 217.654691 61.18086 
L 217.817018 60.334987 
L 217.979345 56.10562 
L 218.141673 64.141416 
L 218.466327 56.10562 
L 218.628655 62.026733 
L 218.790982 56.951493 
L 218.953309 60.757923 
L 219.115636 56.528557 
L 219.277964 57.37443 
L 219.440291 57.37443 
L 219.602618 62.44967 
L 219.927273 56.10562 
L 220.251927 62.872606 
L 220.414255 74.714848 
L 220.576582 59.066177 
L 220.901236 74.291911 
L 221.225891 57.37443 
L 221.388218 60.757923 
L 221.550545 55.682683 
L 221.712873 66.679036 
L 221.8752 57.797367 
L 222.037527 64.564353 
L 222.199855 57.37443 
L 222.362182 57.37443 
L 222.524509 58.64324 
L 222.686836 56.10562 
L 222.849164 64.141416 
L 223.173818 60.757923 
L 223.336145 67.524925 
L 223.498473 60.334987 
L 223.6608 64.141416 
L 223.823127 56.528557 
L 223.985455 62.026733 
L 224.147782 56.951493 
L 224.310109 64.141416 
L 224.472436 55.259747 
L 224.634764 59.91205 
L 224.797091 58.220303 
L 224.959418 59.91205 
L 225.121745 59.91205 
L 225.284073 55.259747 
L 225.4464 60.757923 
L 225.608727 60.334987 
L 225.771055 62.872606 
L 225.933382 77.675405 
L 226.258036 60.757923 
L 226.420364 80.635961 
L 226.582691 62.026733 
L 226.745018 84.01947 
L 226.907345 83.596533 
L 227.069673 84.865343 
L 227.394327 62.872606 
L 227.556655 62.026733 
L 227.718982 57.37443 
L 227.881309 67.524925 
L 228.043636 67.101988 
L 228.205964 77.675405 
L 228.368291 58.220303 
L 228.530618 73.023101 
L 228.692945 65.410226 
L 228.855273 64.141416 
L 229.0176 55.259747 
L 229.179927 62.44967 
L 229.342255 59.489113 
L 229.666909 60.334987 
L 229.829236 56.528557 
L 230.153891 61.603797 
L 230.640873 56.951493 
L 230.8032 59.91205 
L 230.965527 59.91205 
L 231.127855 59.489113 
L 231.290182 59.91205 
L 231.452509 56.528557 
L 231.614836 62.44967 
L 231.777164 60.334987 
L 231.939491 63.295543 
L 232.101818 55.259747 
L 232.264145 59.91205 
L 232.426473 56.951493 
L 232.5888 59.066177 
L 232.751127 55.682683 
L 232.913455 66.679036 
L 233.238109 56.528557 
L 233.400436 60.757923 
L 233.562764 56.951493 
L 233.725091 59.489113 
L 233.887418 55.682683 
L 234.049745 59.066177 
L 234.212073 55.682683 
L 234.3744 64.141416 
L 234.536727 59.489113 
L 234.699055 63.295543 
L 234.861382 55.682683 
L 235.023709 59.91205 
L 235.186036 56.528557 
L 235.348364 59.066177 
L 235.510691 56.10562 
L 235.673018 57.797367 
L 235.835345 62.872606 
L 235.997673 57.37443 
L 236.322327 58.220303 
L 236.484655 56.951493 
L 236.646982 60.334987 
L 236.809309 56.951493 
L 236.971636 56.951493 
L 237.133964 65.410226 
L 237.296291 57.37443 
L 237.458618 62.872606 
L 237.620945 56.10562 
L 237.783273 74.291911 
L 237.9456 59.066177 
L 238.107927 61.603797 
L 238.270255 68.370798 
L 238.432582 67.947861 
L 238.594909 54.83681 
L 238.757236 78.098341 
L 239.081891 64.564353 
L 239.244218 73.868975 
L 239.406545 56.951493 
L 239.568873 55.259747 
L 239.7312 64.564353 
L 239.893527 64.98729 
L 240.055855 74.714848 
L 240.218182 61.603797 
L 240.380509 64.564353 
L 240.867491 55.259747 
L 241.029818 56.10562 
L 241.192145 65.833163 
L 241.5168 54.83681 
L 241.679127 59.066177 
L 241.841455 56.951493 
L 242.003782 70.062545 
L 242.166109 59.066177 
L 242.328436 64.141416 
L 242.490764 55.259747 
L 242.653091 56.528557 
L 242.815418 55.682683 
L 242.977745 64.141416 
L 243.3024 56.528557 
L 243.464727 60.757923 
L 243.627055 58.64324 
L 243.789382 62.44967 
L 243.951709 56.951493 
L 244.114036 57.797367 
L 244.276364 64.564353 
L 244.438691 60.757923 
L 244.601018 69.639608 
L 244.763345 57.37443 
L 244.925673 59.066177 
L 245.088 56.528557 
L 245.250327 56.951493 
L 245.412655 58.220303 
L 245.737309 54.83681 
L 245.899636 58.220303 
L 246.061964 57.37443 
L 246.224291 61.603797 
L 246.386618 56.10562 
L 246.548945 59.489113 
L 246.711273 55.259747 
L 247.035927 62.44967 
L 247.198255 58.220303 
L 247.360582 58.64324 
L 247.522909 60.334987 
L 247.685236 64.98729 
L 247.847564 55.259747 
L 248.009891 58.220303 
L 248.172218 55.259747 
L 248.496873 61.603797 
L 248.6592 60.334987 
L 248.821527 67.101988 
L 248.983855 54.83681 
L 249.146182 60.334987 
L 249.308509 56.951493 
L 249.470836 58.220303 
L 249.633164 56.528557 
L 249.795491 59.066177 
L 249.957818 56.10562 
L 250.282473 58.220303 
L 250.4448 56.528557 
L 250.607127 63.295543 
L 250.769455 54.83681 
L 250.931782 57.37443 
L 251.094109 55.682683 
L 251.256436 58.220303 
L 251.418764 56.10562 
L 251.581091 59.066177 
L 251.743418 55.682683 
L 251.905745 74.714848 
L 252.068073 59.066177 
L 252.2304 55.682683 
L 252.392727 65.410226 
L 252.555055 57.797367 
L 252.717382 60.334987 
L 252.879709 55.259747 
L 253.042036 58.220303 
L 253.204364 54.83681 
L 253.366691 57.797367 
L 253.529018 66.679036 
L 253.691345 56.951493 
L 253.853673 56.528557 
L 254.016 60.757923 
L 254.178327 57.797367 
L 254.340655 58.220303 
L 254.502982 55.682683 
L 254.665309 57.37443 
L 254.989964 55.259747 
L 255.152291 64.564353 
L 255.314618 57.37443 
L 255.476945 59.91205 
L 255.639273 56.951493 
L 255.963927 56.10562 
L 256.126255 60.757923 
L 256.288582 54.83681 
L 256.450909 62.026733 
L 256.613236 59.91205 
L 256.775564 56.10562 
L 256.937891 62.872606 
L 257.100218 57.37443 
L 257.424873 62.872606 
L 257.749527 54.83681 
L 257.911855 61.603797 
L 258.074182 58.64324 
L 258.236509 65.833163 
L 258.398836 61.603797 
L 258.561164 61.603797 
L 258.723491 55.259747 
L 258.885818 55.682683 
L 259.048145 57.797367 
L 259.210473 54.83681 
L 259.3728 60.334987 
L 259.535127 56.528557 
L 259.697455 59.066177 
L 259.859782 56.10562 
L 260.022109 64.141416 
L 260.184436 62.026733 
L 260.346764 68.370798 
L 260.671418 55.259747 
L 260.833745 66.2561 
L 260.996073 69.216671 
L 261.1584 56.528557 
L 261.320727 60.757923 
L 261.483055 56.10562 
L 261.645382 69.639608 
L 261.807709 62.872606 
L 261.970036 64.98729 
L 262.132364 57.37443 
L 262.294691 55.259747 
L 262.457018 55.682683 
L 262.619345 57.37443 
L 262.781673 56.951493 
L 262.944 62.44967 
L 263.106327 60.757923 
L 263.268655 56.951493 
L 263.430982 56.10562 
L 263.593309 59.91205 
L 263.755636 54.413873 
L 263.917964 67.524925 
L 264.080291 56.528557 
L 264.242618 58.220303 
L 264.404945 55.259747 
L 264.7296 58.64324 
L 264.891927 55.682683 
L 265.054255 61.603797 
L 265.216582 55.682683 
L 265.378909 57.797367 
L 265.541236 56.528557 
L 265.703564 56.528557 
L 266.028218 58.220303 
L 266.190545 56.528557 
L 266.352873 59.489113 
L 266.5152 55.682683 
L 266.677527 55.682683 
L 267.002182 59.066177 
L 267.164509 58.220303 
L 267.326836 59.066177 
L 267.489164 55.682683 
L 267.651491 59.91205 
L 267.813818 54.83681 
L 267.976145 56.951493 
L 268.3008 55.682683 
L 268.463127 62.026733 
L 268.625455 54.413873 
L 268.787782 59.91205 
L 268.950109 56.10562 
L 269.112436 60.334987 
L 269.274764 60.757923 
L 269.437091 61.603797 
L 269.599418 63.295543 
L 269.761745 63.71848 
L 269.924073 56.528557 
L 270.0864 58.220303 
L 270.248727 55.259747 
L 270.411055 59.066177 
L 270.573382 54.83681 
L 270.735709 56.528557 
L 270.898036 55.682683 
L 271.060364 57.37443 
L 271.222691 57.37443 
L 271.385018 69.216671 
L 271.709673 57.37443 
L 271.872 57.797367 
L 272.034327 61.18086 
L 272.196655 56.951493 
L 272.358982 62.026733 
L 272.521309 54.413873 
L 272.683636 56.10562 
L 272.845964 55.682683 
L 273.008291 56.528557 
L 273.170618 55.682683 
L 273.332945 64.98729 
L 273.495273 56.528557 
L 273.6576 56.951493 
L 273.819927 65.410226 
L 273.982255 55.259747 
L 274.144582 66.2561 
L 274.306909 56.10562 
L 274.469236 63.71848 
L 274.631564 62.026733 
L 274.793891 74.714848 
L 274.956218 56.951493 
L 275.118545 62.026733 
L 275.280873 57.37443 
L 275.605527 57.37443 
L 275.767855 55.682683 
L 275.930182 56.951493 
L 276.092509 56.951493 
L 276.417164 72.177228 
L 276.579491 65.833163 
L 276.741818 84.442406 
L 276.904145 59.489113 
L 277.066473 65.833163 
L 277.2288 56.528557 
L 277.391127 57.37443 
L 277.553455 55.682683 
L 277.878109 59.489113 
L 278.040436 56.528557 
L 278.202764 56.951493 
L 278.365091 59.066177 
L 278.527418 59.489113 
L 278.689745 55.682683 
L 278.852073 61.603797 
L 279.0144 55.682683 
L 279.339055 57.37443 
L 279.501382 58.220303 
L 279.663709 57.37443 
L 279.826036 53.990937 
L 279.988364 55.682683 
L 280.150691 55.259747 
L 280.313018 56.951493 
L 280.637673 54.83681 
L 280.8 57.797367 
L 280.962327 56.10562 
L 281.124655 55.682683 
L 281.286982 55.682683 
L 281.449309 54.83681 
L 281.773964 57.797367 
L 281.936291 69.216671 
L 282.098618 60.334987 
L 282.260945 62.872606 
L 282.423273 56.10562 
L 282.5856 55.259747 
L 282.747927 55.682683 
L 282.910255 54.83681 
L 283.072582 54.83681 
L 283.559564 60.334987 
L 283.721891 55.682683 
L 283.884218 58.64324 
L 284.046545 54.83681 
L 284.3712 56.10562 
L 284.533527 56.528557 
L 284.695855 56.528557 
L 284.858182 56.951493 
L 285.020509 54.83681 
L 285.182836 56.528557 
L 285.345164 56.10562 
L 285.507491 59.489113 
L 285.832145 53.568 
L 285.994473 59.489113 
L 286.1568 54.413873 
L 286.319127 56.528557 
L 286.481455 56.528557 
L 286.643782 55.682683 
L 286.968436 84.01947 
L 287.130764 60.334987 
L 287.293091 59.489113 
L 287.455418 64.141416 
L 287.617745 56.528557 
L 287.780073 54.83681 
L 288.104727 59.91205 
L 288.429382 59.91205 
L 288.591709 59.489113 
L 288.754036 59.489113 
L 289.078691 53.568 
L 289.241018 61.18086 
L 289.403345 54.83681 
L 289.565673 64.564353 
L 289.728 59.91205 
L 289.890327 60.334987 
L 290.052655 54.83681 
L 290.214982 54.83681 
L 290.701964 59.91205 
L 291.026618 56.528557 
L 291.351273 57.37443 
L 291.838255 55.259747 
L 292.000582 55.259747 
L 292.162909 53.568 
L 292.325236 56.528557 
L 292.812218 53.990937 
L 292.974545 55.259747 
L 293.2992 54.413873 
L 293.461527 54.83681 
L 293.623855 54.83681 
L 293.786182 56.951493 
L 293.948509 54.413873 
L 294.110836 54.83681 
L 294.273164 57.797367 
L 294.435491 56.10562 
L 294.597818 58.64324 
L 294.760145 54.83681 
L 294.922473 55.259747 
L 295.247127 60.334987 
L 295.409455 54.413873 
L 295.571782 60.757923 
L 295.734109 55.682683 
L 296.058764 64.564353 
L 296.383418 53.568 
L 296.545745 60.334987 
L 296.708073 60.757923 
L 296.8704 58.64324 
L 297.032727 54.413873 
L 297.357382 56.951493 
L 297.519709 55.259747 
L 297.682036 55.682683 
L 297.844364 55.259747 
L 298.006691 58.220303 
L 298.169018 53.990937 
L 298.331345 56.10562 
L 298.493673 55.259747 
L 298.656 56.10562 
L 298.818327 56.10562 
L 299.142982 53.990937 
L 299.305309 55.259747 
L 299.467636 53.568 
L 299.629964 55.259747 
L 299.792291 54.83681 
L 299.954618 54.83681 
L 300.116945 55.682683 
L 300.279273 57.797367 
L 300.603927 53.990937 
L 300.766255 56.528557 
L 300.928582 55.259747 
L 301.090909 59.066177 
L 301.253236 55.259747 
L 301.415564 55.259747 
L 301.577891 53.990937 
L 301.740218 53.990937 
L 301.902545 54.413873 
L 302.064873 53.568 
L 302.714182 57.797367 
L 303.038836 53.568 
L 303.201164 70.908418 
L 303.363491 56.10562 
L 303.525818 66.679036 
L 303.688145 64.564353 
L 303.850473 56.10562 
L 304.175127 77.675405 
L 304.662109 55.259747 
L 304.824436 56.951493 
L 304.986764 53.568 
L 305.311418 57.797367 
L 305.473745 56.10562 
L 305.636073 56.528557 
L 305.7984 56.10562 
L 305.960727 59.066177 
L 306.123055 57.797367 
L 306.285382 55.259747 
L 306.447709 55.682683 
L 306.610036 57.797367 
L 306.772364 53.568 
L 306.934691 55.682683 
L 307.097018 56.10562 
L 307.259345 56.951493 
L 307.421673 58.64324 
L 307.584 55.259747 
L 307.746327 56.951493 
L 307.908655 54.83681 
L 308.070982 56.10562 
L 308.233309 54.83681 
L 308.395636 60.334987 
L 308.557964 56.10562 
L 308.720291 54.83681 
L 308.882618 64.141416 
L 309.044945 58.220303 
L 309.207273 56.528557 
L 309.3696 58.64324 
L 309.531927 54.83681 
L 309.694255 57.797367 
L 309.856582 57.797367 
L 310.343564 56.528557 
L 310.668218 54.83681 
L 310.830545 55.259747 
L 311.1552 53.990937 
L 311.317527 54.413873 
L 311.479855 55.682683 
L 311.642182 55.259747 
L 311.804509 54.413873 
L 311.966836 59.91205 
L 312.129164 54.83681 
L 312.453818 58.220303 
L 312.778473 56.528557 
L 312.9408 59.91205 
L 313.103127 56.528557 
L 313.427782 74.714848 
L 313.590109 68.793735 
L 313.752436 58.220303 
L 313.914764 58.220303 
L 314.077091 53.990937 
L 314.239418 60.757923 
L 314.401745 55.682683 
L 314.564073 54.413873 
L 314.7264 56.528557 
L 314.888727 54.83681 
L 315.213382 54.83681 
L 315.375709 57.797367 
L 315.538036 55.682683 
L 315.862691 69.639608 
L 316.187345 59.91205 
L 316.349673 64.564353 
L 316.512 65.833163 
L 316.674327 74.291911 
L 316.836655 60.757923 
L 317.161309 70.485481 
L 317.323636 72.600165 
L 317.485964 60.334987 
L 317.810618 81.481835 
L 318.135273 67.101988 
L 318.2976 73.868975 
L 318.459927 54.413873 
L 318.784582 57.37443 
L 318.946909 54.83681 
L 319.109236 54.83681 
L 319.271564 56.10562 
L 319.433891 54.83681 
L 319.596218 58.220303 
L 319.758545 59.066177 
L 319.920873 56.528557 
L 320.0832 56.528557 
L 320.245527 53.990937 
L 320.407855 55.682683 
L 320.570182 55.682683 
L 320.732509 56.951493 
L 320.894836 54.83681 
L 321.057164 55.259747 
L 321.219491 53.990937 
L 321.381818 56.10562 
L 321.544145 53.568 
L 321.706473 55.259747 
L 321.8688 54.83681 
L 322.031127 55.259747 
L 322.193455 57.797367 
L 322.355782 53.990937 
L 322.518109 55.682683 
L 322.680436 55.682683 
L 322.842764 53.990937 
L 323.005091 54.413873 
L 323.329745 55.682683 
L 323.492073 54.413873 
L 323.6544 59.066177 
L 323.816727 54.83681 
L 323.979055 55.682683 
L 324.141382 55.259747 
L 324.303709 53.568 
L 324.466036 54.83681 
L 324.790691 54.83681 
L 324.953018 55.682683 
L 325.115345 55.682683 
L 325.277673 54.83681 
L 325.602327 56.951493 
L 325.764655 56.10562 
L 325.926982 57.797367 
L 326.251636 55.259747 
L 326.413964 55.682683 
L 326.576291 53.990937 
L 326.738618 56.951493 
L 326.900945 53.990937 
L 327.063273 54.83681 
L 327.2256 53.568 
L 327.387927 54.413873 
L 327.550255 56.951493 
L 327.712582 54.413873 
L 327.874909 56.10562 
L 328.037236 53.568 
L 328.199564 55.259747 
L 328.361891 53.990937 
L 328.848873 57.37443 
L 329.0112 56.951493 
L 329.173527 60.334987 
L 329.335855 59.489113 
L 329.498182 55.682683 
L 329.660509 55.682683 
L 329.822836 54.413873 
L 329.985164 55.682683 
L 330.147491 54.83681 
L 330.309818 55.682683 
L 330.472145 55.682683 
L 330.634473 54.83681 
L 330.7968 56.528557 
L 331.121455 55.259747 
L 331.283782 56.528557 
L 331.446109 55.682683 
L 331.608436 58.64324 
L 331.770764 64.98729 
L 331.933091 56.951493 
L 332.095418 59.066177 
L 332.257745 63.295543 
L 332.420073 60.757923 
L 332.5824 64.564353 
L 333.069382 53.568 
L 333.231709 53.990937 
L 333.556364 59.91205 
L 333.718691 55.682683 
L 333.881018 54.83681 
L 334.368 60.757923 
L 334.692655 54.413873 
L 334.854982 56.10562 
L 335.017309 53.990937 
L 335.179636 56.528557 
L 335.341964 54.83681 
L 335.666618 58.64324 
L 335.991273 53.990937 
L 336.1536 54.83681 
L 336.315927 56.528557 
L 336.640582 60.757923 
L 336.802909 56.10562 
L 337.127564 54.83681 
L 337.289891 55.682683 
L 337.452218 58.220303 
L 337.614545 57.37443 
L 337.9392 54.83681 
L 338.426182 54.83681 
L 338.588509 53.990937 
L 338.913164 56.528557 
L 339.075491 55.682683 
L 339.237818 59.91205 
L 339.400145 55.682683 
L 339.562473 56.951493 
L 339.7248 56.528557 
L 339.887127 57.37443 
L 340.049455 65.410226 
L 340.211782 55.259747 
L 340.536436 60.757923 
L 340.698764 58.220303 
L 340.861091 53.568 
L 341.023418 56.528557 
L 341.348073 53.568 
L 341.5104 55.682683 
L 341.672727 54.413873 
L 341.835055 55.259747 
L 341.997382 57.37443 
L 342.322036 53.568 
L 342.484364 59.489113 
L 342.646691 55.682683 
L 342.809018 56.10562 
L 342.971345 60.757923 
L 343.133673 58.220303 
L 343.296 60.334987 
L 343.458327 57.37443 
L 343.782982 66.679036 
L 344.269964 54.83681 
L 344.432291 54.413873 
L 344.594618 55.682683 
L 344.756945 53.568 
L 344.919273 53.990937 
L 345.0816 55.259747 
L 345.243927 54.83681 
L 345.406255 53.990937 
L 345.730909 61.603797 
L 346.055564 55.682683 
L 346.217891 54.413873 
L 346.380218 58.64324 
L 346.542545 56.951493 
L 346.704873 56.951493 
L 346.8672 57.797367 
L 347.029527 57.37443 
L 347.191855 56.528557 
L 347.354182 54.413873 
L 347.516509 53.990937 
L 347.678836 56.528557 
L 348.003491 55.259747 
L 348.165818 57.797367 
L 348.328145 55.259747 
L 348.490473 55.682683 
L 348.6528 53.568 
L 348.815127 59.489113 
L 349.139782 55.682683 
L 349.302109 56.528557 
L 349.464436 54.83681 
L 349.626764 55.682683 
L 349.789091 53.990937 
L 349.951418 59.489113 
L 350.113745 54.83681 
L 350.4384 59.066177 
L 350.600727 53.568 
L 350.763055 59.066177 
L 350.925382 54.413873 
L 351.087709 57.797367 
L 351.250036 53.990937 
L 351.412364 54.83681 
L 351.574691 54.83681 
L 351.737018 55.682683 
L 351.899345 53.568 
L 352.061673 58.64324 
L 352.224 56.10562 
L 352.386327 56.528557 
L 352.548655 54.83681 
L 352.873309 56.528557 
L 353.197964 53.990937 
L 353.360291 57.797367 
L 353.522618 55.259747 
L 353.684945 54.83681 
L 353.847273 54.83681 
L 354.0096 55.682683 
L 354.171927 54.83681 
L 354.334255 55.682683 
L 354.496582 58.64324 
L 354.658909 53.568 
L 354.821236 53.568 
L 354.983564 56.10562 
L 355.145891 56.10562 
L 355.308218 53.990937 
L 355.470545 54.83681 
L 355.7952 59.066177 
L 356.119855 54.413873 
L 356.282182 54.83681 
L 356.444509 53.568 
L 356.769164 55.259747 
L 356.931491 54.83681 
L 357.093818 55.259747 
L 357.256145 55.259747 
L 357.418473 56.951493 
L 357.5808 55.259747 
L 357.743127 54.83681 
L 357.905455 56.951493 
L 358.230109 55.259747 
L 358.392436 58.220303 
L 358.554764 53.568 
L 358.717091 56.951493 
L 359.041745 53.990937 
L 359.3664 56.10562 
L 359.528727 54.413873 
L 359.691055 55.259747 
L 359.853382 59.489113 
L 360.015709 60.757923 
L 360.178036 54.83681 
L 360.665018 57.797367 
L 360.827345 54.413873 
L 360.989673 55.682683 
L 361.152 54.83681 
L 361.314327 55.259747 
L 361.476655 57.37443 
L 361.638982 54.413873 
L 361.801309 54.83681 
L 362.125964 58.64324 
L 362.288291 55.259747 
L 362.450618 55.259747 
L 362.612945 58.220303 
L 362.775273 54.83681 
L 362.9376 54.413873 
L 363.099927 59.91205 
L 363.262255 59.91205 
L 363.424582 54.83681 
L 363.586909 59.91205 
L 363.749236 60.334987 
L 363.911564 59.91205 
L 364.073891 57.797367 
L 364.398545 75.137785 
L 364.560873 76.829531 
L 364.7232 121.660862 
L 365.047855 101.782824 
L 365.210182 97.976394 
L 365.372509 120.392052 
L 365.534836 117.431496 
L 365.697164 60.334987 
L 366.021818 80.213025 
L 366.184145 58.64324 
L 366.346473 63.71848 
L 366.5088 59.91205 
L 366.671127 64.564353 
L 366.995782 54.83681 
L 367.158109 54.413873 
L 367.320436 54.83681 
L 367.482764 56.528557 
L 367.645091 56.528557 
L 367.807418 53.990937 
L 367.969745 55.682683 
L 368.132073 56.10562 
L 368.2944 55.259747 
L 368.456727 55.682683 
L 368.619055 53.568 
L 368.943709 56.10562 
L 369.106036 53.568 
L 369.268364 55.259747 
L 369.430691 54.83681 
L 370.404655 54.83681 
L 370.566982 55.682683 
L 370.729309 54.83681 
L 370.891636 54.83681 
L 371.053964 55.682683 
L 371.216291 53.568 
L 371.378618 54.83681 
L 371.540945 54.83681 
L 371.703273 55.259747 
L 371.8656 54.413873 
L 372.027927 55.259747 
L 372.352582 54.413873 
L 372.514909 55.259747 
L 372.677236 54.83681 
L 372.839564 56.10562 
L 373.001891 53.568 
L 373.164218 54.83681 
L 373.326545 53.568 
L 373.488873 58.220303 
L 373.6512 57.37443 
L 373.813527 55.259747 
L 373.975855 54.83681 
L 374.138182 54.83681 
L 374.300509 55.259747 
L 374.462836 54.83681 
L 374.787491 56.528557 
L 374.949818 56.951493 
L 375.112145 53.568 
L 375.274473 54.83681 
L 375.4368 54.83681 
L 375.599127 56.528557 
L 375.761455 54.83681 
L 375.923782 58.220303 
L 376.410764 54.83681 
L 376.735418 54.83681 
L 376.897745 55.259747 
L 377.060073 54.413873 
L 377.2224 56.951493 
L 377.384727 55.682683 
L 377.547055 56.951493 
L 377.871709 53.568 
L 378.034036 54.83681 
L 378.196364 54.83681 
L 378.358691 54.413873 
L 378.521018 54.83681 
L 378.845673 54.83681 
L 379.008 55.259747 
L 379.170327 56.528557 
L 379.494982 53.568 
L 379.657309 57.797367 
L 379.819636 56.528557 
L 379.981964 59.91205 
L 380.144291 56.528557 
L 380.468945 55.259747 
L 380.631273 54.83681 
L 380.7936 55.259747 
L 380.955927 57.37443 
L 381.118255 57.797367 
L 381.280582 56.10562 
L 381.442909 55.682683 
L 381.605236 55.682683 
L 381.929891 53.568 
L 382.092218 62.44967 
L 382.416873 53.990937 
L 382.903855 56.951493 
L 383.066182 56.10562 
L 383.228509 56.10562 
L 383.390836 55.259747 
L 383.553164 55.682683 
L 383.715491 55.259747 
L 383.877818 53.568 
L 384.040145 53.568 
L 384.202473 54.413873 
L 384.3648 60.334987 
L 384.527127 59.489113 
L 384.689455 57.797367 
L 384.851782 58.220303 
L 385.014109 58.220303 
L 385.176436 56.951493 
L 385.338764 53.990937 
L 385.501091 55.259747 
L 385.825745 55.259747 
L 385.988073 61.603797 
L 386.1504 55.259747 
L 386.312727 60.334987 
L 386.475055 55.682683 
L 386.799709 56.528557 
L 386.962036 53.990937 
L 387.124364 55.259747 
L 387.286691 54.83681 
L 387.449018 54.83681 
L 387.611345 54.413873 
L 387.773673 54.83681 
L 387.936 54.83681 
L 388.098327 55.259747 
L 388.260655 53.568 
L 388.585309 55.682683 
L 388.909964 53.568 
L 389.072291 54.83681 
L 389.234618 54.413873 
L 389.396945 56.528557 
L 389.559273 54.83681 
L 389.883927 54.83681 
L 390.046255 54.413873 
L 390.208582 56.10562 
L 390.370909 54.413873 
L 390.533236 54.83681 
L 390.695564 56.10562 
L 390.857891 54.83681 
L 391.182545 55.682683 
L 391.5072 54.413873 
L 391.669527 55.682683 
L 391.831855 54.413873 
L 392.156509 55.259747 
L 392.318836 54.83681 
L 392.481164 55.259747 
L 392.805818 54.413873 
L 392.968145 54.83681 
L 393.2928 54.83681 
L 393.455127 53.990937 
L 393.779782 56.10562 
L 393.942109 53.568 
L 394.104436 58.220303 
L 394.266764 55.259747 
L 394.429091 56.951493 
L 394.753745 53.568 
L 394.916073 57.797367 
L 395.0784 55.259747 
L 395.240727 60.334987 
L 395.403055 54.83681 
L 395.565382 59.489113 
L 395.727709 58.220303 
L 395.890036 55.259747 
L 396.052364 54.413873 
L 396.214691 56.10562 
L 396.377018 55.259747 
L 396.539345 53.568 
L 396.701673 55.259747 
L 396.864 54.83681 
L 397.026327 54.83681 
L 397.188655 56.528557 
L 397.350982 60.334987 
L 397.513309 53.568 
L 397.675636 81.481835 
L 397.837964 54.413873 
L 398.000291 58.220303 
L 398.162618 57.37443 
L 398.487273 67.524925 
L 398.487273 67.524925 
" clip-path="url(#pb0e2644003)" style="fill: none; stroke: #1f77b4; stroke-width: 1.5; stroke-linecap: square"/>
   </g>
   <g id="patch_3">
    <path d="M 57.6 307.584 
L 57.6 41.472 
" style="fill: none; stroke: #000000; stroke-width: 0.8; stroke-linejoin: miter; stroke-linecap: square"/>
   </g>
   <g id="patch_4">
    <path d="M 57.6 307.584 
L 414.72 307.584 
" style="fill: none; stroke: #000000; stroke-width: 0.8; stroke-linejoin: miter; stroke-linecap: square"/>
   </g>
  </g>
 </g>
 <defs>
  <clipPath id="pb0e2644003">
   <rect x="57.6" y="41.472" width="357.12" height="266.112"/>
  </clipPath>
 </defs>
</svg>
