<?xml version="1.0" encoding="utf-8" standalone="no"?>
<!DOCTYPE svg PUBLIC "-//W3C//DTD SVG 1.1//EN"
  "http://www.w3.org/Graphics/SVG/1.1/DTD/svg11.dtd">
<svg xmlns:xlink="http://www.w3.org/1999/xlink" width="460.8pt" height="345.6pt" viewBox="0 0 460.8 345.6" xmlns="http://www.w3.org/2000/svg" version="1.1">
 <metadata>
  <rdf:RDF xmlns:dc="http://purl.org/dc/elements/1.1/" xmlns:cc="http://creativecommons.org/ns#" xmlns:rdf="http://www.w3.org/1999/02/22-rdf-syntax-ns#">
   <cc:Work>
    <dc:type rdf:resource="http://purl.org/dc/dcmitype/StillImage"/>
    <dc:date>2026-05-18T12:00:57.508826</dc:date>
    <dc:format>image/svg+xml</dc:format>
    <dc:creator>
     <cc:Agent>
      <dc:title>Matplotlib v3.10.8, https://matplotlib.org/</dc:title>
     </cc:Agent>
    </dc:creator>
   </cc:Work>
  </rdf:RDF>
 </metadata>
 <defs>
  <style type="text/css">*{stroke-linejoin: round; stroke-linecap: butt}</style>
 </defs>
 <g id="figure_1">
  <g id="patch_1">
   <path d="M 0 345.6 
L 460.8 345.6 
L 460.8 0 
L 0 0 
z
" style="fill: #ffffff"/>
  </g>
  <g id="axes_1">
   <g id="patch_2">
    <path d="M 44.66 303.64 
L 450 303.64 
L 450 10.8 
L 44.66 10.8 
z
" style="fill: #ffffff"/>
   </g>
   <g id="PathCollection_1">
    <defs>
     <path id="m02c17fa7f6" d="M 0 1.581139 
C 0.419323 1.581139 0.821528 1.41454 1.118034 1.118034 
C 1.41454 0.821528 1.581139 0.419323 1.581139 0 
C 1.581139 -0.419323 1.41454 -0.821528 1.118034 -1.118034 
C 0.821528 -1.41454 0.419323 -1.581139 0 -1.581139 
C -0.419323 -1.581139 -0.821528 -1.41454 -1.118034 -1.118034 
C -1.41454 -0.821528 -1.581139 -0.419323 -1.581139 0 
C -1.581139 0.419323 -1.41454 0.821528 -1.118034 1.118034 
C -0.821528 1.41454 -0.419323 1.581139 0 1.581139 
z
" style="stroke: #0000ff; stroke-opacity: 0.6"/>
    </defs>
    <g clip-path="url(#pc94442b26e)">
     <use xlink:href="#m02c17fa7f6" x="73.671954" y="280.34344" style="fill: #0000ff; fill-opacity: 0.6; stroke: #0000ff; stroke-opacity: 0.6"/>
     <use xlink:href="#m02c17fa7f6" x="63.823193" y="286.022516" style="fill: #0000ff; fill-opacity: 0.6; stroke: #0000ff; stroke-opacity: 0.6"/>
     <use xlink:href="#m02c17fa7f6" x="82.283147" y="252.470332" style="fill: #0000ff; fill-opacity: 0.6; stroke: #0000ff; stroke-opacity: 0.6"/>
     <use xlink:href="#m02c17fa7f6" x="67.807869" y="236.088816" style="fill: #0000ff; fill-opacity: 0.6; stroke: #0000ff; stroke-opacity: 0.6"/>
     <use xlink:href="#m02c17fa7f6" x="66.162611" y="280.674047" style="fill: #0000ff; fill-opacity: 0.6; stroke: #0000ff; stroke-opacity: 0.6"/>
     <use xlink:href="#m02c17fa7f6" x="83.125061" y="258.859072" style="fill: #0000ff; fill-opacity: 0.6; stroke: #0000ff; stroke-opacity: 0.6"/>
     <use xlink:href="#m02c17fa7f6" x="103.030936" y="210.602729" style="fill: #0000ff; fill-opacity: 0.6; stroke: #0000ff; stroke-opacity: 0.6"/>
     <use xlink:href="#m02c17fa7f6" x="68.868924" y="288.92102" style="fill: #0000ff; fill-opacity: 0.6; stroke: #0000ff; stroke-opacity: 0.6"/>
     <use xlink:href="#m02c17fa7f6" x="69.661056" y="288.861525" style="fill: #0000ff; fill-opacity: 0.6; stroke: #0000ff; stroke-opacity: 0.6"/>
     <use xlink:href="#m02c17fa7f6" x="135.55674" y="161.922812" style="fill: #0000ff; fill-opacity: 0.6; stroke: #0000ff; stroke-opacity: 0.6"/>
     <use xlink:href="#m02c17fa7f6" x="88.777767" y="254.906921" style="fill: #0000ff; fill-opacity: 0.6; stroke: #0000ff; stroke-opacity: 0.6"/>
     <use xlink:href="#m02c17fa7f6" x="68.164365" y="285.298532" style="fill: #0000ff; fill-opacity: 0.6; stroke: #0000ff; stroke-opacity: 0.6"/>
     <use xlink:href="#m02c17fa7f6" x="136.587706" y="208.122585" style="fill: #0000ff; fill-opacity: 0.6; stroke: #0000ff; stroke-opacity: 0.6"/>
     <use xlink:href="#m02c17fa7f6" x="187.834453" y="176.626016" style="fill: #0000ff; fill-opacity: 0.6; stroke: #0000ff; stroke-opacity: 0.6"/>
     <use xlink:href="#m02c17fa7f6" x="64.908879" y="286.003748" style="fill: #0000ff; fill-opacity: 0.6; stroke: #0000ff; stroke-opacity: 0.6"/>
     <use xlink:href="#m02c17fa7f6" x="71.478429" y="253.616533" style="fill: #0000ff; fill-opacity: 0.6; stroke: #0000ff; stroke-opacity: 0.6"/>
     <use xlink:href="#m02c17fa7f6" x="131.374616" y="130.006878" style="fill: #0000ff; fill-opacity: 0.6; stroke: #0000ff; stroke-opacity: 0.6"/>
     <use xlink:href="#m02c17fa7f6" x="71.562883" y="283.287827" style="fill: #0000ff; fill-opacity: 0.6; stroke: #0000ff; stroke-opacity: 0.6"/>
     <use xlink:href="#m02c17fa7f6" x="64.28951" y="279.919013" style="fill: #0000ff; fill-opacity: 0.6; stroke: #0000ff; stroke-opacity: 0.6"/>
     <use xlink:href="#m02c17fa7f6" x="94.733167" y="252.531425" style="fill: #0000ff; fill-opacity: 0.6; stroke: #0000ff; stroke-opacity: 0.6"/>
     <use xlink:href="#m02c17fa7f6" x="73.487292" y="268.970971" style="fill: #0000ff; fill-opacity: 0.6; stroke: #0000ff; stroke-opacity: 0.6"/>
     <use xlink:href="#m02c17fa7f6" x="67.91735" y="287.213373" style="fill: #0000ff; fill-opacity: 0.6; stroke: #0000ff; stroke-opacity: 0.6"/>
     <use xlink:href="#m02c17fa7f6" x="68.174939" y="278.318843" style="fill: #0000ff; fill-opacity: 0.6; stroke: #0000ff; stroke-opacity: 0.6"/>
     <use xlink:href="#m02c17fa7f6" x="72.060731" y="266.960676" style="fill: #0000ff; fill-opacity: 0.6; stroke: #0000ff; stroke-opacity: 0.6"/>
     <use xlink:href="#m02c17fa7f6" x="81.790577" y="247.009746" style="fill: #0000ff; fill-opacity: 0.6; stroke: #0000ff; stroke-opacity: 0.6"/>
     <use xlink:href="#m02c17fa7f6" x="230.375856" y="105.063415" style="fill: #0000ff; fill-opacity: 0.6; stroke: #0000ff; stroke-opacity: 0.6"/>
     <use xlink:href="#m02c17fa7f6" x="80.781853" y="267.235998" style="fill: #0000ff; fill-opacity: 0.6; stroke: #0000ff; stroke-opacity: 0.6"/>
     <use xlink:href="#m02c17fa7f6" x="65.310065" y="271.528096" style="fill: #0000ff; fill-opacity: 0.6; stroke: #0000ff; stroke-opacity: 0.6"/>
     <use xlink:href="#m02c17fa7f6" x="224.387353" y="74.83215" style="fill: #0000ff; fill-opacity: 0.6; stroke: #0000ff; stroke-opacity: 0.6"/>
     <use xlink:href="#m02c17fa7f6" x="195.105667" y="83.730127" style="fill: #0000ff; fill-opacity: 0.6; stroke: #0000ff; stroke-opacity: 0.6"/>
     <use xlink:href="#m02c17fa7f6" x="85.903087" y="264.916053" style="fill: #0000ff; fill-opacity: 0.6; stroke: #0000ff; stroke-opacity: 0.6"/>
     <use xlink:href="#m02c17fa7f6" x="71.999725" y="274.236997" style="fill: #0000ff; fill-opacity: 0.6; stroke: #0000ff; stroke-opacity: 0.6"/>
     <use xlink:href="#m02c17fa7f6" x="95.368991" y="242.244655" style="fill: #0000ff; fill-opacity: 0.6; stroke: #0000ff; stroke-opacity: 0.6"/>
     <use xlink:href="#m02c17fa7f6" x="162.754103" y="155.407954" style="fill: #0000ff; fill-opacity: 0.6; stroke: #0000ff; stroke-opacity: 0.6"/>
     <use xlink:href="#m02c17fa7f6" x="75.114162" y="268.810441" style="fill: #0000ff; fill-opacity: 0.6; stroke: #0000ff; stroke-opacity: 0.6"/>
     <use xlink:href="#m02c17fa7f6" x="106.560574" y="246.707635" style="fill: #0000ff; fill-opacity: 0.6; stroke: #0000ff; stroke-opacity: 0.6"/>
     <use xlink:href="#m02c17fa7f6" x="87.837229" y="258.817646" style="fill: #0000ff; fill-opacity: 0.6; stroke: #0000ff; stroke-opacity: 0.6"/>
     <use xlink:href="#m02c17fa7f6" x="82.039297" y="266.634073" style="fill: #0000ff; fill-opacity: 0.6; stroke: #0000ff; stroke-opacity: 0.6"/>
     <use xlink:href="#m02c17fa7f6" x="109.678341" y="219.008464" style="fill: #0000ff; fill-opacity: 0.6; stroke: #0000ff; stroke-opacity: 0.6"/>
     <use xlink:href="#m02c17fa7f6" x="240.914591" y="159.170108" style="fill: #0000ff; fill-opacity: 0.6; stroke: #0000ff; stroke-opacity: 0.6"/>
     <use xlink:href="#m02c17fa7f6" x="91.754681" y="251.392498" style="fill: #0000ff; fill-opacity: 0.6; stroke: #0000ff; stroke-opacity: 0.6"/>
     <use xlink:href="#m02c17fa7f6" x="98.036326" y="248.211474" style="fill: #0000ff; fill-opacity: 0.6; stroke: #0000ff; stroke-opacity: 0.6"/>
     <use xlink:href="#m02c17fa7f6" x="74.75841" y="261.202321" style="fill: #0000ff; fill-opacity: 0.6; stroke: #0000ff; stroke-opacity: 0.6"/>
     <use xlink:href="#m02c17fa7f6" x="71.748559" y="258.628873" style="fill: #0000ff; fill-opacity: 0.6; stroke: #0000ff; stroke-opacity: 0.6"/>
     <use xlink:href="#m02c17fa7f6" x="68.944128" y="290.329091" style="fill: #0000ff; fill-opacity: 0.6; stroke: #0000ff; stroke-opacity: 0.6"/>
     <use xlink:href="#m02c17fa7f6" x="395.734678" y="43.823962" style="fill: #0000ff; fill-opacity: 0.6; stroke: #0000ff; stroke-opacity: 0.6"/>
     <use xlink:href="#m02c17fa7f6" x="186.091296" y="113.883689" style="fill: #0000ff; fill-opacity: 0.6; stroke: #0000ff; stroke-opacity: 0.6"/>
     <use xlink:href="#m02c17fa7f6" x="64.431407" y="285.260245" style="fill: #0000ff; fill-opacity: 0.6; stroke: #0000ff; stroke-opacity: 0.6"/>
     <use xlink:href="#m02c17fa7f6" x="70.470013" y="275.716574" style="fill: #0000ff; fill-opacity: 0.6; stroke: #0000ff; stroke-opacity: 0.6"/>
     <use xlink:href="#m02c17fa7f6" x="76.361952" y="271.968664" style="fill: #0000ff; fill-opacity: 0.6; stroke: #0000ff; stroke-opacity: 0.6"/>
     <use xlink:href="#m02c17fa7f6" x="69.070607" y="271.056169" style="fill: #0000ff; fill-opacity: 0.6; stroke: #0000ff; stroke-opacity: 0.6"/>
     <use xlink:href="#m02c17fa7f6" x="70.347658" y="279.391322" style="fill: #0000ff; fill-opacity: 0.6; stroke: #0000ff; stroke-opacity: 0.6"/>
     <use xlink:href="#m02c17fa7f6" x="70.006329" y="288.805124" style="fill: #0000ff; fill-opacity: 0.6; stroke: #0000ff; stroke-opacity: 0.6"/>
     <use xlink:href="#m02c17fa7f6" x="78.218974" y="269.753793" style="fill: #0000ff; fill-opacity: 0.6; stroke: #0000ff; stroke-opacity: 0.6"/>
     <use xlink:href="#m02c17fa7f6" x="63.084545" y="286.395711" style="fill: #0000ff; fill-opacity: 0.6; stroke: #0000ff; stroke-opacity: 0.6"/>
     <use xlink:href="#m02c17fa7f6" x="72.932582" y="251.813116" style="fill: #0000ff; fill-opacity: 0.6; stroke: #0000ff; stroke-opacity: 0.6"/>
     <use xlink:href="#m02c17fa7f6" x="91.138688" y="244.230049" style="fill: #0000ff; fill-opacity: 0.6; stroke: #0000ff; stroke-opacity: 0.6"/>
     <use xlink:href="#m02c17fa7f6" x="70.025275" y="285.618576" style="fill: #0000ff; fill-opacity: 0.6; stroke: #0000ff; stroke-opacity: 0.6"/>
     <use xlink:href="#m02c17fa7f6" x="85.605198" y="247.744092" style="fill: #0000ff; fill-opacity: 0.6; stroke: #0000ff; stroke-opacity: 0.6"/>
     <use xlink:href="#m02c17fa7f6" x="93.547832" y="237.947693" style="fill: #0000ff; fill-opacity: 0.6; stroke: #0000ff; stroke-opacity: 0.6"/>
     <use xlink:href="#m02c17fa7f6" x="69.659844" y="259.188003" style="fill: #0000ff; fill-opacity: 0.6; stroke: #0000ff; stroke-opacity: 0.6"/>
     <use xlink:href="#m02c17fa7f6" x="80.946388" y="267.589879" style="fill: #0000ff; fill-opacity: 0.6; stroke: #0000ff; stroke-opacity: 0.6"/>
     <use xlink:href="#m02c17fa7f6" x="94.72915" y="243.789956" style="fill: #0000ff; fill-opacity: 0.6; stroke: #0000ff; stroke-opacity: 0.6"/>
     <use xlink:href="#m02c17fa7f6" x="67.421845" y="281.793701" style="fill: #0000ff; fill-opacity: 0.6; stroke: #0000ff; stroke-opacity: 0.6"/>
     <use xlink:href="#m02c17fa7f6" x="65.315549" y="289.760281" style="fill: #0000ff; fill-opacity: 0.6; stroke: #0000ff; stroke-opacity: 0.6"/>
     <use xlink:href="#m02c17fa7f6" x="134.235646" y="221.620443" style="fill: #0000ff; fill-opacity: 0.6; stroke: #0000ff; stroke-opacity: 0.6"/>
     <use xlink:href="#m02c17fa7f6" x="95.249375" y="207.114003" style="fill: #0000ff; fill-opacity: 0.6; stroke: #0000ff; stroke-opacity: 0.6"/>
     <use xlink:href="#m02c17fa7f6" x="85.635239" y="266.52928" style="fill: #0000ff; fill-opacity: 0.6; stroke: #0000ff; stroke-opacity: 0.6"/>
     <use xlink:href="#m02c17fa7f6" x="64.193078" y="286.176819" style="fill: #0000ff; fill-opacity: 0.6; stroke: #0000ff; stroke-opacity: 0.6"/>
     <use xlink:href="#m02c17fa7f6" x="186.065231" y="155.990333" style="fill: #0000ff; fill-opacity: 0.6; stroke: #0000ff; stroke-opacity: 0.6"/>
     <use xlink:href="#m02c17fa7f6" x="177.187731" y="196.629649" style="fill: #0000ff; fill-opacity: 0.6; stroke: #0000ff; stroke-opacity: 0.6"/>
     <use xlink:href="#m02c17fa7f6" x="70.924386" y="284.549085" style="fill: #0000ff; fill-opacity: 0.6; stroke: #0000ff; stroke-opacity: 0.6"/>
     <use xlink:href="#m02c17fa7f6" x="73.529925" y="279.61524" style="fill: #0000ff; fill-opacity: 0.6; stroke: #0000ff; stroke-opacity: 0.6"/>
     <use xlink:href="#m02c17fa7f6" x="100.192253" y="245.830345" style="fill: #0000ff; fill-opacity: 0.6; stroke: #0000ff; stroke-opacity: 0.6"/>
     <use xlink:href="#m02c17fa7f6" x="89.849678" y="257.569933" style="fill: #0000ff; fill-opacity: 0.6; stroke: #0000ff; stroke-opacity: 0.6"/>
     <use xlink:href="#m02c17fa7f6" x="86.170805" y="260.43916" style="fill: #0000ff; fill-opacity: 0.6; stroke: #0000ff; stroke-opacity: 0.6"/>
     <use xlink:href="#m02c17fa7f6" x="156.58533" y="171.821024" style="fill: #0000ff; fill-opacity: 0.6; stroke: #0000ff; stroke-opacity: 0.6"/>
     <use xlink:href="#m02c17fa7f6" x="105.993246" y="99.590888" style="fill: #0000ff; fill-opacity: 0.6; stroke: #0000ff; stroke-opacity: 0.6"/>
     <use xlink:href="#m02c17fa7f6" x="103.838217" y="242.227696" style="fill: #0000ff; fill-opacity: 0.6; stroke: #0000ff; stroke-opacity: 0.6"/>
     <use xlink:href="#m02c17fa7f6" x="95.056892" y="242.299572" style="fill: #0000ff; fill-opacity: 0.6; stroke: #0000ff; stroke-opacity: 0.6"/>
    </g>
   </g>
   <g id="PathCollection_2">
    <defs>
     <path id="m92ba6c0f64" d="M 0 1.581139 
C 0.419323 1.581139 0.821528 1.41454 1.118034 1.118034 
C 1.41454 0.821528 1.581139 0.419323 1.581139 0 
C 1.581139 -0.419323 1.41454 -0.821528 1.118034 -1.118034 
C 0.821528 -1.41454 0.419323 -1.581139 0 -1.581139 
C -0.419323 -1.581139 -0.821528 -1.41454 -1.118034 -1.118034 
C -1.41454 -0.821528 -1.581139 -0.419323 -1.581139 0 
C -1.581139 0.419323 -1.41454 0.821528 -1.118034 1.118034 
C -0.821528 1.41454 -0.419323 1.581139 0 1.581139 
z
" style="stroke: #008000; stroke-opacity: 0.6"/>
    </defs>
    <g clip-path="url(#pc94442b26e)">
     <use xlink:href="#m92ba6c0f64" x="79.986042" y="262.83001" style="fill: #008000; fill-opacity: 0.6; stroke: #008000; stroke-opacity: 0.6"/>
     <use xlink:href="#m92ba6c0f64" x="431.575455" y="37.139443" style="fill: #008000; fill-opacity: 0.6; stroke: #008000; stroke-opacity: 0.6"/>
     <use xlink:href="#m92ba6c0f64" x="67.98061" y="280.231715" style="fill: #008000; fill-opacity: 0.6; stroke: #008000; stroke-opacity: 0.6"/>
     <use xlink:href="#m92ba6c0f64" x="129.074469" y="190.795594" style="fill: #008000; fill-opacity: 0.6; stroke: #008000; stroke-opacity: 0.6"/>
     <use xlink:href="#m92ba6c0f64" x="69.020363" y="285.091169" style="fill: #008000; fill-opacity: 0.6; stroke: #008000; stroke-opacity: 0.6"/>
     <use xlink:href="#m92ba6c0f64" x="64.658228" y="281.063513" style="fill: #008000; fill-opacity: 0.6; stroke: #008000; stroke-opacity: 0.6"/>
     <use xlink:href="#m92ba6c0f64" x="64.966652" y="280.832826" style="fill: #008000; fill-opacity: 0.6; stroke: #008000; stroke-opacity: 0.6"/>
     <use xlink:href="#m92ba6c0f64" x="67.907165" y="265.47224" style="fill: #008000; fill-opacity: 0.6; stroke: #008000; stroke-opacity: 0.6"/>
     <use xlink:href="#m92ba6c0f64" x="107.468126" y="238.694438" style="fill: #008000; fill-opacity: 0.6; stroke: #008000; stroke-opacity: 0.6"/>
     <use xlink:href="#m92ba6c0f64" x="97.674366" y="251.400398" style="fill: #008000; fill-opacity: 0.6; stroke: #008000; stroke-opacity: 0.6"/>
     <use xlink:href="#m92ba6c0f64" x="68.734046" y="290.219881" style="fill: #008000; fill-opacity: 0.6; stroke: #008000; stroke-opacity: 0.6"/>
     <use xlink:href="#m92ba6c0f64" x="84.215292" y="266.531451" style="fill: #008000; fill-opacity: 0.6; stroke: #008000; stroke-opacity: 0.6"/>
     <use xlink:href="#m92ba6c0f64" x="71.177444" y="282.856624" style="fill: #008000; fill-opacity: 0.6; stroke: #008000; stroke-opacity: 0.6"/>
     <use xlink:href="#m92ba6c0f64" x="71.404109" y="275.817139" style="fill: #008000; fill-opacity: 0.6; stroke: #008000; stroke-opacity: 0.6"/>
     <use xlink:href="#m92ba6c0f64" x="63.559568" y="289.385558" style="fill: #008000; fill-opacity: 0.6; stroke: #008000; stroke-opacity: 0.6"/>
     <use xlink:href="#m92ba6c0f64" x="65.051627" y="273.231195" style="fill: #008000; fill-opacity: 0.6; stroke: #008000; stroke-opacity: 0.6"/>
     <use xlink:href="#m92ba6c0f64" x="64.557442" y="280.542963" style="fill: #008000; fill-opacity: 0.6; stroke: #008000; stroke-opacity: 0.6"/>
     <use xlink:href="#m92ba6c0f64" x="69.031899" y="252.540592" style="fill: #008000; fill-opacity: 0.6; stroke: #008000; stroke-opacity: 0.6"/>
     <use xlink:href="#m92ba6c0f64" x="72.599348" y="249.991684" style="fill: #008000; fill-opacity: 0.6; stroke: #008000; stroke-opacity: 0.6"/>
     <use xlink:href="#m92ba6c0f64" x="71.651154" y="275.931943" style="fill: #008000; fill-opacity: 0.6; stroke: #008000; stroke-opacity: 0.6"/>
    </g>
   </g>
   <g id="PathCollection_3">
    <defs>
     <path id="m5ea0ca8d7c" d="M 0 1.581139 
C 0.419323 1.581139 0.821528 1.41454 1.118034 1.118034 
C 1.41454 0.821528 1.581139 0.419323 1.581139 0 
C 1.581139 -0.419323 1.41454 -0.821528 1.118034 -1.118034 
C 0.821528 -1.41454 0.419323 -1.581139 0 -1.581139 
C -0.419323 -1.581139 -0.821528 -1.41454 -1.118034 -1.118034 
C -1.41454 -0.821528 -1.581139 -0.419323 -1.581139 0 
C -1.581139 0.419323 -1.41454 0.821528 -1.118034 1.118034 
C -0.821528 1.41454 -0.419323 1.581139 0 1.581139 
z
" style="stroke: #ff0000; stroke-opacity: 0.6"/>
    </defs>
    <g clip-path="url(#pc94442b26e)">
     <use xlink:href="#m5ea0ca8d7c" x="79.986042" y="262.905854" style="fill: #ff0000; fill-opacity: 0.6; stroke: #ff0000; stroke-opacity: 0.6"/>
     <use xlink:href="#m5ea0ca8d7c" x="431.575455" y="24.110909" style="fill: #ff0000; fill-opacity: 0.6; stroke: #ff0000; stroke-opacity: 0.6"/>
     <use xlink:href="#m5ea0ca8d7c" x="67.98061" y="279.717735" style="fill: #ff0000; fill-opacity: 0.6; stroke: #ff0000; stroke-opacity: 0.6"/>
     <use xlink:href="#m5ea0ca8d7c" x="129.074469" y="190.392465" style="fill: #ff0000; fill-opacity: 0.6; stroke: #ff0000; stroke-opacity: 0.6"/>
     <use xlink:href="#m5ea0ca8d7c" x="69.020363" y="284.847002" style="fill: #ff0000; fill-opacity: 0.6; stroke: #ff0000; stroke-opacity: 0.6"/>
     <use xlink:href="#m5ea0ca8d7c" x="64.658228" y="279.892839" style="fill: #ff0000; fill-opacity: 0.6; stroke: #ff0000; stroke-opacity: 0.6"/>
     <use xlink:href="#m5ea0ca8d7c" x="64.966652" y="279.63861" style="fill: #ff0000; fill-opacity: 0.6; stroke: #ff0000; stroke-opacity: 0.6"/>
     <use xlink:href="#m5ea0ca8d7c" x="67.907165" y="264.679015" style="fill: #ff0000; fill-opacity: 0.6; stroke: #ff0000; stroke-opacity: 0.6"/>
     <use xlink:href="#m5ea0ca8d7c" x="107.468126" y="238.30822" style="fill: #ff0000; fill-opacity: 0.6; stroke: #ff0000; stroke-opacity: 0.6"/>
     <use xlink:href="#m5ea0ca8d7c" x="97.674366" y="251.414975" style="fill: #ff0000; fill-opacity: 0.6; stroke: #ff0000; stroke-opacity: 0.6"/>
     <use xlink:href="#m5ea0ca8d7c" x="68.734046" y="290.124725" style="fill: #ff0000; fill-opacity: 0.6; stroke: #ff0000; stroke-opacity: 0.6"/>
     <use xlink:href="#m5ea0ca8d7c" x="84.215292" y="266.641973" style="fill: #ff0000; fill-opacity: 0.6; stroke: #ff0000; stroke-opacity: 0.6"/>
     <use xlink:href="#m5ea0ca8d7c" x="71.177444" y="282.674446" style="fill: #ff0000; fill-opacity: 0.6; stroke: #ff0000; stroke-opacity: 0.6"/>
     <use xlink:href="#m5ea0ca8d7c" x="71.404109" y="275.820501" style="fill: #ff0000; fill-opacity: 0.6; stroke: #ff0000; stroke-opacity: 0.6"/>
     <use xlink:href="#m5ea0ca8d7c" x="63.559568" y="287.151622" style="fill: #ff0000; fill-opacity: 0.6; stroke: #ff0000; stroke-opacity: 0.6"/>
     <use xlink:href="#m5ea0ca8d7c" x="65.051627" y="272.254055" style="fill: #ff0000; fill-opacity: 0.6; stroke: #ff0000; stroke-opacity: 0.6"/>
     <use xlink:href="#m5ea0ca8d7c" x="64.557442" y="279.41926" style="fill: #ff0000; fill-opacity: 0.6; stroke: #ff0000; stroke-opacity: 0.6"/>
     <use xlink:href="#m5ea0ca8d7c" x="69.031899" y="252.352851" style="fill: #ff0000; fill-opacity: 0.6; stroke: #ff0000; stroke-opacity: 0.6"/>
     <use xlink:href="#m5ea0ca8d7c" x="72.599348" y="250.185505" style="fill: #ff0000; fill-opacity: 0.6; stroke: #ff0000; stroke-opacity: 0.6"/>
     <use xlink:href="#m5ea0ca8d7c" x="71.651154" y="275.947071" style="fill: #ff0000; fill-opacity: 0.6; stroke: #ff0000; stroke-opacity: 0.6"/>
    </g>
   </g>
   <g id="matplotlib.axis_1">
    <g id="xtick_1">
     <g id="line2d_1">
      <defs>
       <path id="mf2466d73a9" d="M 0 0 
L 0 3.5 
" style="stroke: #000000; stroke-width: 0.8"/>
      </defs>
      <g>
       <use xlink:href="#mf2466d73a9" x="61.855915" y="303.64" style="stroke: #000000; stroke-width: 0.8"/>
      </g>
     </g>
     <g id="text_1">
      <!-- 0 -->
      <g transform="translate(58.674665 318.238437) scale(0.1 -0.1)">
       <defs>
        <path id="DejaVuSans-30" d="M 2034 4250 
Q 1547 4250 1301 3770 
Q 1056 3291 1056 2328 
Q 1056 1369 1301 889 
Q 1547 409 2034 409 
Q 2525 409 2770 889 
Q 3016 1369 3016 2328 
Q 3016 3291 2770 3770 
Q 2525 4250 2034 4250 
z
M 2034 4750 
Q 2819 4750 3233 4129 
Q 3647 3509 3647 2328 
Q 3647 1150 3233 529 
Q 2819 -91 2034 -91 
Q 1250 -91 836 529 
Q 422 1150 422 2328 
Q 422 3509 836 4129 
Q 1250 4750 2034 4750 
z
" transform="scale(0.015625)"/>
       </defs>
       <use xlink:href="#DejaVuSans-30"/>
      </g>
     </g>
    </g>
    <g id="xtick_2">
     <g id="line2d_2">
      <g>
       <use xlink:href="#mf2466d73a9" x="140.96789" y="303.64" style="stroke: #000000; stroke-width: 0.8"/>
      </g>
     </g>
     <g id="text_2">
      <!-- 500 -->
      <g transform="translate(131.42414 318.238437) scale(0.1 -0.1)">
       <defs>
        <path id="DejaVuSans-35" d="M 691 4666 
L 3169 4666 
L 3169 4134 
L 1269 4134 
L 1269 2991 
Q 1406 3038 1543 3061 
Q 1681 3084 1819 3084 
Q 2600 3084 3056 2656 
Q 3513 2228 3513 1497 
Q 3513 744 3044 326 
Q 2575 -91 1722 -91 
Q 1428 -91 1123 -41 
Q 819 9 494 109 
L 494 744 
Q 775 591 1075 516 
Q 1375 441 1709 441 
Q 2250 441 2565 725 
Q 2881 1009 2881 1497 
Q 2881 1984 2565 2268 
Q 2250 2553 1709 2553 
Q 1456 2553 1204 2497 
Q 953 2441 691 2322 
L 691 4666 
z
" transform="scale(0.015625)"/>
       </defs>
       <use xlink:href="#DejaVuSans-35"/>
       <use xlink:href="#DejaVuSans-30" transform="translate(63.623047 0)"/>
       <use xlink:href="#DejaVuSans-30" transform="translate(127.246094 0)"/>
      </g>
     </g>
    </g>
    <g id="xtick_3">
     <g id="line2d_3">
      <g>
       <use xlink:href="#mf2466d73a9" x="220.079865" y="303.64" style="stroke: #000000; stroke-width: 0.8"/>
      </g>
     </g>
     <g id="text_3">
      <!-- 1000 -->
      <g transform="translate(207.354865 318.238437) scale(0.1 -0.1)">
       <defs>
        <path id="DejaVuSans-31" d="M 794 531 
L 1825 531 
L 1825 4091 
L 703 3866 
L 703 4441 
L 1819 4666 
L 2450 4666 
L 2450 531 
L 3481 531 
L 3481 0 
L 794 0 
L 794 531 
z
" transform="scale(0.015625)"/>
       </defs>
       <use xlink:href="#DejaVuSans-31"/>
       <use xlink:href="#DejaVuSans-30" transform="translate(63.623047 0)"/>
       <use xlink:href="#DejaVuSans-30" transform="translate(127.246094 0)"/>
       <use xlink:href="#DejaVuSans-30" transform="translate(190.869141 0)"/>
      </g>
     </g>
    </g>
    <g id="xtick_4">
     <g id="line2d_4">
      <g>
       <use xlink:href="#mf2466d73a9" x="299.19184" y="303.64" style="stroke: #000000; stroke-width: 0.8"/>
      </g>
     </g>
     <g id="text_4">
      <!-- 1500 -->
      <g transform="translate(286.46684 318.238437) scale(0.1 -0.1)">
       <use xlink:href="#DejaVuSans-31"/>
       <use xlink:href="#DejaVuSans-35" transform="translate(63.623047 0)"/>
       <use xlink:href="#DejaVuSans-30" transform="translate(127.246094 0)"/>
       <use xlink:href="#DejaVuSans-30" transform="translate(190.869141 0)"/>
      </g>
     </g>
    </g>
    <g id="xtick_5">
     <g id="line2d_5">
      <g>
       <use xlink:href="#mf2466d73a9" x="378.303815" y="303.64" style="stroke: #000000; stroke-width: 0.8"/>
      </g>
     </g>
     <g id="text_5">
      <!-- 2000 -->
      <g transform="translate(365.578815 318.238437) scale(0.1 -0.1)">
       <defs>
        <path id="DejaVuSans-32" d="M 1228 531 
L 3431 531 
L 3431 0 
L 469 0 
L 469 531 
Q 828 903 1448 1529 
Q 2069 2156 2228 2338 
Q 2531 2678 2651 2914 
Q 2772 3150 2772 3378 
Q 2772 3750 2511 3984 
Q 2250 4219 1831 4219 
Q 1534 4219 1204 4116 
Q 875 4013 500 3803 
L 500 4441 
Q 881 4594 1212 4672 
Q 1544 4750 1819 4750 
Q 2544 4750 2975 4387 
Q 3406 4025 3406 3419 
Q 3406 3131 3298 2873 
Q 3191 2616 2906 2266 
Q 2828 2175 2409 1742 
Q 1991 1309 1228 531 
z
" transform="scale(0.015625)"/>
       </defs>
       <use xlink:href="#DejaVuSans-32"/>
       <use xlink:href="#DejaVuSans-30" transform="translate(63.623047 0)"/>
       <use xlink:href="#DejaVuSans-30" transform="translate(127.246094 0)"/>
       <use xlink:href="#DejaVuSans-30" transform="translate(190.869141 0)"/>
      </g>
     </g>
    </g>
    <g id="text_6">
     <!-- Final [FP] -->
     <g transform="translate(224.424531 331.916562) scale(0.1 -0.1)">
      <defs>
       <path id="DejaVuSans-46" d="M 628 4666 
L 3309 4666 
L 3309 4134 
L 1259 4134 
L 1259 2759 
L 3109 2759 
L 3109 2228 
L 1259 2228 
L 1259 0 
L 628 0 
L 628 4666 
z
" transform="scale(0.015625)"/>
       <path id="DejaVuSans-69" d="M 603 3500 
L 1178 3500 
L 1178 0 
L 603 0 
L 603 3500 
z
M 603 4863 
L 1178 4863 
L 1178 4134 
L 603 4134 
L 603 4863 
z
" transform="scale(0.015625)"/>
       <path id="DejaVuSans-6e" d="M 3513 2113 
L 3513 0 
L 2938 0 
L 2938 2094 
Q 2938 2591 2744 2837 
Q 2550 3084 2163 3084 
Q 1697 3084 1428 2787 
Q 1159 2491 1159 1978 
L 1159 0 
L 581 0 
L 581 3500 
L 1159 3500 
L 1159 2956 
Q 1366 3272 1645 3428 
Q 1925 3584 2291 3584 
Q 2894 3584 3203 3211 
Q 3513 2838 3513 2113 
z
" transform="scale(0.015625)"/>
       <path id="DejaVuSans-61" d="M 2194 1759 
Q 1497 1759 1228 1600 
Q 959 1441 959 1056 
Q 959 750 1161 570 
Q 1363 391 1709 391 
Q 2188 391 2477 730 
Q 2766 1069 2766 1631 
L 2766 1759 
L 2194 1759 
z
M 3341 1997 
L 3341 0 
L 2766 0 
L 2766 531 
Q 2569 213 2275 61 
Q 1981 -91 1556 -91 
Q 1019 -91 701 211 
Q 384 513 384 1019 
Q 384 1609 779 1909 
Q 1175 2209 1959 2209 
L 2766 2209 
L 2766 2266 
Q 2766 2663 2505 2880 
Q 2244 3097 1772 3097 
Q 1472 3097 1187 3025 
Q 903 2953 641 2809 
L 641 3341 
Q 956 3463 1253 3523 
Q 1550 3584 1831 3584 
Q 2591 3584 2966 3190 
Q 3341 2797 3341 1997 
z
" transform="scale(0.015625)"/>
       <path id="DejaVuSans-6c" d="M 603 4863 
L 1178 4863 
L 1178 0 
L 603 0 
L 603 4863 
z
" transform="scale(0.015625)"/>
       <path id="DejaVuSans-20" transform="scale(0.015625)"/>
       <path id="DejaVuSans-5b" d="M 550 4863 
L 1875 4863 
L 1875 4416 
L 1125 4416 
L 1125 -397 
L 1875 -397 
L 1875 -844 
L 550 -844 
L 550 4863 
z
" transform="scale(0.015625)"/>
       <path id="DejaVuSans-50" d="M 1259 4147 
L 1259 2394 
L 2053 2394 
Q 2494 2394 2734 2622 
Q 2975 2850 2975 3272 
Q 2975 3691 2734 3919 
Q 2494 4147 2053 4147 
L 1259 4147 
z
M 628 4666 
L 2053 4666 
Q 2838 4666 3239 4311 
Q 3641 3956 3641 3272 
Q 3641 2581 3239 2228 
Q 2838 1875 2053 1875 
L 1259 1875 
L 1259 0 
L 628 0 
L 628 4666 
z
" transform="scale(0.015625)"/>
       <path id="DejaVuSans-5d" d="M 1947 4863 
L 1947 -844 
L 622 -844 
L 622 -397 
L 1369 -397 
L 1369 4416 
L 622 4416 
L 622 4863 
L 1947 4863 
z
" transform="scale(0.015625)"/>
      </defs>
      <use xlink:href="#DejaVuSans-46"/>
      <use xlink:href="#DejaVuSans-69" transform="translate(50.269531 0)"/>
      <use xlink:href="#DejaVuSans-6e" transform="translate(78.052734 0)"/>
      <use xlink:href="#DejaVuSans-61" transform="translate(141.431641 0)"/>
      <use xlink:href="#DejaVuSans-6c" transform="translate(202.710938 0)"/>
      <use xlink:href="#DejaVuSans-20" transform="translate(230.494141 0)"/>
      <use xlink:href="#DejaVuSans-5b" transform="translate(262.28125 0)"/>
      <use xlink:href="#DejaVuSans-46" transform="translate(301.294922 0)"/>
      <use xlink:href="#DejaVuSans-50" transform="translate(358.814453 0)"/>
      <use xlink:href="#DejaVuSans-5d" transform="translate(419.117188 0)"/>
     </g>
    </g>
   </g>
   <g id="matplotlib.axis_2">
    <g id="ytick_1">
     <g id="line2d_6">
      <defs>
       <path id="m56b3ab24b8" d="M 0 0 
L -3.5 0 
" style="stroke: #000000; stroke-width: 0.8"/>
      </defs>
      <g>
       <use xlink:href="#m56b3ab24b8" x="44.66" y="258.767234" style="stroke: #000000; stroke-width: 0.8"/>
      </g>
     </g>
     <g id="text_7">
      <!-- 10 -->
      <g transform="translate(24.935 262.566453) scale(0.1 -0.1)">
       <use xlink:href="#DejaVuSans-31"/>
       <use xlink:href="#DejaVuSans-30" transform="translate(63.623047 0)"/>
      </g>
     </g>
    </g>
    <g id="ytick_2">
     <g id="line2d_7">
      <g>
       <use xlink:href="#m56b3ab24b8" x="44.66" y="195.528758" style="stroke: #000000; stroke-width: 0.8"/>
      </g>
     </g>
     <g id="text_8">
      <!-- 20 -->
      <g transform="translate(24.935 199.327977) scale(0.1 -0.1)">
       <use xlink:href="#DejaVuSans-32"/>
       <use xlink:href="#DejaVuSans-30" transform="translate(63.623047 0)"/>
      </g>
     </g>
    </g>
    <g id="ytick_3">
     <g id="line2d_8">
      <g>
       <use xlink:href="#m56b3ab24b8" x="44.66" y="132.290282" style="stroke: #000000; stroke-width: 0.8"/>
      </g>
     </g>
     <g id="text_9">
      <!-- 30 -->
      <g transform="translate(24.935 136.089501) scale(0.1 -0.1)">
       <defs>
        <path id="DejaVuSans-33" d="M 2597 2516 
Q 3050 2419 3304 2112 
Q 3559 1806 3559 1356 
Q 3559 666 3084 287 
Q 2609 -91 1734 -91 
Q 1441 -91 1130 -33 
Q 819 25 488 141 
L 488 750 
Q 750 597 1062 519 
Q 1375 441 1716 441 
Q 2309 441 2620 675 
Q 2931 909 2931 1356 
Q 2931 1769 2642 2001 
Q 2353 2234 1838 2234 
L 1294 2234 
L 1294 2753 
L 1863 2753 
Q 2328 2753 2575 2939 
Q 2822 3125 2822 3475 
Q 2822 3834 2567 4026 
Q 2313 4219 1838 4219 
Q 1578 4219 1281 4162 
Q 984 4106 628 3988 
L 628 4550 
Q 988 4650 1302 4700 
Q 1616 4750 1894 4750 
Q 2613 4750 3031 4423 
Q 3450 4097 3450 3541 
Q 3450 3153 3228 2886 
Q 3006 2619 2597 2516 
z
" transform="scale(0.015625)"/>
       </defs>
       <use xlink:href="#DejaVuSans-33"/>
       <use xlink:href="#DejaVuSans-30" transform="translate(63.623047 0)"/>
      </g>
     </g>
    </g>
    <g id="ytick_4">
     <g id="line2d_9">
      <g>
       <use xlink:href="#m56b3ab24b8" x="44.66" y="69.051806" style="stroke: #000000; stroke-width: 0.8"/>
      </g>
     </g>
     <g id="text_10">
      <!-- 40 -->
      <g transform="translate(24.935 72.851025) scale(0.1 -0.1)">
       <defs>
        <path id="DejaVuSans-34" d="M 2419 4116 
L 825 1625 
L 2419 1625 
L 2419 4116 
z
M 2253 4666 
L 3047 4666 
L 3047 1625 
L 3713 1625 
L 3713 1100 
L 3047 1100 
L 3047 0 
L 2419 0 
L 2419 1100 
L 313 1100 
L 313 1709 
L 2253 4666 
z
" transform="scale(0.015625)"/>
       </defs>
       <use xlink:href="#DejaVuSans-34"/>
       <use xlink:href="#DejaVuSans-30" transform="translate(63.623047 0)"/>
      </g>
     </g>
    </g>
    <g id="text_11">
     <!-- Final [mRNA] -->
     <g transform="translate(18.855313 189.740313) rotate(-90) scale(0.1 -0.1)">
      <defs>
       <path id="DejaVuSans-6d" d="M 3328 2828 
Q 3544 3216 3844 3400 
Q 4144 3584 4550 3584 
Q 5097 3584 5394 3201 
Q 5691 2819 5691 2113 
L 5691 0 
L 5113 0 
L 5113 2094 
Q 5113 2597 4934 2840 
Q 4756 3084 4391 3084 
Q 3944 3084 3684 2787 
Q 3425 2491 3425 1978 
L 3425 0 
L 2847 0 
L 2847 2094 
Q 2847 2600 2669 2842 
Q 2491 3084 2119 3084 
Q 1678 3084 1418 2786 
Q 1159 2488 1159 1978 
L 1159 0 
L 581 0 
L 581 3500 
L 1159 3500 
L 1159 2956 
Q 1356 3278 1631 3431 
Q 1906 3584 2284 3584 
Q 2666 3584 2933 3390 
Q 3200 3197 3328 2828 
z
" transform="scale(0.015625)"/>
       <path id="DejaVuSans-52" d="M 2841 2188 
Q 3044 2119 3236 1894 
Q 3428 1669 3622 1275 
L 4263 0 
L 3584 0 
L 2988 1197 
Q 2756 1666 2539 1819 
Q 2322 1972 1947 1972 
L 1259 1972 
L 1259 0 
L 628 0 
L 628 4666 
L 2053 4666 
Q 2853 4666 3247 4331 
Q 3641 3997 3641 3322 
Q 3641 2881 3436 2590 
Q 3231 2300 2841 2188 
z
M 1259 4147 
L 1259 2491 
L 2053 2491 
Q 2509 2491 2742 2702 
Q 2975 2913 2975 3322 
Q 2975 3731 2742 3939 
Q 2509 4147 2053 4147 
L 1259 4147 
z
" transform="scale(0.015625)"/>
       <path id="DejaVuSans-4e" d="M 628 4666 
L 1478 4666 
L 3547 763 
L 3547 4666 
L 4159 4666 
L 4159 0 
L 3309 0 
L 1241 3903 
L 1241 0 
L 628 0 
L 628 4666 
z
" transform="scale(0.015625)"/>
       <path id="DejaVuSans-41" d="M 2188 4044 
L 1331 1722 
L 3047 1722 
L 2188 4044 
z
M 1831 4666 
L 2547 4666 
L 4325 0 
L 3669 0 
L 3244 1197 
L 1141 1197 
L 716 0 
L 50 0 
L 1831 4666 
z
" transform="scale(0.015625)"/>
      </defs>
      <use xlink:href="#DejaVuSans-46"/>
      <use xlink:href="#DejaVuSans-69" transform="translate(50.269531 0)"/>
      <use xlink:href="#DejaVuSans-6e" transform="translate(78.052734 0)"/>
      <use xlink:href="#DejaVuSans-61" transform="translate(141.431641 0)"/>
      <use xlink:href="#DejaVuSans-6c" transform="translate(202.710938 0)"/>
      <use xlink:href="#DejaVuSans-20" transform="translate(230.494141 0)"/>
      <use xlink:href="#DejaVuSans-5b" transform="translate(262.28125 0)"/>
      <use xlink:href="#DejaVuSans-6d" transform="translate(301.294922 0)"/>
      <use xlink:href="#DejaVuSans-52" transform="translate(398.707031 0)"/>
      <use xlink:href="#DejaVuSans-4e" transform="translate(468.189453 0)"/>
      <use xlink:href="#DejaVuSans-41" transform="translate(542.994141 0)"/>
      <use xlink:href="#DejaVuSans-5d" transform="translate(611.402344 0)"/>
     </g>
    </g>
   </g>
   <g id="patch_3">
    <path d="M 44.66 303.64 
L 44.66 10.8 
" style="fill: none; stroke: #000000; stroke-width: 0.8; stroke-linejoin: miter; stroke-linecap: square"/>
   </g>
   <g id="patch_4">
    <path d="M 450 303.64 
L 450 10.8 
" style="fill: none; stroke: #000000; stroke-width: 0.8; stroke-linejoin: miter; stroke-linecap: square"/>
   </g>
   <g id="patch_5">
    <path d="M 44.66 303.64 
L 450 303.64 
" style="fill: none; stroke: #000000; stroke-width: 0.8; stroke-linejoin: miter; stroke-linecap: square"/>
   </g>
   <g id="patch_6">
    <path d="M 44.66 10.8 
L 450 10.8 
" style="fill: none; stroke: #000000; stroke-width: 0.8; stroke-linejoin: miter; stroke-linecap: square"/>
   </g>
  </g>
 </g>
 <defs>
  <clipPath id="pc94442b26e">
   <rect x="44.66" y="10.8" width="405.34" height="292.84"/>
  </clipPath>
 </defs>
</svg>
