<?xml version="1.0" encoding="utf-8" standalone="no"?>
<!DOCTYPE svg PUBLIC "-//W3C//DTD SVG 1.1//EN"
  "http://www.w3.org/Graphics/SVG/1.1/DTD/svg11.dtd">
<svg xmlns:xlink="http://www.w3.org/1999/xlink" width="460.8pt" height="345.6pt" viewBox="0 0 460.8 345.6" xmlns="http://www.w3.org/2000/svg" version="1.1">
 <metadata>
  <rdf:RDF xmlns:dc="http://purl.org/dc/elements/1.1/" xmlns:cc="http://creativecommons.org/ns#" xmlns:rdf="http://www.w3.org/1999/02/22-rdf-syntax-ns#">
   <cc:Work>
    <dc:type rdf:resource="http://purl.org/dc/dcmitype/StillImage"/>
    <dc:date>2026-05-30T16:33:51.303894</dc:date>
    <dc:format>image/svg+xml</dc:format>
    <dc:creator>
     <cc:Agent>
      <dc:title>Matplotlib v3.10.8, https://matplotlib.org/</dc:title>
     </cc:Agent>
    </dc:creator>
   </cc:Work>
  </rdf:RDF>
 </metadata>
 <defs>
  <style type="text/css">*{stroke-linejoin: round; stroke-linecap: butt}</style>
 </defs>
 <g id="figure_1">
  <g id="patch_1">
   <path d="M 0 345.6 
L 460.8 345.6 
L 460.8 0 
L 0 0 
z
" style="fill: #ffffff"/>
  </g>
  <g id="axes_1">
   <g id="patch_2">
    <path d="M 54.2 303.64 
L 450 303.64 
L 450 10.8 
L 54.2 10.8 
z
" style="fill: #ffffff"/>
   </g>
   <g id="PathCollection_1">
    <defs>
     <path id="m2ae9edec02" d="M 0 1.581139 
C 0.419323 1.581139 0.821528 1.41454 1.118034 1.118034 
C 1.41454 0.821528 1.581139 0.419323 1.581139 0 
C 1.581139 -0.419323 1.41454 -0.821528 1.118034 -1.118034 
C 0.821528 -1.41454 0.419323 -1.581139 0 -1.581139 
C -0.419323 -1.581139 -0.821528 -1.41454 -1.118034 -1.118034 
C -1.41454 -0.821528 -1.581139 -0.419323 -1.581139 0 
C -1.581139 0.419323 -1.41454 0.821528 -1.118034 1.118034 
C -0.821528 1.41454 -0.419323 1.581139 0 1.581139 
z
" style="stroke: #0000ff; stroke-opacity: 0.6"/>
    </defs>
    <g clip-path="url(#pe2c91d11c5)">
     <use xlink:href="#m2ae9edec02" x="84.508458" y="197.894554" style="fill: #0000ff; fill-opacity: 0.6; stroke: #0000ff; stroke-opacity: 0.6"/>
     <use xlink:href="#m2ae9edec02" x="80.263135" y="161.811379" style="fill: #0000ff; fill-opacity: 0.6; stroke: #0000ff; stroke-opacity: 0.6"/>
     <use xlink:href="#m2ae9edec02" x="73.564604" y="209.316281" style="fill: #0000ff; fill-opacity: 0.6; stroke: #0000ff; stroke-opacity: 0.6"/>
     <use xlink:href="#m2ae9edec02" x="74.478212" y="269.080117" style="fill: #0000ff; fill-opacity: 0.6; stroke: #0000ff; stroke-opacity: 0.6"/>
     <use xlink:href="#m2ae9edec02" x="86.943232" y="174.185984" style="fill: #0000ff; fill-opacity: 0.6; stroke: #0000ff; stroke-opacity: 0.6"/>
     <use xlink:href="#m2ae9edec02" x="267.147515" y="27.497326" style="fill: #0000ff; fill-opacity: 0.6; stroke: #0000ff; stroke-opacity: 0.6"/>
     <use xlink:href="#m2ae9edec02" x="77.038739" y="87.081658" style="fill: #0000ff; fill-opacity: 0.6; stroke: #0000ff; stroke-opacity: 0.6"/>
     <use xlink:href="#m2ae9edec02" x="89.683551" y="213.22525" style="fill: #0000ff; fill-opacity: 0.6; stroke: #0000ff; stroke-opacity: 0.6"/>
     <use xlink:href="#m2ae9edec02" x="108.314794" y="63.264418" style="fill: #0000ff; fill-opacity: 0.6; stroke: #0000ff; stroke-opacity: 0.6"/>
     <use xlink:href="#m2ae9edec02" x="95.662659" y="117.905429" style="fill: #0000ff; fill-opacity: 0.6; stroke: #0000ff; stroke-opacity: 0.6"/>
     <use xlink:href="#m2ae9edec02" x="89.63734" y="55.449493" style="fill: #0000ff; fill-opacity: 0.6; stroke: #0000ff; stroke-opacity: 0.6"/>
     <use xlink:href="#m2ae9edec02" x="74.039084" y="196.214118" style="fill: #0000ff; fill-opacity: 0.6; stroke: #0000ff; stroke-opacity: 0.6"/>
     <use xlink:href="#m2ae9edec02" x="74.509524" y="213.417219" style="fill: #0000ff; fill-opacity: 0.6; stroke: #0000ff; stroke-opacity: 0.6"/>
     <use xlink:href="#m2ae9edec02" x="184.844761" y="97.271447" style="fill: #0000ff; fill-opacity: 0.6; stroke: #0000ff; stroke-opacity: 0.6"/>
     <use xlink:href="#m2ae9edec02" x="72.190909" y="275.972809" style="fill: #0000ff; fill-opacity: 0.6; stroke: #0000ff; stroke-opacity: 0.6"/>
     <use xlink:href="#m2ae9edec02" x="80.057585" y="202.656261" style="fill: #0000ff; fill-opacity: 0.6; stroke: #0000ff; stroke-opacity: 0.6"/>
     <use xlink:href="#m2ae9edec02" x="79.461139" y="192.520434" style="fill: #0000ff; fill-opacity: 0.6; stroke: #0000ff; stroke-opacity: 0.6"/>
     <use xlink:href="#m2ae9edec02" x="86.659149" y="114.454993" style="fill: #0000ff; fill-opacity: 0.6; stroke: #0000ff; stroke-opacity: 0.6"/>
     <use xlink:href="#m2ae9edec02" x="75.582471" y="241.117486" style="fill: #0000ff; fill-opacity: 0.6; stroke: #0000ff; stroke-opacity: 0.6"/>
     <use xlink:href="#m2ae9edec02" x="90.997652" y="71.740574" style="fill: #0000ff; fill-opacity: 0.6; stroke: #0000ff; stroke-opacity: 0.6"/>
     <use xlink:href="#m2ae9edec02" x="82.880225" y="200.032335" style="fill: #0000ff; fill-opacity: 0.6; stroke: #0000ff; stroke-opacity: 0.6"/>
     <use xlink:href="#m2ae9edec02" x="93.385204" y="186.566118" style="fill: #0000ff; fill-opacity: 0.6; stroke: #0000ff; stroke-opacity: 0.6"/>
     <use xlink:href="#m2ae9edec02" x="182.542552" y="219.071676" style="fill: #0000ff; fill-opacity: 0.6; stroke: #0000ff; stroke-opacity: 0.6"/>
     <use xlink:href="#m2ae9edec02" x="144.088436" y="100.974816" style="fill: #0000ff; fill-opacity: 0.6; stroke: #0000ff; stroke-opacity: 0.6"/>
     <use xlink:href="#m2ae9edec02" x="73.422942" y="286.32167" style="fill: #0000ff; fill-opacity: 0.6; stroke: #0000ff; stroke-opacity: 0.6"/>
     <use xlink:href="#m2ae9edec02" x="112.833341" y="103.437001" style="fill: #0000ff; fill-opacity: 0.6; stroke: #0000ff; stroke-opacity: 0.6"/>
     <use xlink:href="#m2ae9edec02" x="107.983491" y="153.300586" style="fill: #0000ff; fill-opacity: 0.6; stroke: #0000ff; stroke-opacity: 0.6"/>
     <use xlink:href="#m2ae9edec02" x="75.642065" y="138.053079" style="fill: #0000ff; fill-opacity: 0.6; stroke: #0000ff; stroke-opacity: 0.6"/>
     <use xlink:href="#m2ae9edec02" x="142.351874" y="81.437292" style="fill: #0000ff; fill-opacity: 0.6; stroke: #0000ff; stroke-opacity: 0.6"/>
     <use xlink:href="#m2ae9edec02" x="72.875484" y="263.328797" style="fill: #0000ff; fill-opacity: 0.6; stroke: #0000ff; stroke-opacity: 0.6"/>
     <use xlink:href="#m2ae9edec02" x="102.134429" y="171.849023" style="fill: #0000ff; fill-opacity: 0.6; stroke: #0000ff; stroke-opacity: 0.6"/>
     <use xlink:href="#m2ae9edec02" x="83.252183" y="59.123556" style="fill: #0000ff; fill-opacity: 0.6; stroke: #0000ff; stroke-opacity: 0.6"/>
     <use xlink:href="#m2ae9edec02" x="119.187438" y="70.069702" style="fill: #0000ff; fill-opacity: 0.6; stroke: #0000ff; stroke-opacity: 0.6"/>
     <use xlink:href="#m2ae9edec02" x="104.24598" y="67.745602" style="fill: #0000ff; fill-opacity: 0.6; stroke: #0000ff; stroke-opacity: 0.6"/>
     <use xlink:href="#m2ae9edec02" x="105.962341" y="134.347314" style="fill: #0000ff; fill-opacity: 0.6; stroke: #0000ff; stroke-opacity: 0.6"/>
     <use xlink:href="#m2ae9edec02" x="78.916459" y="65.950759" style="fill: #0000ff; fill-opacity: 0.6; stroke: #0000ff; stroke-opacity: 0.6"/>
     <use xlink:href="#m2ae9edec02" x="74.646389" y="218.981671" style="fill: #0000ff; fill-opacity: 0.6; stroke: #0000ff; stroke-opacity: 0.6"/>
     <use xlink:href="#m2ae9edec02" x="74.402709" y="209.273895" style="fill: #0000ff; fill-opacity: 0.6; stroke: #0000ff; stroke-opacity: 0.6"/>
     <use xlink:href="#m2ae9edec02" x="432.009091" y="91.133681" style="fill: #0000ff; fill-opacity: 0.6; stroke: #0000ff; stroke-opacity: 0.6"/>
     <use xlink:href="#m2ae9edec02" x="89.228009" y="97.321264" style="fill: #0000ff; fill-opacity: 0.6; stroke: #0000ff; stroke-opacity: 0.6"/>
     <use xlink:href="#m2ae9edec02" x="81.479764" y="28.086557" style="fill: #0000ff; fill-opacity: 0.6; stroke: #0000ff; stroke-opacity: 0.6"/>
     <use xlink:href="#m2ae9edec02" x="79.003578" y="233.302253" style="fill: #0000ff; fill-opacity: 0.6; stroke: #0000ff; stroke-opacity: 0.6"/>
     <use xlink:href="#m2ae9edec02" x="115.868601" y="25.159156" style="fill: #0000ff; fill-opacity: 0.6; stroke: #0000ff; stroke-opacity: 0.6"/>
     <use xlink:href="#m2ae9edec02" x="76.170584" y="97.154709" style="fill: #0000ff; fill-opacity: 0.6; stroke: #0000ff; stroke-opacity: 0.6"/>
     <use xlink:href="#m2ae9edec02" x="402.857213" y="106.644728" style="fill: #0000ff; fill-opacity: 0.6; stroke: #0000ff; stroke-opacity: 0.6"/>
     <use xlink:href="#m2ae9edec02" x="75.830191" y="232.142764" style="fill: #0000ff; fill-opacity: 0.6; stroke: #0000ff; stroke-opacity: 0.6"/>
     <use xlink:href="#m2ae9edec02" x="80.301265" y="238.818789" style="fill: #0000ff; fill-opacity: 0.6; stroke: #0000ff; stroke-opacity: 0.6"/>
     <use xlink:href="#m2ae9edec02" x="73.285825" y="264.235831" style="fill: #0000ff; fill-opacity: 0.6; stroke: #0000ff; stroke-opacity: 0.6"/>
     <use xlink:href="#m2ae9edec02" x="72.627259" y="256.353814" style="fill: #0000ff; fill-opacity: 0.6; stroke: #0000ff; stroke-opacity: 0.6"/>
     <use xlink:href="#m2ae9edec02" x="76.269066" y="274.805224" style="fill: #0000ff; fill-opacity: 0.6; stroke: #0000ff; stroke-opacity: 0.6"/>
     <use xlink:href="#m2ae9edec02" x="121.165407" y="135.181607" style="fill: #0000ff; fill-opacity: 0.6; stroke: #0000ff; stroke-opacity: 0.6"/>
     <use xlink:href="#m2ae9edec02" x="139.430752" y="283.44314" style="fill: #0000ff; fill-opacity: 0.6; stroke: #0000ff; stroke-opacity: 0.6"/>
     <use xlink:href="#m2ae9edec02" x="95.364436" y="266.761233" style="fill: #0000ff; fill-opacity: 0.6; stroke: #0000ff; stroke-opacity: 0.6"/>
     <use xlink:href="#m2ae9edec02" x="77.253632" y="223.776025" style="fill: #0000ff; fill-opacity: 0.6; stroke: #0000ff; stroke-opacity: 0.6"/>
     <use xlink:href="#m2ae9edec02" x="141.468568" y="27.15318" style="fill: #0000ff; fill-opacity: 0.6; stroke: #0000ff; stroke-opacity: 0.6"/>
     <use xlink:href="#m2ae9edec02" x="102.90006" y="218.856205" style="fill: #0000ff; fill-opacity: 0.6; stroke: #0000ff; stroke-opacity: 0.6"/>
     <use xlink:href="#m2ae9edec02" x="74.406497" y="287.918979" style="fill: #0000ff; fill-opacity: 0.6; stroke: #0000ff; stroke-opacity: 0.6"/>
     <use xlink:href="#m2ae9edec02" x="82.394887" y="202.509525" style="fill: #0000ff; fill-opacity: 0.6; stroke: #0000ff; stroke-opacity: 0.6"/>
     <use xlink:href="#m2ae9edec02" x="99.728443" y="32.756236" style="fill: #0000ff; fill-opacity: 0.6; stroke: #0000ff; stroke-opacity: 0.6"/>
     <use xlink:href="#m2ae9edec02" x="73.14795" y="264.183442" style="fill: #0000ff; fill-opacity: 0.6; stroke: #0000ff; stroke-opacity: 0.6"/>
     <use xlink:href="#m2ae9edec02" x="81.660819" y="47.403399" style="fill: #0000ff; fill-opacity: 0.6; stroke: #0000ff; stroke-opacity: 0.6"/>
     <use xlink:href="#m2ae9edec02" x="75.195109" y="134.625221" style="fill: #0000ff; fill-opacity: 0.6; stroke: #0000ff; stroke-opacity: 0.6"/>
     <use xlink:href="#m2ae9edec02" x="121.028795" y="211.58176" style="fill: #0000ff; fill-opacity: 0.6; stroke: #0000ff; stroke-opacity: 0.6"/>
     <use xlink:href="#m2ae9edec02" x="75.040316" y="155.993587" style="fill: #0000ff; fill-opacity: 0.6; stroke: #0000ff; stroke-opacity: 0.6"/>
     <use xlink:href="#m2ae9edec02" x="395.059222" y="40.903943" style="fill: #0000ff; fill-opacity: 0.6; stroke: #0000ff; stroke-opacity: 0.6"/>
     <use xlink:href="#m2ae9edec02" x="85.584183" y="223.705532" style="fill: #0000ff; fill-opacity: 0.6; stroke: #0000ff; stroke-opacity: 0.6"/>
     <use xlink:href="#m2ae9edec02" x="77.327367" y="98.228897" style="fill: #0000ff; fill-opacity: 0.6; stroke: #0000ff; stroke-opacity: 0.6"/>
     <use xlink:href="#m2ae9edec02" x="111.98463" y="171.871689" style="fill: #0000ff; fill-opacity: 0.6; stroke: #0000ff; stroke-opacity: 0.6"/>
     <use xlink:href="#m2ae9edec02" x="85.00011" y="171.937049" style="fill: #0000ff; fill-opacity: 0.6; stroke: #0000ff; stroke-opacity: 0.6"/>
     <use xlink:href="#m2ae9edec02" x="102.18973" y="24.110909" style="fill: #0000ff; fill-opacity: 0.6; stroke: #0000ff; stroke-opacity: 0.6"/>
     <use xlink:href="#m2ae9edec02" x="76.508705" y="243.685" style="fill: #0000ff; fill-opacity: 0.6; stroke: #0000ff; stroke-opacity: 0.6"/>
     <use xlink:href="#m2ae9edec02" x="79.28564" y="266.680665" style="fill: #0000ff; fill-opacity: 0.6; stroke: #0000ff; stroke-opacity: 0.6"/>
     <use xlink:href="#m2ae9edec02" x="81.157551" y="54.758847" style="fill: #0000ff; fill-opacity: 0.6; stroke: #0000ff; stroke-opacity: 0.6"/>
     <use xlink:href="#m2ae9edec02" x="76.869047" y="67.266184" style="fill: #0000ff; fill-opacity: 0.6; stroke: #0000ff; stroke-opacity: 0.6"/>
     <use xlink:href="#m2ae9edec02" x="79.210642" y="234.166885" style="fill: #0000ff; fill-opacity: 0.6; stroke: #0000ff; stroke-opacity: 0.6"/>
     <use xlink:href="#m2ae9edec02" x="78.051587" y="87.107644" style="fill: #0000ff; fill-opacity: 0.6; stroke: #0000ff; stroke-opacity: 0.6"/>
     <use xlink:href="#m2ae9edec02" x="221.166864" y="189.989337" style="fill: #0000ff; fill-opacity: 0.6; stroke: #0000ff; stroke-opacity: 0.6"/>
     <use xlink:href="#m2ae9edec02" x="77.493271" y="167.514025" style="fill: #0000ff; fill-opacity: 0.6; stroke: #0000ff; stroke-opacity: 0.6"/>
     <use xlink:href="#m2ae9edec02" x="91.896361" y="163.649663" style="fill: #0000ff; fill-opacity: 0.6; stroke: #0000ff; stroke-opacity: 0.6"/>
     <use xlink:href="#m2ae9edec02" x="187.227508" y="35.545267" style="fill: #0000ff; fill-opacity: 0.6; stroke: #0000ff; stroke-opacity: 0.6"/>
    </g>
   </g>
   <g id="PathCollection_2">
    <defs>
     <path id="m1058c30f9d" d="M 0 1.581139 
C 0.419323 1.581139 0.821528 1.41454 1.118034 1.118034 
C 1.41454 0.821528 1.581139 0.419323 1.581139 0 
C 1.581139 -0.419323 1.41454 -0.821528 1.118034 -1.118034 
C 0.821528 -1.41454 0.419323 -1.581139 0 -1.581139 
C -0.419323 -1.581139 -0.821528 -1.41454 -1.118034 -1.118034 
C -1.41454 -0.821528 -1.581139 -0.419323 -1.581139 0 
C -1.581139 0.419323 -1.41454 0.821528 -1.118034 1.118034 
C -0.821528 1.41454 -0.419323 1.581139 0 1.581139 
z
" style="stroke: #008000; stroke-opacity: 0.6"/>
    </defs>
    <g clip-path="url(#pe2c91d11c5)">
     <use xlink:href="#m1058c30f9d" x="108.62438" y="119.149756" style="fill: #008000; fill-opacity: 0.6; stroke: #008000; stroke-opacity: 0.6"/>
     <use xlink:href="#m1058c30f9d" x="77.404889" y="249.365069" style="fill: #008000; fill-opacity: 0.6; stroke: #008000; stroke-opacity: 0.6"/>
     <use xlink:href="#m1058c30f9d" x="76.606429" y="205.530602" style="fill: #008000; fill-opacity: 0.6; stroke: #008000; stroke-opacity: 0.6"/>
     <use xlink:href="#m1058c30f9d" x="75.977661" y="139.663857" style="fill: #008000; fill-opacity: 0.6; stroke: #008000; stroke-opacity: 0.6"/>
     <use xlink:href="#m1058c30f9d" x="77.213482" y="163.307385" style="fill: #008000; fill-opacity: 0.6; stroke: #008000; stroke-opacity: 0.6"/>
     <use xlink:href="#m1058c30f9d" x="76.574612" y="169.764345" style="fill: #008000; fill-opacity: 0.6; stroke: #008000; stroke-opacity: 0.6"/>
     <use xlink:href="#m1058c30f9d" x="89.288866" y="46.102263" style="fill: #008000; fill-opacity: 0.6; stroke: #008000; stroke-opacity: 0.6"/>
     <use xlink:href="#m1058c30f9d" x="74.749164" y="216.355503" style="fill: #008000; fill-opacity: 0.6; stroke: #008000; stroke-opacity: 0.6"/>
     <use xlink:href="#m1058c30f9d" x="241.674564" y="89.358558" style="fill: #008000; fill-opacity: 0.6; stroke: #008000; stroke-opacity: 0.6"/>
     <use xlink:href="#m1058c30f9d" x="109.63647" y="101.486067" style="fill: #008000; fill-opacity: 0.6; stroke: #008000; stroke-opacity: 0.6"/>
     <use xlink:href="#m1058c30f9d" x="131.720889" y="102.166578" style="fill: #008000; fill-opacity: 0.6; stroke: #008000; stroke-opacity: 0.6"/>
     <use xlink:href="#m1058c30f9d" x="75.884229" y="247.467678" style="fill: #008000; fill-opacity: 0.6; stroke: #008000; stroke-opacity: 0.6"/>
     <use xlink:href="#m1058c30f9d" x="78.931358" y="33.30163" style="fill: #008000; fill-opacity: 0.6; stroke: #008000; stroke-opacity: 0.6"/>
     <use xlink:href="#m1058c30f9d" x="82.72922" y="249.253739" style="fill: #008000; fill-opacity: 0.6; stroke: #008000; stroke-opacity: 0.6"/>
     <use xlink:href="#m1058c30f9d" x="85.466762" y="215.87381" style="fill: #008000; fill-opacity: 0.6; stroke: #008000; stroke-opacity: 0.6"/>
     <use xlink:href="#m1058c30f9d" x="76.468555" y="271.123332" style="fill: #008000; fill-opacity: 0.6; stroke: #008000; stroke-opacity: 0.6"/>
     <use xlink:href="#m1058c30f9d" x="101.987716" y="150.855977" style="fill: #008000; fill-opacity: 0.6; stroke: #008000; stroke-opacity: 0.6"/>
     <use xlink:href="#m1058c30f9d" x="77.038739" y="162.795134" style="fill: #008000; fill-opacity: 0.6; stroke: #008000; stroke-opacity: 0.6"/>
     <use xlink:href="#m1058c30f9d" x="86.240728" y="163.601154" style="fill: #008000; fill-opacity: 0.6; stroke: #008000; stroke-opacity: 0.6"/>
     <use xlink:href="#m1058c30f9d" x="311.884518" y="193.064233" style="fill: #008000; fill-opacity: 0.6; stroke: #008000; stroke-opacity: 0.6"/>
    </g>
   </g>
   <g id="PathCollection_3">
    <defs>
     <path id="mf2d0e438b3" d="M 0 1.581139 
C 0.419323 1.581139 0.821528 1.41454 1.118034 1.118034 
C 1.41454 0.821528 1.581139 0.419323 1.581139 0 
C 1.581139 -0.419323 1.41454 -0.821528 1.118034 -1.118034 
C 0.821528 -1.41454 0.419323 -1.581139 0 -1.581139 
C -0.419323 -1.581139 -0.821528 -1.41454 -1.118034 -1.118034 
C -1.41454 -0.821528 -1.581139 -0.419323 -1.581139 0 
C -1.581139 0.419323 -1.41454 0.821528 -1.118034 1.118034 
C -0.821528 1.41454 -0.419323 1.581139 0 1.581139 
z
" style="stroke: #ff0000; stroke-opacity: 0.6"/>
    </defs>
    <g clip-path="url(#pe2c91d11c5)">
     <use xlink:href="#mf2d0e438b3" x="108.62438" y="128.339686" style="fill: #ff0000; fill-opacity: 0.6; stroke: #ff0000; stroke-opacity: 0.6"/>
     <use xlink:href="#mf2d0e438b3" x="77.404889" y="255.189945" style="fill: #ff0000; fill-opacity: 0.6; stroke: #ff0000; stroke-opacity: 0.6"/>
     <use xlink:href="#mf2d0e438b3" x="76.606429" y="185.871504" style="fill: #ff0000; fill-opacity: 0.6; stroke: #ff0000; stroke-opacity: 0.6"/>
     <use xlink:href="#mf2d0e438b3" x="75.977661" y="136.683846" style="fill: #ff0000; fill-opacity: 0.6; stroke: #ff0000; stroke-opacity: 0.6"/>
     <use xlink:href="#mf2d0e438b3" x="77.213482" y="138.141435" style="fill: #ff0000; fill-opacity: 0.6; stroke: #ff0000; stroke-opacity: 0.6"/>
     <use xlink:href="#mf2d0e438b3" x="76.574612" y="142.419009" style="fill: #ff0000; fill-opacity: 0.6; stroke: #ff0000; stroke-opacity: 0.6"/>
     <use xlink:href="#mf2d0e438b3" x="89.288866" y="57.41298" style="fill: #ff0000; fill-opacity: 0.6; stroke: #ff0000; stroke-opacity: 0.6"/>
     <use xlink:href="#mf2d0e438b3" x="74.749164" y="216.24004" style="fill: #ff0000; fill-opacity: 0.6; stroke: #ff0000; stroke-opacity: 0.6"/>
     <use xlink:href="#mf2d0e438b3" x="241.674564" y="98.36762" style="fill: #ff0000; fill-opacity: 0.6; stroke: #ff0000; stroke-opacity: 0.6"/>
     <use xlink:href="#mf2d0e438b3" x="109.63647" y="110.205614" style="fill: #ff0000; fill-opacity: 0.6; stroke: #ff0000; stroke-opacity: 0.6"/>
     <use xlink:href="#mf2d0e438b3" x="131.720889" y="109.529391" style="fill: #ff0000; fill-opacity: 0.6; stroke: #ff0000; stroke-opacity: 0.6"/>
     <use xlink:href="#mf2d0e438b3" x="75.884229" y="231.257896" style="fill: #ff0000; fill-opacity: 0.6; stroke: #ff0000; stroke-opacity: 0.6"/>
     <use xlink:href="#mf2d0e438b3" x="78.931358" y="28.082754" style="fill: #ff0000; fill-opacity: 0.6; stroke: #ff0000; stroke-opacity: 0.6"/>
     <use xlink:href="#mf2d0e438b3" x="82.72922" y="271.551619" style="fill: #ff0000; fill-opacity: 0.6; stroke: #ff0000; stroke-opacity: 0.6"/>
     <use xlink:href="#mf2d0e438b3" x="85.466762" y="230.705478" style="fill: #ff0000; fill-opacity: 0.6; stroke: #ff0000; stroke-opacity: 0.6"/>
     <use xlink:href="#mf2d0e438b3" x="76.468555" y="290.329091" style="fill: #ff0000; fill-opacity: 0.6; stroke: #ff0000; stroke-opacity: 0.6"/>
     <use xlink:href="#mf2d0e438b3" x="101.987716" y="149.982925" style="fill: #ff0000; fill-opacity: 0.6; stroke: #ff0000; stroke-opacity: 0.6"/>
     <use xlink:href="#mf2d0e438b3" x="77.038739" y="143.021936" style="fill: #ff0000; fill-opacity: 0.6; stroke: #ff0000; stroke-opacity: 0.6"/>
     <use xlink:href="#mf2d0e438b3" x="86.240728" y="167.242087" style="fill: #ff0000; fill-opacity: 0.6; stroke: #ff0000; stroke-opacity: 0.6"/>
     <use xlink:href="#mf2d0e438b3" x="311.884518" y="200.005052" style="fill: #ff0000; fill-opacity: 0.6; stroke: #ff0000; stroke-opacity: 0.6"/>
    </g>
   </g>
   <g id="matplotlib.axis_1">
    <g id="xtick_1">
     <g id="line2d_1">
      <defs>
       <path id="m016a0dd564" d="M 0 0 
L 0 3.5 
" style="stroke: #000000; stroke-width: 0.8"/>
      </defs>
      <g>
       <use xlink:href="#m016a0dd564" x="71.144982" y="303.64" style="stroke: #000000; stroke-width: 0.8"/>
      </g>
     </g>
     <g id="text_1">
      <!-- 0.0 -->
      <g transform="translate(63.193419 318.238437) scale(0.1 -0.1)">
       <defs>
        <path id="DejaVuSans-30" d="M 2034 4250 
Q 1547 4250 1301 3770 
Q 1056 3291 1056 2328 
Q 1056 1369 1301 889 
Q 1547 409 2034 409 
Q 2525 409 2770 889 
Q 3016 1369 3016 2328 
Q 3016 3291 2770 3770 
Q 2525 4250 2034 4250 
z
M 2034 4750 
Q 2819 4750 3233 4129 
Q 3647 3509 3647 2328 
Q 3647 1150 3233 529 
Q 2819 -91 2034 -91 
Q 1250 -91 836 529 
Q 422 1150 422 2328 
Q 422 3509 836 4129 
Q 1250 4750 2034 4750 
z
" transform="scale(0.015625)"/>
        <path id="DejaVuSans-2e" d="M 684 794 
L 1344 794 
L 1344 0 
L 684 0 
L 684 794 
z
" transform="scale(0.015625)"/>
       </defs>
       <use xlink:href="#DejaVuSans-30"/>
       <use xlink:href="#DejaVuSans-2e" transform="translate(63.623047 0)"/>
       <use xlink:href="#DejaVuSans-30" transform="translate(95.410156 0)"/>
      </g>
     </g>
    </g>
    <g id="xtick_2">
     <g id="line2d_2">
      <g>
       <use xlink:href="#m016a0dd564" x="121.648473" y="303.64" style="stroke: #000000; stroke-width: 0.8"/>
      </g>
     </g>
     <g id="text_2">
      <!-- 0.2 -->
      <g transform="translate(113.69691 318.238437) scale(0.1 -0.1)">
       <defs>
        <path id="DejaVuSans-32" d="M 1228 531 
L 3431 531 
L 3431 0 
L 469 0 
L 469 531 
Q 828 903 1448 1529 
Q 2069 2156 2228 2338 
Q 2531 2678 2651 2914 
Q 2772 3150 2772 3378 
Q 2772 3750 2511 3984 
Q 2250 4219 1831 4219 
Q 1534 4219 1204 4116 
Q 875 4013 500 3803 
L 500 4441 
Q 881 4594 1212 4672 
Q 1544 4750 1819 4750 
Q 2544 4750 2975 4387 
Q 3406 4025 3406 3419 
Q 3406 3131 3298 2873 
Q 3191 2616 2906 2266 
Q 2828 2175 2409 1742 
Q 1991 1309 1228 531 
z
" transform="scale(0.015625)"/>
       </defs>
       <use xlink:href="#DejaVuSans-30"/>
       <use xlink:href="#DejaVuSans-2e" transform="translate(63.623047 0)"/>
       <use xlink:href="#DejaVuSans-32" transform="translate(95.410156 0)"/>
      </g>
     </g>
    </g>
    <g id="xtick_3">
     <g id="line2d_3">
      <g>
       <use xlink:href="#m016a0dd564" x="172.151964" y="303.64" style="stroke: #000000; stroke-width: 0.8"/>
      </g>
     </g>
     <g id="text_3">
      <!-- 0.4 -->
      <g transform="translate(164.200401 318.238437) scale(0.1 -0.1)">
       <defs>
        <path id="DejaVuSans-34" d="M 2419 4116 
L 825 1625 
L 2419 1625 
L 2419 4116 
z
M 2253 4666 
L 3047 4666 
L 3047 1625 
L 3713 1625 
L 3713 1100 
L 3047 1100 
L 3047 0 
L 2419 0 
L 2419 1100 
L 313 1100 
L 313 1709 
L 2253 4666 
z
" transform="scale(0.015625)"/>
       </defs>
       <use xlink:href="#DejaVuSans-30"/>
       <use xlink:href="#DejaVuSans-2e" transform="translate(63.623047 0)"/>
       <use xlink:href="#DejaVuSans-34" transform="translate(95.410156 0)"/>
      </g>
     </g>
    </g>
    <g id="xtick_4">
     <g id="line2d_4">
      <g>
       <use xlink:href="#m016a0dd564" x="222.655455" y="303.64" style="stroke: #000000; stroke-width: 0.8"/>
      </g>
     </g>
     <g id="text_4">
      <!-- 0.6 -->
      <g transform="translate(214.703892 318.238437) scale(0.1 -0.1)">
       <defs>
        <path id="DejaVuSans-36" d="M 2113 2584 
Q 1688 2584 1439 2293 
Q 1191 2003 1191 1497 
Q 1191 994 1439 701 
Q 1688 409 2113 409 
Q 2538 409 2786 701 
Q 3034 994 3034 1497 
Q 3034 2003 2786 2293 
Q 2538 2584 2113 2584 
z
M 3366 4563 
L 3366 3988 
Q 3128 4100 2886 4159 
Q 2644 4219 2406 4219 
Q 1781 4219 1451 3797 
Q 1122 3375 1075 2522 
Q 1259 2794 1537 2939 
Q 1816 3084 2150 3084 
Q 2853 3084 3261 2657 
Q 3669 2231 3669 1497 
Q 3669 778 3244 343 
Q 2819 -91 2113 -91 
Q 1303 -91 875 529 
Q 447 1150 447 2328 
Q 447 3434 972 4092 
Q 1497 4750 2381 4750 
Q 2619 4750 2861 4703 
Q 3103 4656 3366 4563 
z
" transform="scale(0.015625)"/>
       </defs>
       <use xlink:href="#DejaVuSans-30"/>
       <use xlink:href="#DejaVuSans-2e" transform="translate(63.623047 0)"/>
       <use xlink:href="#DejaVuSans-36" transform="translate(95.410156 0)"/>
      </g>
     </g>
    </g>
    <g id="xtick_5">
     <g id="line2d_5">
      <g>
       <use xlink:href="#m016a0dd564" x="273.158946" y="303.64" style="stroke: #000000; stroke-width: 0.8"/>
      </g>
     </g>
     <g id="text_5">
      <!-- 0.8 -->
      <g transform="translate(265.207383 318.238437) scale(0.1 -0.1)">
       <defs>
        <path id="DejaVuSans-38" d="M 2034 2216 
Q 1584 2216 1326 1975 
Q 1069 1734 1069 1313 
Q 1069 891 1326 650 
Q 1584 409 2034 409 
Q 2484 409 2743 651 
Q 3003 894 3003 1313 
Q 3003 1734 2745 1975 
Q 2488 2216 2034 2216 
z
M 1403 2484 
Q 997 2584 770 2862 
Q 544 3141 544 3541 
Q 544 4100 942 4425 
Q 1341 4750 2034 4750 
Q 2731 4750 3128 4425 
Q 3525 4100 3525 3541 
Q 3525 3141 3298 2862 
Q 3072 2584 2669 2484 
Q 3125 2378 3379 2068 
Q 3634 1759 3634 1313 
Q 3634 634 3220 271 
Q 2806 -91 2034 -91 
Q 1263 -91 848 271 
Q 434 634 434 1313 
Q 434 1759 690 2068 
Q 947 2378 1403 2484 
z
M 1172 3481 
Q 1172 3119 1398 2916 
Q 1625 2713 2034 2713 
Q 2441 2713 2670 2916 
Q 2900 3119 2900 3481 
Q 2900 3844 2670 4047 
Q 2441 4250 2034 4250 
Q 1625 4250 1398 4047 
Q 1172 3844 1172 3481 
z
" transform="scale(0.015625)"/>
       </defs>
       <use xlink:href="#DejaVuSans-30"/>
       <use xlink:href="#DejaVuSans-2e" transform="translate(63.623047 0)"/>
       <use xlink:href="#DejaVuSans-38" transform="translate(95.410156 0)"/>
      </g>
     </g>
    </g>
    <g id="xtick_6">
     <g id="line2d_6">
      <g>
       <use xlink:href="#m016a0dd564" x="323.662437" y="303.64" style="stroke: #000000; stroke-width: 0.8"/>
      </g>
     </g>
     <g id="text_6">
      <!-- 1.0 -->
      <g transform="translate(315.710874 318.238437) scale(0.1 -0.1)">
       <defs>
        <path id="DejaVuSans-31" d="M 794 531 
L 1825 531 
L 1825 4091 
L 703 3866 
L 703 4441 
L 1819 4666 
L 2450 4666 
L 2450 531 
L 3481 531 
L 3481 0 
L 794 0 
L 794 531 
z
" transform="scale(0.015625)"/>
       </defs>
       <use xlink:href="#DejaVuSans-31"/>
       <use xlink:href="#DejaVuSans-2e" transform="translate(63.623047 0)"/>
       <use xlink:href="#DejaVuSans-30" transform="translate(95.410156 0)"/>
      </g>
     </g>
    </g>
    <g id="xtick_7">
     <g id="line2d_7">
      <g>
       <use xlink:href="#m016a0dd564" x="374.165928" y="303.64" style="stroke: #000000; stroke-width: 0.8"/>
      </g>
     </g>
     <g id="text_7">
      <!-- 1.2 -->
      <g transform="translate(366.214365 318.238437) scale(0.1 -0.1)">
       <use xlink:href="#DejaVuSans-31"/>
       <use xlink:href="#DejaVuSans-2e" transform="translate(63.623047 0)"/>
       <use xlink:href="#DejaVuSans-32" transform="translate(95.410156 0)"/>
      </g>
     </g>
    </g>
    <g id="xtick_8">
     <g id="line2d_8">
      <g>
       <use xlink:href="#m016a0dd564" x="424.669419" y="303.64" style="stroke: #000000; stroke-width: 0.8"/>
      </g>
     </g>
     <g id="text_8">
      <!-- 1.4 -->
      <g transform="translate(416.717856 318.238437) scale(0.1 -0.1)">
       <use xlink:href="#DejaVuSans-31"/>
       <use xlink:href="#DejaVuSans-2e" transform="translate(63.623047 0)"/>
       <use xlink:href="#DejaVuSans-34" transform="translate(95.410156 0)"/>
      </g>
     </g>
    </g>
    <g id="text_9">
     <!-- Final [FP] -->
     <g transform="translate(229.194531 331.916562) scale(0.1 -0.1)">
      <defs>
       <path id="DejaVuSans-46" d="M 628 4666 
L 3309 4666 
L 3309 4134 
L 1259 4134 
L 1259 2759 
L 3109 2759 
L 3109 2228 
L 1259 2228 
L 1259 0 
L 628 0 
L 628 4666 
z
" transform="scale(0.015625)"/>
       <path id="DejaVuSans-69" d="M 603 3500 
L 1178 3500 
L 1178 0 
L 603 0 
L 603 3500 
z
M 603 4863 
L 1178 4863 
L 1178 4134 
L 603 4134 
L 603 4863 
z
" transform="scale(0.015625)"/>
       <path id="DejaVuSans-6e" d="M 3513 2113 
L 3513 0 
L 2938 0 
L 2938 2094 
Q 2938 2591 2744 2837 
Q 2550 3084 2163 3084 
Q 1697 3084 1428 2787 
Q 1159 2491 1159 1978 
L 1159 0 
L 581 0 
L 581 3500 
L 1159 3500 
L 1159 2956 
Q 1366 3272 1645 3428 
Q 1925 3584 2291 3584 
Q 2894 3584 3203 3211 
Q 3513 2838 3513 2113 
z
" transform="scale(0.015625)"/>
       <path id="DejaVuSans-61" d="M 2194 1759 
Q 1497 1759 1228 1600 
Q 959 1441 959 1056 
Q 959 750 1161 570 
Q 1363 391 1709 391 
Q 2188 391 2477 730 
Q 2766 1069 2766 1631 
L 2766 1759 
L 2194 1759 
z
M 3341 1997 
L 3341 0 
L 2766 0 
L 2766 531 
Q 2569 213 2275 61 
Q 1981 -91 1556 -91 
Q 1019 -91 701 211 
Q 384 513 384 1019 
Q 384 1609 779 1909 
Q 1175 2209 1959 2209 
L 2766 2209 
L 2766 2266 
Q 2766 2663 2505 2880 
Q 2244 3097 1772 3097 
Q 1472 3097 1187 3025 
Q 903 2953 641 2809 
L 641 3341 
Q 956 3463 1253 3523 
Q 1550 3584 1831 3584 
Q 2591 3584 2966 3190 
Q 3341 2797 3341 1997 
z
" transform="scale(0.015625)"/>
       <path id="DejaVuSans-6c" d="M 603 4863 
L 1178 4863 
L 1178 0 
L 603 0 
L 603 4863 
z
" transform="scale(0.015625)"/>
       <path id="DejaVuSans-20" transform="scale(0.015625)"/>
       <path id="DejaVuSans-5b" d="M 550 4863 
L 1875 4863 
L 1875 4416 
L 1125 4416 
L 1125 -397 
L 1875 -397 
L 1875 -844 
L 550 -844 
L 550 4863 
z
" transform="scale(0.015625)"/>
       <path id="DejaVuSans-50" d="M 1259 4147 
L 1259 2394 
L 2053 2394 
Q 2494 2394 2734 2622 
Q 2975 2850 2975 3272 
Q 2975 3691 2734 3919 
Q 2494 4147 2053 4147 
L 1259 4147 
z
M 628 4666 
L 2053 4666 
Q 2838 4666 3239 4311 
Q 3641 3956 3641 3272 
Q 3641 2581 3239 2228 
Q 2838 1875 2053 1875 
L 1259 1875 
L 1259 0 
L 628 0 
L 628 4666 
z
" transform="scale(0.015625)"/>
       <path id="DejaVuSans-5d" d="M 1947 4863 
L 1947 -844 
L 622 -844 
L 622 -397 
L 1369 -397 
L 1369 4416 
L 622 4416 
L 622 4863 
L 1947 4863 
z
" transform="scale(0.015625)"/>
      </defs>
      <use xlink:href="#DejaVuSans-46"/>
      <use xlink:href="#DejaVuSans-69" transform="translate(50.269531 0)"/>
      <use xlink:href="#DejaVuSans-6e" transform="translate(78.052734 0)"/>
      <use xlink:href="#DejaVuSans-61" transform="translate(141.431641 0)"/>
      <use xlink:href="#DejaVuSans-6c" transform="translate(202.710938 0)"/>
      <use xlink:href="#DejaVuSans-20" transform="translate(230.494141 0)"/>
      <use xlink:href="#DejaVuSans-5b" transform="translate(262.28125 0)"/>
      <use xlink:href="#DejaVuSans-46" transform="translate(301.294922 0)"/>
      <use xlink:href="#DejaVuSans-50" transform="translate(358.814453 0)"/>
      <use xlink:href="#DejaVuSans-5d" transform="translate(419.117188 0)"/>
     </g>
    </g>
    <g id="text_10">
     <!-- 1e6 -->
     <g transform="translate(431.121875 330.916562) scale(0.1 -0.1)">
      <defs>
       <path id="DejaVuSans-65" d="M 3597 1894 
L 3597 1613 
L 953 1613 
Q 991 1019 1311 708 
Q 1631 397 2203 397 
Q 2534 397 2845 478 
Q 3156 559 3463 722 
L 3463 178 
Q 3153 47 2828 -22 
Q 2503 -91 2169 -91 
Q 1331 -91 842 396 
Q 353 884 353 1716 
Q 353 2575 817 3079 
Q 1281 3584 2069 3584 
Q 2775 3584 3186 3129 
Q 3597 2675 3597 1894 
z
M 3022 2063 
Q 3016 2534 2758 2815 
Q 2500 3097 2075 3097 
Q 1594 3097 1305 2825 
Q 1016 2553 972 2059 
L 3022 2063 
z
" transform="scale(0.015625)"/>
      </defs>
      <use xlink:href="#DejaVuSans-31"/>
      <use xlink:href="#DejaVuSans-65" transform="translate(63.623047 0)"/>
      <use xlink:href="#DejaVuSans-36" transform="translate(125.146484 0)"/>
     </g>
    </g>
   </g>
   <g id="matplotlib.axis_2">
    <g id="ytick_1">
     <g id="line2d_9">
      <defs>
       <path id="mf5e26bcefa" d="M 0 0 
L -3.5 0 
" style="stroke: #000000; stroke-width: 0.8"/>
      </defs>
      <g>
       <use xlink:href="#mf5e26bcefa" x="54.2" y="259.532783" style="stroke: #000000; stroke-width: 0.8"/>
      </g>
     </g>
     <g id="text_11">
      <!-- 0.02 -->
      <g transform="translate(24.934375 263.332002) scale(0.1 -0.1)">
       <use xlink:href="#DejaVuSans-30"/>
       <use xlink:href="#DejaVuSans-2e" transform="translate(63.623047 0)"/>
       <use xlink:href="#DejaVuSans-30" transform="translate(95.410156 0)"/>
       <use xlink:href="#DejaVuSans-32" transform="translate(159.033203 0)"/>
      </g>
     </g>
    </g>
    <g id="ytick_2">
     <g id="line2d_10">
      <g>
       <use xlink:href="#mf5e26bcefa" x="54.2" y="200.518367" style="stroke: #000000; stroke-width: 0.8"/>
      </g>
     </g>
     <g id="text_12">
      <!-- 0.04 -->
      <g transform="translate(24.934375 204.317586) scale(0.1 -0.1)">
       <use xlink:href="#DejaVuSans-30"/>
       <use xlink:href="#DejaVuSans-2e" transform="translate(63.623047 0)"/>
       <use xlink:href="#DejaVuSans-30" transform="translate(95.410156 0)"/>
       <use xlink:href="#DejaVuSans-34" transform="translate(159.033203 0)"/>
      </g>
     </g>
    </g>
    <g id="ytick_3">
     <g id="line2d_11">
      <g>
       <use xlink:href="#mf5e26bcefa" x="54.2" y="141.503951" style="stroke: #000000; stroke-width: 0.8"/>
      </g>
     </g>
     <g id="text_13">
      <!-- 0.06 -->
      <g transform="translate(24.934375 145.30317) scale(0.1 -0.1)">
       <use xlink:href="#DejaVuSans-30"/>
       <use xlink:href="#DejaVuSans-2e" transform="translate(63.623047 0)"/>
       <use xlink:href="#DejaVuSans-30" transform="translate(95.410156 0)"/>
       <use xlink:href="#DejaVuSans-36" transform="translate(159.033203 0)"/>
      </g>
     </g>
    </g>
    <g id="ytick_4">
     <g id="line2d_12">
      <g>
       <use xlink:href="#mf5e26bcefa" x="54.2" y="82.489535" style="stroke: #000000; stroke-width: 0.8"/>
      </g>
     </g>
     <g id="text_14">
      <!-- 0.08 -->
      <g transform="translate(24.934375 86.288754) scale(0.1 -0.1)">
       <use xlink:href="#DejaVuSans-30"/>
       <use xlink:href="#DejaVuSans-2e" transform="translate(63.623047 0)"/>
       <use xlink:href="#DejaVuSans-30" transform="translate(95.410156 0)"/>
       <use xlink:href="#DejaVuSans-38" transform="translate(159.033203 0)"/>
      </g>
     </g>
    </g>
    <g id="ytick_5">
     <g id="line2d_13">
      <g>
       <use xlink:href="#mf5e26bcefa" x="54.2" y="23.475119" style="stroke: #000000; stroke-width: 0.8"/>
      </g>
     </g>
     <g id="text_15">
      <!-- 0.10 -->
      <g transform="translate(24.934375 27.274338) scale(0.1 -0.1)">
       <use xlink:href="#DejaVuSans-30"/>
       <use xlink:href="#DejaVuSans-2e" transform="translate(63.623047 0)"/>
       <use xlink:href="#DejaVuSans-31" transform="translate(95.410156 0)"/>
       <use xlink:href="#DejaVuSans-30" transform="translate(159.033203 0)"/>
      </g>
     </g>
    </g>
    <g id="text_16">
     <!-- ktl -->
     <g transform="translate(18.854688 163.464531) rotate(-90) scale(0.1 -0.1)">
      <defs>
       <path id="DejaVuSans-6b" d="M 581 4863 
L 1159 4863 
L 1159 1991 
L 2875 3500 
L 3609 3500 
L 1753 1863 
L 3688 0 
L 2938 0 
L 1159 1709 
L 1159 0 
L 581 0 
L 581 4863 
z
" transform="scale(0.015625)"/>
       <path id="DejaVuSans-74" d="M 1172 4494 
L 1172 3500 
L 2356 3500 
L 2356 3053 
L 1172 3053 
L 1172 1153 
Q 1172 725 1289 603 
Q 1406 481 1766 481 
L 2356 481 
L 2356 0 
L 1766 0 
Q 1100 0 847 248 
Q 594 497 594 1153 
L 594 3053 
L 172 3053 
L 172 3500 
L 594 3500 
L 594 4494 
L 1172 4494 
z
" transform="scale(0.015625)"/>
      </defs>
      <use xlink:href="#DejaVuSans-6b"/>
      <use xlink:href="#DejaVuSans-74" transform="translate(57.910156 0)"/>
      <use xlink:href="#DejaVuSans-6c" transform="translate(97.119141 0)"/>
     </g>
    </g>
   </g>
   <g id="patch_3">
    <path d="M 54.2 303.64 
L 54.2 10.8 
" style="fill: none; stroke: #000000; stroke-width: 0.8; stroke-linejoin: miter; stroke-linecap: square"/>
   </g>
   <g id="patch_4">
    <path d="M 450 303.64 
L 450 10.8 
" style="fill: none; stroke: #000000; stroke-width: 0.8; stroke-linejoin: miter; stroke-linecap: square"/>
   </g>
   <g id="patch_5">
    <path d="M 54.2 303.64 
L 450 303.64 
" style="fill: none; stroke: #000000; stroke-width: 0.8; stroke-linejoin: miter; stroke-linecap: square"/>
   </g>
   <g id="patch_6">
    <path d="M 54.2 10.8 
L 450 10.8 
" style="fill: none; stroke: #000000; stroke-width: 0.8; stroke-linejoin: miter; stroke-linecap: square"/>
   </g>
  </g>
 </g>
 <defs>
  <clipPath id="pe2c91d11c5">
   <rect x="54.2" y="10.8" width="395.8" height="292.84"/>
  </clipPath>
 </defs>
</svg>
