<?xml version="1.0" encoding="utf-8" standalone="no"?>
<!DOCTYPE svg PUBLIC "-//W3C//DTD SVG 1.1//EN"
  "http://www.w3.org/Graphics/SVG/1.1/DTD/svg11.dtd">
<svg xmlns:xlink="http://www.w3.org/1999/xlink" width="460.8pt" height="345.6pt" viewBox="0 0 460.8 345.6" xmlns="http://www.w3.org/2000/svg" version="1.1">
 <metadata>
  <rdf:RDF xmlns:dc="http://purl.org/dc/elements/1.1/" xmlns:cc="http://creativecommons.org/ns#" xmlns:rdf="http://www.w3.org/1999/02/22-rdf-syntax-ns#">
   <cc:Work>
    <dc:type rdf:resource="http://purl.org/dc/dcmitype/StillImage"/>
    <dc:date>2026-06-10T02:10:21.582666</dc:date>
    <dc:format>image/svg+xml</dc:format>
    <dc:creator>
     <cc:Agent>
      <dc:title>Matplotlib v3.10.8, https://matplotlib.org/</dc:title>
     </cc:Agent>
    </dc:creator>
   </cc:Work>
  </rdf:RDF>
 </metadata>
 <defs>
  <style type="text/css">*{stroke-linejoin: round; stroke-linecap: butt}</style>
 </defs>
 <g id="figure_1">
  <g id="patch_1">
   <path d="M 0 345.6 
L 460.8 345.6 
L 460.8 0 
L 0 0 
z
" style="fill: #ffffff"/>
  </g>
  <g id="axes_1">
   <g id="patch_2">
    <path d="M 57.6 307.584 
L 414.72 307.584 
L 414.72 41.472 
L 57.6 41.472 
z
" style="fill: #ffffff"/>
   </g>
   <g id="matplotlib.axis_1">
    <g id="xtick_1">
     <g id="line2d_1">
      <defs>
       <path id="maa1464efbd" d="M 0 0 
L 0 3.5 
" style="stroke: #000000; stroke-width: 0.8"/>
      </defs>
      <g>
       <use xlink:href="#maa1464efbd" x="73.832727" y="307.584" style="stroke: #000000; stroke-width: 0.8"/>
      </g>
     </g>
     <g id="text_1">
      <!-- 0 -->
      <g transform="translate(70.651477 322.182437) scale(0.1 -0.1)">
       <defs>
        <path id="DejaVuSans-30" d="M 2034 4250 
Q 1547 4250 1301 3770 
Q 1056 3291 1056 2328 
Q 1056 1369 1301 889 
Q 1547 409 2034 409 
Q 2525 409 2770 889 
Q 3016 1369 3016 2328 
Q 3016 3291 2770 3770 
Q 2525 4250 2034 4250 
z
M 2034 4750 
Q 2819 4750 3233 4129 
Q 3647 3509 3647 2328 
Q 3647 1150 3233 529 
Q 2819 -91 2034 -91 
Q 1250 -91 836 529 
Q 422 1150 422 2328 
Q 422 3509 836 4129 
Q 1250 4750 2034 4750 
z
" transform="scale(0.015625)"/>
       </defs>
       <use xlink:href="#DejaVuSans-30"/>
      </g>
     </g>
    </g>
    <g id="xtick_2">
     <g id="line2d_2">
      <g>
       <use xlink:href="#maa1464efbd" x="114.414545" y="307.584" style="stroke: #000000; stroke-width: 0.8"/>
      </g>
     </g>
     <g id="text_2">
      <!-- 250 -->
      <g transform="translate(104.870795 322.182437) scale(0.1 -0.1)">
       <defs>
        <path id="DejaVuSans-32" d="M 1228 531 
L 3431 531 
L 3431 0 
L 469 0 
L 469 531 
Q 828 903 1448 1529 
Q 2069 2156 2228 2338 
Q 2531 2678 2651 2914 
Q 2772 3150 2772 3378 
Q 2772 3750 2511 3984 
Q 2250 4219 1831 4219 
Q 1534 4219 1204 4116 
Q 875 4013 500 3803 
L 500 4441 
Q 881 4594 1212 4672 
Q 1544 4750 1819 4750 
Q 2544 4750 2975 4387 
Q 3406 4025 3406 3419 
Q 3406 3131 3298 2873 
Q 3191 2616 2906 2266 
Q 2828 2175 2409 1742 
Q 1991 1309 1228 531 
z
" transform="scale(0.015625)"/>
        <path id="DejaVuSans-35" d="M 691 4666 
L 3169 4666 
L 3169 4134 
L 1269 4134 
L 1269 2991 
Q 1406 3038 1543 3061 
Q 1681 3084 1819 3084 
Q 2600 3084 3056 2656 
Q 3513 2228 3513 1497 
Q 3513 744 3044 326 
Q 2575 -91 1722 -91 
Q 1428 -91 1123 -41 
Q 819 9 494 109 
L 494 744 
Q 775 591 1075 516 
Q 1375 441 1709 441 
Q 2250 441 2565 725 
Q 2881 1009 2881 1497 
Q 2881 1984 2565 2268 
Q 2250 2553 1709 2553 
Q 1456 2553 1204 2497 
Q 953 2441 691 2322 
L 691 4666 
z
" transform="scale(0.015625)"/>
       </defs>
       <use xlink:href="#DejaVuSans-32"/>
       <use xlink:href="#DejaVuSans-35" transform="translate(63.623047 0)"/>
       <use xlink:href="#DejaVuSans-30" transform="translate(127.246094 0)"/>
      </g>
     </g>
    </g>
    <g id="xtick_3">
     <g id="line2d_3">
      <g>
       <use xlink:href="#maa1464efbd" x="154.996364" y="307.584" style="stroke: #000000; stroke-width: 0.8"/>
      </g>
     </g>
     <g id="text_3">
      <!-- 500 -->
      <g transform="translate(145.452614 322.182437) scale(0.1 -0.1)">
       <use xlink:href="#DejaVuSans-35"/>
       <use xlink:href="#DejaVuSans-30" transform="translate(63.623047 0)"/>
       <use xlink:href="#DejaVuSans-30" transform="translate(127.246094 0)"/>
      </g>
     </g>
    </g>
    <g id="xtick_4">
     <g id="line2d_4">
      <g>
       <use xlink:href="#maa1464efbd" x="195.578182" y="307.584" style="stroke: #000000; stroke-width: 0.8"/>
      </g>
     </g>
     <g id="text_4">
      <!-- 750 -->
      <g transform="translate(186.034432 322.182437) scale(0.1 -0.1)">
       <defs>
        <path id="DejaVuSans-37" d="M 525 4666 
L 3525 4666 
L 3525 4397 
L 1831 0 
L 1172 0 
L 2766 4134 
L 525 4134 
L 525 4666 
z
" transform="scale(0.015625)"/>
       </defs>
       <use xlink:href="#DejaVuSans-37"/>
       <use xlink:href="#DejaVuSans-35" transform="translate(63.623047 0)"/>
       <use xlink:href="#DejaVuSans-30" transform="translate(127.246094 0)"/>
      </g>
     </g>
    </g>
    <g id="xtick_5">
     <g id="line2d_5">
      <g>
       <use xlink:href="#maa1464efbd" x="236.16" y="307.584" style="stroke: #000000; stroke-width: 0.8"/>
      </g>
     </g>
     <g id="text_5">
      <!-- 1000 -->
      <g transform="translate(223.435 322.182437) scale(0.1 -0.1)">
       <defs>
        <path id="DejaVuSans-31" d="M 794 531 
L 1825 531 
L 1825 4091 
L 703 3866 
L 703 4441 
L 1819 4666 
L 2450 4666 
L 2450 531 
L 3481 531 
L 3481 0 
L 794 0 
L 794 531 
z
" transform="scale(0.015625)"/>
       </defs>
       <use xlink:href="#DejaVuSans-31"/>
       <use xlink:href="#DejaVuSans-30" transform="translate(63.623047 0)"/>
       <use xlink:href="#DejaVuSans-30" transform="translate(127.246094 0)"/>
       <use xlink:href="#DejaVuSans-30" transform="translate(190.869141 0)"/>
      </g>
     </g>
    </g>
    <g id="xtick_6">
     <g id="line2d_6">
      <g>
       <use xlink:href="#maa1464efbd" x="276.741818" y="307.584" style="stroke: #000000; stroke-width: 0.8"/>
      </g>
     </g>
     <g id="text_6">
      <!-- 1250 -->
      <g transform="translate(264.016818 322.182437) scale(0.1 -0.1)">
       <use xlink:href="#DejaVuSans-31"/>
       <use xlink:href="#DejaVuSans-32" transform="translate(63.623047 0)"/>
       <use xlink:href="#DejaVuSans-35" transform="translate(127.246094 0)"/>
       <use xlink:href="#DejaVuSans-30" transform="translate(190.869141 0)"/>
      </g>
     </g>
    </g>
    <g id="xtick_7">
     <g id="line2d_7">
      <g>
       <use xlink:href="#maa1464efbd" x="317.323636" y="307.584" style="stroke: #000000; stroke-width: 0.8"/>
      </g>
     </g>
     <g id="text_7">
      <!-- 1500 -->
      <g transform="translate(304.598636 322.182437) scale(0.1 -0.1)">
       <use xlink:href="#DejaVuSans-31"/>
       <use xlink:href="#DejaVuSans-35" transform="translate(63.623047 0)"/>
       <use xlink:href="#DejaVuSans-30" transform="translate(127.246094 0)"/>
       <use xlink:href="#DejaVuSans-30" transform="translate(190.869141 0)"/>
      </g>
     </g>
    </g>
    <g id="xtick_8">
     <g id="line2d_8">
      <g>
       <use xlink:href="#maa1464efbd" x="357.905455" y="307.584" style="stroke: #000000; stroke-width: 0.8"/>
      </g>
     </g>
     <g id="text_8">
      <!-- 1750 -->
      <g transform="translate(345.180455 322.182437) scale(0.1 -0.1)">
       <use xlink:href="#DejaVuSans-31"/>
       <use xlink:href="#DejaVuSans-37" transform="translate(63.623047 0)"/>
       <use xlink:href="#DejaVuSans-35" transform="translate(127.246094 0)"/>
       <use xlink:href="#DejaVuSans-30" transform="translate(190.869141 0)"/>
      </g>
     </g>
    </g>
    <g id="xtick_9">
     <g id="line2d_9">
      <g>
       <use xlink:href="#maa1464efbd" x="398.487273" y="307.584" style="stroke: #000000; stroke-width: 0.8"/>
      </g>
     </g>
     <g id="text_9">
      <!-- 2000 -->
      <g transform="translate(385.762273 322.182437) scale(0.1 -0.1)">
       <use xlink:href="#DejaVuSans-32"/>
       <use xlink:href="#DejaVuSans-30" transform="translate(63.623047 0)"/>
       <use xlink:href="#DejaVuSans-30" transform="translate(127.246094 0)"/>
       <use xlink:href="#DejaVuSans-30" transform="translate(190.869141 0)"/>
      </g>
     </g>
    </g>
    <g id="text_10">
     <!-- Epochs -->
     <g transform="translate(218.244375 335.860562) scale(0.1 -0.1)">
      <defs>
       <path id="DejaVuSans-45" d="M 628 4666 
L 3578 4666 
L 3578 4134 
L 1259 4134 
L 1259 2753 
L 3481 2753 
L 3481 2222 
L 1259 2222 
L 1259 531 
L 3634 531 
L 3634 0 
L 628 0 
L 628 4666 
z
" transform="scale(0.015625)"/>
       <path id="DejaVuSans-70" d="M 1159 525 
L 1159 -1331 
L 581 -1331 
L 581 3500 
L 1159 3500 
L 1159 2969 
Q 1341 3281 1617 3432 
Q 1894 3584 2278 3584 
Q 2916 3584 3314 3078 
Q 3713 2572 3713 1747 
Q 3713 922 3314 415 
Q 2916 -91 2278 -91 
Q 1894 -91 1617 61 
Q 1341 213 1159 525 
z
M 3116 1747 
Q 3116 2381 2855 2742 
Q 2594 3103 2138 3103 
Q 1681 3103 1420 2742 
Q 1159 2381 1159 1747 
Q 1159 1113 1420 752 
Q 1681 391 2138 391 
Q 2594 391 2855 752 
Q 3116 1113 3116 1747 
z
" transform="scale(0.015625)"/>
       <path id="DejaVuSans-6f" d="M 1959 3097 
Q 1497 3097 1228 2736 
Q 959 2375 959 1747 
Q 959 1119 1226 758 
Q 1494 397 1959 397 
Q 2419 397 2687 759 
Q 2956 1122 2956 1747 
Q 2956 2369 2687 2733 
Q 2419 3097 1959 3097 
z
M 1959 3584 
Q 2709 3584 3137 3096 
Q 3566 2609 3566 1747 
Q 3566 888 3137 398 
Q 2709 -91 1959 -91 
Q 1206 -91 779 398 
Q 353 888 353 1747 
Q 353 2609 779 3096 
Q 1206 3584 1959 3584 
z
" transform="scale(0.015625)"/>
       <path id="DejaVuSans-63" d="M 3122 3366 
L 3122 2828 
Q 2878 2963 2633 3030 
Q 2388 3097 2138 3097 
Q 1578 3097 1268 2742 
Q 959 2388 959 1747 
Q 959 1106 1268 751 
Q 1578 397 2138 397 
Q 2388 397 2633 464 
Q 2878 531 3122 666 
L 3122 134 
Q 2881 22 2623 -34 
Q 2366 -91 2075 -91 
Q 1284 -91 818 406 
Q 353 903 353 1747 
Q 353 2603 823 3093 
Q 1294 3584 2113 3584 
Q 2378 3584 2631 3529 
Q 2884 3475 3122 3366 
z
" transform="scale(0.015625)"/>
       <path id="DejaVuSans-68" d="M 3513 2113 
L 3513 0 
L 2938 0 
L 2938 2094 
Q 2938 2591 2744 2837 
Q 2550 3084 2163 3084 
Q 1697 3084 1428 2787 
Q 1159 2491 1159 1978 
L 1159 0 
L 581 0 
L 581 4863 
L 1159 4863 
L 1159 2956 
Q 1366 3272 1645 3428 
Q 1925 3584 2291 3584 
Q 2894 3584 3203 3211 
Q 3513 2838 3513 2113 
z
" transform="scale(0.015625)"/>
       <path id="DejaVuSans-73" d="M 2834 3397 
L 2834 2853 
Q 2591 2978 2328 3040 
Q 2066 3103 1784 3103 
Q 1356 3103 1142 2972 
Q 928 2841 928 2578 
Q 928 2378 1081 2264 
Q 1234 2150 1697 2047 
L 1894 2003 
Q 2506 1872 2764 1633 
Q 3022 1394 3022 966 
Q 3022 478 2636 193 
Q 2250 -91 1575 -91 
Q 1294 -91 989 -36 
Q 684 19 347 128 
L 347 722 
Q 666 556 975 473 
Q 1284 391 1588 391 
Q 1994 391 2212 530 
Q 2431 669 2431 922 
Q 2431 1156 2273 1281 
Q 2116 1406 1581 1522 
L 1381 1569 
Q 847 1681 609 1914 
Q 372 2147 372 2553 
Q 372 3047 722 3315 
Q 1072 3584 1716 3584 
Q 2034 3584 2315 3537 
Q 2597 3491 2834 3397 
z
" transform="scale(0.015625)"/>
      </defs>
      <use xlink:href="#DejaVuSans-45"/>
      <use xlink:href="#DejaVuSans-70" transform="translate(63.183594 0)"/>
      <use xlink:href="#DejaVuSans-6f" transform="translate(126.660156 0)"/>
      <use xlink:href="#DejaVuSans-63" transform="translate(187.841797 0)"/>
      <use xlink:href="#DejaVuSans-68" transform="translate(242.822266 0)"/>
      <use xlink:href="#DejaVuSans-73" transform="translate(306.201172 0)"/>
     </g>
    </g>
   </g>
   <g id="matplotlib.axis_2">
    <g id="ytick_1">
     <g id="line2d_10">
      <defs>
       <path id="mcd4e953a6e" d="M 0 0 
L -3.5 0 
" style="stroke: #000000; stroke-width: 0.8"/>
      </defs>
      <g>
       <use xlink:href="#mcd4e953a6e" x="57.6" y="306.024586" style="stroke: #000000; stroke-width: 0.8"/>
      </g>
     </g>
     <g id="text_11">
      <!-- 0 -->
      <g transform="translate(44.2375 309.823804) scale(0.1 -0.1)">
       <use xlink:href="#DejaVuSans-30"/>
      </g>
     </g>
    </g>
    <g id="ytick_2">
     <g id="line2d_11">
      <g>
       <use xlink:href="#mcd4e953a6e" x="57.6" y="255.448976" style="stroke: #000000; stroke-width: 0.8"/>
      </g>
     </g>
     <g id="text_12">
      <!-- 20 -->
      <g transform="translate(37.875 259.248195) scale(0.1 -0.1)">
       <use xlink:href="#DejaVuSans-32"/>
       <use xlink:href="#DejaVuSans-30" transform="translate(63.623047 0)"/>
      </g>
     </g>
    </g>
    <g id="ytick_3">
     <g id="line2d_12">
      <g>
       <use xlink:href="#mcd4e953a6e" x="57.6" y="204.873366" style="stroke: #000000; stroke-width: 0.8"/>
      </g>
     </g>
     <g id="text_13">
      <!-- 40 -->
      <g transform="translate(37.875 208.672585) scale(0.1 -0.1)">
       <defs>
        <path id="DejaVuSans-34" d="M 2419 4116 
L 825 1625 
L 2419 1625 
L 2419 4116 
z
M 2253 4666 
L 3047 4666 
L 3047 1625 
L 3713 1625 
L 3713 1100 
L 3047 1100 
L 3047 0 
L 2419 0 
L 2419 1100 
L 313 1100 
L 313 1709 
L 2253 4666 
z
" transform="scale(0.015625)"/>
       </defs>
       <use xlink:href="#DejaVuSans-34"/>
       <use xlink:href="#DejaVuSans-30" transform="translate(63.623047 0)"/>
      </g>
     </g>
    </g>
    <g id="ytick_4">
     <g id="line2d_13">
      <g>
       <use xlink:href="#mcd4e953a6e" x="57.6" y="154.297756" style="stroke: #000000; stroke-width: 0.8"/>
      </g>
     </g>
     <g id="text_14">
      <!-- 60 -->
      <g transform="translate(37.875 158.096975) scale(0.1 -0.1)">
       <defs>
        <path id="DejaVuSans-36" d="M 2113 2584 
Q 1688 2584 1439 2293 
Q 1191 2003 1191 1497 
Q 1191 994 1439 701 
Q 1688 409 2113 409 
Q 2538 409 2786 701 
Q 3034 994 3034 1497 
Q 3034 2003 2786 2293 
Q 2538 2584 2113 2584 
z
M 3366 4563 
L 3366 3988 
Q 3128 4100 2886 4159 
Q 2644 4219 2406 4219 
Q 1781 4219 1451 3797 
Q 1122 3375 1075 2522 
Q 1259 2794 1537 2939 
Q 1816 3084 2150 3084 
Q 2853 3084 3261 2657 
Q 3669 2231 3669 1497 
Q 3669 778 3244 343 
Q 2819 -91 2113 -91 
Q 1303 -91 875 529 
Q 447 1150 447 2328 
Q 447 3434 972 4092 
Q 1497 4750 2381 4750 
Q 2619 4750 2861 4703 
Q 3103 4656 3366 4563 
z
" transform="scale(0.015625)"/>
       </defs>
       <use xlink:href="#DejaVuSans-36"/>
       <use xlink:href="#DejaVuSans-30" transform="translate(63.623047 0)"/>
      </g>
     </g>
    </g>
    <g id="ytick_5">
     <g id="line2d_14">
      <g>
       <use xlink:href="#mcd4e953a6e" x="57.6" y="103.722147" style="stroke: #000000; stroke-width: 0.8"/>
      </g>
     </g>
     <g id="text_15">
      <!-- 80 -->
      <g transform="translate(37.875 107.521365) scale(0.1 -0.1)">
       <defs>
        <path id="DejaVuSans-38" d="M 2034 2216 
Q 1584 2216 1326 1975 
Q 1069 1734 1069 1313 
Q 1069 891 1326 650 
Q 1584 409 2034 409 
Q 2484 409 2743 651 
Q 3003 894 3003 1313 
Q 3003 1734 2745 1975 
Q 2488 2216 2034 2216 
z
M 1403 2484 
Q 997 2584 770 2862 
Q 544 3141 544 3541 
Q 544 4100 942 4425 
Q 1341 4750 2034 4750 
Q 2731 4750 3128 4425 
Q 3525 4100 3525 3541 
Q 3525 3141 3298 2862 
Q 3072 2584 2669 2484 
Q 3125 2378 3379 2068 
Q 3634 1759 3634 1313 
Q 3634 634 3220 271 
Q 2806 -91 2034 -91 
Q 1263 -91 848 271 
Q 434 634 434 1313 
Q 434 1759 690 2068 
Q 947 2378 1403 2484 
z
M 1172 3481 
Q 1172 3119 1398 2916 
Q 1625 2713 2034 2713 
Q 2441 2713 2670 2916 
Q 2900 3119 2900 3481 
Q 2900 3844 2670 4047 
Q 2441 4250 2034 4250 
Q 1625 4250 1398 4047 
Q 1172 3844 1172 3481 
z
" transform="scale(0.015625)"/>
       </defs>
       <use xlink:href="#DejaVuSans-38"/>
       <use xlink:href="#DejaVuSans-30" transform="translate(63.623047 0)"/>
      </g>
     </g>
    </g>
    <g id="ytick_6">
     <g id="line2d_15">
      <g>
       <use xlink:href="#mcd4e953a6e" x="57.6" y="53.146537" style="stroke: #000000; stroke-width: 0.8"/>
      </g>
     </g>
     <g id="text_16">
      <!-- 100 -->
      <g transform="translate(31.5125 56.945756) scale(0.1 -0.1)">
       <use xlink:href="#DejaVuSans-31"/>
       <use xlink:href="#DejaVuSans-30" transform="translate(63.623047 0)"/>
       <use xlink:href="#DejaVuSans-30" transform="translate(127.246094 0)"/>
      </g>
     </g>
    </g>
    <g id="text_17">
     <!-- Accuracy within 5% (%) -->
     <g transform="translate(25.432812 233.872531) rotate(-90) scale(0.1 -0.1)">
      <defs>
       <path id="DejaVuSans-41" d="M 2188 4044 
L 1331 1722 
L 3047 1722 
L 2188 4044 
z
M 1831 4666 
L 2547 4666 
L 4325 0 
L 3669 0 
L 3244 1197 
L 1141 1197 
L 716 0 
L 50 0 
L 1831 4666 
z
" transform="scale(0.015625)"/>
       <path id="DejaVuSans-75" d="M 544 1381 
L 544 3500 
L 1119 3500 
L 1119 1403 
Q 1119 906 1312 657 
Q 1506 409 1894 409 
Q 2359 409 2629 706 
Q 2900 1003 2900 1516 
L 2900 3500 
L 3475 3500 
L 3475 0 
L 2900 0 
L 2900 538 
Q 2691 219 2414 64 
Q 2138 -91 1772 -91 
Q 1169 -91 856 284 
Q 544 659 544 1381 
z
M 1991 3584 
L 1991 3584 
z
" transform="scale(0.015625)"/>
       <path id="DejaVuSans-72" d="M 2631 2963 
Q 2534 3019 2420 3045 
Q 2306 3072 2169 3072 
Q 1681 3072 1420 2755 
Q 1159 2438 1159 1844 
L 1159 0 
L 581 0 
L 581 3500 
L 1159 3500 
L 1159 2956 
Q 1341 3275 1631 3429 
Q 1922 3584 2338 3584 
Q 2397 3584 2469 3576 
Q 2541 3569 2628 3553 
L 2631 2963 
z
" transform="scale(0.015625)"/>
       <path id="DejaVuSans-61" d="M 2194 1759 
Q 1497 1759 1228 1600 
Q 959 1441 959 1056 
Q 959 750 1161 570 
Q 1363 391 1709 391 
Q 2188 391 2477 730 
Q 2766 1069 2766 1631 
L 2766 1759 
L 2194 1759 
z
M 3341 1997 
L 3341 0 
L 2766 0 
L 2766 531 
Q 2569 213 2275 61 
Q 1981 -91 1556 -91 
Q 1019 -91 701 211 
Q 384 513 384 1019 
Q 384 1609 779 1909 
Q 1175 2209 1959 2209 
L 2766 2209 
L 2766 2266 
Q 2766 2663 2505 2880 
Q 2244 3097 1772 3097 
Q 1472 3097 1187 3025 
Q 903 2953 641 2809 
L 641 3341 
Q 956 3463 1253 3523 
Q 1550 3584 1831 3584 
Q 2591 3584 2966 3190 
Q 3341 2797 3341 1997 
z
" transform="scale(0.015625)"/>
       <path id="DejaVuSans-79" d="M 2059 -325 
Q 1816 -950 1584 -1140 
Q 1353 -1331 966 -1331 
L 506 -1331 
L 506 -850 
L 844 -850 
Q 1081 -850 1212 -737 
Q 1344 -625 1503 -206 
L 1606 56 
L 191 3500 
L 800 3500 
L 1894 763 
L 2988 3500 
L 3597 3500 
L 2059 -325 
z
" transform="scale(0.015625)"/>
       <path id="DejaVuSans-20" transform="scale(0.015625)"/>
       <path id="DejaVuSans-77" d="M 269 3500 
L 844 3500 
L 1563 769 
L 2278 3500 
L 2956 3500 
L 3675 769 
L 4391 3500 
L 4966 3500 
L 4050 0 
L 3372 0 
L 2619 2869 
L 1863 0 
L 1184 0 
L 269 3500 
z
" transform="scale(0.015625)"/>
       <path id="DejaVuSans-69" d="M 603 3500 
L 1178 3500 
L 1178 0 
L 603 0 
L 603 3500 
z
M 603 4863 
L 1178 4863 
L 1178 4134 
L 603 4134 
L 603 4863 
z
" transform="scale(0.015625)"/>
       <path id="DejaVuSans-74" d="M 1172 4494 
L 1172 3500 
L 2356 3500 
L 2356 3053 
L 1172 3053 
L 1172 1153 
Q 1172 725 1289 603 
Q 1406 481 1766 481 
L 2356 481 
L 2356 0 
L 1766 0 
Q 1100 0 847 248 
Q 594 497 594 1153 
L 594 3053 
L 172 3053 
L 172 3500 
L 594 3500 
L 594 4494 
L 1172 4494 
z
" transform="scale(0.015625)"/>
       <path id="DejaVuSans-6e" d="M 3513 2113 
L 3513 0 
L 2938 0 
L 2938 2094 
Q 2938 2591 2744 2837 
Q 2550 3084 2163 3084 
Q 1697 3084 1428 2787 
Q 1159 2491 1159 1978 
L 1159 0 
L 581 0 
L 581 3500 
L 1159 3500 
L 1159 2956 
Q 1366 3272 1645 3428 
Q 1925 3584 2291 3584 
Q 2894 3584 3203 3211 
Q 3513 2838 3513 2113 
z
" transform="scale(0.015625)"/>
       <path id="DejaVuSans-25" d="M 4653 2053 
Q 4381 2053 4226 1822 
Q 4072 1591 4072 1178 
Q 4072 772 4226 539 
Q 4381 306 4653 306 
Q 4919 306 5073 539 
Q 5228 772 5228 1178 
Q 5228 1588 5073 1820 
Q 4919 2053 4653 2053 
z
M 4653 2450 
Q 5147 2450 5437 2106 
Q 5728 1763 5728 1178 
Q 5728 594 5436 251 
Q 5144 -91 4653 -91 
Q 4153 -91 3862 251 
Q 3572 594 3572 1178 
Q 3572 1766 3864 2108 
Q 4156 2450 4653 2450 
z
M 1428 4353 
Q 1159 4353 1004 4120 
Q 850 3888 850 3481 
Q 850 3069 1003 2837 
Q 1156 2606 1428 2606 
Q 1700 2606 1854 2837 
Q 2009 3069 2009 3481 
Q 2009 3884 1853 4118 
Q 1697 4353 1428 4353 
z
M 4250 4750 
L 4750 4750 
L 1831 -91 
L 1331 -91 
L 4250 4750 
z
M 1428 4750 
Q 1922 4750 2215 4408 
Q 2509 4066 2509 3481 
Q 2509 2891 2217 2550 
Q 1925 2209 1428 2209 
Q 931 2209 642 2551 
Q 353 2894 353 3481 
Q 353 4063 643 4406 
Q 934 4750 1428 4750 
z
" transform="scale(0.015625)"/>
       <path id="DejaVuSans-28" d="M 1984 4856 
Q 1566 4138 1362 3434 
Q 1159 2731 1159 2009 
Q 1159 1288 1364 580 
Q 1569 -128 1984 -844 
L 1484 -844 
Q 1016 -109 783 600 
Q 550 1309 550 2009 
Q 550 2706 781 3412 
Q 1013 4119 1484 4856 
L 1984 4856 
z
" transform="scale(0.015625)"/>
       <path id="DejaVuSans-29" d="M 513 4856 
L 1013 4856 
Q 1481 4119 1714 3412 
Q 1947 2706 1947 2009 
Q 1947 1309 1714 600 
Q 1481 -109 1013 -844 
L 513 -844 
Q 928 -128 1133 580 
Q 1338 1288 1338 2009 
Q 1338 2731 1133 3434 
Q 928 4138 513 4856 
z
" transform="scale(0.015625)"/>
      </defs>
      <use xlink:href="#DejaVuSans-41"/>
      <use xlink:href="#DejaVuSans-63" transform="translate(66.658203 0)"/>
      <use xlink:href="#DejaVuSans-63" transform="translate(121.638672 0)"/>
      <use xlink:href="#DejaVuSans-75" transform="translate(176.619141 0)"/>
      <use xlink:href="#DejaVuSans-72" transform="translate(239.998047 0)"/>
      <use xlink:href="#DejaVuSans-61" transform="translate(281.111328 0)"/>
      <use xlink:href="#DejaVuSans-63" transform="translate(342.390625 0)"/>
      <use xlink:href="#DejaVuSans-79" transform="translate(397.371094 0)"/>
      <use xlink:href="#DejaVuSans-20" transform="translate(456.550781 0)"/>
      <use xlink:href="#DejaVuSans-77" transform="translate(488.337891 0)"/>
      <use xlink:href="#DejaVuSans-69" transform="translate(570.125 0)"/>
      <use xlink:href="#DejaVuSans-74" transform="translate(597.908203 0)"/>
      <use xlink:href="#DejaVuSans-68" transform="translate(637.117188 0)"/>
      <use xlink:href="#DejaVuSans-69" transform="translate(700.496094 0)"/>
      <use xlink:href="#DejaVuSans-6e" transform="translate(728.279297 0)"/>
      <use xlink:href="#DejaVuSans-20" transform="translate(791.658203 0)"/>
      <use xlink:href="#DejaVuSans-35" transform="translate(823.445312 0)"/>
      <use xlink:href="#DejaVuSans-25" transform="translate(887.068359 0)"/>
      <use xlink:href="#DejaVuSans-20" transform="translate(982.087891 0)"/>
      <use xlink:href="#DejaVuSans-28" transform="translate(1013.875 0)"/>
      <use xlink:href="#DejaVuSans-25" transform="translate(1052.888672 0)"/>
      <use xlink:href="#DejaVuSans-29" transform="translate(1147.908203 0)"/>
     </g>
    </g>
   </g>
   <g id="line2d_16">
    <path d="M 73.832727 292.959219 
L 73.995055 289.166048 
L 74.157382 295.488 
L 74.319709 288.744585 
L 74.482036 290.851902 
L 74.644364 289.166048 
L 74.806691 290.008976 
L 74.969018 282.422634 
L 75.131345 280.73678 
L 75.293673 276.100682 
L 75.618327 282.001171 
L 75.780655 279.050926 
L 75.942982 273.993367 
L 76.267636 278.208 
L 76.429964 276.94361 
L 76.592291 278.208 
L 76.754618 276.94361 
L 76.916945 277.786536 
L 77.403927 274.41483 
L 77.566255 277.786536 
L 77.728582 273.150437 
L 77.890909 276.522147 
L 78.053236 274.41483 
L 78.377891 274.41483 
L 78.540218 273.993367 
L 78.702545 273.150437 
L 78.864873 273.993367 
L 79.351855 268.935803 
L 79.514182 271.464585 
L 79.676509 271.464585 
L 79.838836 272.728974 
L 80.001164 271.464585 
L 80.163491 273.993367 
L 80.325818 268.935803 
L 80.488145 276.100682 
L 81.137455 252.077267 
L 81.299782 252.920193 
L 81.462109 251.655804 
L 81.624436 252.077267 
L 81.786764 247.019707 
L 81.949091 250.812878 
L 82.111418 237.74751 
L 82.273745 235.218732 
L 82.5984 224.682141 
L 82.760727 222.153363 
L 82.923055 232.268483 
L 83.085382 233.53288 
L 83.247709 211.195317 
L 83.410036 214.567022 
L 83.572364 228.475316 
L 83.734691 215.831411 
L 83.897018 216.252874 
L 84.059345 219.203122 
L 84.384 206.98068 
L 84.546327 191.386533 
L 85.033309 214.145559 
L 85.195636 199.394338 
L 85.357964 197.287023 
L 85.520291 193.072385 
L 85.682618 196.022634 
L 86.1696 190.122144 
L 86.331927 180.84995 
L 86.494255 181.692876 
L 86.656582 194.758245 
L 86.818909 194.336782 
L 87.305891 177.056783 
L 87.468218 190.122144 
L 87.792873 172.420675 
L 88.117527 175.792394 
L 88.279855 181.271413 
L 88.442182 158.090918 
L 88.604509 154.719213 
L 88.766836 164.834341 
L 88.929164 197.708486 
L 89.091491 168.627508 
L 89.253818 159.776785 
L 89.416145 158.090918 
L 89.578473 186.32897 
L 89.7408 161.8841 
L 89.903127 174.52799 
L 90.065455 173.263601 
L 90.227782 201.08019 
L 90.714764 150.926046 
L 90.877091 143.76116 
L 91.201745 171.156286 
L 91.364073 176.213857 
L 91.688727 145.447027 
L 91.851055 144.604101 
L 92.013382 153.454824 
L 92.175709 150.08312 
L 92.338036 162.727026 
L 92.500364 166.09873 
L 92.662691 151.768972 
L 92.825018 155.562139 
L 92.987345 154.719213 
L 93.149673 135.3319 
L 93.312 146.289953 
L 93.474327 143.339697 
L 93.798982 133.224585 
L 93.961309 134.910437 
L 94.123636 155.562139 
L 94.285964 151.768972 
L 94.448291 162.305563 
L 94.772945 135.753363 
L 94.935273 128.167014 
L 95.0976 132.381659 
L 95.259927 139.54653 
L 95.422255 132.803122 
L 95.584582 132.803122 
L 95.746909 142.918234 
L 95.909236 137.017752 
L 96.071564 121.423605 
L 96.233891 117.208975 
L 96.396218 121.423605 
L 96.558545 117.630438 
L 96.720873 118.473364 
L 96.8832 125.216772 
L 97.045527 117.208975 
L 97.207855 124.795309 
L 97.532509 110.887015 
L 97.857164 126.059698 
L 98.019491 123.952383 
L 98.344145 115.10166 
L 98.506473 123.53092 
L 98.6688 140.810919 
L 98.831127 118.051901 
L 98.993455 112.99433 
L 99.155782 127.324087 
L 99.318109 124.373846 
L 99.480436 105.407996 
L 99.642764 103.722144 
L 100.292073 113.415808 
L 100.4544 106.250922 
L 100.616727 108.7797 
L 100.779055 120.580679 
L 100.941382 144.182638 
L 101.103709 131.538733 
L 101.266036 108.7797 
L 101.428364 113.415808 
L 101.590691 99.507514 
L 101.753018 126.059698 
L 101.915345 124.795309 
L 102.24 92.76409 
L 102.402327 103.722144 
L 102.564655 99.928977 
L 102.726982 106.250922 
L 102.889309 94.449942 
L 103.051636 91.499701 
L 103.213964 91.078238 
L 103.376291 111.308478 
L 103.538618 106.250922 
L 103.700945 94.449942 
L 103.863273 103.300681 
L 104.0256 100.35044 
L 104.187927 93.607016 
L 104.350255 100.35044 
L 104.512582 86.442145 
L 104.674909 96.557257 
L 104.837236 92.76409 
L 105.161891 123.53092 
L 105.486545 88.970923 
L 105.648873 101.614829 
L 105.8112 100.35044 
L 105.973527 111.729941 
L 106.135855 90.235312 
L 106.298182 99.928977 
L 106.460509 88.127997 
L 106.785164 86.442145 
L 106.947491 96.135794 
L 107.272145 92.342627 
L 107.434473 93.185553 
L 107.5968 81.806037 
L 107.921455 87.706534 
L 108.083782 83.913367 
L 108.246109 93.185553 
L 108.570764 86.020682 
L 108.895418 80.963111 
L 109.057745 112.151404 
L 109.220073 104.986533 
L 109.3824 86.863608 
L 109.544727 118.051901 
L 109.707055 86.863608 
L 109.869382 113.415808 
L 110.031709 118.894827 
L 110.194036 96.97872 
L 110.356364 97.400183 
L 110.518691 81.384574 
L 110.843345 106.672385 
L 111.005673 104.143607 
L 111.168 79.277259 
L 111.492655 83.070441 
L 111.654982 83.491904 
L 111.817309 88.970923 
L 111.979636 88.127997 
L 112.141964 88.54946 
L 112.304291 79.698722 
L 112.466618 80.120185 
L 112.628945 79.277259 
L 112.791273 81.806037 
L 112.9536 80.963111 
L 113.115927 81.806037 
L 113.278255 85.599219 
L 113.440582 85.599219 
L 113.602909 89.392386 
L 113.765236 79.698722 
L 113.927564 81.384574 
L 114.089891 77.591407 
L 114.414545 94.871405 
L 114.576873 78.01287 
L 114.7392 81.806037 
L 114.901527 80.541648 
L 115.226182 85.177756 
L 115.388509 78.855796 
L 115.550836 89.813849 
L 115.713164 81.806037 
L 115.875491 82.2275 
L 116.037818 75.905555 
L 116.362473 88.127997 
L 116.5248 80.963111 
L 116.687127 81.806037 
L 116.849455 78.855796 
L 117.011782 85.599219 
L 117.174109 80.120185 
L 117.498764 78.855796 
L 117.661091 95.714331 
L 117.823418 83.913367 
L 117.985745 80.541648 
L 118.148073 80.541648 
L 118.3104 100.771903 
L 118.472727 82.648978 
L 118.635055 99.086051 
L 118.797382 80.120185 
L 118.959709 95.714331 
L 119.284364 77.169944 
L 119.446691 78.855796 
L 119.609018 75.062629 
L 119.771345 81.384574 
L 119.933673 75.062629 
L 120.096 79.698722 
L 120.258327 75.062629 
L 120.420655 73.79824 
L 120.582982 74.219703 
L 120.745309 82.2275 
L 120.907636 79.277259 
L 121.069964 78.855796 
L 121.394618 85.177756 
L 121.556945 75.484092 
L 121.8816 79.277259 
L 122.043927 74.641166 
L 122.206255 74.641166 
L 122.530909 71.690925 
L 122.693236 79.277259 
L 122.855564 73.79824 
L 123.342545 80.541648 
L 123.504873 81.806037 
L 123.6672 75.062629 
L 123.829527 85.599219 
L 123.991855 72.533851 
L 124.316509 86.020682 
L 124.478836 75.062629 
L 124.641164 78.434333 
L 124.803491 75.484092 
L 124.965818 76.748481 
L 125.128145 84.756293 
L 125.4528 72.955314 
L 125.615127 72.112388 
L 125.777455 74.219703 
L 125.939782 72.112388 
L 126.102109 77.591407 
L 126.264436 72.112388 
L 126.426764 71.269462 
L 126.589091 75.062629 
L 126.751418 73.79824 
L 126.913745 96.557257 
L 127.076073 99.086051 
L 127.2384 77.591407 
L 127.400727 96.135794 
L 127.563055 75.484092 
L 127.725382 70.847999 
L 127.887709 92.76409 
L 128.050036 78.855796 
L 128.212364 90.235312 
L 128.374691 71.269462 
L 128.537018 100.35044 
L 128.699345 75.484092 
L 128.861673 82.648978 
L 129.024 81.384574 
L 129.348655 76.327018 
L 129.510982 70.847999 
L 129.673309 71.690925 
L 129.835636 70.426536 
L 129.997964 70.426536 
L 130.160291 72.533851 
L 130.322618 70.847999 
L 130.484945 81.384574 
L 130.647273 72.533851 
L 130.8096 82.2275 
L 130.971927 75.484092 
L 131.134255 75.905555 
L 131.296582 74.219703 
L 131.458909 70.426536 
L 131.621236 73.376777 
L 131.783564 79.698722 
L 131.945891 70.005073 
L 132.108218 81.384574 
L 132.432873 69.162147 
L 132.5952 78.855796 
L 132.757527 72.112388 
L 132.919855 77.591407 
L 133.082182 75.905555 
L 133.244509 80.541648 
L 133.406836 68.740684 
L 133.731491 71.690925 
L 133.893818 68.740684 
L 134.056145 71.269462 
L 134.218473 70.005073 
L 134.3808 70.426536 
L 134.543127 68.319221 
L 134.705455 70.426536 
L 134.867782 70.005073 
L 135.030109 71.269462 
L 135.192436 70.426536 
L 135.354764 79.277259 
L 135.517091 68.740684 
L 135.679418 73.376777 
L 136.004073 68.319221 
L 136.1664 68.740684 
L 136.491055 67.897757 
L 136.653382 70.847999 
L 136.978036 68.740684 
L 137.302691 67.897757 
L 137.465018 67.897757 
L 137.627345 74.641166 
L 137.789673 68.319221 
L 137.952 71.690925 
L 138.114327 67.054816 
L 138.276655 66.633353 
L 138.438982 68.740684 
L 138.601309 67.897757 
L 138.763636 70.426536 
L 139.088291 67.476294 
L 139.250618 66.633353 
L 139.412945 66.633353 
L 139.7376 71.269462 
L 139.899927 66.21189 
L 140.062255 77.169944 
L 140.224582 66.633353 
L 140.549236 69.58361 
L 140.711564 68.319221 
L 141.198545 81.806037 
L 141.360873 69.162147 
L 141.685527 89.813849 
L 141.847855 69.58361 
L 142.010182 69.58361 
L 142.334836 79.698722 
L 142.497164 66.633353 
L 142.659491 70.426536 
L 142.821818 69.58361 
L 142.984145 67.476294 
L 143.146473 69.162147 
L 143.3088 64.104575 
L 143.471127 67.476294 
L 143.795782 64.526038 
L 144.120436 66.21189 
L 144.282764 70.847999 
L 144.445091 69.58361 
L 144.769745 69.58361 
L 145.0944 64.104575 
L 145.256727 64.947501 
L 145.419055 68.740684 
L 145.581382 66.21189 
L 145.743709 66.21189 
L 145.906036 64.526038 
L 146.068364 64.947501 
L 146.230691 69.58361 
L 146.555345 97.821646 
L 146.717673 94.449942 
L 146.88 67.054816 
L 147.042327 75.484092 
L 147.366982 64.104575 
L 147.691636 70.005073 
L 148.016291 64.947501 
L 148.178618 70.005073 
L 148.340945 69.162147 
L 148.503273 71.269462 
L 148.6656 75.484092 
L 148.827927 91.921164 
L 148.990255 86.442145 
L 149.152582 67.476294 
L 149.314909 62.840186 
L 149.477236 65.368964 
L 149.639564 65.790427 
L 149.801891 67.054816 
L 149.964218 62.840186 
L 150.126545 63.683112 
L 150.288873 70.005073 
L 150.4512 66.21189 
L 150.613527 68.740684 
L 150.775855 65.790427 
L 150.938182 71.269462 
L 151.100509 68.740684 
L 151.262836 68.319221 
L 151.425164 65.790427 
L 151.587491 67.054816 
L 151.749818 64.947501 
L 151.912145 66.633353 
L 152.074473 65.790427 
L 152.2368 63.683112 
L 152.399127 66.21189 
L 152.561455 65.790427 
L 152.723782 64.947501 
L 152.886109 66.21189 
L 153.048436 65.368964 
L 153.535418 72.112388 
L 153.697745 62.840186 
L 154.0224 77.169944 
L 154.184727 66.21189 
L 154.347055 62.840186 
L 154.671709 69.58361 
L 154.834036 66.633353 
L 154.996364 67.476294 
L 155.158691 66.633353 
L 155.483345 69.58361 
L 155.808 63.261649 
L 155.970327 66.21189 
L 156.132655 63.683112 
L 156.294982 71.269462 
L 156.457309 64.104575 
L 156.619636 67.476294 
L 156.781964 80.963111 
L 156.944291 76.748481 
L 157.106618 69.58361 
L 157.268945 69.162147 
L 157.5936 75.905555 
L 157.755927 66.633353 
L 157.918255 66.21189 
L 158.405236 62.418723 
L 158.729891 82.2275 
L 159.054545 63.261649 
L 159.216873 63.261649 
L 159.3792 64.104575 
L 159.703855 72.112388 
L 159.866182 72.533851 
L 160.028509 64.104575 
L 160.190836 64.947501 
L 160.353164 64.947501 
L 160.515491 65.790427 
L 160.677818 65.368964 
L 160.840145 65.368964 
L 161.1648 82.2275 
L 161.327127 64.947501 
L 161.489455 69.162147 
L 161.651782 64.104575 
L 161.814109 63.683112 
L 161.976436 73.79824 
L 162.138764 71.690925 
L 162.301091 64.947501 
L 162.463418 64.947501 
L 162.625745 64.526038 
L 162.788073 62.418723 
L 162.9504 66.633353 
L 163.112727 63.261649 
L 163.275055 65.790427 
L 163.437382 66.21189 
L 163.599709 63.683112 
L 163.762036 70.005073 
L 163.924364 70.426536 
L 164.249018 66.21189 
L 164.411345 67.054816 
L 164.573673 73.79824 
L 164.898327 62.840186 
L 165.060655 62.418723 
L 165.385309 64.947501 
L 165.547636 65.368964 
L 165.709964 62.418723 
L 165.872291 63.261649 
L 166.034618 61.575797 
L 166.359273 81.384574 
L 166.5216 68.319221 
L 166.683927 66.633353 
L 166.846255 62.840186 
L 167.008582 62.840186 
L 167.170909 64.947501 
L 167.333236 70.847999 
L 167.495564 70.426536 
L 167.820218 62.840186 
L 167.982545 63.683112 
L 168.144873 70.847999 
L 168.469527 62.418723 
L 168.631855 61.575797 
L 168.794182 65.368964 
L 169.118836 65.368964 
L 169.281164 64.526038 
L 169.443491 66.633353 
L 169.605818 72.533851 
L 169.768145 65.368964 
L 169.930473 64.104575 
L 170.0928 67.054816 
L 170.579782 62.418723 
L 170.742109 66.21189 
L 170.904436 62.418723 
L 171.066764 63.683112 
L 171.229091 61.99726 
L 171.391418 62.418723 
L 171.553745 67.054816 
L 171.716073 62.418723 
L 172.040727 68.319221 
L 172.365382 64.104575 
L 172.527709 66.21189 
L 172.690036 60.732871 
L 172.852364 61.154334 
L 173.014691 67.897757 
L 173.177018 67.476294 
L 173.339345 64.947501 
L 173.501673 78.01287 
L 173.826327 65.368964 
L 173.988655 66.21189 
L 174.150982 61.154334 
L 174.313309 61.154334 
L 174.475636 63.261649 
L 174.637964 67.476294 
L 174.962618 62.418723 
L 175.124945 61.99726 
L 175.287273 61.154334 
L 175.4496 78.434333 
L 175.611927 63.261649 
L 175.774255 61.575797 
L 175.936582 61.575797 
L 176.098909 60.732871 
L 176.261236 63.683112 
L 176.423564 60.732871 
L 176.585891 65.368964 
L 176.748218 64.104575 
L 176.910545 64.526038 
L 177.072873 65.790427 
L 177.397527 60.732871 
L 177.559855 65.368964 
L 177.884509 61.575797 
L 178.046836 60.732871 
L 178.209164 61.575797 
L 178.371491 63.261649 
L 178.533818 61.154334 
L 178.696145 61.575797 
L 179.0208 66.633353 
L 179.183127 62.418723 
L 179.345455 65.368964 
L 179.670109 61.575797 
L 179.832436 64.104575 
L 179.994764 64.104575 
L 180.157091 67.476294 
L 180.319418 60.732871 
L 180.481745 65.790427 
L 180.644073 61.154334 
L 180.8064 61.575797 
L 180.968727 61.154334 
L 181.131055 61.154334 
L 181.293382 66.21189 
L 181.455709 65.790427 
L 181.780364 60.732871 
L 181.942691 62.418723 
L 182.105018 59.889945 
L 182.267345 60.732871 
L 182.429673 63.683112 
L 182.592 61.154334 
L 182.754327 61.575797 
L 182.916655 62.840186 
L 183.078982 66.633353 
L 183.403636 59.047019 
L 183.565964 67.476294 
L 183.728291 65.790427 
L 183.890618 60.732871 
L 184.052945 62.840186 
L 184.215273 62.418723 
L 184.3776 60.311408 
L 184.539927 68.740684 
L 184.702255 59.889945 
L 184.864582 65.368964 
L 185.026909 67.054816 
L 185.189236 60.732871 
L 185.351564 59.889945 
L 185.513891 63.683112 
L 185.676218 59.468482 
L 185.838545 66.633353 
L 186.1632 60.311408 
L 186.325527 58.204093 
L 186.650182 70.005073 
L 186.812509 67.054816 
L 186.974836 61.99726 
L 187.137164 62.418723 
L 187.299491 59.047019 
L 187.461818 60.311408 
L 187.624145 65.368964 
L 187.786473 65.368964 
L 187.9488 69.162147 
L 188.111127 59.889945 
L 188.273455 65.368964 
L 188.598109 57.78263 
L 188.760436 67.897757 
L 188.922764 60.732871 
L 189.085091 66.633353 
L 189.247418 58.204093 
L 189.409745 64.526038 
L 189.572073 59.889945 
L 189.7344 58.625556 
L 189.896727 60.311408 
L 190.059055 67.054816 
L 190.383709 58.204093 
L 190.546036 60.311408 
L 190.708364 69.162147 
L 190.870691 70.426536 
L 191.033018 57.78263 
L 191.195345 59.047019 
L 191.357673 67.054816 
L 191.52 60.311408 
L 191.682327 60.732871 
L 191.844655 61.99726 
L 192.006982 68.740684 
L 192.169309 63.261649 
L 192.331636 68.319221 
L 192.493964 58.204093 
L 192.656291 59.889945 
L 192.818618 60.311408 
L 193.143273 61.99726 
L 193.3056 62.418723 
L 193.630255 66.21189 
L 193.792582 65.368964 
L 193.954909 72.955314 
L 194.117236 73.376777 
L 194.604218 61.575797 
L 194.766545 73.376777 
L 194.928873 62.840186 
L 195.0912 61.575797 
L 195.253527 61.99726 
L 195.415855 59.047019 
L 195.578182 69.58361 
L 195.740509 59.047019 
L 195.902836 67.897757 
L 196.227491 58.204093 
L 196.552145 72.955314 
L 197.039127 58.204093 
L 197.201455 58.204093 
L 197.363782 65.790427 
L 197.526109 62.840186 
L 197.688436 73.79824 
L 197.850764 68.319221 
L 198.013091 73.79824 
L 198.337745 59.047019 
L 198.500073 62.418723 
L 198.6624 57.78263 
L 198.824727 58.625556 
L 198.987055 68.319221 
L 199.149382 70.005073 
L 199.311709 75.062629 
L 199.474036 61.575797 
L 199.961018 64.526038 
L 200.123345 72.533851 
L 200.285673 59.889945 
L 200.448 85.599219 
L 200.610327 67.897757 
L 200.934982 59.468482 
L 201.097309 58.625556 
L 201.259636 61.154334 
L 201.421964 59.468482 
L 201.584291 60.311408 
L 201.746618 57.361167 
L 202.2336 74.219703 
L 202.395927 71.269462 
L 202.720582 57.78263 
L 203.369891 70.426536 
L 203.532218 63.683112 
L 203.694545 69.162147 
L 203.856873 67.476294 
L 204.181527 56.096778 
L 204.343855 60.311408 
L 204.506182 60.732871 
L 204.668509 64.947501 
L 204.830836 64.104575 
L 204.993164 59.468482 
L 205.155491 59.468482 
L 205.317818 66.21189 
L 205.480145 58.625556 
L 205.642473 65.368964 
L 205.8048 57.361167 
L 205.967127 60.311408 
L 206.129455 57.78263 
L 206.291782 65.790427 
L 206.454109 57.361167 
L 206.616436 64.526038 
L 206.778764 58.204093 
L 206.941091 64.947501 
L 207.103418 57.361167 
L 207.265745 62.418723 
L 207.428073 58.625556 
L 207.5904 64.947501 
L 207.752727 61.154334 
L 207.915055 72.533851 
L 208.239709 65.790427 
L 208.402036 72.533851 
L 208.726691 59.047019 
L 208.889018 62.418723 
L 209.051345 59.889945 
L 209.538327 63.261649 
L 209.700655 58.625556 
L 209.862982 57.361167 
L 210.025309 61.99726 
L 210.187636 72.112388 
L 210.349964 60.732871 
L 210.512291 66.21189 
L 210.674618 61.154334 
L 210.836945 60.732871 
L 210.999273 57.361167 
L 211.1616 60.732871 
L 211.323927 57.78263 
L 211.486255 60.732871 
L 211.648582 61.154334 
L 211.973236 56.518241 
L 212.135564 59.468482 
L 212.297891 59.889945 
L 212.622545 55.675315 
L 212.784873 61.154334 
L 212.9472 59.047019 
L 213.109527 59.047019 
L 213.271855 62.840186 
L 213.434182 58.204093 
L 213.758836 58.204093 
L 213.921164 57.78263 
L 214.245818 59.468482 
L 214.408145 57.78263 
L 214.570473 59.468482 
L 214.7328 56.518241 
L 215.057455 59.047019 
L 215.219782 57.361167 
L 215.382109 57.78263 
L 215.544436 64.526038 
L 215.706764 59.468482 
L 215.869091 64.947501 
L 216.031418 60.732871 
L 216.193745 64.104575 
L 216.356073 59.889945 
L 216.843055 56.939704 
L 217.005382 66.633353 
L 217.167709 57.78263 
L 217.330036 59.468482 
L 217.492364 57.361167 
L 217.817018 59.047019 
L 217.979345 56.096778 
L 218.141673 62.418723 
L 218.304 58.625556 
L 218.466327 58.204093 
L 218.628655 61.154334 
L 218.790982 58.204093 
L 218.953309 59.047019 
L 219.277964 56.096778 
L 219.440291 56.518241 
L 219.602618 60.732871 
L 219.764945 56.939704 
L 219.927273 58.625556 
L 220.0896 57.361167 
L 220.414255 71.269462 
L 220.576582 57.78263 
L 220.901236 74.641166 
L 221.063564 59.047019 
L 221.225891 57.78263 
L 221.388218 59.047019 
L 221.550545 58.204093 
L 221.712873 66.21189 
L 221.8752 58.625556 
L 222.037527 64.104575 
L 222.199855 57.361167 
L 222.362182 59.047019 
L 222.524509 56.939704 
L 222.686836 56.518241 
L 222.849164 63.683112 
L 223.011491 60.311408 
L 223.173818 65.368964 
L 223.336145 66.633353 
L 223.498473 65.368964 
L 223.823127 59.047019 
L 223.985455 61.154334 
L 224.147782 57.78263 
L 224.310109 61.575797 
L 224.472436 56.518241 
L 224.634764 57.78263 
L 224.797091 57.361167 
L 224.959418 59.889945 
L 225.121745 59.468482 
L 225.284073 58.204093 
L 225.4464 58.625556 
L 225.608727 60.732871 
L 225.771055 59.889945 
L 225.933382 78.855796 
L 226.095709 62.418723 
L 226.258036 63.261649 
L 226.420364 78.434333 
L 226.582691 62.840186 
L 226.907345 83.913367 
L 227.232 72.955314 
L 227.394327 61.154334 
L 227.556655 64.104575 
L 227.718982 58.204093 
L 228.043636 70.426536 
L 228.205964 75.484092 
L 228.368291 59.047019 
L 228.530618 73.376777 
L 228.692945 63.261649 
L 228.855273 64.104575 
L 229.0176 55.253852 
L 229.179927 61.154334 
L 229.342255 61.99726 
L 229.504582 59.889945 
L 229.666909 61.99726 
L 229.829236 55.675315 
L 230.153891 60.732871 
L 230.316218 59.889945 
L 230.478545 58.204093 
L 230.640873 59.889945 
L 230.8032 58.204093 
L 230.965527 62.418723 
L 231.127855 58.625556 
L 231.290182 59.468482 
L 231.452509 55.675315 
L 231.614836 62.840186 
L 231.777164 59.889945 
L 231.939491 61.99726 
L 232.101818 55.253852 
L 232.264145 57.78263 
L 232.426473 57.361167 
L 232.5888 59.047019 
L 232.751127 56.518241 
L 232.913455 67.476294 
L 233.075782 57.361167 
L 233.238109 56.096778 
L 233.400436 58.625556 
L 233.562764 57.78263 
L 233.725091 58.625556 
L 233.887418 56.096778 
L 234.049745 58.204093 
L 234.212073 56.939704 
L 234.3744 62.840186 
L 234.536727 57.78263 
L 234.699055 61.99726 
L 234.861382 55.675315 
L 235.186036 59.468482 
L 235.510691 55.253852 
L 235.673018 56.518241 
L 235.835345 61.99726 
L 235.997673 56.096778 
L 236.322327 56.939704 
L 236.484655 55.253852 
L 236.646982 59.047019 
L 236.809309 55.675315 
L 236.971636 55.675315 
L 237.133964 64.947501 
L 237.296291 56.096778 
L 237.458618 60.732871 
L 237.620945 56.518241 
L 237.783273 70.847999 
L 238.107927 59.468482 
L 238.270255 70.005073 
L 238.594909 54.832389 
L 238.757236 72.955314 
L 238.919564 72.955314 
L 239.081891 61.99726 
L 239.244218 76.327018 
L 239.406545 56.518241 
L 239.568873 55.675315 
L 239.7312 64.526038 
L 239.893527 63.261649 
L 240.055855 74.641166 
L 240.218182 60.732871 
L 240.380509 61.99726 
L 240.705164 56.096778 
L 240.867491 56.518241 
L 241.029818 55.675315 
L 241.192145 67.476294 
L 241.5168 55.675315 
L 242.003782 68.740684 
L 242.166109 63.683112 
L 242.328436 62.418723 
L 242.653091 55.675315 
L 242.815418 55.675315 
L 242.977745 62.418723 
L 243.140073 60.311408 
L 243.3024 56.096778 
L 243.627055 64.526038 
L 244.114036 55.675315 
L 244.276364 64.526038 
L 244.601018 68.319221 
L 244.763345 57.78263 
L 244.925673 57.78263 
L 245.088 55.253852 
L 245.250327 55.675315 
L 245.412655 56.939704 
L 245.574982 55.253852 
L 245.737309 55.253852 
L 245.899636 56.939704 
L 246.061964 56.096778 
L 246.224291 60.732871 
L 246.386618 55.253852 
L 246.548945 56.939704 
L 246.711273 56.518241 
L 246.8736 56.518241 
L 247.035927 64.947501 
L 247.198255 56.518241 
L 247.360582 56.518241 
L 247.685236 62.418723 
L 247.847564 56.518241 
L 248.009891 56.939704 
L 248.172218 54.832389 
L 248.496873 60.732871 
L 248.6592 60.732871 
L 248.821527 64.526038 
L 248.983855 54.832389 
L 249.146182 59.047019 
L 249.308509 59.889945 
L 249.633164 56.939704 
L 249.795491 58.204093 
L 249.957818 55.253852 
L 250.282473 56.518241 
L 250.4448 54.832389 
L 250.607127 61.575797 
L 250.769455 55.675315 
L 250.931782 56.518241 
L 251.094109 56.518241 
L 251.256436 57.361167 
L 251.418764 56.518241 
L 251.581091 57.361167 
L 251.743418 56.939704 
L 251.905745 72.533851 
L 252.068073 56.939704 
L 252.2304 54.832389 
L 252.392727 62.840186 
L 252.879709 55.675315 
L 253.042036 58.625556 
L 253.204364 57.361167 
L 253.366691 57.78263 
L 253.529018 66.633353 
L 253.691345 55.253852 
L 253.853673 54.832389 
L 254.016 59.889945 
L 254.178327 61.154334 
L 254.502982 54.832389 
L 254.665309 57.361167 
L 254.827636 55.253852 
L 254.989964 55.253852 
L 255.152291 63.261649 
L 255.314618 57.361167 
L 255.476945 59.047019 
L 255.8016 54.832389 
L 255.963927 57.78263 
L 256.126255 58.204093 
L 256.288582 56.939704 
L 256.450909 58.204093 
L 256.613236 58.204093 
L 256.775564 56.939704 
L 256.937891 61.154334 
L 257.100218 55.675315 
L 257.262545 58.204093 
L 257.424873 67.476294 
L 257.5872 56.096778 
L 257.749527 54.832389 
L 257.911855 58.625556 
L 258.074182 56.939704 
L 258.236509 64.526038 
L 258.885818 54.832389 
L 259.048145 56.939704 
L 259.210473 56.096778 
L 259.3728 56.939704 
L 259.535127 55.675315 
L 259.697455 57.78263 
L 259.859782 55.253852 
L 260.184436 67.476294 
L 260.346764 66.21189 
L 260.671418 55.253852 
L 260.996073 69.58361 
L 261.1584 55.253852 
L 261.320727 60.311408 
L 261.483055 56.939704 
L 261.645382 68.319221 
L 261.807709 67.476294 
L 261.970036 64.526038 
L 262.132364 56.939704 
L 262.294691 57.361167 
L 262.457018 54.832389 
L 262.619345 57.78263 
L 262.781673 58.204093 
L 262.944 60.311408 
L 263.106327 59.468482 
L 263.268655 55.253852 
L 263.430982 54.832389 
L 263.593309 57.78263 
L 263.755636 55.253852 
L 263.917964 64.526038 
L 264.080291 58.204093 
L 264.242618 57.361167 
L 264.404945 55.675315 
L 264.567273 55.675315 
L 264.7296 57.361167 
L 264.891927 55.253852 
L 265.054255 59.468482 
L 265.378909 55.675315 
L 265.541236 55.253852 
L 265.865891 56.096778 
L 266.028218 57.78263 
L 266.190545 54.832389 
L 266.352873 58.625556 
L 266.5152 55.253852 
L 266.677527 54.410926 
L 266.839855 56.939704 
L 267.164509 57.78263 
L 267.326836 57.78263 
L 267.489164 54.832389 
L 267.651491 59.468482 
L 267.813818 55.253852 
L 267.976145 55.675315 
L 268.138473 55.253852 
L 268.463127 61.154334 
L 268.625455 56.939704 
L 268.787782 57.361167 
L 268.950109 54.832389 
L 269.112436 56.939704 
L 269.274764 65.790427 
L 269.437091 60.311408 
L 269.599418 66.633353 
L 270.248727 54.410926 
L 270.411055 57.361167 
L 270.898036 54.410926 
L 271.222691 58.625556 
L 271.385018 64.947501 
L 271.547345 65.790427 
L 271.709673 56.939704 
L 272.034327 59.889945 
L 272.196655 60.732871 
L 272.358982 60.732871 
L 272.521309 54.832389 
L 272.683636 55.253852 
L 272.845964 54.832389 
L 273.008291 55.675315 
L 273.170618 55.675315 
L 273.332945 62.840186 
L 273.495273 56.939704 
L 273.6576 57.361167 
L 273.819927 63.261649 
L 273.982255 54.410926 
L 274.144582 63.261649 
L 274.306909 57.78263 
L 274.631564 64.104575 
L 274.793891 69.58361 
L 274.956218 58.204093 
L 275.118545 61.154334 
L 275.280873 59.468482 
L 275.4432 55.675315 
L 275.605527 57.361167 
L 275.930182 55.675315 
L 276.092509 56.096778 
L 276.254836 71.690925 
L 276.417164 71.269462 
L 276.579491 64.526038 
L 276.741818 83.913367 
L 276.904145 61.99726 
L 277.066473 64.104575 
L 277.391127 57.361167 
L 277.553455 57.361167 
L 277.715782 56.518241 
L 277.878109 57.78263 
L 278.202764 56.096778 
L 278.365091 61.154334 
L 278.527418 56.939704 
L 278.689745 56.096778 
L 278.852073 60.311408 
L 279.0144 54.832389 
L 279.176727 54.410926 
L 279.339055 55.253852 
L 279.501382 58.625556 
L 279.826036 54.410926 
L 279.988364 55.253852 
L 280.150691 54.410926 
L 280.313018 54.832389 
L 280.475345 53.989463 
L 280.637673 54.410926 
L 280.8 56.518241 
L 280.962327 54.410926 
L 281.449309 54.410926 
L 281.611636 54.832389 
L 281.773964 58.204093 
L 281.936291 65.368964 
L 282.098618 64.104575 
L 282.260945 60.732871 
L 282.423273 60.311408 
L 282.5856 54.410926 
L 282.747927 54.832389 
L 282.910255 54.410926 
L 283.234909 54.410926 
L 283.559564 57.361167 
L 283.721891 55.253852 
L 283.884218 56.518241 
L 284.208873 54.832389 
L 284.3712 54.832389 
L 284.533527 54.410926 
L 284.858182 55.675315 
L 285.020509 53.989463 
L 285.182836 55.253852 
L 285.345164 54.410926 
L 285.507491 59.468482 
L 285.669818 54.410926 
L 285.832145 54.410926 
L 285.994473 58.204093 
L 286.1568 57.78263 
L 286.319127 55.675315 
L 286.481455 55.675315 
L 286.643782 54.410926 
L 286.968436 81.806037 
L 287.130764 63.683112 
L 287.293091 60.311408 
L 287.455418 60.311408 
L 287.617745 59.889945 
L 287.780073 53.989463 
L 287.9424 55.675315 
L 288.104727 63.683112 
L 288.267055 58.204093 
L 288.429382 59.468482 
L 288.591709 58.204093 
L 288.754036 58.204093 
L 288.916364 54.832389 
L 289.078691 53.989463 
L 289.241018 59.047019 
L 289.403345 55.253852 
L 289.565673 65.368964 
L 290.052655 55.253852 
L 290.214982 55.253852 
L 290.377309 56.096778 
L 290.701964 59.889945 
L 291.026618 54.832389 
L 291.188945 55.253852 
L 291.351273 56.518241 
L 291.838255 54.410926 
L 292.000582 53.989463 
L 292.162909 54.410926 
L 292.325236 56.096778 
L 292.487564 54.410926 
L 292.649891 53.989463 
L 292.812218 53.989463 
L 292.974545 54.832389 
L 293.136873 53.989463 
L 293.2992 54.832389 
L 293.461527 53.989463 
L 293.623855 53.989463 
L 293.786182 56.939704 
L 294.110836 53.989463 
L 294.273164 56.518241 
L 294.435491 55.675315 
L 294.597818 56.518241 
L 294.760145 53.989463 
L 294.922473 53.989463 
L 295.0848 57.361167 
L 295.247127 57.78263 
L 295.409455 54.410926 
L 295.571782 58.625556 
L 295.734109 59.468482 
L 295.896436 58.625556 
L 296.058764 67.476294 
L 296.221091 56.096778 
L 296.383418 53.989463 
L 296.708073 62.418723 
L 296.8704 57.361167 
L 297.195055 55.253852 
L 297.357382 58.204093 
L 297.519709 54.832389 
L 297.682036 54.832389 
L 297.844364 55.253852 
L 298.006691 56.518241 
L 298.169018 53.989463 
L 298.331345 54.832389 
L 298.493673 54.410926 
L 298.656 55.253852 
L 298.818327 54.832389 
L 298.980655 53.989463 
L 299.142982 54.410926 
L 299.305309 54.410926 
L 299.467636 53.989463 
L 299.629964 54.410926 
L 299.792291 53.989463 
L 300.116945 53.989463 
L 300.279273 56.939704 
L 300.4416 54.410926 
L 300.603927 56.939704 
L 300.928582 54.410926 
L 301.090909 58.204093 
L 301.253236 54.832389 
L 301.415564 54.410926 
L 301.577891 54.410926 
L 301.740218 54.832389 
L 302.064873 53.989463 
L 302.2272 53.989463 
L 302.389527 56.096778 
L 302.551855 56.096778 
L 302.714182 55.675315 
L 302.876509 59.047019 
L 303.038836 53.989463 
L 303.201164 74.219703 
L 303.363491 55.675315 
L 303.525818 63.261649 
L 303.688145 64.104575 
L 303.850473 55.253852 
L 304.175127 76.748481 
L 304.337455 74.641166 
L 304.662109 53.568 
L 304.824436 57.361167 
L 304.986764 54.410926 
L 305.149091 54.832389 
L 305.311418 57.361167 
L 305.473745 56.096778 
L 305.636073 56.518241 
L 305.7984 55.253852 
L 305.960727 60.311408 
L 306.285382 53.989463 
L 306.610036 55.675315 
L 306.772364 54.832389 
L 307.259345 54.832389 
L 307.584 56.939704 
L 307.746327 56.096778 
L 307.908655 53.989463 
L 308.070982 54.832389 
L 308.233309 54.832389 
L 308.395636 55.675315 
L 308.557964 60.311408 
L 308.720291 54.410926 
L 308.882618 61.575797 
L 309.044945 56.096778 
L 309.207273 57.78263 
L 309.3696 55.253852 
L 309.531927 55.675315 
L 309.694255 55.675315 
L 309.856582 56.518241 
L 310.018909 55.253852 
L 310.181236 55.253852 
L 310.343564 54.410926 
L 310.505891 55.253852 
L 310.668218 53.989463 
L 310.992873 54.832389 
L 311.1552 54.410926 
L 311.317527 56.518241 
L 311.804509 54.410926 
L 311.966836 59.468482 
L 312.129164 54.410926 
L 312.291491 55.253852 
L 312.453818 58.204093 
L 312.616145 56.518241 
L 312.778473 56.518241 
L 312.9408 59.889945 
L 313.103127 55.253852 
L 313.590109 78.434333 
L 313.914764 54.832389 
L 314.077091 55.253852 
L 314.239418 56.939704 
L 314.564073 53.989463 
L 315.051055 55.253852 
L 315.213382 55.253852 
L 315.375709 55.675315 
L 315.538036 55.253852 
L 315.862691 70.847999 
L 316.025018 62.418723 
L 316.187345 62.418723 
L 316.349673 63.261649 
L 316.512 64.947501 
L 316.674327 72.112388 
L 316.836655 64.526038 
L 316.998982 65.368964 
L 317.323636 74.219703 
L 317.485964 61.154334 
L 317.810618 84.33483 
L 317.972945 70.847999 
L 318.135273 70.005073 
L 318.2976 70.426536 
L 318.459927 56.518241 
L 318.622255 55.253852 
L 318.784582 56.939704 
L 319.109236 53.989463 
L 319.271564 55.253852 
L 319.433891 53.989463 
L 319.596218 56.939704 
L 319.758545 57.361167 
L 319.920873 55.675315 
L 320.0832 55.675315 
L 320.245527 54.832389 
L 320.407855 55.253852 
L 320.570182 55.253852 
L 320.732509 55.675315 
L 320.894836 53.989463 
L 321.057164 54.832389 
L 321.219491 54.410926 
L 321.544145 55.675315 
L 321.8688 53.989463 
L 322.031127 54.410926 
L 322.193455 55.675315 
L 322.355782 54.410926 
L 322.680436 55.253852 
L 322.842764 53.989463 
L 323.005091 54.410926 
L 323.167418 54.410926 
L 323.329745 54.832389 
L 323.492073 53.989463 
L 323.6544 56.939704 
L 323.816727 53.989463 
L 324.141382 53.989463 
L 324.303709 55.675315 
L 324.466036 53.989463 
L 324.790691 53.989463 
L 324.953018 54.410926 
L 325.277673 54.410926 
L 325.602327 56.518241 
L 325.764655 54.410926 
L 325.926982 54.832389 
L 326.089309 54.410926 
L 326.413964 54.410926 
L 326.576291 54.832389 
L 326.900945 56.096778 
L 327.063273 53.989463 
L 327.2256 53.989463 
L 327.550255 56.096778 
L 327.712582 53.989463 
L 327.874909 55.253852 
L 328.037236 53.989463 
L 328.199564 54.410926 
L 328.361891 53.989463 
L 328.686545 55.675315 
L 328.848873 56.096778 
L 329.0112 56.096778 
L 329.173527 59.468482 
L 329.335855 58.204093 
L 329.498182 53.989463 
L 329.822836 55.675315 
L 330.147491 54.410926 
L 330.309818 54.410926 
L 330.472145 54.832389 
L 330.634473 54.410926 
L 330.7968 55.253852 
L 331.121455 53.989463 
L 331.283782 55.253852 
L 331.446109 54.410926 
L 331.608436 61.99726 
L 331.770764 62.418723 
L 332.095418 58.204093 
L 332.257745 61.99726 
L 332.420073 59.468482 
L 332.744727 65.368964 
L 332.907055 53.989463 
L 333.069382 55.675315 
L 333.231709 54.410926 
L 333.394036 54.832389 
L 333.556364 59.468482 
L 333.881018 54.410926 
L 334.043345 56.096778 
L 334.205673 62.418723 
L 334.692655 54.832389 
L 334.854982 54.832389 
L 335.017309 53.989463 
L 335.179636 54.832389 
L 335.341964 53.989463 
L 335.504291 55.253852 
L 335.666618 59.047019 
L 335.828945 54.832389 
L 335.991273 54.410926 
L 336.1536 55.253852 
L 336.315927 55.253852 
L 336.478255 58.625556 
L 336.640582 59.047019 
L 336.965236 53.989463 
L 337.127564 53.989463 
L 337.289891 54.832389 
L 337.452218 56.518241 
L 337.614545 56.096778 
L 337.9392 54.410926 
L 338.101527 53.989463 
L 338.426182 53.989463 
L 338.588509 54.410926 
L 338.750836 54.410926 
L 338.913164 56.096778 
L 339.075491 54.832389 
L 339.237818 58.204093 
L 339.400145 54.832389 
L 339.562473 56.518241 
L 339.7248 54.832389 
L 339.887127 55.253852 
L 340.049455 62.840186 
L 340.211782 57.78263 
L 340.374109 57.361167 
L 340.536436 63.683112 
L 340.698764 56.096778 
L 340.861091 53.989463 
L 341.348073 53.989463 
L 341.5104 55.253852 
L 341.672727 53.989463 
L 341.997382 57.361167 
L 342.159709 54.410926 
L 342.322036 53.989463 
L 342.484364 56.518241 
L 342.646691 56.096778 
L 342.809018 54.832389 
L 343.133673 60.311408 
L 343.458327 55.675315 
L 343.620655 62.840186 
L 343.945309 64.104575 
L 344.269964 53.989463 
L 344.432291 53.989463 
L 344.594618 54.832389 
L 344.756945 53.989463 
L 345.243927 53.989463 
L 345.568582 56.939704 
L 345.730909 61.99726 
L 345.893236 56.096778 
L 346.055564 54.832389 
L 346.217891 54.832389 
L 346.380218 57.361167 
L 346.704873 55.675315 
L 347.029527 56.518241 
L 347.354182 54.832389 
L 347.516509 54.832389 
L 347.678836 57.361167 
L 347.841164 54.410926 
L 348.003491 54.410926 
L 348.165818 56.518241 
L 348.328145 60.732871 
L 348.490473 54.410926 
L 348.6528 54.410926 
L 348.815127 59.047019 
L 349.139782 54.832389 
L 349.302109 55.675315 
L 349.464436 57.361167 
L 349.789091 54.410926 
L 349.951418 58.625556 
L 350.113745 53.989463 
L 350.276073 55.675315 
L 350.4384 59.047019 
L 350.600727 53.989463 
L 350.763055 56.939704 
L 350.925382 56.518241 
L 351.250036 56.518241 
L 351.412364 53.989463 
L 351.574691 53.989463 
L 351.737018 54.832389 
L 351.899345 53.989463 
L 352.061673 56.518241 
L 352.224 55.675315 
L 352.386327 53.989463 
L 352.710982 53.989463 
L 352.873309 56.096778 
L 353.035636 53.989463 
L 353.197964 53.989463 
L 353.360291 56.096778 
L 353.522618 54.410926 
L 353.684945 56.096778 
L 353.847273 53.989463 
L 354.0096 54.410926 
L 354.171927 54.410926 
L 354.334255 56.939704 
L 354.496582 57.361167 
L 354.658909 54.410926 
L 354.821236 56.518241 
L 354.983564 56.518241 
L 355.308218 53.989463 
L 355.470545 53.989463 
L 355.632873 55.675315 
L 355.7952 55.253852 
L 355.957527 55.253852 
L 356.119855 53.989463 
L 356.282182 53.989463 
L 356.444509 56.096778 
L 356.606836 53.989463 
L 356.769164 54.410926 
L 356.931491 53.989463 
L 357.093818 54.832389 
L 357.256145 53.989463 
L 357.418473 56.939704 
L 357.743127 53.568 
L 357.905455 55.675315 
L 358.067782 54.410926 
L 358.230109 54.410926 
L 358.554764 56.096778 
L 358.717091 54.410926 
L 359.204073 54.410926 
L 359.3664 55.675315 
L 359.528727 54.832389 
L 359.853382 56.096778 
L 360.015709 59.468482 
L 360.178036 54.410926 
L 360.340364 56.096778 
L 360.502691 54.832389 
L 360.827345 56.096778 
L 361.152 53.989463 
L 361.314327 55.675315 
L 361.476655 55.675315 
L 361.801309 53.989463 
L 362.125964 57.78263 
L 362.288291 54.832389 
L 362.450618 53.989463 
L 362.612945 56.518241 
L 362.775273 53.989463 
L 362.9376 53.989463 
L 363.099927 58.625556 
L 363.262255 58.204093 
L 363.424582 57.361167 
L 363.586909 59.047019 
L 363.749236 57.361167 
L 363.911564 58.204093 
L 364.073891 56.939704 
L 364.398545 79.698722 
L 364.560873 75.484092 
L 364.7232 123.109457 
L 364.885527 102.036292 
L 365.047855 95.714331 
L 365.210182 94.028479 
L 365.372509 114.680197 
L 365.534836 115.10166 
L 365.697164 65.368964 
L 365.859491 67.054816 
L 366.021818 74.219703 
L 366.184145 59.468482 
L 366.346473 67.476294 
L 366.5088 54.832389 
L 366.671127 60.732871 
L 366.833455 55.253852 
L 366.995782 57.361167 
L 367.158109 56.939704 
L 367.320436 54.832389 
L 367.482764 54.832389 
L 367.645091 56.096778 
L 367.807418 55.675315 
L 367.969745 54.410926 
L 368.132073 54.832389 
L 368.2944 54.410926 
L 368.456727 54.832389 
L 368.619055 53.989463 
L 368.781382 53.989463 
L 368.943709 55.253852 
L 369.268364 53.989463 
L 370.404655 53.989463 
L 370.566982 54.410926 
L 370.729309 53.989463 
L 370.891636 53.989463 
L 371.053964 55.253852 
L 371.216291 53.989463 
L 372.190255 53.989463 
L 372.352582 53.568 
L 372.514909 54.832389 
L 372.677236 53.989463 
L 372.839564 54.832389 
L 373.001891 53.989463 
L 373.326545 53.989463 
L 373.488873 56.939704 
L 373.6512 56.518241 
L 373.813527 54.410926 
L 373.975855 53.989463 
L 374.138182 53.989463 
L 374.300509 54.410926 
L 374.462836 53.989463 
L 374.625164 55.675315 
L 374.787491 54.410926 
L 374.949818 55.675315 
L 375.112145 53.989463 
L 375.4368 53.989463 
L 375.599127 55.675315 
L 375.761455 53.989463 
L 375.923782 57.361167 
L 376.086109 55.675315 
L 376.248436 55.253852 
L 376.410764 53.989463 
L 376.573091 54.410926 
L 376.735418 53.989463 
L 377.060073 53.989463 
L 377.2224 57.361167 
L 377.384727 54.832389 
L 377.547055 55.253852 
L 377.709382 53.989463 
L 377.871709 53.989463 
L 378.034036 54.410926 
L 378.196364 53.989463 
L 378.521018 53.989463 
L 378.683345 53.568 
L 379.008 54.410926 
L 379.170327 56.096778 
L 379.332655 53.568 
L 379.494982 53.989463 
L 379.657309 58.204093 
L 379.819636 56.096778 
L 379.981964 58.204093 
L 380.468945 53.989463 
L 380.631273 54.832389 
L 380.7936 54.832389 
L 380.955927 56.939704 
L 381.118255 60.732871 
L 381.442909 54.832389 
L 381.605236 55.675315 
L 381.767564 53.989463 
L 381.929891 55.253852 
L 382.092218 68.319221 
L 382.416873 56.096778 
L 382.741527 53.989463 
L 382.903855 57.78263 
L 383.066182 57.78263 
L 383.228509 56.939704 
L 383.390836 53.989463 
L 383.553164 54.832389 
L 383.715491 54.832389 
L 383.877818 53.989463 
L 384.040145 54.410926 
L 384.202473 56.518241 
L 384.3648 61.99726 
L 384.527127 63.261649 
L 385.014109 54.410926 
L 385.176436 54.410926 
L 385.338764 57.361167 
L 385.663418 53.989463 
L 385.825745 53.989463 
L 385.988073 56.096778 
L 386.1504 54.410926 
L 386.312727 56.518241 
L 386.475055 54.410926 
L 386.637382 55.253852 
L 386.799709 53.989463 
L 387.611345 53.989463 
L 387.773673 53.568 
L 387.936 53.989463 
L 388.422982 53.989463 
L 388.585309 54.410926 
L 388.747636 53.568 
L 388.909964 53.568 
L 389.072291 53.989463 
L 389.234618 53.989463 
L 389.396945 56.096778 
L 389.559273 53.989463 
L 389.7216 53.568 
L 389.883927 53.989463 
L 390.046255 53.568 
L 390.208582 55.675315 
L 390.370909 53.989463 
L 390.533236 53.989463 
L 390.695564 55.675315 
L 390.857891 53.989463 
L 391.020218 53.989463 
L 391.182545 54.410926 
L 391.5072 53.568 
L 391.669527 54.410926 
L 391.831855 53.989463 
L 391.994182 53.989463 
L 392.156509 53.568 
L 392.318836 53.568 
L 392.481164 54.410926 
L 392.805818 53.568 
L 392.968145 53.568 
L 393.130473 53.989463 
L 393.455127 53.989463 
L 393.617455 54.410926 
L 393.779782 55.253852 
L 393.942109 53.989463 
L 394.104436 57.361167 
L 394.266764 54.410926 
L 394.429091 59.889945 
L 394.591418 54.410926 
L 394.753745 54.410926 
L 394.916073 56.096778 
L 395.0784 54.832389 
L 395.240727 59.889945 
L 395.403055 54.410926 
L 395.565382 57.361167 
L 395.727709 56.939704 
L 395.890036 54.832389 
L 396.052364 55.253852 
L 396.214691 54.410926 
L 396.377018 55.253852 
L 396.539345 53.989463 
L 396.701673 53.989463 
L 396.864 53.568 
L 397.026327 53.989463 
L 397.188655 54.832389 
L 397.350982 61.575797 
L 397.513309 57.78263 
L 397.675636 86.020682 
L 397.837964 53.989463 
L 398.324945 60.732871 
L 398.487273 67.897757 
L 398.487273 67.897757 
" clip-path="url(#p5b6360499d)" style="fill: none; stroke: #1f77b4; stroke-width: 1.5; stroke-linecap: square"/>
   </g>
   <g id="patch_3">
    <path d="M 57.6 307.584 
L 57.6 41.472 
" style="fill: none; stroke: #000000; stroke-width: 0.8; stroke-linejoin: miter; stroke-linecap: square"/>
   </g>
   <g id="patch_4">
    <path d="M 57.6 307.584 
L 414.72 307.584 
" style="fill: none; stroke: #000000; stroke-width: 0.8; stroke-linejoin: miter; stroke-linecap: square"/>
   </g>
  </g>
 </g>
 <defs>
  <clipPath id="p5b6360499d">
   <rect x="57.6" y="41.472" width="357.12" height="266.112"/>
  </clipPath>
 </defs>
</svg>
